<svg xmlns="http://www.w3.org/2000/svg" version="1.1" xmlns:xlink="http://www.w3.org/1999/xlink" xmlns:svgjs="http://svgjs.com/svgjs" width="83" height="83" viewBox="0 0 100 100"><g class="wrap" transform="matrix(1,0,0,1,0,0)"><defs class="background">
			<linearGradient id="Gradient_1" gradientUnits="userSpaceOnUse" x1="50" y1="7" x2="50" y2="55.2625" spreadMethod="pad">
<stop offset="0%" stop-color="#FFFFFF" stop-opacity="0.1"></stop>

<stop offset="100%" stop-color="#FFFFFF" stop-opacity="0.7"></stop>
</linearGradient><linearGradient id="Gradient_2" gradientUnits="userSpaceOnUse" x1="100" y1="51" x2="25" y2="50.85" spreadMethod="pad">
<stop offset="0%" stop-color="#FFFFFF" stop-opacity="0.1"></stop>

<stop offset="100%" stop-color="#FFFFFF" stop-opacity="0.7"></stop>
</linearGradient><linearGradient id="Gradient_3" gradientUnits="userSpaceOnUse" x1="0" y1="51" x2="77" y2="51" spreadMethod="pad">
<stop offset="0%" stop-color="#FFFFFF" stop-opacity="0.1"></stop>

<stop offset="100%" stop-color="#FFFFFF" stop-opacity="0.7"></stop>
</linearGradient><g id="background">
<path fill="url(#background-gradient)" stroke="none" d=" M 99.15 55 Q 100 53.5 100 51.55 100 49.6 99.15 48.1 L 77.55 10.45 Q 76.7 9 75 8.05 73.3 7 71.6 7 L 28.35 7 Q 26.7 7 25 8.05 23.3 9 22.45 10.45 L 0.8 48.1 Q 0 49.6 0 51.55 0 53.5 0.8 55 L 22.45 92.65 Q 23.3 94.1 25 95.1 26.7 96.05 28.35 96.05 L 71.6 96.05 Q 73.3 96.05 75 95.05 76.7 94.1 77.55 92.65 L 99.15 55 M 96.5 49.65 Q 96.9 50.4 96.9 51.55 96.9 52.7 96.5 53.4 L 74.9 91.1 Q 74.45 91.85 73.5 92.45 72.45 93 71.6 93 L 28.35 93 Q 27.5 93 26.5 92.45 25.5 91.85 25.1 91.1 L 3.5 53.4 Q 3.05 52.7 3.05 51.55 3.05 50.4 3.5 49.65 L 25.1 12 Q 25.5 11.25 26.5 10.65 27.5 10.1 28.35 10.1 L 71.6 10.1 Q 72.45 10.1 73.5 10.65 74.45 11.25 74.9 12 L 96.5 49.65 Z"></path>
</g><mask id="mask">
<path fill="#FFFFFF" stroke="none" d=" M 96.9 51.55 Q 96.9 50.4 96.5 49.65 L 74.9 12 Q 74.45 11.25 73.5 10.65 72.45 10.1 71.6 10.1 L 28.35 10.1 Q 27.5 10.1 26.5 10.65 25.5 11.25 25.1 12 L 3.5 49.65 Q 3.05 50.4 3.05 51.55 3.05 52.7 3.5 53.4 L 25.1 91.1 Q 25.5 91.85 26.5 92.45 27.5 93 28.35 93 L 71.6 93 Q 72.45 93 73.5 92.45 74.45 91.85 74.9 91.1 L 96.5 53.4 Q 96.9 52.7 96.9 51.55 Z"></path>
</mask><g id="gloss-top">
<path fill="url(#Gradient_1)" stroke="none" d=" M 96.5 53.4 L 95.45 55.25 Q 98 52.85 99.9 50.3 99.7 49 99.15 48.1 L 77.55 10.45 Q 76.7 9 75 8.05 73.3 7 71.6 7 L 28.35 7 Q 26.7 7 25 8.05 23.3 9 22.45 10.45 L 0.8 48.1 Q 0.3 49.05 0.1 50.3 1.95 52.85 4.55 55.25 L 3.5 53.4 Q 3.05 52.7 3.05 51.55 3.05 50.4 3.5 49.65 L 25.1 12 Q 25.5 11.25 26.5 10.65 27.5 10.1 28.35 10.1 L 71.6 10.1 Q 72.45 10.1 73.5 10.65 74.45 11.25 74.9 12 L 96.5 49.65 Q 96.9 50.4 96.9 51.55 96.9 52.7 96.5 53.4 Z"></path>
</g><g id="gloss-right">
<path fill="url(#Gradient_2)" stroke="none" d=" M 99.15 55 Q 100 53.5 100 51.55 100 49.6 99.15 48.1 L 77.55 10.45 Q 76.7 9 75 8.05 73.3 7 71.6 7 L 28.35 7 Q 26.75 7 25.1 7.95 L 26.65 10.6 Q 27.6 10.1 28.35 10.1 L 71.6 10.1 Q 72.45 10.1 73.5 10.65 74.45 11.25 74.9 12 L 96.5 49.65 Q 96.9 50.4 96.9 51.55 96.9 52.7 96.5 53.4 L 74.9 91.1 Q 74.65 91.5 74.05 92 L 75.65 94.7 Q 76.9 93.7 77.55 92.65 L 99.15 55 Z"></path>
</g><g id="gloss-left">
<path fill="url(#Gradient_3)" stroke="none" d=" M 75.75 13.5 L 77.6 10.55 77.55 10.45 Q 76.7 9 75 8.05 73.3 7 71.6 7 L 28.35 7 Q 26.7 7 25 8.05 23.3 9 22.45 10.45 L 0.8 48.1 Q 0 49.6 0 51.55 0 53.5 0.8 55 L 22.45 92.65 Q 23.2 93.95 24.55 94.85 L 26.2 92.25 Q 25.45 91.65 25.1 91.1 L 3.5 53.4 Q 3.05 52.7 3.05 51.55 3.05 50.4 3.5 49.65 L 25.1 12 Q 25.5 11.25 26.5 10.65 27.5 10.1 28.35 10.1 L 71.6 10.1 Q 72.45 10.1 73.5 10.65 74.45 11.25 74.9 12 L 75.75 13.5 Z"></path>
</g>
			
	<linearGradient id="background-gradient" x1="0" y1="0" y2="1" x2="0" gradientTransform="rotate(90 0.5 0.5)">
		<stop stop-color="#255f18" offset="0%"></stop>
		<stop stop-color="#1d5c0f" offset="100%"></stop>
	</linearGradient>

			
			
			
			
		<linearGradient class="shapgradient" gradientTransform="rotate(0 0.5 0.5)" id="SvgjsLinearGradient1025"><stop stop-color="#3c592e" offset="0"></stop><stop stop-color="#9db21d" offset="1"></stop></linearGradient></defs><use xlink:href="#background" fill="url(#background-gradient)" class="background"></use><g class="geditable"><g mask="url(#mask)" fill="url(#SvgjsLinearGradient1025)" class="editable" transform="matrix(0.9,0,0,0.9,5,5)"><path d="M373.3333333333333 597.3333333333333C426.3333333333333 597.3333333333333 469.3333333333333 554.3333333333333 469.3333333333333 501.3333333333333S426.3333333333333 405.3333333333333 373.3333333333333 405.3333333333333S277.3333333333333 448.3333333333333 277.3333333333333 501.3333333333333S320.3333333333333 597.3333333333333 373.3333333333333 597.3333333333333ZM373.3333333333333 453.3333333333333C399.8333333333333 453.3333333333333 421.3333333333333 474.8333333333333 421.3333333333333 501.3333333333333S399.8333333333333 549.3333333333333 373.3333333333333 549.3333333333333S325.3333333333333 527.8333333333333 325.3333333333333 501.3333333333333S346.8333333333333 453.3333333333333 373.3333333333333 453.3333333333333ZM630.3333333333333 534.3333333333333L702.3333333333333 462.3333333333333L726.6333333333332 486.6333333333333C737.9333333333332 497.93333333333334 757.3333333333333 489.93333333333334 757.3333333333333 473.93333333333334V385.3333333333333C757.3333333333333 378.73333333333335 751.9333333333334 373.3333333333333 745.3333333333333 373.3333333333333H656.8333333333333C640.8333333333333 373.3333333333333 632.7333333333333 392.73333333333335 644.1333333333333 404.0333333333333L668.3333333333333 428.3333333333333L613.3333333333333 483.3333333333333L558.3333333333333 428.3333333333333C548.9333333333334 418.9333333333333 533.7333333333333 418.9333333333333 524.4333333333334 428.3333333333333L493.73333333333335 459.0333333333333C498.3333333333333 472.3333333333333 501.3333333333333 486.4333333333333 501.3333333333333 501.3333333333333C501.3333333333333 508.1333333333333 500.3333333333333 514.7333333333333 499.3333333333333 521.3333333333333L541.3333333333333 479.3333333333333L596.3333333333333 534.3333333333333C605.7333333333333 543.6333333333333 620.9333333333334 543.6333333333333 630.3333333333333 534.3333333333333ZM805.3333333333333 277.3333333333333H421.3333333333333C394.8333333333333 277.3333333333333 373.3333333333333 299.5333333333333 373.3333333333333 326.93333333333334V373.3333333333333C379.73333333333335 373.3333333333333 384.73333333333335 373.9333333333333 389.1333333333333 374.9333333333333C394.5333333333333 375.6333333333333 399.8333333333333 376.4333333333333 405.0333333333333 377.8333333333333C409.23333333333335 378.8333333333333 413.23333333333335 380.1333333333333 417.23333333333335 381.6333333333333C418.5333333333333 382.1333333333333 420.0333333333333 382.3333333333333 421.3333333333333 382.9333333333333V325.3333333333333H805.3333333333333V645.3333333333333H565.3333333333333V693.3333333333333H805.3333333333333C831.8333333333333 693.3333333333333 853.3333333333333 671.1333333333333 853.3333333333333 643.7333333333333V326.93333333333334C853.3333333333333 299.5333333333333 831.8333333333333 277.3333333333333 805.3333333333333 277.3333333333333ZM440.1333333333333 619.3333333333333C430.23333333333335 619.3333333333333 420.23333333333335 620.8333333333333 410.5333333333333 623.7333333333333C398.73333333333335 627.3333333333333 386.3333333333333 629.3333333333333 373.3333333333333 629.3333333333333S347.9333333333333 627.3333333333333 336.1333333333333 623.7333333333333C326.4333333333333 620.8333333333333 316.4333333333333 619.3333333333333 306.5333333333333 619.3333333333333C276.3333333333333 619.3333333333333 246.83333333333331 632.8333333333333 229.6333333333333 658.4333333333334C219.33333333333331 673.7333333333333 213.33333333333331 692.1333333333333 213.33333333333331 712.0333333333333V749.3333333333333C213.33333333333331 771.4333333333334 231.23333333333332 789.3333333333333 253.33333333333331 789.3333333333333H493.3333333333333C515.4333333333334 789.3333333333333 533.3333333333333 771.4333333333334 533.3333333333333 749.3333333333333V712.0333333333333C533.3333333333333 692.2333333333333 527.3333333333333 673.8333333333333 517.0333333333333 658.5333333333333C499.7333333333333 632.8333333333333 470.3333333333333 619.3333333333333 440.1333333333333 619.3333333333333ZM485.3333333333333 741.3333333333333H261.3333333333333V712.0333333333333C261.3333333333333 702.4333333333333 264.1333333333333 693.2333333333333 269.43333333333334 685.3333333333333C276.93333333333334 674.1333333333333 290.8333333333333 667.4333333333334 306.5333333333333 667.4333333333334C311.8333333333333 667.4333333333334 317.1333333333333 668.2333333333333 322.1333333333333 669.7333333333333C338.9333333333333 674.8333333333334 356.1333333333333 677.4333333333334 373.3333333333333 677.4333333333334S407.73333333333335 674.8333333333333 424.5333333333333 669.7333333333333C429.6333333333333 668.2333333333333 434.8333333333333 667.4333333333334 440.1333333333333 667.4333333333334C455.83333333333326 667.4333333333334 469.63333333333327 674.1333333333333 477.2333333333333 685.3333333333333C482.5333333333333 693.2333333333333 485.3333333333333 702.4333333333334 485.3333333333333 712.0333333333333Z " transform="matrix(0.09375,0,0,0.09375,0,0)"></path></g></g><use xlink:href="#gloss-top" opacity="1" class="background"></use></g></svg>