<svg xmlns="http://www.w3.org/2000/svg" version="1.1" xmlns:xlink="http://www.w3.org/1999/xlink" xmlns:svgjs="http://svgjs.com/svgjs" width="83" height="83" viewBox="0 0 100 100"><g class="wrap" transform="matrix(1,0,0,1,0,0)"><defs class="background">
			<linearGradient id="Gradient_1" gradientUnits="userSpaceOnUse" x1="50" y1="7" x2="50" y2="55.2625" spreadMethod="pad">
<stop offset="0%" stop-color="#FFFFFF" stop-opacity="0.1"></stop>

<stop offset="100%" stop-color="#FFFFFF" stop-opacity="0.7"></stop>
</linearGradient><linearGradient id="Gradient_2" gradientUnits="userSpaceOnUse" x1="100" y1="51" x2="25" y2="50.85" spreadMethod="pad">
<stop offset="0%" stop-color="#FFFFFF" stop-opacity="0.1"></stop>

<stop offset="100%" stop-color="#FFFFFF" stop-opacity="0.7"></stop>
</linearGradient><linearGradient id="Gradient_3" gradientUnits="userSpaceOnUse" x1="0" y1="51" x2="77" y2="51" spreadMethod="pad">
<stop offset="0%" stop-color="#FFFFFF" stop-opacity="0.1"></stop>

<stop offset="100%" stop-color="#FFFFFF" stop-opacity="0.7"></stop>
</linearGradient><g id="background">
<path fill="url(#background-gradient)" stroke="none" d=" M 99.15 55 Q 100 53.5 100 51.55 100 49.6 99.15 48.1 L 77.55 10.45 Q 76.7 9 75 8.05 73.3 7 71.6 7 L 28.35 7 Q 26.7 7 25 8.05 23.3 9 22.45 10.45 L 0.8 48.1 Q 0 49.6 0 51.55 0 53.5 0.8 55 L 22.45 92.65 Q 23.3 94.1 25 95.1 26.7 96.05 28.35 96.05 L 71.6 96.05 Q 73.3 96.05 75 95.05 76.7 94.1 77.55 92.65 L 99.15 55 M 96.5 49.65 Q 96.9 50.4 96.9 51.55 96.9 52.7 96.5 53.4 L 74.9 91.1 Q 74.45 91.85 73.5 92.45 72.45 93 71.6 93 L 28.35 93 Q 27.5 93 26.5 92.45 25.5 91.85 25.1 91.1 L 3.5 53.4 Q 3.05 52.7 3.05 51.55 3.05 50.4 3.5 49.65 L 25.1 12 Q 25.5 11.25 26.5 10.65 27.5 10.1 28.35 10.1 L 71.6 10.1 Q 72.45 10.1 73.5 10.65 74.45 11.25 74.9 12 L 96.5 49.65 Z"></path>
</g><mask id="mask">
<path fill="#FFFFFF" stroke="none" d=" M 96.9 51.55 Q 96.9 50.4 96.5 49.65 L 74.9 12 Q 74.45 11.25 73.5 10.65 72.45 10.1 71.6 10.1 L 28.35 10.1 Q 27.5 10.1 26.5 10.65 25.5 11.25 25.1 12 L 3.5 49.65 Q 3.05 50.4 3.05 51.55 3.05 52.7 3.5 53.4 L 25.1 91.1 Q 25.5 91.85 26.5 92.45 27.5 93 28.35 93 L 71.6 93 Q 72.45 93 73.5 92.45 74.45 91.85 74.9 91.1 L 96.5 53.4 Q 96.9 52.7 96.9 51.55 Z"></path>
</mask><g id="gloss-top">
<path fill="url(#Gradient_1)" stroke="none" d=" M 96.5 53.4 L 95.45 55.25 Q 98 52.85 99.9 50.3 99.7 49 99.15 48.1 L 77.55 10.45 Q 76.7 9 75 8.05 73.3 7 71.6 7 L 28.35 7 Q 26.7 7 25 8.05 23.3 9 22.45 10.45 L 0.8 48.1 Q 0.3 49.05 0.1 50.3 1.95 52.85 4.55 55.25 L 3.5 53.4 Q 3.05 52.7 3.05 51.55 3.05 50.4 3.5 49.65 L 25.1 12 Q 25.5 11.25 26.5 10.65 27.5 10.1 28.35 10.1 L 71.6 10.1 Q 72.45 10.1 73.5 10.65 74.45 11.25 74.9 12 L 96.5 49.65 Q 96.9 50.4 96.9 51.55 96.9 52.7 96.5 53.4 Z"></path>
</g><g id="gloss-right">
<path fill="url(#Gradient_2)" stroke="none" d=" M 99.15 55 Q 100 53.5 100 51.55 100 49.6 99.15 48.1 L 77.55 10.45 Q 76.7 9 75 8.05 73.3 7 71.6 7 L 28.35 7 Q 26.75 7 25.1 7.95 L 26.65 10.6 Q 27.6 10.1 28.35 10.1 L 71.6 10.1 Q 72.45 10.1 73.5 10.65 74.45 11.25 74.9 12 L 96.5 49.65 Q 96.9 50.4 96.9 51.55 96.9 52.7 96.5 53.4 L 74.9 91.1 Q 74.65 91.5 74.05 92 L 75.65 94.7 Q 76.9 93.7 77.55 92.65 L 99.15 55 Z"></path>
</g><g id="gloss-left">
<path fill="url(#Gradient_3)" stroke="none" d=" M 75.75 13.5 L 77.6 10.55 77.55 10.45 Q 76.7 9 75 8.05 73.3 7 71.6 7 L 28.35 7 Q 26.7 7 25 8.05 23.3 9 22.45 10.45 L 0.8 48.1 Q 0 49.6 0 51.55 0 53.5 0.8 55 L 22.45 92.65 Q 23.2 93.95 24.55 94.85 L 26.2 92.25 Q 25.45 91.65 25.1 91.1 L 3.5 53.4 Q 3.05 52.7 3.05 51.55 3.05 50.4 3.5 49.65 L 25.1 12 Q 25.5 11.25 26.5 10.65 27.5 10.1 28.35 10.1 L 71.6 10.1 Q 72.45 10.1 73.5 10.65 74.45 11.25 74.9 12 L 75.75 13.5 Z"></path>
</g>
			
	<linearGradient id="background-gradient" x1="0" y1="0" y2="1" x2="0" gradientTransform="rotate(90 0.5 0.5)">
		<stop stop-color="#255f18" offset="0%"></stop>
		<stop stop-color="#1d5c0f" offset="100%"></stop>
	</linearGradient>

			
			
			
			
		<linearGradient class="shapgradient" gradientTransform="rotate(0 0.5 0.5)" id="SvgjsLinearGradient1090"><stop stop-color="#3c592e" offset="0"></stop><stop stop-color="#9db21d" offset="1"></stop></linearGradient></defs><use xlink:href="#background" fill="url(#background-gradient)" class="background"></use><g class="geditable"><g mask="url(#mask)" fill="url(#SvgjsLinearGradient1090)" class="editable" transform="matrix(0.8,0,0,0.8,10,11.999999237060543)"><path d="M57.40616276016031 9.135837415387423C38.540162760160314 9.135837415387423 18.489162760160312 14.12983741538742 18.489162760160312 23.38583741538742V99.33883741538742C18.489162760160312 108.59483741538742 38.540162760160314 113.58883741538742 57.40616276016031 113.58883741538742S96.32316276016032 108.59483741538742 96.32316276016032 99.33883741538742V23.38583741538742C96.32316276016032 14.130837415387418 76.27216276016031 9.13583741538742 57.40616276016031 9.13583741538742ZM92.82316276016032 79.26283741538742C92.82316276016032 83.67383741538742 81.87316276016031 88.51883741538742 65.34616276016031 89.72683741538742C68.41816276016031 86.42683741538741 70.40616276016031 81.27283741538741 70.40616276016031 75.47783741538743C70.40616276016031 69.35683741538742 68.19216276016031 63.94783741538742 64.82216276016031 60.68483741538742C76.4221627601603 59.88483741538742 87.41216276016031 57.22783741538742 92.82216276016031 52.87783741538742ZM21.989162760160312 52.88283741538742C27.400162760160313 57.23283741538742 38.38916276016032 59.89183741538742 49.98916276016031 60.68983741538742C46.62016276016031 63.95183741538742 44.40616276016031 69.36283741538742 44.40616276016031 75.48183741538742C44.40616276016031 81.28183741538743 46.39516276016032 86.42883741538742 49.466162760160316 89.73083741538741C32.94016276016032 88.52383741538742 21.989162760160315 83.67883741538742 21.989162760160315 79.26283741538742ZM47.90616276016031 75.48183741538742C47.90616276016031 67.46683741538743 52.168162760160314 60.94583741538742 57.40616276016031 60.94583741538742S66.90616276016031 67.46683741538743 66.90616276016031 75.48183741538742S62.64416276016031 90.01783741538742 57.40616276016031 90.01783741538742S47.90616276016031 83.49683741538743 47.90616276016031 75.48183741538742ZM92.82316276016032 46.69583741538742C92.82316276016032 51.779837415387426 78.27816276016031 57.44583741538742 57.40616276016031 57.44583741538742S21.989162760160312 51.779837415387426 21.989162760160312 46.69583741538742V29.57283741538742C28.54816276016031 34.845837415387415 43.30616276016032 37.63583741538742 57.40616276016031 37.63583741538742S86.26416276016032 34.844837415387424 92.82316276016032 29.57183741538742ZM57.40616276016031 12.63583741538742C78.27816276016031 12.63583741538742 92.82316276016032 18.301837415387418 92.82316276016032 23.38583741538742S78.27816276016031 34.13583741538742 57.40616276016031 34.13583741538742S21.989162760160312 28.469837415387417 21.989162760160312 23.38583741538742S36.534162760160314 12.63583741538742 57.40616276016031 12.63583741538742ZM57.40616276016031 110.08883741538742C36.534162760160314 110.08883741538742 21.989162760160312 104.42283741538742 21.989162760160312 99.33883741538742V85.45383741538743C28.54816276016031 90.72683741538742 43.30616276016032 93.51783741538742 57.40616276016031 93.51783741538742S86.26416276016032 90.72683741538742 92.82316276016032 85.45383741538743V99.33983741538742C92.82316276016032 104.42383741538742 78.27816276016031 110.08983741538742 57.40616276016031 110.08983741538742Z " transform="matrix(0.7708713452000606,0,0,0.7708713452000606,5.747234090301589,2.6975305061976194)"></path><path d="M57.40616657485757 31.237842183759007A6.935 6.935 0 0 0 62.994166574857566 28.462842183759005A6.264 6.264 0 0 0 63.949166574857564 22.831842183759004L62.65616657485756 18.695842183759005A5.551 5.551 0 0 0 52.15616657485756 18.695842183759005L50.86316657485756 22.830842183759007A6.264 6.264 0 0 0 51.81816657485756 28.461842183759007A6.935 6.935 0 0 0 57.40616657485756 31.237842183759007ZM54.20616657485757 23.874842183759004L55.49916657485757 19.739842183759006A2.056 2.056 0 0 1 59.318166574857564 19.739842183759006L60.60616657485756 23.874842183759004A2.762 2.762 0 0 1 60.17216657485756 26.387842183759002A3.514 3.514 0 0 1 54.635166574857564 26.387842183759002A2.762 2.762 0 0 1 54.20616657485756 23.874842183759004Z " transform="matrix(0.7708713452000606,0,0,0.7708713452000606,5.747234090301589,2.6975305061976194)"></path><path d="M30.80617038955484 22.151842183759005A1.742 1.742 0 0 0 31.62317038955484 21.951842183759005C34.50617038955484 20.425842183759006 39.98717038955485 19.243842183759003 46.285170389554835 18.789842183759006A1.75 1.75 0 1 0 46.034170389554845 15.298842183759007C39.175170389554836 15.792842183759007 33.32517038955484 17.09084218375901 29.985170389554842 18.858842183759005A1.75 1.75 0 0 0 30.805170389554842 22.158842183759006Z " transform="matrix(0.7708713452000606,0,0,0.7708713452000606,5.747234090301589,2.6975305061976194)"></path></g></g><use xlink:href="#gloss-top" opacity="1" class="background"></use></g></svg>