<svg xmlns="http://www.w3.org/2000/svg" version="1.1" xmlns:xlink="http://www.w3.org/1999/xlink" xmlns:svgjs="http://svgjs.com/svgjs" width="83" height="83" viewBox="0 0 100 100"><g class="wrap" transform="matrix(1,0,0,1,0,0)"><defs class="background">
			<linearGradient id="Gradient_1" gradientUnits="userSpaceOnUse" x1="50" y1="7" x2="50" y2="55.2625" spreadMethod="pad">
<stop offset="0%" stop-color="#FFFFFF" stop-opacity="0.1"></stop>

<stop offset="100%" stop-color="#FFFFFF" stop-opacity="0.7"></stop>
</linearGradient><linearGradient id="Gradient_2" gradientUnits="userSpaceOnUse" x1="100" y1="51" x2="25" y2="50.85" spreadMethod="pad">
<stop offset="0%" stop-color="#FFFFFF" stop-opacity="0.1"></stop>

<stop offset="100%" stop-color="#FFFFFF" stop-opacity="0.7"></stop>
</linearGradient><linearGradient id="Gradient_3" gradientUnits="userSpaceOnUse" x1="0" y1="51" x2="77" y2="51" spreadMethod="pad">
<stop offset="0%" stop-color="#FFFFFF" stop-opacity="0.1"></stop>

<stop offset="100%" stop-color="#FFFFFF" stop-opacity="0.7"></stop>
</linearGradient><g id="background">
<path fill="url(#background-gradient)" stroke="none" d=" M 99.15 55 Q 100 53.5 100 51.55 100 49.6 99.15 48.1 L 77.55 10.45 Q 76.7 9 75 8.05 73.3 7 71.6 7 L 28.35 7 Q 26.7 7 25 8.05 23.3 9 22.45 10.45 L 0.8 48.1 Q 0 49.6 0 51.55 0 53.5 0.8 55 L 22.45 92.65 Q 23.3 94.1 25 95.1 26.7 96.05 28.35 96.05 L 71.6 96.05 Q 73.3 96.05 75 95.05 76.7 94.1 77.55 92.65 L 99.15 55 M 96.5 49.65 Q 96.9 50.4 96.9 51.55 96.9 52.7 96.5 53.4 L 74.9 91.1 Q 74.45 91.85 73.5 92.45 72.45 93 71.6 93 L 28.35 93 Q 27.5 93 26.5 92.45 25.5 91.85 25.1 91.1 L 3.5 53.4 Q 3.05 52.7 3.05 51.55 3.05 50.4 3.5 49.65 L 25.1 12 Q 25.5 11.25 26.5 10.65 27.5 10.1 28.35 10.1 L 71.6 10.1 Q 72.45 10.1 73.5 10.65 74.45 11.25 74.9 12 L 96.5 49.65 Z"></path>
</g><mask id="mask">
<path fill="#FFFFFF" stroke="none" d=" M 96.9 51.55 Q 96.9 50.4 96.5 49.65 L 74.9 12 Q 74.45 11.25 73.5 10.65 72.45 10.1 71.6 10.1 L 28.35 10.1 Q 27.5 10.1 26.5 10.65 25.5 11.25 25.1 12 L 3.5 49.65 Q 3.05 50.4 3.05 51.55 3.05 52.7 3.5 53.4 L 25.1 91.1 Q 25.5 91.85 26.5 92.45 27.5 93 28.35 93 L 71.6 93 Q 72.45 93 73.5 92.45 74.45 91.85 74.9 91.1 L 96.5 53.4 Q 96.9 52.7 96.9 51.55 Z"></path>
</mask><g id="gloss-top">
<path fill="url(#Gradient_1)" stroke="none" d=" M 96.5 53.4 L 95.45 55.25 Q 98 52.85 99.9 50.3 99.7 49 99.15 48.1 L 77.55 10.45 Q 76.7 9 75 8.05 73.3 7 71.6 7 L 28.35 7 Q 26.7 7 25 8.05 23.3 9 22.45 10.45 L 0.8 48.1 Q 0.3 49.05 0.1 50.3 1.95 52.85 4.55 55.25 L 3.5 53.4 Q 3.05 52.7 3.05 51.55 3.05 50.4 3.5 49.65 L 25.1 12 Q 25.5 11.25 26.5 10.65 27.5 10.1 28.35 10.1 L 71.6 10.1 Q 72.45 10.1 73.5 10.65 74.45 11.25 74.9 12 L 96.5 49.65 Q 96.9 50.4 96.9 51.55 96.9 52.7 96.5 53.4 Z"></path>
</g><g id="gloss-right">
<path fill="url(#Gradient_2)" stroke="none" d=" M 99.15 55 Q 100 53.5 100 51.55 100 49.6 99.15 48.1 L 77.55 10.45 Q 76.7 9 75 8.05 73.3 7 71.6 7 L 28.35 7 Q 26.75 7 25.1 7.95 L 26.65 10.6 Q 27.6 10.1 28.35 10.1 L 71.6 10.1 Q 72.45 10.1 73.5 10.65 74.45 11.25 74.9 12 L 96.5 49.65 Q 96.9 50.4 96.9 51.55 96.9 52.7 96.5 53.4 L 74.9 91.1 Q 74.65 91.5 74.05 92 L 75.65 94.7 Q 76.9 93.7 77.55 92.65 L 99.15 55 Z"></path>
</g><g id="gloss-left">
<path fill="url(#Gradient_3)" stroke="none" d=" M 75.75 13.5 L 77.6 10.55 77.55 10.45 Q 76.7 9 75 8.05 73.3 7 71.6 7 L 28.35 7 Q 26.7 7 25 8.05 23.3 9 22.45 10.45 L 0.8 48.1 Q 0 49.6 0 51.55 0 53.5 0.8 55 L 22.45 92.65 Q 23.2 93.95 24.55 94.85 L 26.2 92.25 Q 25.45 91.65 25.1 91.1 L 3.5 53.4 Q 3.05 52.7 3.05 51.55 3.05 50.4 3.5 49.65 L 25.1 12 Q 25.5 11.25 26.5 10.65 27.5 10.1 28.35 10.1 L 71.6 10.1 Q 72.45 10.1 73.5 10.65 74.45 11.25 74.9 12 L 75.75 13.5 Z"></path>
</g>
			
	<linearGradient id="background-gradient" x1="0" y1="0" y2="1" x2="0" gradientTransform="rotate(90 0.5 0.5)">
		<stop stop-color="#255f18" offset="0%"></stop>
		<stop stop-color="#1d5c0f" offset="100%"></stop>
	</linearGradient>

			
			
			
			
		<linearGradient class="shapgradient" gradientTransform="rotate(0 0.5 0.5)" id="SvgjsLinearGradient1021"><stop stop-color="#3c592e" offset="0"></stop><stop stop-color="#9db21d" offset="1"></stop></linearGradient></defs><use xlink:href="#background" fill="url(#background-gradient)" class="background"></use><g class="geditable"><g mask="url(#mask)" fill="url(#SvgjsLinearGradient1021)" class="editable" transform="matrix(0.9,0,0,0.9,5.000000190734859,4.999999666213988)"><g transform="matrix(0.1703002255216813,0,0,0.1703002255216813,66.24656925235244,0)">
	<g>
		<g>
			<path d="M80.0559071727867 528.8595949556005L32.35990717278668 51.99559495560049C31.543907172786703 43.81959495560049 24.663907172786708 37.59559495560049 16.439907172786718 37.59559495560049H-207.56009282721328C-215.78409282721327 37.59559495560049 -222.66409282721327 43.81959495560049 -223.4800928272133 51.99559495560049L-271.4800928272133 531.9955949556005C-271.9280928272133 536.4915949556005 -270.4560928272133 540.9715949556005 -267.4160928272133 544.3315949556005C-264.37609282721326 547.6915949556005 -260.0720928272133 549.5955949556005 -255.56009282721328 549.5955949556005H64.43990717278672C64.55190717278674 549.6115949556005 64.67990717278673 549.5955949556005 64.75990717278671 549.5955949556005C73.60790717278672 549.5955949556005 80.75990717278671 542.4275949556005 80.75990717278671 533.5955949556005C80.75990717278671 531.9475949556005 80.50390717278668 530.3475949556005 80.0559071727867 528.8595949556005ZM-79.56009282721328 517.5955949556005V509.5955949556005C-79.56009282721328 500.7635949556005 -86.71209282721327 493.5955949556005 -95.56009282721328 493.5955949556005C-104.4080928272133 493.5955949556005 -111.56009282721328 500.7635949556005 -111.56009282721328 509.5955949556005V517.5955949556005H-237.88009282721328L-193.08009282721326 69.59559495560049H-111.56009282721328V77.59559495560049C-111.56009282721328 86.42759495560048 -104.4080928272133 93.59559495560049 -95.56009282721328 93.59559495560049C-86.71209282721327 93.59559495560049 -79.56009282721328 86.42759495560048 -79.56009282721328 77.59559495560049V69.59559495560049H1.9599071727867L46.75990717278671 517.5955949556005H-79.56009282721328Z "></path>
			<path d="M-95.56008519781878 130.7155949556005C-104.40808519781879 130.7155949556005 -111.56008519781878 137.8835949556005 -111.56008519781878 146.7155949556005V198.5555949556005C-111.56008519781878 207.3875949556005 -104.40808519781879 214.5555949556005 -95.56008519781878 214.5555949556005C-86.7120851978188 214.5555949556005 -79.56008519781881 207.3875949556005 -79.56008519781881 198.5555949556005V146.7155949556005C-79.56008519781875 137.88359495560047 -86.7120851978188 130.7155949556005 -95.56008519781878 130.7155949556005Z "></path>
			<path d="M-95.56008519781878 372.63559495560054C-104.40808519781879 372.63559495560054 -111.56008519781878 379.80359495560054 -111.56008519781878 388.63559495560054V440.4755949556005C-111.56008519781878 449.3075949556005 -104.40808519781879 456.4755949556005 -95.56008519781878 456.4755949556005C-86.7120851978188 456.4755949556005 -79.56008519781881 449.3075949556005 -79.56008519781881 440.4755949556005V388.6355949556005C-79.56008519781875 379.80359495560054 -86.7120851978188 372.63559495560054 -95.56008519781878 372.63559495560054Z "></path>
			<path d="M-95.56008519781878 251.6755949556005C-104.40808519781879 251.6755949556005 -111.56008519781878 258.8435949556005 -111.56008519781878 267.6755949556005V319.5155949556005C-111.56008519781878 328.34759495560047 -104.40808519781879 335.5155949556005 -95.56008519781878 335.5155949556005C-86.7120851978188 335.5155949556005 -79.56008519781881 328.34759495560047 -79.56008519781881 319.5155949556005V267.6755949556005C-79.56008519781875 258.84359495560045 -86.7120851978188 251.6755949556005 -95.56008519781878 251.6755949556005Z "></path>
		</g>
	</g>
</g><g transform="matrix(0.1703002255216813,0,0,0.1703002255216813,66.24656925235244,0)">
</g><g transform="matrix(0.1703002255216813,0,0,0.1703002255216813,66.24656925235244,0)">
</g><g transform="matrix(0.1703002255216813,0,0,0.1703002255216813,66.24656925235244,0)">
</g><g transform="matrix(0.1703002255216813,0,0,0.1703002255216813,66.24656925235244,0)">
</g><g transform="matrix(0.1703002255216813,0,0,0.1703002255216813,66.24656925235244,0)">
</g><g transform="matrix(0.1703002255216813,0,0,0.1703002255216813,66.24656925235244,0)">
</g><g transform="matrix(0.1703002255216813,0,0,0.1703002255216813,66.24656925235244,0)">
</g><g transform="matrix(0.1703002255216813,0,0,0.1703002255216813,66.24656925235244,0)">
</g><g transform="matrix(0.1703002255216813,0,0,0.1703002255216813,66.24656925235244,0)">
</g><g transform="matrix(0.1703002255216813,0,0,0.1703002255216813,66.24656925235244,0)">
</g><g transform="matrix(0.1703002255216813,0,0,0.1703002255216813,66.24656925235244,0)">
</g><g transform="matrix(0.1703002255216813,0,0,0.1703002255216813,66.24656925235244,0)">
</g><g transform="matrix(0.1703002255216813,0,0,0.1703002255216813,66.24656925235244,0)">
</g><g transform="matrix(0.1703002255216813,0,0,0.1703002255216813,66.24656925235244,0)">
</g><g transform="matrix(0.1703002255216813,0,0,0.1703002255216813,66.24656925235244,0)">
</g></g></g><use xlink:href="#gloss-top" opacity="1" class="background"></use></g></svg>