<svg xmlns="http://www.w3.org/2000/svg" version="1.1" xmlns:xlink="http://www.w3.org/1999/xlink" xmlns:svgjs="http://svgjs.com/svgjs" width="83" height="83" viewBox="0 0 100 100"><g class="wrap" transform="matrix(1,0,0,1,0,0)"><defs class="background">
			<linearGradient id="Gradient_1" gradientUnits="userSpaceOnUse" x1="50" y1="7" x2="50" y2="55.2625" spreadMethod="pad">
<stop offset="0%" stop-color="#FFFFFF" stop-opacity="0.1"></stop>

<stop offset="100%" stop-color="#FFFFFF" stop-opacity="0.7"></stop>
</linearGradient><linearGradient id="Gradient_2" gradientUnits="userSpaceOnUse" x1="100" y1="51" x2="25" y2="50.85" spreadMethod="pad">
<stop offset="0%" stop-color="#FFFFFF" stop-opacity="0.1"></stop>

<stop offset="100%" stop-color="#FFFFFF" stop-opacity="0.7"></stop>
</linearGradient><linearGradient id="Gradient_3" gradientUnits="userSpaceOnUse" x1="0" y1="51" x2="77" y2="51" spreadMethod="pad">
<stop offset="0%" stop-color="#FFFFFF" stop-opacity="0.1"></stop>

<stop offset="100%" stop-color="#FFFFFF" stop-opacity="0.7"></stop>
</linearGradient><g id="background">
<path fill="url(#background-gradient)" stroke="none" d=" M 99.15 55 Q 100 53.5 100 51.55 100 49.6 99.15 48.1 L 77.55 10.45 Q 76.7 9 75 8.05 73.3 7 71.6 7 L 28.35 7 Q 26.7 7 25 8.05 23.3 9 22.45 10.45 L 0.8 48.1 Q 0 49.6 0 51.55 0 53.5 0.8 55 L 22.45 92.65 Q 23.3 94.1 25 95.1 26.7 96.05 28.35 96.05 L 71.6 96.05 Q 73.3 96.05 75 95.05 76.7 94.1 77.55 92.65 L 99.15 55 M 96.5 49.65 Q 96.9 50.4 96.9 51.55 96.9 52.7 96.5 53.4 L 74.9 91.1 Q 74.45 91.85 73.5 92.45 72.45 93 71.6 93 L 28.35 93 Q 27.5 93 26.5 92.45 25.5 91.85 25.1 91.1 L 3.5 53.4 Q 3.05 52.7 3.05 51.55 3.05 50.4 3.5 49.65 L 25.1 12 Q 25.5 11.25 26.5 10.65 27.5 10.1 28.35 10.1 L 71.6 10.1 Q 72.45 10.1 73.5 10.65 74.45 11.25 74.9 12 L 96.5 49.65 Z"></path>
</g><mask id="mask">
<path fill="#FFFFFF" stroke="none" d=" M 96.9 51.55 Q 96.9 50.4 96.5 49.65 L 74.9 12 Q 74.45 11.25 73.5 10.65 72.45 10.1 71.6 10.1 L 28.35 10.1 Q 27.5 10.1 26.5 10.65 25.5 11.25 25.1 12 L 3.5 49.65 Q 3.05 50.4 3.05 51.55 3.05 52.7 3.5 53.4 L 25.1 91.1 Q 25.5 91.85 26.5 92.45 27.5 93 28.35 93 L 71.6 93 Q 72.45 93 73.5 92.45 74.45 91.85 74.9 91.1 L 96.5 53.4 Q 96.9 52.7 96.9 51.55 Z"></path>
</mask><g id="gloss-top">
<path fill="url(#Gradient_1)" stroke="none" d=" M 96.5 53.4 L 95.45 55.25 Q 98 52.85 99.9 50.3 99.7 49 99.15 48.1 L 77.55 10.45 Q 76.7 9 75 8.05 73.3 7 71.6 7 L 28.35 7 Q 26.7 7 25 8.05 23.3 9 22.45 10.45 L 0.8 48.1 Q 0.3 49.05 0.1 50.3 1.95 52.85 4.55 55.25 L 3.5 53.4 Q 3.05 52.7 3.05 51.55 3.05 50.4 3.5 49.65 L 25.1 12 Q 25.5 11.25 26.5 10.65 27.5 10.1 28.35 10.1 L 71.6 10.1 Q 72.45 10.1 73.5 10.65 74.45 11.25 74.9 12 L 96.5 49.65 Q 96.9 50.4 96.9 51.55 96.9 52.7 96.5 53.4 Z"></path>
</g><g id="gloss-right">
<path fill="url(#Gradient_2)" stroke="none" d=" M 99.15 55 Q 100 53.5 100 51.55 100 49.6 99.15 48.1 L 77.55 10.45 Q 76.7 9 75 8.05 73.3 7 71.6 7 L 28.35 7 Q 26.75 7 25.1 7.95 L 26.65 10.6 Q 27.6 10.1 28.35 10.1 L 71.6 10.1 Q 72.45 10.1 73.5 10.65 74.45 11.25 74.9 12 L 96.5 49.65 Q 96.9 50.4 96.9 51.55 96.9 52.7 96.5 53.4 L 74.9 91.1 Q 74.65 91.5 74.05 92 L 75.65 94.7 Q 76.9 93.7 77.55 92.65 L 99.15 55 Z"></path>
</g><g id="gloss-left">
<path fill="url(#Gradient_3)" stroke="none" d=" M 75.75 13.5 L 77.6 10.55 77.55 10.45 Q 76.7 9 75 8.05 73.3 7 71.6 7 L 28.35 7 Q 26.7 7 25 8.05 23.3 9 22.45 10.45 L 0.8 48.1 Q 0 49.6 0 51.55 0 53.5 0.8 55 L 22.45 92.65 Q 23.2 93.95 24.55 94.85 L 26.2 92.25 Q 25.45 91.65 25.1 91.1 L 3.5 53.4 Q 3.05 52.7 3.05 51.55 3.05 50.4 3.5 49.65 L 25.1 12 Q 25.5 11.25 26.5 10.65 27.5 10.1 28.35 10.1 L 71.6 10.1 Q 72.45 10.1 73.5 10.65 74.45 11.25 74.9 12 L 75.75 13.5 Z"></path>
</g>
			
	<linearGradient id="background-gradient" x1="0" y1="0" y2="1" x2="0" gradientTransform="rotate(90 0.5 0.5)">
		<stop stop-color="#255f18" offset="0%"></stop>
		<stop stop-color="#1d5c0f" offset="100%"></stop>
	</linearGradient>

			
			
			
			
		<linearGradient class="shapgradient" gradientTransform="rotate(0 0.5 0.5)" id="SvgjsLinearGradient1022"><stop stop-color="#3c592e" offset="0"></stop><stop stop-color="#9db21d" offset="1"></stop></linearGradient></defs><use xlink:href="#background" fill="url(#background-gradient)" class="background"></use><g class="geditable"><g mask="url(#mask)" fill="url(#SvgjsLinearGradient1022)" class="editable" transform="matrix(0.9,0,0,0.9,5,5.000000572204591)"><path d="M712.6533333333333 552.9838980946233A32.06 32.06 0 0 0 683.1333333333333 533.3338980946235H607.5333333333333A32 32 0 0 0 578.1233333333333 552.7338980946233L558.5333333333333 597.3338980946235H732.1333333333332ZM549.3333333333333 621.3338980946235A24 24 0 1 0 573.3333333333333 645.3338980946235A24 24 0 0 0 549.3333333333333 621.3338980946235ZM800.1033333333332 553.9338980946234L786.1033333333332 521.2138980946235A111.86 111.86 0 0 0 683.1333333333333 453.3338980946234H607.5333333333333A111.86 111.86 0 0 0 504.59333333333336 521.2138980946233L490.59333333333336 553.9338980946234A80.16 80.16 0 0 0 437.3333333333333 629.3338980946235V661.3338980946235A79.67 79.67 0 0 0 469.4033333333333 724.9838980946233C469.4033333333333 725.1038980946234 469.3333333333333 725.2138980946233 469.3333333333333 725.3338980946235V757.3338980946235A32 32 0 0 0 501.3333333333333 789.3338980946235H517.3333333333333A32 32 0 0 0 549.3333333333333 757.3338980946235V741.3338980946235H741.3333333333333V757.3338980946235A32 32 0 0 0 773.3333333333333 789.3338980946235H789.3333333333333A32 32 0 0 0 821.3333333333333 757.3338980946235V725.3338980946235C821.3333333333333 725.2138980946233 821.2633333333333 725.1038980946234 821.2633333333333 724.9838980946233A79.67 79.67 0 0 0 853.3333333333333 661.3338980946235V629.3338980946235A80.16 80.16 0 0 0 800.1033333333332 553.9338980946234ZM805.3333333333333 661.3338980946235A32 32 0 0 1 773.3333333333333 693.3338980946235H517.3333333333333A32 32 0 0 1 485.3333333333333 661.3338980946235V629.3338980946235A32 32 0 0 1 517.3333333333333 597.3338980946235H524.1933333333334L548.7133333333334 540.1238980946234A64 64 0 0 1 607.5333333333333 501.3338980946234H683.1333333333332A64 64 0 0 1 741.9533333333334 540.1238980946234L766.4733333333334 597.3338980946235H773.3333333333333A32 32 0 0 1 805.3333333333333 629.3338980946235ZM741.3333333333333 621.3338980946235A24 24 0 1 0 765.3333333333333 645.3338980946235A24 24 0 0 0 741.3333333333333 621.3338980946235ZM488.6533333333333 376.98389809462344A32.06 32.06 0 0 0 459.1333333333333 357.3338980946234H383.5333333333333A32 32 0 0 0 354.12333333333333 376.73389809462344L334.5333333333333 421.3338980946234H508.1333333333333ZM466.12333333333333 529.7338980946234L471.4433333333333 517.3338980946235H293.3333333333333A32 32 0 0 1 261.3333333333333 485.3338980946234V453.3338980946234A32 32 0 0 1 293.3333333333333 421.3338980946234H300.1933333333333L324.7133333333333 364.1238980946234A64 64 0 0 1 383.5333333333333 325.3338980946234H459.1333333333333A64 64 0 0 1 517.9533333333334 364.1238980946234L542.4733333333334 421.3338980946234H549.3333333333333C555.9533333333334 421.3338980946234 561.7433333333333 423.8238980946234 566.8533333333332 427.2638980946234A143.81 143.81 0 0 1 607.5333333333333 421.3338980946234H622.4133333333333A80.3 80.3 0 0 0 576.1033333333332 377.9338980946234L562.1033333333332 345.2138980946234A111.86 111.86 0 0 0 459.1333333333333 277.3338980946234H383.5333333333333A111.86 111.86 0 0 0 280.5933333333333 345.2138980946234L266.5933333333333 377.9338980946234A80.16 80.16 0 0 0 213.33333333333331 453.3338980946234V485.3338980946234A79.67 79.67 0 0 0 245.4033333333333 548.9838980946233C245.4033333333333 549.1038980946234 245.33333333333331 549.2138980946233 245.33333333333331 549.3338980946235V581.3338980946235A32 32 0 0 0 277.3333333333333 613.3338980946235H293.3333333333333A32 32 0 0 0 325.3333333333333 581.3338980946235V565.3338980946235H425.7933333333333A112 112 0 0 1 466.1233333333333 529.7338980946234ZM301.3333333333333 469.3338980946234A24 24 0 1 0 325.3333333333333 445.3338980946234A24 24 0 0 0 301.3333333333333 469.3338980946234Z " transform="matrix(0.09375,0,0,0.09375,0,-0.000048414368166049826)"></path></g></g><use xlink:href="#gloss-top" opacity="1" class="background"></use></g></svg>