<svg xmlns="http://www.w3.org/2000/svg" version="1.1" xmlns:xlink="http://www.w3.org/1999/xlink" xmlns:svgjs="http://svgjs.com/svgjs" width="83" height="83" viewBox="0 0 100 100"><g class="wrap" transform="matrix(1,0,0,1,0,0)"><defs class="background">
			<linearGradient id="Gradient_1" gradientUnits="userSpaceOnUse" x1="50" y1="7" x2="50" y2="55.2625" spreadMethod="pad">
<stop offset="0%" stop-color="#FFFFFF" stop-opacity="0.1"></stop>

<stop offset="100%" stop-color="#FFFFFF" stop-opacity="0.7"></stop>
</linearGradient><linearGradient id="Gradient_2" gradientUnits="userSpaceOnUse" x1="100" y1="51" x2="25" y2="50.85" spreadMethod="pad">
<stop offset="0%" stop-color="#FFFFFF" stop-opacity="0.1"></stop>

<stop offset="100%" stop-color="#FFFFFF" stop-opacity="0.7"></stop>
</linearGradient><linearGradient id="Gradient_3" gradientUnits="userSpaceOnUse" x1="0" y1="51" x2="77" y2="51" spreadMethod="pad">
<stop offset="0%" stop-color="#FFFFFF" stop-opacity="0.1"></stop>

<stop offset="100%" stop-color="#FFFFFF" stop-opacity="0.7"></stop>
</linearGradient><g id="background">
<path fill="url(#background-gradient)" stroke="none" d=" M 99.15 55 Q 100 53.5 100 51.55 100 49.6 99.15 48.1 L 77.55 10.45 Q 76.7 9 75 8.05 73.3 7 71.6 7 L 28.35 7 Q 26.7 7 25 8.05 23.3 9 22.45 10.45 L 0.8 48.1 Q 0 49.6 0 51.55 0 53.5 0.8 55 L 22.45 92.65 Q 23.3 94.1 25 95.1 26.7 96.05 28.35 96.05 L 71.6 96.05 Q 73.3 96.05 75 95.05 76.7 94.1 77.55 92.65 L 99.15 55 M 96.5 49.65 Q 96.9 50.4 96.9 51.55 96.9 52.7 96.5 53.4 L 74.9 91.1 Q 74.45 91.85 73.5 92.45 72.45 93 71.6 93 L 28.35 93 Q 27.5 93 26.5 92.45 25.5 91.85 25.1 91.1 L 3.5 53.4 Q 3.05 52.7 3.05 51.55 3.05 50.4 3.5 49.65 L 25.1 12 Q 25.5 11.25 26.5 10.65 27.5 10.1 28.35 10.1 L 71.6 10.1 Q 72.45 10.1 73.5 10.65 74.45 11.25 74.9 12 L 96.5 49.65 Z"></path>
</g><mask id="mask">
<path fill="#FFFFFF" stroke="none" d=" M 96.9 51.55 Q 96.9 50.4 96.5 49.65 L 74.9 12 Q 74.45 11.25 73.5 10.65 72.45 10.1 71.6 10.1 L 28.35 10.1 Q 27.5 10.1 26.5 10.65 25.5 11.25 25.1 12 L 3.5 49.65 Q 3.05 50.4 3.05 51.55 3.05 52.7 3.5 53.4 L 25.1 91.1 Q 25.5 91.85 26.5 92.45 27.5 93 28.35 93 L 71.6 93 Q 72.45 93 73.5 92.45 74.45 91.85 74.9 91.1 L 96.5 53.4 Q 96.9 52.7 96.9 51.55 Z"></path>
</mask><g id="gloss-top">
<path fill="url(#Gradient_1)" stroke="none" d=" M 96.5 53.4 L 95.45 55.25 Q 98 52.85 99.9 50.3 99.7 49 99.15 48.1 L 77.55 10.45 Q 76.7 9 75 8.05 73.3 7 71.6 7 L 28.35 7 Q 26.7 7 25 8.05 23.3 9 22.45 10.45 L 0.8 48.1 Q 0.3 49.05 0.1 50.3 1.95 52.85 4.55 55.25 L 3.5 53.4 Q 3.05 52.7 3.05 51.55 3.05 50.4 3.5 49.65 L 25.1 12 Q 25.5 11.25 26.5 10.65 27.5 10.1 28.35 10.1 L 71.6 10.1 Q 72.45 10.1 73.5 10.65 74.45 11.25 74.9 12 L 96.5 49.65 Q 96.9 50.4 96.9 51.55 96.9 52.7 96.5 53.4 Z"></path>
</g><g id="gloss-right">
<path fill="url(#Gradient_2)" stroke="none" d=" M 99.15 55 Q 100 53.5 100 51.55 100 49.6 99.15 48.1 L 77.55 10.45 Q 76.7 9 75 8.05 73.3 7 71.6 7 L 28.35 7 Q 26.75 7 25.1 7.95 L 26.65 10.6 Q 27.6 10.1 28.35 10.1 L 71.6 10.1 Q 72.45 10.1 73.5 10.65 74.45 11.25 74.9 12 L 96.5 49.65 Q 96.9 50.4 96.9 51.55 96.9 52.7 96.5 53.4 L 74.9 91.1 Q 74.65 91.5 74.05 92 L 75.65 94.7 Q 76.9 93.7 77.55 92.65 L 99.15 55 Z"></path>
</g><g id="gloss-left">
<path fill="url(#Gradient_3)" stroke="none" d=" M 75.75 13.5 L 77.6 10.55 77.55 10.45 Q 76.7 9 75 8.05 73.3 7 71.6 7 L 28.35 7 Q 26.7 7 25 8.05 23.3 9 22.45 10.45 L 0.8 48.1 Q 0 49.6 0 51.55 0 53.5 0.8 55 L 22.45 92.65 Q 23.2 93.95 24.55 94.85 L 26.2 92.25 Q 25.45 91.65 25.1 91.1 L 3.5 53.4 Q 3.05 52.7 3.05 51.55 3.05 50.4 3.5 49.65 L 25.1 12 Q 25.5 11.25 26.5 10.65 27.5 10.1 28.35 10.1 L 71.6 10.1 Q 72.45 10.1 73.5 10.65 74.45 11.25 74.9 12 L 75.75 13.5 Z"></path>
</g>
			
	<linearGradient id="background-gradient" x1="0" y1="0" y2="1" x2="0" gradientTransform="rotate(90 0.5 0.5)">
		<stop stop-color="#255f18" offset="0%"></stop>
		<stop stop-color="#1d5c0f" offset="100%"></stop>
	</linearGradient>

			
			
			
			
		<linearGradient class="shapgradient" gradientTransform="rotate(0 0.5 0.5)" id="SvgjsLinearGradient1028"><stop stop-color="#3c592e" offset="0"></stop><stop stop-color="#9db21d" offset="1"></stop></linearGradient></defs><use xlink:href="#background" fill="url(#background-gradient)" class="background"></use><g class="geditable"><g mask="url(#mask)" fill="url(#SvgjsLinearGradient1028)" class="editable" transform="matrix(0.8,0,0,0.8,14.000000381469725,9.999999904632567)"><path d="M62.54051859843685 43.03261296774532A4.755 4.755 0 0 0 57.79051859843685 47.78261296774532V89.61561296774532A4.75 4.75 0 0 0 67.29051859843685 89.61561296774532V47.78261296774532A4.755 4.755 0 0 0 62.54051859843685 43.03261296774532ZM63.79051859843685 89.61561296774532A1.25 1.25 0 0 1 61.29051859843685 89.61561296774532V47.78261296774532A1.25 1.25 0 0 1 63.79051859843685 47.78261296774532Z " transform="matrix(0.8131811045246765,0,0,0.8131811045246765,5.062690584949031,2.1994425081090796)"></path><path d="M90.66451859843684 46.682609153048055C86.64751859843685 39.45260915304806 79.53751859843685 39.24160915304805 74.83351859843684 40.51060915304806V34.13260915304806A9.9 9.9 0 0 0 69.31251859843684 15.85660915304806A8.112 8.112 0 0 0 55.725518598436835 11.79560915304806A10.793 10.793 0 0 0 47.725518598436835 11.57960915304806A10.227 10.227 0 0 0 29.39151859843683 13.070609153048059A8.753 8.753 0 0 0 22.99751859843683 29.24460915304806V100.89760915304807A5.315 5.315 0 0 0 26.99751859843683 106.03160915304807V109.25860915304807A1.75 1.75 0 0 0 28.74751859843683 111.00860915304807H69.08251859843685A1.75 1.75 0 0 0 70.83251859843685 109.25860915304807V106.03160915304807A5.315 5.315 0 0 0 74.83251859843685 100.89760915304807V92.12760915304807C74.98851859843685 92.20960915304806 75.13251859843685 92.30160915304808 75.30251859843685 92.37360915304806A8.038 8.038 0 0 0 78.50251859843685 93.01660915304807A8.476 8.476 0 0 0 84.21451859843685 90.87660915304807A6.424 6.424 0 0 0 85.78351859843686 83.74160915304806C84.78351859843686 80.89460915304807 86.64951859843686 75.16260915304805 88.46051859843686 69.61860915304806C91.05651859843685 61.67760915304805 93.99651859843685 52.67560915304806 90.66451859843684 46.682609153048055ZM27.129518598436842 16.27160915304806A5.245 5.245 0 0 1 29.698518598436845 16.94660915304806A1.751 1.751 0 0 0 32.28551859843685 15.703609153048061A6.726 6.726 0 0 1 45.25251859843685 14.503609153048062A1.751 1.751 0 0 0 47.78551859843685 15.415609153048061A7.312 7.312 0 0 1 55.238518598436855 15.482609153048061A1.752 1.752 0 0 0 57.592518598436854 14.982609153048061A4.612 4.612 0 0 1 66.00051859843686 17.593609153048064C66.00051859843686 17.618609153048062 65.99151859843685 17.73560915304806 65.99151859843685 17.760609153048065A1.749 1.749 0 0 0 68.12751859843685 19.51560915304806A6.41 6.41 0 1 1 67.21151859843685 31.72560915304806A1.751 1.751 0 0 0 65.08051859843685 32.43960915304806A6.4 6.4 0 0 1 53.32751859843685 30.328609153048063A1.75 1.75 0 0 0 51.60951859843685 28.91160915304806H51.57651859843685L51.456518598436844 28.91860915304806A7.242 7.242 0 0 1 45.88451859843684 26.30860915304806A1.75 1.75 0 0 0 42.79051859843685 27.43060915304806V48.90760915304806A1.5 1.5 0 0 1 39.79051859843685 48.90760915304806V30.151609153048057A1.75 1.75 0 0 0 37.069518598436844 28.697609153048056A4.106 4.106 0 0 1 31.16951859843684 27.23260915304806A1.75 1.75 0 0 0 29.003518598436845 26.432609153048062A5.254 5.254 0 1 1 27.126518598436842 16.27260915304806ZM36.54051859843685 50.39060915304806V89.61560915304806A1.25 1.25 0 0 1 34.04051859843685 89.61560915304806V47.78260915304806A1.251 1.251 0 0 1 35.29051859843685 46.53260915304806A1.235 1.235 0 0 1 36.29051859843685 47.05060915304806V48.90760915304806A4.931 4.931 0 0 0 36.54051859843685 50.390609153048054ZM30.498518598436842 107.50960915304806V106.21860915304806H67.33251859843685V107.50960915304806ZM71.33251859843685 100.89860915304806A1.823 1.823 0 0 1 69.51151859843685 102.71860915304805H28.320518598436845A1.823 1.823 0 0 1 26.499518598436847 100.89860915304806V30.251609153048058C26.70851859843685 30.26660915304806 26.917518598436846 30.283609153048054 27.130518598436847 30.283609153048054A8.645 8.645 0 0 0 28.901518598436848 30.099609153048057A7.612 7.612 0 0 0 36.29151859843685 32.73860915304806V43.148609153048056A4.709 4.709 0 0 0 30.540518598436844 47.78260915304806V89.61560915304806A4.75 4.75 0 0 0 40.04051859843685 89.61560915304806V53.72960915304806A4.8 4.8 0 0 0 44.16951859843684 52.98260915304806V89.61560915304806A4.75 4.75 0 0 0 53.66951859843684 89.61560915304806V47.78260915304806A4.744 4.744 0 0 0 46.29451859843684 43.829609153048054V31.10160915304806A10.727 10.727 0 0 0 50.260518598436846 32.35460915304806A9.927 9.927 0 0 0 59.62151859843685 39.01360915304806A9.825 9.825 0 0 0 67.26351859843685 35.40360915304806A9.786 9.786 0 0 0 69.55151859843684 35.67460915304806A9.9 9.9 0 0 0 71.33651859843684 35.50460915304806ZM47.66951859843684 89.61560915304806V47.78260915304806A1.25 1.25 0 0 1 50.16951859843684 47.78260915304806V89.61560915304806A1.25 1.25 0 0 1 47.66951859843684 89.61560915304806ZM85.13651859843685 68.53260915304806C82.96251859843684 75.18960915304805 81.08551859843685 80.93760915304806 82.48651859843685 84.90660915304805A2.958 2.958 0 0 1 81.83351859843684 88.31560915304806A5.08 5.08 0 0 1 76.69951859843684 89.16460915304806A3.137 3.137 0 0 1 74.83351859843684 85.98960915304806V44.19260915304805A14.908 14.908 0 0 1 79.15051859843685 43.42760915304805A8.906 8.906 0 0 1 87.60351859843685 48.37660915304805C90.19451859843684 53.04060915304806 87.50751859843685 61.27160915304806 85.13651859843685 68.53260915304806Z " transform="matrix(0.8131811045246765,0,0,0.8131811045246765,5.062690584949031,2.1994425081090796)"></path></g></g><use xlink:href="#gloss-top" opacity="1" class="background"></use></g></svg>