<svg xmlns="http://www.w3.org/2000/svg" version="1.1" xmlns:xlink="http://www.w3.org/1999/xlink" xmlns:svgjs="http://svgjs.com/svgjs" width="83" height="83" viewBox="0 0 100 100"><g class="wrap" transform="matrix(1,0,0,1,0,0)"><defs class="background">
			<linearGradient id="Gradient_1" gradientUnits="userSpaceOnUse" x1="50" y1="7" x2="50" y2="55.2625" spreadMethod="pad">
<stop offset="0%" stop-color="#FFFFFF" stop-opacity="0.1"></stop>

<stop offset="100%" stop-color="#FFFFFF" stop-opacity="0.7"></stop>
</linearGradient><linearGradient id="Gradient_2" gradientUnits="userSpaceOnUse" x1="100" y1="51" x2="25" y2="50.85" spreadMethod="pad">
<stop offset="0%" stop-color="#FFFFFF" stop-opacity="0.1"></stop>

<stop offset="100%" stop-color="#FFFFFF" stop-opacity="0.7"></stop>
</linearGradient><linearGradient id="Gradient_3" gradientUnits="userSpaceOnUse" x1="0" y1="51" x2="77" y2="51" spreadMethod="pad">
<stop offset="0%" stop-color="#FFFFFF" stop-opacity="0.1"></stop>

<stop offset="100%" stop-color="#FFFFFF" stop-opacity="0.7"></stop>
</linearGradient><g id="background">
<path fill="url(#background-gradient)" stroke="none" d=" M 99.15 55 Q 100 53.5 100 51.55 100 49.6 99.15 48.1 L 77.55 10.45 Q 76.7 9 75 8.05 73.3 7 71.6 7 L 28.35 7 Q 26.7 7 25 8.05 23.3 9 22.45 10.45 L 0.8 48.1 Q 0 49.6 0 51.55 0 53.5 0.8 55 L 22.45 92.65 Q 23.3 94.1 25 95.1 26.7 96.05 28.35 96.05 L 71.6 96.05 Q 73.3 96.05 75 95.05 76.7 94.1 77.55 92.65 L 99.15 55 M 96.5 49.65 Q 96.9 50.4 96.9 51.55 96.9 52.7 96.5 53.4 L 74.9 91.1 Q 74.45 91.85 73.5 92.45 72.45 93 71.6 93 L 28.35 93 Q 27.5 93 26.5 92.45 25.5 91.85 25.1 91.1 L 3.5 53.4 Q 3.05 52.7 3.05 51.55 3.05 50.4 3.5 49.65 L 25.1 12 Q 25.5 11.25 26.5 10.65 27.5 10.1 28.35 10.1 L 71.6 10.1 Q 72.45 10.1 73.5 10.65 74.45 11.25 74.9 12 L 96.5 49.65 Z"></path>
</g><mask id="mask">
<path fill="#FFFFFF" stroke="none" d=" M 96.9 51.55 Q 96.9 50.4 96.5 49.65 L 74.9 12 Q 74.45 11.25 73.5 10.65 72.45 10.1 71.6 10.1 L 28.35 10.1 Q 27.5 10.1 26.5 10.65 25.5 11.25 25.1 12 L 3.5 49.65 Q 3.05 50.4 3.05 51.55 3.05 52.7 3.5 53.4 L 25.1 91.1 Q 25.5 91.85 26.5 92.45 27.5 93 28.35 93 L 71.6 93 Q 72.45 93 73.5 92.45 74.45 91.85 74.9 91.1 L 96.5 53.4 Q 96.9 52.7 96.9 51.55 Z"></path>
</mask><g id="gloss-top">
<path fill="url(#Gradient_1)" stroke="none" d=" M 96.5 53.4 L 95.45 55.25 Q 98 52.85 99.9 50.3 99.7 49 99.15 48.1 L 77.55 10.45 Q 76.7 9 75 8.05 73.3 7 71.6 7 L 28.35 7 Q 26.7 7 25 8.05 23.3 9 22.45 10.45 L 0.8 48.1 Q 0.3 49.05 0.1 50.3 1.95 52.85 4.55 55.25 L 3.5 53.4 Q 3.05 52.7 3.05 51.55 3.05 50.4 3.5 49.65 L 25.1 12 Q 25.5 11.25 26.5 10.65 27.5 10.1 28.35 10.1 L 71.6 10.1 Q 72.45 10.1 73.5 10.65 74.45 11.25 74.9 12 L 96.5 49.65 Q 96.9 50.4 96.9 51.55 96.9 52.7 96.5 53.4 Z"></path>
</g><g id="gloss-right">
<path fill="url(#Gradient_2)" stroke="none" d=" M 99.15 55 Q 100 53.5 100 51.55 100 49.6 99.15 48.1 L 77.55 10.45 Q 76.7 9 75 8.05 73.3 7 71.6 7 L 28.35 7 Q 26.75 7 25.1 7.95 L 26.65 10.6 Q 27.6 10.1 28.35 10.1 L 71.6 10.1 Q 72.45 10.1 73.5 10.65 74.45 11.25 74.9 12 L 96.5 49.65 Q 96.9 50.4 96.9 51.55 96.9 52.7 96.5 53.4 L 74.9 91.1 Q 74.65 91.5 74.05 92 L 75.65 94.7 Q 76.9 93.7 77.55 92.65 L 99.15 55 Z"></path>
</g><g id="gloss-left">
<path fill="url(#Gradient_3)" stroke="none" d=" M 75.75 13.5 L 77.6 10.55 77.55 10.45 Q 76.7 9 75 8.05 73.3 7 71.6 7 L 28.35 7 Q 26.7 7 25 8.05 23.3 9 22.45 10.45 L 0.8 48.1 Q 0 49.6 0 51.55 0 53.5 0.8 55 L 22.45 92.65 Q 23.2 93.95 24.55 94.85 L 26.2 92.25 Q 25.45 91.65 25.1 91.1 L 3.5 53.4 Q 3.05 52.7 3.05 51.55 3.05 50.4 3.5 49.65 L 25.1 12 Q 25.5 11.25 26.5 10.65 27.5 10.1 28.35 10.1 L 71.6 10.1 Q 72.45 10.1 73.5 10.65 74.45 11.25 74.9 12 L 75.75 13.5 Z"></path>
</g>
			
	<linearGradient id="background-gradient" x1="0" y1="0" y2="1" x2="0" gradientTransform="rotate(90 0.5 0.5)">
		<stop stop-color="#255f18" offset="0%"></stop>
		<stop stop-color="#1d5c0f" offset="100%"></stop>
	</linearGradient>

			
			
			
			
		<linearGradient class="shapgradient" gradientTransform="rotate(0 0.5 0.5)" id="SvgjsLinearGradient1095"><stop stop-color="#3c592e" offset="0"></stop><stop stop-color="#9db21d" offset="1"></stop></linearGradient></defs><use xlink:href="#background" fill="url(#background-gradient)" class="background"></use><g class="geditable"><g mask="url(#mask)" fill="url(#SvgjsLinearGradient1095)" class="editable" transform="matrix(0.9,0,0,0.9,4.999999809265134,6.999999809265134)"><ellipse cx="372.75746061060613" cy="484.7808885697659" rx="7.962" ry="7.962" transform="matrix(0.11402347827797352,-0.026953134639192095,0.026953134639192095,0.11402347827797352,-10.182849904841438,22.0281026663992)"></ellipse><ellipse cx="451.5834493801374" cy="484.7808885697659" rx="7.962" ry="7.962" transform="matrix(0.11402347827797352,-0.026953134639192095,0.026953134639192095,0.11402347827797352,-9.935701378954251,24.150369050380803)"></ellipse><path d="M326.5373258460965 271.38390836181975C322.3953258460965 271.38390836181975 319.0373258460965 274.7419083618198 319.0373258460965 278.88390836181975S322.3953258460965 286.38390836181975 326.5373258460965 286.38390836181975C335.8093258460965 286.38390836181975 343.35332584609654 293.92690836181976 343.35332584609654 303.1999083618198C343.35332584609654 307.3419083618197 346.7113258460965 310.6999083618198 350.85332584609654 310.6999083618198S358.35332584609654 307.3419083618197 358.35332584609654 303.1999083618198C358.3523258460965 285.65590836181974 344.0803258460965 271.38390836181975 326.5373258460965 271.38390836181975Z " transform="matrix(0.11718754190953085,0,0,0.11718754190953085,-0.00007282569658739623,14.931928253609476)"></path><path d="M534.2963258460966 278.88390836181975C534.2963258460966 274.7419083618198 530.9393258460966 271.38390836181975 526.7963258460966 271.38390836181975C509.25232584609654 271.38390836181975 494.98032584609655 285.6559083618198 494.98032584609655 303.1999083618198C494.98032584609655 307.3419083618197 498.3373258460966 310.6999083618198 502.48032584609655 310.6999083618198S509.98032584609655 307.3419083618197 509.98032584609655 303.1999083618198C509.98032584609655 293.92790836181973 517.5243258460966 286.38390836181975 526.7963258460966 286.38390836181975C530.9393258460966 286.38390836181975 534.2963258460966 283.02590836181975 534.2963258460966 278.88390836181975Z " transform="matrix(0.11718754190953085,0,0,0.11718754190953085,-0.00007282569658739623,14.931928253609476)"></path><path d="M677.2253740066495 229.58489882507666L640.8473740066496 183.51089882507665C632.7533740066496 173.26089882507665 619.0233740066495 169.23589882507667 606.6753740066496 173.49789882507667C577.6213740066496 183.18089882507667 571.1653740066496 186.67189882507665 557.5493740066496 188.91189882507666C572.2753740066496 175.18389882507665 584.6423740066497 158.75989882507665 594.4303740066496 139.83189882507665C604.2143740066496 120.91089882507664 611.2463740066496 99.98589882507665 615.3323740066496 77.63689882507664C618.0703740066496 62.65889882507665 599.0693740066496 53.848898825076645 589.3633740066496 65.59189882507664C581.7683740066495 74.77789882507665 571.9883740066496 85.31189882507664 560.2943740066496 96.89889882507664C524.6573740066495 132.20789882507665 482.21437400664956 137.51089882507665 465.4913740066496 138.14289882507666H387.8333740066496C377.2643740066495 137.74189882507665 356.2123740066495 135.45789882507665 333.0533740066495 124.72089882507665C329.29637400664956 122.97989882507665 324.8373740066495 124.61289882507664 323.09437400664956 128.36989882507663C321.3523740066496 132.12789882507664 322.9863740066495 136.58689882507664 326.74337400664956 138.32889882507664C336.0293740066495 142.63489882507665 345.0163740066496 145.70289882507666 353.2603740066495 147.89189882507665C346.8993740066495 151.82689882507665 341.1743740066495 156.87289882507665 336.3703740066495 162.91989882507664L317.0193740066495 187.27789882507665C275.53737400664954 155.38389882507664 259.2323740066495 109.61489882507666 252.9113740066495 75.75489882507667C260.73837400664956 85.16889882507667 270.6823740066495 95.86289882507667 282.4813740066495 107.55389882507667C286.54737400664953 111.58289882507667 290.8613740066495 115.41589882507667 295.3043740066495 118.94589882507667C298.54737400664953 121.52389882507667 303.2643740066495 120.98389882507666 305.8423740066495 117.74089882507667C308.4193740066495 114.49789882507667 307.8803740066495 109.77989882507667 304.63737400664957 107.20289882507667C300.6203740066495 104.01089882507667 296.71937400664956 100.54389882507667 293.0393740066495 96.89789882507667C281.3373740066495 85.30489882507668 271.5573740066495 74.77189882507668 263.97037400664954 65.59189882507667C254.27037400664952 53.85489882507667 235.2623740066495 62.650898825076666 238.0013740066495 77.63589882507667C242.0863740066495 99.98389882507666 249.1193740066495 120.90989882507667 258.9033740066495 139.83089882507667C268.6923740066495 158.75989882507668 281.0593740066495 175.1848988250767 295.78637400664957 188.9128988250767C282.1543740066495 186.6698988250767 275.5043740066495 183.1118988250767 246.6583740066495 173.49789882507667C234.3123740066495 169.2348988250767 220.58037400664952 173.2588988250767 212.48637400664953 183.5108988250767L176.1073740066495 229.5858988250767C166.15637400664951 242.19089882507672 170.3443740066495 260.7318988250767 184.6963740066495 267.86089882507673C199.75937400664952 274.1338988250767 217.9293740066495 288.88689882507674 250.22337400664952 288.88689882507674C262.9663740066495 288.88689882507674 275.6923740066495 286.41289882507675 287.6743740066495 281.5038988250767C288.52337400664953 290.27189882507673 290.2803740066495 299.0178988250767 292.9903740066495 307.6038988250767L332.96037400664954 434.2268988250767L322.4533740066495 469.7168988250767C315.94137400664954 491.7148988250767 335.2753740066495 512.7248988250767 357.76237400664957 507.99989882507674C359.2653740066495 507.68389882507677 360.77137400664947 507.4068988250767 362.2763740066496 507.11189882507676C372.79737400664953 525.7638988250768 398.1753740066496 538.3338988250767 426.66637400664956 538.3338988250767S480.5343740066495 525.7638988250768 491.05637400664955 507.11189882507676C492.56137400664954 507.4068988250768 494.06637400664954 507.68389882507677 495.57037400664956 507.99989882507674C517.9363740066495 512.7008988250768 537.4243740066495 491.8228988250767 530.8793740066495 469.7168988250767L520.3713740066496 434.2268988250767L533.0833740066496 393.95689882507673C534.3303740066495 390.00689882507675 532.1393740066495 385.7938988250767 528.1883740066496 384.5468988250767C524.2383740066496 383.2998988250767 520.0253740066496 385.4908988250767 518.7783740066495 389.4418988250767L511.3613740066496 412.9368988250767C499.8953740066496 397.5698988250767 479.8223740066496 392.2008988250767 462.53737400664954 398.99089882507667H462.53637400664957C439.40337400664964 408.0748988250767 413.92637400664955 408.0748988250767 390.7943740066496 398.99089882507667C373.4823740066496 392.19289882507667 353.4243740066496 397.5858988250767 341.97037400664954 412.9368988250767L307.2953740066496 303.0888988250767C296.05637400664955 267.4838988250767 303.2113740066495 228.77389882507669 326.43637400664954 199.5398988250767L348.11437400664954 172.25289882507667C357.7613740066495 160.1098988250767 372.1893740066495 153.14489882507667 387.6983740066495 153.14489882507667H465.63337400664955C481.14237400664956 153.14489882507667 495.57037400664956 160.1098988250767 505.2183740066496 172.25289882507667L526.8973740066496 199.5398988250767C550.1213740066495 228.77489882507666 557.2783740066495 267.4848988250767 546.0373740066495 303.0888988250767L529.4463740066495 355.6468988250767C528.1993740066495 359.59689882507666 530.3903740066495 363.8098988250767 534.3403740066495 365.0568988250767C538.2903740066495 366.3028988250767 542.5033740066496 364.1128988250767 543.7503740066495 360.1618988250767L560.3413740066495 307.6038988250767C563.0513740066496 299.01889882507675 564.8083740066495 290.27389882507674 565.6573740066495 281.5078988250767C577.6393740066495 286.4188988250767 590.3653740066495 288.88689882507674 603.1083740066496 288.88689882507674C635.4273740066495 288.88489882507673 653.5923740066495 274.1258988250767 668.6363740066496 267.86089882507673C675.4853740066495 264.4598988250767 680.3723740066496 258.2298988250767 682.0473740066495 250.7688988250767C683.7223740066495 243.3068988250767 681.9643740066496 235.5858988250767 677.2253740066495 229.58489882507672ZM426.66737400664954 523.3338988250766C406.4323740066495 523.3338988250766 387.87437400664953 515.7128988250766 378.4953740066495 504.33589882507664C410.53737400664954 499.65289882507665 442.79637400664956 499.65289882507665 474.83937400664956 504.33589882507664C465.45937400664957 515.7128988250766 446.9013740066496 523.3338988250766 426.66737400664954 523.3338988250766ZM385.3133740066496 412.9518988250766C411.97937400664955 423.42489882507664 441.35437400664955 423.4238988250766 468.0213740066496 412.9518988250766C482.57537400664955 407.2378988250766 499.06537400664956 415.09789882507664 503.57137400664965 430.3178988250766L516.4973740066496 473.9748988250766C519.7943740066496 485.1098988250766 509.9953740066496 495.7048988250766 498.6543740066496 493.3198988250766C474.7703740066496 488.3028988250766 450.7183740066496 485.7938988250766 426.66637400664956 485.7938988250766S378.56237400664963 488.3028988250766 354.6783740066496 493.3198988250766C343.3323740066496 495.7008988250766 333.5393740066496 485.1068988250766 336.83637400664963 473.9738988250766L349.7613740066496 430.31689882507663C354.20937400664957 415.29789882507663 370.56137400664966 407.1588988250766 385.3133740066496 412.9518988250766ZM224.25837400664955 192.80589882507667C228.40337400664956 187.55489882507663 235.43737400664955 185.49189882507665 241.76337400664954 187.67689882507665C268.2263740066495 196.07389882507664 281.03737400664954 203.44489882507668 304.5633740066496 205.00289882507667C303.0103740066496 207.64889882507663 301.5483740066496 210.33889882507668 300.1973740066496 213.07389882507664C262.2603740066496 206.34389882507668 236.62837400664958 188.86089882507667 212.28837400664955 210.55789882507668L205.62337400664956 216.40889882507668ZM191.36837400664953 254.42589882507667C190.06737400664954 253.77989882507666 188.95037400664955 252.87489882507668 188.05037400664955 251.79289882507663L222.22737400664954 221.79289882507663C238.87737400664955 206.95189882507663 257.79637400664956 220.14089882507665 294.2473740066496 227.22489882507665C289.9443740066496 239.48289882507663 287.54237400664954 252.32689882507663 287.13737400664957 265.30989882507663C239.37637400664954 288.74389882507666 201.85337400664955 257.65989882507665 191.36837400664953 254.42589882507662ZM611.5703740066496 187.67689882507665C617.8963740066496 185.4948988250767 624.9283740066496 187.55489882507663 629.0743740066496 192.80589882507667L647.7053740066495 216.40289882507665L641.0903740066495 210.5958988250767C616.6853740066496 188.84189882507667 591.0403740066496 206.3528988250767 553.1373740066496 213.0738988250767C551.7873740066495 210.33889882507668 550.3253740066496 207.64989882507666 548.7723740066496 205.0038988250767C572.2443740066495 203.4488988250767 584.9103740066496 196.13789882507666 611.5703740066496 187.6768988250767ZM516.9633740066496 162.91989882507664C512.1593740066496 156.87289882507667 506.43537400664957 151.82789882507666 500.0743740066496 147.89189882507665C521.2803740066496 142.26089882507665 547.4033740066496 130.78789882507664 570.8523740066496 107.55289882507665C582.6193740066497 95.89389882507665 592.5483740066496 85.21889882507665 600.4273740066496 75.75589882507666C594.1243740066496 109.55189882507666 577.8263740066496 155.36089882507667 536.3143740066496 187.27689882507667ZM661.9653740066497 254.42589882507667C651.5263740066496 257.6468988250767 614.0523740066496 288.79789882507663 566.1973740066496 265.3198988250767C565.7933740066496 252.3338988250767 563.3913740066497 239.48689882507665 559.0873740066496 227.22589882507668C595.6033740066497 220.12889882507665 614.4473740066496 206.9418988250767 631.1523740066497 221.83089882507664L665.2843740066496 251.79189882507666C664.3843740066496 252.87389882507665 663.2663740066497 253.77989882507666 661.9653740066497 254.42589882507667Z " transform="matrix(0.11718754190953085,0,0,0.11718754190953085,-0.00007282569658739623,14.931928253609476)"></path></g></g><use xlink:href="#gloss-top" opacity="1" class="background"></use></g></svg>