<svg xmlns="http://www.w3.org/2000/svg" version="1.1" xmlns:xlink="http://www.w3.org/1999/xlink" xmlns:svgjs="http://svgjs.com/svgjs" width="83" height="83" viewBox="0 0 100 100"><g class="wrap" transform="matrix(1,0,0,1,0,0)"><defs class="background">
			<linearGradient id="Gradient_1" gradientUnits="userSpaceOnUse" x1="50" y1="7" x2="50" y2="55.2625" spreadMethod="pad">
<stop offset="0%" stop-color="#FFFFFF" stop-opacity="0.1"></stop>

<stop offset="100%" stop-color="#FFFFFF" stop-opacity="0.7"></stop>
</linearGradient><linearGradient id="Gradient_2" gradientUnits="userSpaceOnUse" x1="100" y1="51" x2="25" y2="50.85" spreadMethod="pad">
<stop offset="0%" stop-color="#FFFFFF" stop-opacity="0.1"></stop>

<stop offset="100%" stop-color="#FFFFFF" stop-opacity="0.7"></stop>
</linearGradient><linearGradient id="Gradient_3" gradientUnits="userSpaceOnUse" x1="0" y1="51" x2="77" y2="51" spreadMethod="pad">
<stop offset="0%" stop-color="#FFFFFF" stop-opacity="0.1"></stop>

<stop offset="100%" stop-color="#FFFFFF" stop-opacity="0.7"></stop>
</linearGradient><g id="background">
<path fill="url(#background-gradient)" stroke="none" d=" M 99.15 55 Q 100 53.5 100 51.55 100 49.6 99.15 48.1 L 77.55 10.45 Q 76.7 9 75 8.05 73.3 7 71.6 7 L 28.35 7 Q 26.7 7 25 8.05 23.3 9 22.45 10.45 L 0.8 48.1 Q 0 49.6 0 51.55 0 53.5 0.8 55 L 22.45 92.65 Q 23.3 94.1 25 95.1 26.7 96.05 28.35 96.05 L 71.6 96.05 Q 73.3 96.05 75 95.05 76.7 94.1 77.55 92.65 L 99.15 55 M 96.5 49.65 Q 96.9 50.4 96.9 51.55 96.9 52.7 96.5 53.4 L 74.9 91.1 Q 74.45 91.85 73.5 92.45 72.45 93 71.6 93 L 28.35 93 Q 27.5 93 26.5 92.45 25.5 91.85 25.1 91.1 L 3.5 53.4 Q 3.05 52.7 3.05 51.55 3.05 50.4 3.5 49.65 L 25.1 12 Q 25.5 11.25 26.5 10.65 27.5 10.1 28.35 10.1 L 71.6 10.1 Q 72.45 10.1 73.5 10.65 74.45 11.25 74.9 12 L 96.5 49.65 Z"></path>
</g><mask id="mask">
<path fill="#FFFFFF" stroke="none" d=" M 96.9 51.55 Q 96.9 50.4 96.5 49.65 L 74.9 12 Q 74.45 11.25 73.5 10.65 72.45 10.1 71.6 10.1 L 28.35 10.1 Q 27.5 10.1 26.5 10.65 25.5 11.25 25.1 12 L 3.5 49.65 Q 3.05 50.4 3.05 51.55 3.05 52.7 3.5 53.4 L 25.1 91.1 Q 25.5 91.85 26.5 92.45 27.5 93 28.35 93 L 71.6 93 Q 72.45 93 73.5 92.45 74.45 91.85 74.9 91.1 L 96.5 53.4 Q 96.9 52.7 96.9 51.55 Z"></path>
</mask><g id="gloss-top">
<path fill="url(#Gradient_1)" stroke="none" d=" M 96.5 53.4 L 95.45 55.25 Q 98 52.85 99.9 50.3 99.7 49 99.15 48.1 L 77.55 10.45 Q 76.7 9 75 8.05 73.3 7 71.6 7 L 28.35 7 Q 26.7 7 25 8.05 23.3 9 22.45 10.45 L 0.8 48.1 Q 0.3 49.05 0.1 50.3 1.95 52.85 4.55 55.25 L 3.5 53.4 Q 3.05 52.7 3.05 51.55 3.05 50.4 3.5 49.65 L 25.1 12 Q 25.5 11.25 26.5 10.65 27.5 10.1 28.35 10.1 L 71.6 10.1 Q 72.45 10.1 73.5 10.65 74.45 11.25 74.9 12 L 96.5 49.65 Q 96.9 50.4 96.9 51.55 96.9 52.7 96.5 53.4 Z"></path>
</g><g id="gloss-right">
<path fill="url(#Gradient_2)" stroke="none" d=" M 99.15 55 Q 100 53.5 100 51.55 100 49.6 99.15 48.1 L 77.55 10.45 Q 76.7 9 75 8.05 73.3 7 71.6 7 L 28.35 7 Q 26.75 7 25.1 7.95 L 26.65 10.6 Q 27.6 10.1 28.35 10.1 L 71.6 10.1 Q 72.45 10.1 73.5 10.65 74.45 11.25 74.9 12 L 96.5 49.65 Q 96.9 50.4 96.9 51.55 96.9 52.7 96.5 53.4 L 74.9 91.1 Q 74.65 91.5 74.05 92 L 75.65 94.7 Q 76.9 93.7 77.55 92.65 L 99.15 55 Z"></path>
</g><g id="gloss-left">
<path fill="url(#Gradient_3)" stroke="none" d=" M 75.75 13.5 L 77.6 10.55 77.55 10.45 Q 76.7 9 75 8.05 73.3 7 71.6 7 L 28.35 7 Q 26.7 7 25 8.05 23.3 9 22.45 10.45 L 0.8 48.1 Q 0 49.6 0 51.55 0 53.5 0.8 55 L 22.45 92.65 Q 23.2 93.95 24.55 94.85 L 26.2 92.25 Q 25.45 91.65 25.1 91.1 L 3.5 53.4 Q 3.05 52.7 3.05 51.55 3.05 50.4 3.5 49.65 L 25.1 12 Q 25.5 11.25 26.5 10.65 27.5 10.1 28.35 10.1 L 71.6 10.1 Q 72.45 10.1 73.5 10.65 74.45 11.25 74.9 12 L 75.75 13.5 Z"></path>
</g>
			
	<linearGradient id="background-gradient" x1="0" y1="0" y2="1" x2="0" gradientTransform="rotate(90 0.5 0.5)">
		<stop stop-color="#255f18" offset="0%"></stop>
		<stop stop-color="#1d5c0f" offset="100%"></stop>
	</linearGradient>

			
			
			
			
		<linearGradient class="shapgradient" gradientTransform="rotate(0 0.5 0.5)" id="SvgjsLinearGradient1068"><stop stop-color="#3c592e" offset="0"></stop><stop stop-color="#9db21d" offset="1"></stop></linearGradient></defs><use xlink:href="#background" fill="url(#background-gradient)" class="background"></use><g class="geditable"><g mask="url(#mask)" fill="url(#SvgjsLinearGradient1068)" class="editable" transform="matrix(0.9,0,0,0.9,5,5)"><g transform="matrix(0.15625,0,0,0.15625,54,0)">
	<g>
		<g>
			<path d="M10.108030517578129 367.1040305175781C3.837030517578114 358.5210305175781 -0.7049694824218591 352.3230305175781 -0.7049694824218591 341.3330305175781C-0.7049694824218591 337.3120305175781 -2.975969482421874 333.62503051757807 -6.558969482421844 331.8120305175781C-10.121969482421832 330.01003051757806 -14.433969482421844 330.3430305175781 -17.70496948242186 332.75003051757807C-30.912969482421857 342.47903051757805 -41.14296948242185 356.01003051757806 -45.76796948242185 369.88503051757806C-46.080969482421835 370.8430305175781 -46.37196948242186 371.80203051757803 -46.663969482421834 372.75003051757807C-47.14296948242185 372.2810305175781 -47.663969482421834 371.8650305175781 -48.24696948242183 371.50003051757807C-51.37196948242183 369.4580305175781 -55.288969482421834 369.22903051757805 -58.663969482421834 370.8330305175781C-60.64296948242185 371.7810305175781 -78.01796948242185 381.0100305175781 -78.87196948242183 411.6460305175781L-78.93496948242182 414.6670305175781C-78.93496948242182 444.8130305175781 -55.01796948242182 469.33403051757807 -25.601969482421822 469.33403051757807S27.731030517578176 444.81303051757806 27.731030517578176 414.66703051757804C27.731030517578176 413.10403051757805 27.62703051757819 411.66703051757804 27.46003051757816 409.16703051757804C25.921030517578117 388.7190305175781 17.150030517578102 376.7290305175781 10.108030517578129 367.1040305175781ZM-25.599969482421898 448.0000305175781C-43.24596948242191 448.0000305175781 -57.5999694824219 433.0420305175781 -57.5999694824219 414.66703051757816L-57.557969482421896 412.49003051757813C-57.4749694824219 409.11503051757813 -57.0999694824219 406.2090305175781 -56.5999694824219 403.7090305175781C-56.557969482421896 403.76103051757815 -56.495969482421884 403.8030305175781 -56.45396948242191 403.85503051757814C-52.12096948242191 408.31303051757817 -46.37096948242191 410.66803051757813 -39.82896948242191 410.66803051757813C-33.932969482421925 410.66803051757813 -29.16196948242191 405.8970305175781 -29.16196948242191 400.00103051757816C-29.16196948242191 394.34503051757815 -28.53696948242191 385.68803051757817 -25.515969482421895 376.62603051757816C-23.890969482421895 371.76103051757815 -21.24496948242188 366.90703051757816 -17.765969482421895 362.37603051757816C-14.848969482421921 369.11603051757817 -10.848969482421921 374.59503051757815 -7.098969482421921 379.69903051757814C-0.5569694824219482 388.65703051757816 5.1090305175781054 396.3870305175781 6.255030517578064 411.78203051757816L6.401030517578079 414.66703051757816C6.400030517578102 433.0420305175781 -7.953969482421883 448.0000305175781 -25.599969482421898 448.0000305175781Z "></path>
			<path d="M123.733 402.094C123.35399999999998 312.515 106.79000000000002 246.89499999999998 39.48900000000003 223.171C42.36400000000003 211.149 50.644000000000005 192.17399999999998 58.212000000000046 174.94799999999998C69.96200000000005 148.146 81.06600000000003 122.833 81.06600000000003 106.66699999999999C81.06699999999995 86.979 69.89999999999998 64 38.39999999999998 64C14.982999999999947 64 9.607999999999947 76.719 6.711999999999989 83.55199999999999C6.420000000000016 84.208 6.086999999999989 85.021 6.086999999999989 85.32300000000001C4.940999999999974 85.281 4.211999999999989 84.813 0.6909999999999741 80.82300000000001C-5.225000000000023 74.125 -14.18300000000005 64 -36.267000000000024 64C-64.89200000000002 64 -80.37100000000004 92.438 -86.28800000000001 106.55199999999999C-96.41300000000001 106.82300000000001 -113.267 108.80199999999999 -123.476 118.30199999999999C-129.226 123.646 -132.268 130.687 -132.268 138.667C-132.268 152.80200000000002 -121.518 169.99 -110.12200000000001 188.188C-102.53500000000003 200.296 -94.38900000000001 213.53 -91.24800000000002 223.378C-158.07600000000002 247.271 -174.55700000000002 312.76599999999996 -174.93400000000003 402.094C-183.47500000000002 415.125 -217.60000000000002 469.802 -217.60000000000002 512C-217.60000000000002 567.688 -97.30800000000002 576 -25.600000000000023 576S166.39999999999998 567.687 166.39999999999998 512C166.39999999999998 469.802 132.27499999999998 415.125 123.733 402.094ZM-92.03700000000003 176.865C-100.45400000000004 163.417 -110.93300000000005 146.677 -110.93300000000005 138.667C-110.93300000000005 136.615 -110.37000000000006 135.24 -108.95400000000004 133.938C-102.91200000000003 128.313 -86.60000000000002 127.5 -79.68300000000005 127.969C-74.78700000000006 128.344 -70.20400000000006 125.19800000000001 -68.72500000000005 120.438C-68.62100000000004 120.094 -57.37100000000004 85.334 -36.26700000000005 85.334C-23.788000000000068 85.334 -20.038000000000068 89.57400000000001 -15.288000000000068 94.94900000000001C-10.934000000000083 99.897 -4.934000000000083 106.668 6.39999999999992 106.668C20.08799999999991 106.668 24.316999999999894 96.678 26.357999999999947 91.86600000000001C28.357999999999947 87.11600000000001 29.128999999999962 85.33500000000001 38.39999999999992 85.33500000000001C56.02499999999992 85.33500000000001 59.73299999999995 96.93900000000001 59.73299999999995 106.668C59.73299999999995 118.35600000000001 48.54499999999996 143.866 38.66999999999996 166.376C30.034999999999968 186.037 22.321999999999946 203.67700000000002 18.906999999999982 217.478C5.673999999999978 214.82000000000002 -9.012 213.335 -25.601000000000028 213.335C-42.398000000000025 213.335 -57.23100000000002 214.87 -70.59100000000004 217.594C-74.46800000000002 205 -83.03600000000003 191.237 -92.03700000000003 176.865ZM-25.600000000000023 554.6669999999999C-126.07900000000001 554.6669999999999 -196.26700000000002 537.125 -196.26700000000002 512C-196.26700000000002 471.41700000000003 -155.87100000000004 411.95799999999997 -155.47500000000002 411.365C-154.24600000000004 409.584 -153.60000000000002 407.48 -153.60000000000002 405.334C-153.60000000000002 279.324 -120.10000000000002 234.667 -25.600000000000023 234.667S102.39999999999998 279.323 102.39999999999998 405.334C102.39999999999998 407.49 103.04599999999999 409.594 104.27499999999998 411.365C104.67099999999999 411.959 145.067 471.334 145.067 512C145.06699999999995 537.125 74.87899999999996 554.6669999999999 -25.600000000000023 554.6669999999999Z "></path>
		</g>
	</g>
</g></g></g><use xlink:href="#gloss-top" opacity="1" class="background"></use></g></svg>