<svg xmlns="http://www.w3.org/2000/svg" version="1.1" xmlns:xlink="http://www.w3.org/1999/xlink" xmlns:svgjs="http://svgjs.com/svgjs" width="83" height="83" viewBox="0 0 100 100"><g class="wrap" transform="matrix(1,0,0,1,0,0)"><defs class="background">
			<linearGradient id="Gradient_1" gradientUnits="userSpaceOnUse" x1="50" y1="7" x2="50" y2="55.2625" spreadMethod="pad">
<stop offset="0%" stop-color="#FFFFFF" stop-opacity="0.1"></stop>

<stop offset="100%" stop-color="#FFFFFF" stop-opacity="0.7"></stop>
</linearGradient><linearGradient id="Gradient_2" gradientUnits="userSpaceOnUse" x1="100" y1="51" x2="25" y2="50.85" spreadMethod="pad">
<stop offset="0%" stop-color="#FFFFFF" stop-opacity="0.1"></stop>

<stop offset="100%" stop-color="#FFFFFF" stop-opacity="0.7"></stop>
</linearGradient><linearGradient id="Gradient_3" gradientUnits="userSpaceOnUse" x1="0" y1="51" x2="77" y2="51" spreadMethod="pad">
<stop offset="0%" stop-color="#FFFFFF" stop-opacity="0.1"></stop>

<stop offset="100%" stop-color="#FFFFFF" stop-opacity="0.7"></stop>
</linearGradient><g id="background">
<path fill="url(#background-gradient)" stroke="none" d=" M 99.15 55 Q 100 53.5 100 51.55 100 49.6 99.15 48.1 L 77.55 10.45 Q 76.7 9 75 8.05 73.3 7 71.6 7 L 28.35 7 Q 26.7 7 25 8.05 23.3 9 22.45 10.45 L 0.8 48.1 Q 0 49.6 0 51.55 0 53.5 0.8 55 L 22.45 92.65 Q 23.3 94.1 25 95.1 26.7 96.05 28.35 96.05 L 71.6 96.05 Q 73.3 96.05 75 95.05 76.7 94.1 77.55 92.65 L 99.15 55 M 96.5 49.65 Q 96.9 50.4 96.9 51.55 96.9 52.7 96.5 53.4 L 74.9 91.1 Q 74.45 91.85 73.5 92.45 72.45 93 71.6 93 L 28.35 93 Q 27.5 93 26.5 92.45 25.5 91.85 25.1 91.1 L 3.5 53.4 Q 3.05 52.7 3.05 51.55 3.05 50.4 3.5 49.65 L 25.1 12 Q 25.5 11.25 26.5 10.65 27.5 10.1 28.35 10.1 L 71.6 10.1 Q 72.45 10.1 73.5 10.65 74.45 11.25 74.9 12 L 96.5 49.65 Z"></path>
</g><mask id="mask">
<path fill="#FFFFFF" stroke="none" d=" M 96.9 51.55 Q 96.9 50.4 96.5 49.65 L 74.9 12 Q 74.45 11.25 73.5 10.65 72.45 10.1 71.6 10.1 L 28.35 10.1 Q 27.5 10.1 26.5 10.65 25.5 11.25 25.1 12 L 3.5 49.65 Q 3.05 50.4 3.05 51.55 3.05 52.7 3.5 53.4 L 25.1 91.1 Q 25.5 91.85 26.5 92.45 27.5 93 28.35 93 L 71.6 93 Q 72.45 93 73.5 92.45 74.45 91.85 74.9 91.1 L 96.5 53.4 Q 96.9 52.7 96.9 51.55 Z"></path>
</mask><g id="gloss-top">
<path fill="url(#Gradient_1)" stroke="none" d=" M 96.5 53.4 L 95.45 55.25 Q 98 52.85 99.9 50.3 99.7 49 99.15 48.1 L 77.55 10.45 Q 76.7 9 75 8.05 73.3 7 71.6 7 L 28.35 7 Q 26.7 7 25 8.05 23.3 9 22.45 10.45 L 0.8 48.1 Q 0.3 49.05 0.1 50.3 1.95 52.85 4.55 55.25 L 3.5 53.4 Q 3.05 52.7 3.05 51.55 3.05 50.4 3.5 49.65 L 25.1 12 Q 25.5 11.25 26.5 10.65 27.5 10.1 28.35 10.1 L 71.6 10.1 Q 72.45 10.1 73.5 10.65 74.45 11.25 74.9 12 L 96.5 49.65 Q 96.9 50.4 96.9 51.55 96.9 52.7 96.5 53.4 Z"></path>
</g><g id="gloss-right">
<path fill="url(#Gradient_2)" stroke="none" d=" M 99.15 55 Q 100 53.5 100 51.55 100 49.6 99.15 48.1 L 77.55 10.45 Q 76.7 9 75 8.05 73.3 7 71.6 7 L 28.35 7 Q 26.75 7 25.1 7.95 L 26.65 10.6 Q 27.6 10.1 28.35 10.1 L 71.6 10.1 Q 72.45 10.1 73.5 10.65 74.45 11.25 74.9 12 L 96.5 49.65 Q 96.9 50.4 96.9 51.55 96.9 52.7 96.5 53.4 L 74.9 91.1 Q 74.65 91.5 74.05 92 L 75.65 94.7 Q 76.9 93.7 77.55 92.65 L 99.15 55 Z"></path>
</g><g id="gloss-left">
<path fill="url(#Gradient_3)" stroke="none" d=" M 75.75 13.5 L 77.6 10.55 77.55 10.45 Q 76.7 9 75 8.05 73.3 7 71.6 7 L 28.35 7 Q 26.7 7 25 8.05 23.3 9 22.45 10.45 L 0.8 48.1 Q 0 49.6 0 51.55 0 53.5 0.8 55 L 22.45 92.65 Q 23.2 93.95 24.55 94.85 L 26.2 92.25 Q 25.45 91.65 25.1 91.1 L 3.5 53.4 Q 3.05 52.7 3.05 51.55 3.05 50.4 3.5 49.65 L 25.1 12 Q 25.5 11.25 26.5 10.65 27.5 10.1 28.35 10.1 L 71.6 10.1 Q 72.45 10.1 73.5 10.65 74.45 11.25 74.9 12 L 75.75 13.5 Z"></path>
</g>
			
	<linearGradient id="background-gradient" x1="0" y1="0" y2="1" x2="0" gradientTransform="rotate(90 0.5 0.5)">
		<stop stop-color="#255f18" offset="0%"></stop>
		<stop stop-color="#1d5c0f" offset="100%"></stop>
	</linearGradient>

			
			
			
			
		<linearGradient class="shapgradient" gradientTransform="rotate(0 0.5 0.5)" id="SvgjsLinearGradient1013"><stop stop-color="#3c592e" offset="0"></stop><stop stop-color="#9db21d" offset="1"></stop></linearGradient></defs><use xlink:href="#background" fill="url(#background-gradient)" class="background"></use><g class="geditable"><g mask="url(#mask)" fill="url(#SvgjsLinearGradient1013)" class="editable" transform="matrix(0.9,0,0,0.9,5.000000190734859,4.999999809265134)"><g transform="matrix(0.1296498278220111,0,0,0.1296498278220111,21.4123592919235,0.000006640244843887245)"><path d="M347.64934818083884 641.6481577326498V463.6511577326498L318.5323481808388 449.99115773264975C315.5493481808388 453.23115773264976 312.40634818083885 456.3171577326498 309.1213481808388 459.24415773264974V560.3141577326497H131.87734818083882V459.24415773264974C128.59134818083882 456.3171577326497 125.44934818083883 453.23015773264973 122.46634818083882 449.9901577326497L93.34934818083883 463.65015773264975V641.6481577326497Z "></path><path d="M85.03337106902245 337.9661424738607C85.03337106902245 350.5021424738608 90.17137106902246 358.60214247386074 98.12237106902245 358.60214247386074H116.51037106902245L118.05037106902245 371.8721424738608C124.08137106902245 423.81314247386075 168.12537106902244 462.98214247386073 220.49937106902246 462.98214247386073C242.16737106902247 462.98214247386073 262.40637106902244 456.27214247386075 279.1213710690225 444.7331424738607V444.1491424738607H279.9663710690225C303.2033710690225 427.7641424738607 319.4543710690225 401.9621424738607 322.9483710690225 371.8731424738607L324.48837106902255 358.60314247386066H342.8763710690225C350.82737106902255 358.60314247386066 355.9653710690225 350.5031424738607 355.9653710690225 337.9671424738607V320.3161424738607H85.03337106902251Z "></path><path d="M279.12136343962794 479.4161577326498C261.37336343962795 488.1191577326498 241.45436343962797 492.9821577326498 220.49936343962793 492.9821577326498S179.62536343962793 488.1191577326498 161.8773634396279 479.4161577326498V530.3151577326498H279.1213634396279Z "></path><path d="M368.72238632781153 290.31516536204435V254.64816536204435H347.09738632781153C340.4103863278115 209.72416536204435 310.28638632781156 172.36716536204435 269.60838632781156 155.40016536204433V196.51616536204435H239.60838632781156V129.65916536204435H201.38938632781156V196.51616536204435H171.38938632781156V155.40016536204433C130.71138632781157 172.36716536204435 100.58738632781154 209.72416536204435 93.90038632781156 254.64816536204435H72.27538632781156V290.31516536204435Z "></path><path d="M400.5144092159951 488.4521577326498L377.6494092159951 477.72515773264985V641.6481577326499H451.8914092159951V569.3051577326498C451.8914092159951 534.8311577326499 431.72440921599514 503.0941577326498 400.5144092159951 488.4521577326498Z "></path><path d="M63.34838442046288 477.7251577326498L40.48338442046288 488.45215773264977C9.273384420462884 503.09415773264976 -10.893615579537117 534.8311577326498 -10.893615579537117 569.3061577326498V641.6491577326498H63.34838442046288Z "></path></g></g></g><use xlink:href="#gloss-top" opacity="1" class="background"></use></g></svg>