<svg xmlns="http://www.w3.org/2000/svg" version="1.1" xmlns:xlink="http://www.w3.org/1999/xlink" xmlns:svgjs="http://svgjs.com/svgjs" width="83" height="83" viewBox="0 0 100 100"><g class="wrap" transform="matrix(1,0,0,1,0,0)"><defs class="background">
			<linearGradient id="Gradient_1" gradientUnits="userSpaceOnUse" x1="50" y1="7" x2="50" y2="55.2625" spreadMethod="pad">
<stop offset="0%" stop-color="#FFFFFF" stop-opacity="0.1"></stop>

<stop offset="100%" stop-color="#FFFFFF" stop-opacity="0.7"></stop>
</linearGradient><linearGradient id="Gradient_2" gradientUnits="userSpaceOnUse" x1="100" y1="51" x2="25" y2="50.85" spreadMethod="pad">
<stop offset="0%" stop-color="#FFFFFF" stop-opacity="0.1"></stop>

<stop offset="100%" stop-color="#FFFFFF" stop-opacity="0.7"></stop>
</linearGradient><linearGradient id="Gradient_3" gradientUnits="userSpaceOnUse" x1="0" y1="51" x2="77" y2="51" spreadMethod="pad">
<stop offset="0%" stop-color="#FFFFFF" stop-opacity="0.1"></stop>

<stop offset="100%" stop-color="#FFFFFF" stop-opacity="0.7"></stop>
</linearGradient><g id="background">
<path fill="url(#background-gradient)" stroke="none" d=" M 99.15 55 Q 100 53.5 100 51.55 100 49.6 99.15 48.1 L 77.55 10.45 Q 76.7 9 75 8.05 73.3 7 71.6 7 L 28.35 7 Q 26.7 7 25 8.05 23.3 9 22.45 10.45 L 0.8 48.1 Q 0 49.6 0 51.55 0 53.5 0.8 55 L 22.45 92.65 Q 23.3 94.1 25 95.1 26.7 96.05 28.35 96.05 L 71.6 96.05 Q 73.3 96.05 75 95.05 76.7 94.1 77.55 92.65 L 99.15 55 M 96.5 49.65 Q 96.9 50.4 96.9 51.55 96.9 52.7 96.5 53.4 L 74.9 91.1 Q 74.45 91.85 73.5 92.45 72.45 93 71.6 93 L 28.35 93 Q 27.5 93 26.5 92.45 25.5 91.85 25.1 91.1 L 3.5 53.4 Q 3.05 52.7 3.05 51.55 3.05 50.4 3.5 49.65 L 25.1 12 Q 25.5 11.25 26.5 10.65 27.5 10.1 28.35 10.1 L 71.6 10.1 Q 72.45 10.1 73.5 10.65 74.45 11.25 74.9 12 L 96.5 49.65 Z"></path>
</g><mask id="mask">
<path fill="#FFFFFF" stroke="none" d=" M 96.9 51.55 Q 96.9 50.4 96.5 49.65 L 74.9 12 Q 74.45 11.25 73.5 10.65 72.45 10.1 71.6 10.1 L 28.35 10.1 Q 27.5 10.1 26.5 10.65 25.5 11.25 25.1 12 L 3.5 49.65 Q 3.05 50.4 3.05 51.55 3.05 52.7 3.5 53.4 L 25.1 91.1 Q 25.5 91.85 26.5 92.45 27.5 93 28.35 93 L 71.6 93 Q 72.45 93 73.5 92.45 74.45 91.85 74.9 91.1 L 96.5 53.4 Q 96.9 52.7 96.9 51.55 Z"></path>
</mask><g id="gloss-top">
<path fill="url(#Gradient_1)" stroke="none" d=" M 96.5 53.4 L 95.45 55.25 Q 98 52.85 99.9 50.3 99.7 49 99.15 48.1 L 77.55 10.45 Q 76.7 9 75 8.05 73.3 7 71.6 7 L 28.35 7 Q 26.7 7 25 8.05 23.3 9 22.45 10.45 L 0.8 48.1 Q 0.3 49.05 0.1 50.3 1.95 52.85 4.55 55.25 L 3.5 53.4 Q 3.05 52.7 3.05 51.55 3.05 50.4 3.5 49.65 L 25.1 12 Q 25.5 11.25 26.5 10.65 27.5 10.1 28.35 10.1 L 71.6 10.1 Q 72.45 10.1 73.5 10.65 74.45 11.25 74.9 12 L 96.5 49.65 Q 96.9 50.4 96.9 51.55 96.9 52.7 96.5 53.4 Z"></path>
</g><g id="gloss-right">
<path fill="url(#Gradient_2)" stroke="none" d=" M 99.15 55 Q 100 53.5 100 51.55 100 49.6 99.15 48.1 L 77.55 10.45 Q 76.7 9 75 8.05 73.3 7 71.6 7 L 28.35 7 Q 26.75 7 25.1 7.95 L 26.65 10.6 Q 27.6 10.1 28.35 10.1 L 71.6 10.1 Q 72.45 10.1 73.5 10.65 74.45 11.25 74.9 12 L 96.5 49.65 Q 96.9 50.4 96.9 51.55 96.9 52.7 96.5 53.4 L 74.9 91.1 Q 74.65 91.5 74.05 92 L 75.65 94.7 Q 76.9 93.7 77.55 92.65 L 99.15 55 Z"></path>
</g><g id="gloss-left">
<path fill="url(#Gradient_3)" stroke="none" d=" M 75.75 13.5 L 77.6 10.55 77.55 10.45 Q 76.7 9 75 8.05 73.3 7 71.6 7 L 28.35 7 Q 26.7 7 25 8.05 23.3 9 22.45 10.45 L 0.8 48.1 Q 0 49.6 0 51.55 0 53.5 0.8 55 L 22.45 92.65 Q 23.2 93.95 24.55 94.85 L 26.2 92.25 Q 25.45 91.65 25.1 91.1 L 3.5 53.4 Q 3.05 52.7 3.05 51.55 3.05 50.4 3.5 49.65 L 25.1 12 Q 25.5 11.25 26.5 10.65 27.5 10.1 28.35 10.1 L 71.6 10.1 Q 72.45 10.1 73.5 10.65 74.45 11.25 74.9 12 L 75.75 13.5 Z"></path>
</g>
			
	<linearGradient id="background-gradient" x1="0" y1="0" y2="1" x2="0" gradientTransform="rotate(90 0.5 0.5)">
		<stop stop-color="#255f18" offset="0%"></stop>
		<stop stop-color="#1d5c0f" offset="100%"></stop>
	</linearGradient>

			
			
			
			
		<linearGradient class="shapgradient" gradientTransform="rotate(0 0.5 0.5)" id="SvgjsLinearGradient1017"><stop stop-color="#3c592e" offset="0"></stop><stop stop-color="#9db21d" offset="1"></stop></linearGradient></defs><use xlink:href="#background" fill="url(#background-gradient)" class="background"></use><g class="geditable"><g mask="url(#mask)" fill="url(#SvgjsLinearGradient1017)" class="editable" transform="matrix(0.9,0,0,0.9,5,5)"><path d="M667.6666666666666 592.6666666666666H660.0885416666666C661.7526046666667 587.9713546666667 662.6666666666666 582.9244786666667 662.6666666666666 577.6666666666666C662.6666666666666 566.1510416666666 658.3111976666667 555.6354166666666 651.1705726666667 547.6666666666666C658.3111976666667 539.6979166666666 662.6666666666666 529.1822916666666 662.6666666666666 517.6666666666666C662.6666666666666 512.4088546666667 661.7526046666667 507.3619786666667 660.0885416666666 502.66666666666663H667.6666666666666C675.9518226666667 502.66666666666663 682.6666666666666 495.95182266666666 682.6666666666666 487.66666666666663C682.6666666666666 435.2838546666667 640.0494786666667 392.66666666666663 587.6666666666666 392.66666666666663H477.3619786666667L479.7838546666667 352.66666666666663H485.66666666666663C493.95182266666666 352.66666666666663 500.66666666666663 345.95182266666666 500.66666666666663 337.66666666666663V277.66666666666663C500.66666666666663 269.38151066666666 493.95182266666666 262.66666666666663 485.66666666666663 262.66666666666663H363.35807266666666L403.79166666666663 200.66666666666666H455.66666666666663C463.95182266666666 200.66666666666666 470.66666666666663 193.95182266666666 470.66666666666663 185.66666666666666S463.95182266666666 170.66666666666666 455.66666666666663 170.66666666666666H395.66666666666663C390.5963546666667 170.66666666666666 385.86979166666663 173.22526066666666 383.10416666666663 177.47135466666666L327.54166666666663 262.66666666666663H185.66666666666666C177.38151066666666 262.66666666666663 170.66666666666666 269.38151066666666 170.66666666666666 277.66666666666663V337.66666666666663C170.66666666666666 345.95182266666666 177.38151066666666 352.66666666666663 185.66666666666666 352.66666666666663H191.54947866666666L210.69401066666666 668.5729166666666C211.17447866666666 676.4908856666667 217.73307266666666 682.6666666666666 225.66666666666666 682.6666666666666H607.6666666666666C649.0221356666666 682.6666666666666 682.6666666666666 649.0221356666666 682.6666666666666 607.6666666666666C682.6666666666666 599.3815106666666 675.9518226666667 592.6666666666666 667.6666666666666 592.6666666666666ZM382.66666666666663 577.6666666666666C382.66666666666663 569.3971356666666 389.39713566666666 562.6666666666666 397.66666666666663 562.6666666666666H617.6666666666666C625.9361976666667 562.6666666666666 632.6666666666666 569.3971356666667 632.6666666666666 577.6666666666666S625.9361976666667 592.6666666666666 617.6666666666666 592.6666666666666H397.66666666666663C389.39713566666666 592.6666666666666 382.66666666666663 585.9361976666667 382.66666666666663 577.6666666666666ZM632.6666666666666 517.6666666666666C632.6666666666666 525.9361976666667 625.9361976666667 532.6666666666666 617.6666666666666 532.6666666666666H397.66666666666663C389.39713566666666 532.6666666666666 382.66666666666663 525.9361976666667 382.66666666666663 517.6666666666666S389.39713566666666 502.66666666666663 397.66666666666663 502.66666666666663H617.6666666666666C625.9361976666667 502.66666666666663 632.6666666666666 509.3971356666667 632.6666666666666 517.6666666666666ZM650.9205726666667 472.66666666666663H364.4127606666667C371.20182266666666 444.0338546666667 396.9869786666667 422.66666666666663 427.66666666666663 422.66666666666663H587.6666666666666C618.3463546666667 422.66666666666663 644.1315106666666 444.02994766666666 650.9205726666667 472.66666666666663ZM200.6666666666667 292.66666666666663H335.5963546666667C335.6158856666667 292.66666666666663 335.63541666666674 292.67057266666666 335.65104166666674 292.67057266666666C335.6627606666667 292.67057266666666 335.6744786666667 292.66666666666663 335.6861976666667 292.66666666666663H470.66666666666674V322.66666666666663H465.68619766666666C465.6783856666667 322.66666666666663 465.6744786666667 322.66666666666663 465.66666666666674 322.66666666666663H205.6666666666667C205.6588546666667 322.66666666666663 205.65494766666671 322.66666666666663 205.6471356666667 322.66666666666663H200.6666666666667ZM227.24869766666671 445.7994786666667C228.3854166666667 445.71354166666663 229.5221356666667 445.66666666666663 230.6666666666667 445.66666666666663C255.4791666666667 445.66666666666663 275.66666666666674 465.85416666666663 275.66666666666674 490.66666666666663C275.66666666666674 514.7994786666667 256.5690106666667 534.5533856666666 232.6901046666667 535.6158856666666ZM234.5065106666667 565.5690106666666C274.0846356666667 563.5651046666667 305.66666666666674 530.7330726666667 305.66666666666674 490.66666666666663C305.66666666666674 449.31119766666666 272.0221356666667 415.66666666666663 230.6666666666667 415.66666666666663C228.9166666666667 415.66666666666663 227.17447866666672 415.74088566666666 225.4322916666667 415.8619786666667L221.6041666666667 352.66666666666663H449.72916666666674L447.30729166666674 392.66666666666663H427.66666666666674C375.2838546666667 392.66666666666663 332.66666666666674 435.2838546666667 332.66666666666674 487.66666666666663C332.66666666666674 495.95182266666666 339.3815106666667 502.66666666666663 347.66666666666674 502.66666666666663H355.24479166666674C353.5807286666667 507.3619786666667 352.66666666666674 512.4088546666667 352.66666666666674 517.6666666666666C352.66666666666674 529.1822916666666 357.0221356666667 539.6979166666666 364.1627606666667 547.6666666666666C357.0221356666667 555.6354166666666 352.66666666666674 566.1510416666666 352.66666666666674 577.6666666666666C352.66666666666674 582.9244786666667 353.5807286666667 587.9713546666667 355.24479166666674 592.6666666666666H347.66666666666674C339.3815106666667 592.6666666666666 332.66666666666674 599.3815106666667 332.66666666666674 607.6666666666666C332.66666666666674 624.5377606666666 338.2682286666667 640.1236976666667 347.7057286666667 652.6666666666666H239.7838546666667ZM607.6666666666666 652.6666666666666H407.66666666666663C388.10807266666666 652.6666666666666 371.42838566666666 640.1276046666667 365.2369786666667 622.6666666666666H650.0963546666667C643.9049476666667 640.1276046666667 627.2252606666666 652.6666666666666 607.6666666666666 652.6666666666666ZM607.6666666666666 652.6666666666666 " transform="matrix(0.1171875,0,0,0.1171875,0,0)"></path></g></g><use xlink:href="#gloss-top" opacity="1" class="background"></use></g></svg>