<svg xmlns="http://www.w3.org/2000/svg" version="1.1" xmlns:xlink="http://www.w3.org/1999/xlink" xmlns:svgjs="http://svgjs.com/svgjs" width="83" height="83" viewBox="0 0 100 100"><g class="wrap" transform="matrix(1,0,0,1,0,0)"><defs class="background">
			<linearGradient id="Gradient_1" gradientUnits="userSpaceOnUse" x1="50" y1="7" x2="50" y2="55.2625" spreadMethod="pad">
<stop offset="0%" stop-color="#FFFFFF" stop-opacity="0.1"></stop>

<stop offset="100%" stop-color="#FFFFFF" stop-opacity="0.7"></stop>
</linearGradient><linearGradient id="Gradient_2" gradientUnits="userSpaceOnUse" x1="100" y1="51" x2="25" y2="50.85" spreadMethod="pad">
<stop offset="0%" stop-color="#FFFFFF" stop-opacity="0.1"></stop>

<stop offset="100%" stop-color="#FFFFFF" stop-opacity="0.7"></stop>
</linearGradient><linearGradient id="Gradient_3" gradientUnits="userSpaceOnUse" x1="0" y1="51" x2="77" y2="51" spreadMethod="pad">
<stop offset="0%" stop-color="#FFFFFF" stop-opacity="0.1"></stop>

<stop offset="100%" stop-color="#FFFFFF" stop-opacity="0.7"></stop>
</linearGradient><g id="background">
<path fill="url(#background-gradient)" stroke="none" d=" M 99.15 55 Q 100 53.5 100 51.55 100 49.6 99.15 48.1 L 77.55 10.45 Q 76.7 9 75 8.05 73.3 7 71.6 7 L 28.35 7 Q 26.7 7 25 8.05 23.3 9 22.45 10.45 L 0.8 48.1 Q 0 49.6 0 51.55 0 53.5 0.8 55 L 22.45 92.65 Q 23.3 94.1 25 95.1 26.7 96.05 28.35 96.05 L 71.6 96.05 Q 73.3 96.05 75 95.05 76.7 94.1 77.55 92.65 L 99.15 55 M 96.5 49.65 Q 96.9 50.4 96.9 51.55 96.9 52.7 96.5 53.4 L 74.9 91.1 Q 74.45 91.85 73.5 92.45 72.45 93 71.6 93 L 28.35 93 Q 27.5 93 26.5 92.45 25.5 91.85 25.1 91.1 L 3.5 53.4 Q 3.05 52.7 3.05 51.55 3.05 50.4 3.5 49.65 L 25.1 12 Q 25.5 11.25 26.5 10.65 27.5 10.1 28.35 10.1 L 71.6 10.1 Q 72.45 10.1 73.5 10.65 74.45 11.25 74.9 12 L 96.5 49.65 Z"></path>
</g><mask id="mask">
<path fill="#FFFFFF" stroke="none" d=" M 96.9 51.55 Q 96.9 50.4 96.5 49.65 L 74.9 12 Q 74.45 11.25 73.5 10.65 72.45 10.1 71.6 10.1 L 28.35 10.1 Q 27.5 10.1 26.5 10.65 25.5 11.25 25.1 12 L 3.5 49.65 Q 3.05 50.4 3.05 51.55 3.05 52.7 3.5 53.4 L 25.1 91.1 Q 25.5 91.85 26.5 92.45 27.5 93 28.35 93 L 71.6 93 Q 72.45 93 73.5 92.45 74.45 91.85 74.9 91.1 L 96.5 53.4 Q 96.9 52.7 96.9 51.55 Z"></path>
</mask><g id="gloss-top">
<path fill="url(#Gradient_1)" stroke="none" d=" M 96.5 53.4 L 95.45 55.25 Q 98 52.85 99.9 50.3 99.7 49 99.15 48.1 L 77.55 10.45 Q 76.7 9 75 8.05 73.3 7 71.6 7 L 28.35 7 Q 26.7 7 25 8.05 23.3 9 22.45 10.45 L 0.8 48.1 Q 0.3 49.05 0.1 50.3 1.95 52.85 4.55 55.25 L 3.5 53.4 Q 3.05 52.7 3.05 51.55 3.05 50.4 3.5 49.65 L 25.1 12 Q 25.5 11.25 26.5 10.65 27.5 10.1 28.35 10.1 L 71.6 10.1 Q 72.45 10.1 73.5 10.65 74.45 11.25 74.9 12 L 96.5 49.65 Q 96.9 50.4 96.9 51.55 96.9 52.7 96.5 53.4 Z"></path>
</g><g id="gloss-right">
<path fill="url(#Gradient_2)" stroke="none" d=" M 99.15 55 Q 100 53.5 100 51.55 100 49.6 99.15 48.1 L 77.55 10.45 Q 76.7 9 75 8.05 73.3 7 71.6 7 L 28.35 7 Q 26.75 7 25.1 7.95 L 26.65 10.6 Q 27.6 10.1 28.35 10.1 L 71.6 10.1 Q 72.45 10.1 73.5 10.65 74.45 11.25 74.9 12 L 96.5 49.65 Q 96.9 50.4 96.9 51.55 96.9 52.7 96.5 53.4 L 74.9 91.1 Q 74.65 91.5 74.05 92 L 75.65 94.7 Q 76.9 93.7 77.55 92.65 L 99.15 55 Z"></path>
</g><g id="gloss-left">
<path fill="url(#Gradient_3)" stroke="none" d=" M 75.75 13.5 L 77.6 10.55 77.55 10.45 Q 76.7 9 75 8.05 73.3 7 71.6 7 L 28.35 7 Q 26.7 7 25 8.05 23.3 9 22.45 10.45 L 0.8 48.1 Q 0 49.6 0 51.55 0 53.5 0.8 55 L 22.45 92.65 Q 23.2 93.95 24.55 94.85 L 26.2 92.25 Q 25.45 91.65 25.1 91.1 L 3.5 53.4 Q 3.05 52.7 3.05 51.55 3.05 50.4 3.5 49.65 L 25.1 12 Q 25.5 11.25 26.5 10.65 27.5 10.1 28.35 10.1 L 71.6 10.1 Q 72.45 10.1 73.5 10.65 74.45 11.25 74.9 12 L 75.75 13.5 Z"></path>
</g>
			
	<linearGradient id="background-gradient" x1="0" y1="0" y2="1" x2="0" gradientTransform="rotate(90 0.5 0.5)">
		<stop stop-color="#255f18" offset="0%"></stop>
		<stop stop-color="#1d5c0f" offset="100%"></stop>
	</linearGradient>

			
			
			
			
		<linearGradient class="shapgradient" gradientTransform="rotate(0 0.5 0.5)" id="SvgjsLinearGradient1060"><stop stop-color="#3c592e" offset="0"></stop><stop stop-color="#9db21d" offset="1"></stop></linearGradient></defs><use xlink:href="#background" fill="url(#background-gradient)" class="background"></use><g class="geditable"><g mask="url(#mask)" fill="url(#SvgjsLinearGradient1060)" class="editable" transform="matrix(0.9,0,0,0.9,5.000000190734859,5.000000572204591)"><g transform="matrix(0.11736785535089979,0,0,0.1173678553508998,0.3473842197114039,0)">
	<g>
		<path d="M673.7080413221793 467.44002007009215C663.9740413221793 427.48302007009215 640.3020413221793 392.20102007009217 607.0540413221793 368.09402007009214C575.4050413221794 345.14702007009214 536.8680413221794 333.52802007009217 498.09404132217935 335.1350200700922C480.2210413221793 296.77802007009217 449.1020413221793 266.4700200700922 409.9430413221793 249.45602007009217C406.09904132217935 247.78802007009216 401.63204132217936 249.54902007009218 399.9610413221793 253.39102007009217C398.29204132217933 257.2340200700922 400.0530413221793 261.7030200700922 403.89604132217937 263.37302007009214C441.1440413221793 279.55602007009213 470.42504132217937 308.90202007009214 486.3470413221793 346.00402007009217C489.8320413221793 354.1250200700922 492.65704132217934 362.5850200700921 494.74304132217935 371.1500200700922C495.2970413221793 373.4240200700922 495.8080413221793 375.7630200700921 496.30504132217936 378.3020200700921C496.30504132217936 378.3040200700922 496.30604132217934 378.30602007009213 496.30604132217934 378.3070200700921C503.90204132217934 417.07702007009215 496.7550413221793 457.0570200700921 476.18104132217934 490.8840200700921C456.7310413221793 522.8620200700922 426.8790413221793 546.7150200700921 391.63804132217933 558.5930200700922C391.00204132217937 557.1470200700921 390.3940413221793 555.6870200700921 389.8130413221793 554.2150200700921C389.80604132217934 554.1980200700922 389.80004132217937 554.1820200700921 389.7940413221793 554.1650200700922C388.6770413221793 551.3330200700922 387.6690413221793 548.4530200700922 386.7590413221793 545.5380200700921C386.68604132217934 545.3040200700922 386.61304132217936 545.0700200700921 386.54204132217933 544.8350200700921C386.1210413221793 543.4580200700922 385.7200413221793 542.0730200700922 385.3460413221793 540.6800200700922C385.3370413221793 540.6450200700922 385.3280413221793 540.6100200700922 385.3190413221794 540.5750200700921C451.6010413221793 518.3290200700922 491.68604132217934 449.31402007009217 477.2060413221793 380.16102007009215C477.2060413221793 380.1600200700922 477.2060413221793 380.1590200700922 477.2060413221793 380.1580200700922C476.84904132217923 378.4520200700922 476.5280413221793 377.0240200700922 476.1970413221793 375.66502007009217C473.6790413221793 365.3320200700922 469.99804132217923 355.31602007009224 465.2550413221793 345.8950200700922C465.2450413221793 345.8750200700922 465.2340413221792 345.8570200700922 465.22404132217923 345.8370200700922C465.1920413221793 345.7740200700922 465.1590413221793 345.71302007009217 465.1250413221793 345.65102007009216C451.1980413221793 318.1290200700922 428.08304132217927 295.7220200700922 400.00204132217925 282.5430200700922C386.54004132217926 276.22502007009217 372.1720413221793 272.1600200700922 357.52704132217934 270.4070200700922L411.42004132217926 220.3130200700922C414.15204132217934 217.77302007009217 414.63304132217934 213.62402007009217 412.5540413221793 210.5270200700922L412.51804132217933 210.4740200700922C412.51704132217924 210.4730200700922 412.51704132217924 210.47202007009219 412.51604132217926 210.47102007009218L387.6020413221793 173.3680200700922C386.1930413221793 171.2700200700922 383.8310413221793 170.0110200700922 381.3040413221793 170.0110200700922H300.5540413221793C298.02604132217937 170.0110200700922 295.66504132217926 171.2700200700922 294.2550413221793 173.3680200700922L269.3020413221793 210.5290200700922C267.22304132217926 213.6260200700922 267.7030413221793 217.7750200700922 270.43604132217934 220.3150200700922L324.32404132217926 270.4050200700922C318.8370413221793 271.0600200700922 313.3760413221793 272.03702007009224 307.9750413221793 273.3520200700922C233.3880413221793 291.52302007009223 187.4900413221793 366.9880200700922 205.65904132217932 441.57502007009225C213.1500413221793 472.32502007009225 231.08104132217932 499.84302007009217 256.1490413221793 519.0620200700922C279.18004132217936 536.7190200700923 307.3760413221793 546.8070200700922 336.1720413221793 547.7940200700922C336.31004132217936 548.3890200700922 336.45004132217935 548.9790200700922 336.5920413221793 549.5660200700922C336.93004132217925 550.9540200700922 337.2880413221793 552.3320200700922 337.6580413221793 553.7040200700922C337.7440413221793 554.0220200700921 337.8360413221793 554.3400200700922 337.9230413221793 554.6580200700922C338.2250413221793 555.7550200700922 338.53604132217924 556.8470200700922 338.85804132217925 557.9330200700922C338.9470413221793 558.2320200700922 339.0380413221793 558.5310200700922 339.1290413221793 558.8300200700921C339.4810413221793 559.9930200700921 339.84404132217924 561.1500200700922 340.21804132217926 562.3000200700922C340.2820413221792 562.4980200700921 340.3460413221793 562.6960200700922 340.41104132217924 562.8940200700922C340.8600413221793 564.2560200700922 341.3210413221793 565.6100200700922 341.80104132217923 566.9540200700922C308.4320413221793 567.1230200700921 275.55904132217927 556.6700200700922 248.23204132217924 536.9570200700922C217.73304132217928 514.9550200700921 196.02604132217925 482.68502007009215 187.11204132217927 446.0920200700922C178.21404132217927 409.56702007009216 182.61304132217927 370.99002007009216 199.50104132217925 337.4670200700922C216.20204132217927 304.31402007009217 244.05404132217924 277.99302007009214 277.9280413221793 263.35302007009216C281.7740413221793 261.69002007009215 283.5440413221793 257.22502007009217 281.88204132217925 253.37902007009217C280.21904132217924 249.53402007009214 275.75304132217923 247.76102007009217 271.9080413221793 249.42502007009216C234.77704132217931 265.4740200700922 204.25004132217933 294.3170200700922 185.95104132217932 330.64102007009217C167.4430413221793 367.3820200700922 162.6210413221793 409.6590200700922 172.3710413221793 449.6840200700922C182.14004132217931 489.7840200700922 205.9300413221793 525.1480200700922 239.35604132217932 549.2620200700921C269.0230413221793 570.6640200700922 304.66204132217933 582.1310200700922 340.8900413221793 582.1300200700922C343.24804132217935 582.1300200700922 345.60904132217934 582.0670200700922 347.9710413221793 581.9700200700921C376.45004132217935 642.9490200700922 438.2350413221793 682.0120200700921 505.1540413221793 682.0110200700922C518.7070413221793 682.0110200700922 532.4740413221793 680.4080200700922 546.2130413221794 677.0610200700922C639.1560413221794 654.4190200700922 696.3500413221793 560.3840200700922 673.7080413221793 467.44002007009215ZM489.1450413221793 498.7690200700922C510.05104132217934 464.39702007009214 518.2950413221793 424.2220200700922 512.7470413221793 384.68002007009216C537.4350413221794 386.2100200700922 561.4940413221793 395.2210200700922 581.2030413221794 410.49302007009214C603.5820413221793 427.83402007009215 618.9600413221793 451.5720200700922 625.6770413221793 479.14202007009214C641.8670413221794 545.6010200700922 600.9710413221793 612.8400200700921 534.5120413221794 629.0300200700922C502.31904132217926 636.8740200700922 468.99804132217923 631.7100200700922 440.6870413221793 614.4910200700922C423.1640413221793 603.8330200700922 408.86404132217933 589.3440200700923 398.64704132217935 572.2170200700922C436.3310413221793 558.9620200700922 468.2310413221793 533.1570200700922 489.1450413221793 498.7690200700922ZM382.2730413221793 525.5730200700922C378.39704132217935 497.96302007009217 383.89304132217933 470.00702007009215 398.1830413221793 445.68102007009225C413.1350413221793 420.2280200700922 436.2270413221793 401.2470200700922 463.79104132217935 391.54602007009225C471.9180413221793 449.68502007009215 437.63704132217936 506.0480200700922 382.2730413221793 525.5730200700922ZM304.5970413221793 185.1840200700922H377.2590413221793L391.9860413221793 207.1160200700922H289.8710413221793L304.5970413221793 185.1840200700922ZM294.8450413221793 222.2890200700922H387.01104132217927L340.9280413221793 265.12402007009223L294.8450413221793 222.2890200700922ZM333.3180413221793 532.4540200700922C308.8550413221793 530.9490200700922 285.00804132217934 522.0690200700922 265.38204132217936 507.02102007009216C242.7270413221793 489.65202007009214 227.1740413221793 465.7790200700922 220.4030413221793 437.98302007009215C204.2130413221793 371.5250200700922 245.1090413221793 304.2850200700922 311.5680413221793 288.09402007009214C339.36404132217933 281.32202007009215 367.7160413221793 284.1540200700922 393.5580413221793 296.28102007009215C415.9480413221793 306.78802007009216 434.77704132217934 323.8800200700922 447.38204132217936 344.91302007009216C408.4520413221793 358.60302007009216 375.8890413221793 385.54002007009217 355.02204132217935 421.5610200700921C335.4290413221793 455.38302007009224 327.93504132217936 494.18502007009215 333.3180413221793 532.4540200700922ZM542.6220413221794 662.3190200700922C530.0790413221794 665.3750200700922 517.5270413221793 666.8370200700922 505.1550413221794 666.8360200700922C442.1590413221794 666.8310200700922 384.14204132217935 628.8880200700922 359.3450413221793 570.1930200700922C359.07404132217937 569.5500200700923 358.8030413221794 568.9080200700922 358.5400413221794 568.2620200700923C358.4340413221794 568.0010200700922 358.3320413221794 567.7380200700923 358.2270413221794 567.4770200700922C357.9040413221794 566.6710200700923 357.58404132217936 565.8630200700923 357.2750413221794 565.0510200700922C357.22904132217934 564.9300200700923 357.18504132217936 564.8080200700922 357.1390413221794 564.6860200700922C356.7850413221794 563.7510200700922 356.4370413221794 562.8130200700922 356.1010413221794 561.8710200700922C356.09004132217933 561.8410200700922 356.08004132217934 561.8100200700923 356.0690413221794 561.7800200700922C355.7060413221793 560.7630200700922 355.35304132217937 559.7420200700922 355.0110413221794 558.7170200700922C355.0090413221793 558.7110200700922 355.00704132217936 558.7060200700922 355.0050413221794 558.7000200700923C354.6580413221793 557.6610200700923 354.3220413221794 556.6190200700922 353.99704132217937 555.5740200700923C353.97404132217935 555.5000200700922 353.9530413221794 555.4250200700923 353.93004132217936 555.3510200700922C353.6290413221793 554.3770200700923 353.33504132217934 553.4020200700922 353.0530413221793 552.4240200700922C352.9610413221793 552.1040200700922 352.8750413221793 551.7810200700923 352.7840413221793 551.4590200700923C352.57504132217935 550.7190200700923 352.3660413221793 549.9790200700922 352.1680413221793 549.2360200700922C351.8800413221793 548.1540200700922 351.6020413221793 547.0670200700922 351.3360413221793 545.9740200700923C351.06604132217933 544.8670200700922 350.8130413221793 543.7580200700922 350.5680413221793 542.6480200700922C350.47304132217937 542.2160200700922 350.3800413221793 541.7740200700922 350.28704132217933 541.3330200700922C350.18004132217936 540.8280200700922 350.0770413221793 540.3230200700922 349.9750413221793 539.8180200700922C349.9080413221793 539.4860200700922 349.8410413221793 539.1590200700922 349.7740413221793 538.8200200700923C349.7650413221793 538.7740200700922 349.7510413221793 538.7310200700922 349.74204132217926 538.6860200700922C342.41204132217933 501.1010200700922 348.8510413221793 462.4850200700922 368.15204132217934 429.16602007009226C387.5520413221793 395.67602007009225 418.02704132217934 370.7930200700922 454.43504132217925 358.53202007009224C456.9900413221793 364.3430200700922 459.1050413221793 370.3720200700922 460.7550413221793 376.54202007009224C428.92604132217923 387.20502007009225 402.2460413221793 408.8100200700922 385.10304132217925 437.99302007009226C367.4570413221793 468.0300200700922 361.76304132217933 502.99902007009223 368.8750413221793 536.9550200700922C368.8750413221793 536.9570200700922 368.8760413221793 536.9600200700922 368.8760413221793 536.9620200700922C368.8790413221793 536.9790200700922 368.88304132217934 536.9930200700923 368.88604132217927 537.0100200700922C369.01204132217924 537.6110200700922 369.1400413221793 538.2110200700922 369.2740413221793 538.8110200700922C369.4800413221793 539.7460200700922 369.68104132217934 540.6180200700923 369.8850413221793 541.4560200700922C370.18504132217925 542.6870200700922 370.5040413221793 543.9100200700922 370.8350413221792 545.1280200700922C370.91604132217924 545.4260200700922 371.0040413221793 545.7230200700923 371.0870413221793 546.0210200700922C371.3510413221793 546.9670200700922 371.62204132217926 547.9100200700922 371.9040413221793 548.8470200700922C371.98904132217933 549.1300200700922 372.0780413221793 549.4110200700923 372.16604132217924 549.6930200700922C372.4710413221793 550.6820200700922 372.78604132217924 551.6670200700922 373.1110413221793 552.6470200700923C373.1770413221793 552.8440200700923 373.24304132217924 553.0400200700922 373.30904132217927 553.2360200700922C373.69004132217924 554.3670200700922 374.0860413221793 555.4910200700922 374.4950413221793 556.6080200700923C374.5100413221793 556.6480200700922 374.5240413221793 556.6880200700922 374.5390413221793 556.7280200700923C385.34304132217926 586.1640200700922 405.6190413221793 610.9170200700922 432.80604132217934 627.4530200700922C454.89204132217935 640.8860200700922 479.6920413221793 647.7820200700922 504.8990413221793 647.7810200700922C515.9540413221794 647.7810200700922 527.0910413221793 646.4540200700922 538.1070413221794 643.7700200700922C612.6940413221794 625.6000200700921 658.5920413221794 550.1350200700922 640.4220413221794 475.5480200700921C632.8840413221794 444.6070200700922 615.6210413221794 417.9630200700921 590.4990413221794 398.49702007009216C567.3860413221794 380.58802007009217 538.9370413221793 370.3280200700921 509.9090413221794 369.3330200700922C509.77104132217937 368.73602007009214 509.6310413221794 368.14402007009215 509.4870413221794 367.55602007009213C508.0590413221794 361.69202007009216 506.3140413221794 355.87202007009216 504.2740413221793 350.16102007009215C537.7670413221794 349.96102007009216 570.7720413221793 360.5280200700921 598.1480413221793 380.37702007009216C628.4850413221793 402.37202007009216 650.0830413221793 434.5670200700921 658.9670413221793 471.0300200700922C679.6270413221794 555.8460200700922 627.4360413221793 641.6570200700922 542.6220413221794 662.3190200700922Z "></path>
	</g>
</g></g></g><use xlink:href="#gloss-top" opacity="1" class="background"></use></g></svg>