<svg xmlns="http://www.w3.org/2000/svg" version="1.1" xmlns:xlink="http://www.w3.org/1999/xlink" xmlns:svgjs="http://svgjs.com/svgjs" width="83" height="83" viewBox="0 0 100 100"><g class="wrap" transform="matrix(1,0,0,1,0,0)"><defs class="background">
			<linearGradient id="Gradient_1" gradientUnits="userSpaceOnUse" x1="50" y1="7" x2="50" y2="55.2625" spreadMethod="pad">
<stop offset="0%" stop-color="#FFFFFF" stop-opacity="0.1"></stop>

<stop offset="100%" stop-color="#FFFFFF" stop-opacity="0.7"></stop>
</linearGradient><linearGradient id="Gradient_2" gradientUnits="userSpaceOnUse" x1="100" y1="51" x2="25" y2="50.85" spreadMethod="pad">
<stop offset="0%" stop-color="#FFFFFF" stop-opacity="0.1"></stop>

<stop offset="100%" stop-color="#FFFFFF" stop-opacity="0.7"></stop>
</linearGradient><linearGradient id="Gradient_3" gradientUnits="userSpaceOnUse" x1="0" y1="51" x2="77" y2="51" spreadMethod="pad">
<stop offset="0%" stop-color="#FFFFFF" stop-opacity="0.1"></stop>

<stop offset="100%" stop-color="#FFFFFF" stop-opacity="0.7"></stop>
</linearGradient><g id="background">
<path fill="url(#background-gradient)" stroke="none" d=" M 99.15 55 Q 100 53.5 100 51.55 100 49.6 99.15 48.1 L 77.55 10.45 Q 76.7 9 75 8.05 73.3 7 71.6 7 L 28.35 7 Q 26.7 7 25 8.05 23.3 9 22.45 10.45 L 0.8 48.1 Q 0 49.6 0 51.55 0 53.5 0.8 55 L 22.45 92.65 Q 23.3 94.1 25 95.1 26.7 96.05 28.35 96.05 L 71.6 96.05 Q 73.3 96.05 75 95.05 76.7 94.1 77.55 92.65 L 99.15 55 M 96.5 49.65 Q 96.9 50.4 96.9 51.55 96.9 52.7 96.5 53.4 L 74.9 91.1 Q 74.45 91.85 73.5 92.45 72.45 93 71.6 93 L 28.35 93 Q 27.5 93 26.5 92.45 25.5 91.85 25.1 91.1 L 3.5 53.4 Q 3.05 52.7 3.05 51.55 3.05 50.4 3.5 49.65 L 25.1 12 Q 25.5 11.25 26.5 10.65 27.5 10.1 28.35 10.1 L 71.6 10.1 Q 72.45 10.1 73.5 10.65 74.45 11.25 74.9 12 L 96.5 49.65 Z"></path>
</g><mask id="mask">
<path fill="#FFFFFF" stroke="none" d=" M 96.9 51.55 Q 96.9 50.4 96.5 49.65 L 74.9 12 Q 74.45 11.25 73.5 10.65 72.45 10.1 71.6 10.1 L 28.35 10.1 Q 27.5 10.1 26.5 10.65 25.5 11.25 25.1 12 L 3.5 49.65 Q 3.05 50.4 3.05 51.55 3.05 52.7 3.5 53.4 L 25.1 91.1 Q 25.5 91.85 26.5 92.45 27.5 93 28.35 93 L 71.6 93 Q 72.45 93 73.5 92.45 74.45 91.85 74.9 91.1 L 96.5 53.4 Q 96.9 52.7 96.9 51.55 Z"></path>
</mask><g id="gloss-top">
<path fill="url(#Gradient_1)" stroke="none" d=" M 96.5 53.4 L 95.45 55.25 Q 98 52.85 99.9 50.3 99.7 49 99.15 48.1 L 77.55 10.45 Q 76.7 9 75 8.05 73.3 7 71.6 7 L 28.35 7 Q 26.7 7 25 8.05 23.3 9 22.45 10.45 L 0.8 48.1 Q 0.3 49.05 0.1 50.3 1.95 52.85 4.55 55.25 L 3.5 53.4 Q 3.05 52.7 3.05 51.55 3.05 50.4 3.5 49.65 L 25.1 12 Q 25.5 11.25 26.5 10.65 27.5 10.1 28.35 10.1 L 71.6 10.1 Q 72.45 10.1 73.5 10.65 74.45 11.25 74.9 12 L 96.5 49.65 Q 96.9 50.4 96.9 51.55 96.9 52.7 96.5 53.4 Z"></path>
</g><g id="gloss-right">
<path fill="url(#Gradient_2)" stroke="none" d=" M 99.15 55 Q 100 53.5 100 51.55 100 49.6 99.15 48.1 L 77.55 10.45 Q 76.7 9 75 8.05 73.3 7 71.6 7 L 28.35 7 Q 26.75 7 25.1 7.95 L 26.65 10.6 Q 27.6 10.1 28.35 10.1 L 71.6 10.1 Q 72.45 10.1 73.5 10.65 74.45 11.25 74.9 12 L 96.5 49.65 Q 96.9 50.4 96.9 51.55 96.9 52.7 96.5 53.4 L 74.9 91.1 Q 74.65 91.5 74.05 92 L 75.65 94.7 Q 76.9 93.7 77.55 92.65 L 99.15 55 Z"></path>
</g><g id="gloss-left">
<path fill="url(#Gradient_3)" stroke="none" d=" M 75.75 13.5 L 77.6 10.55 77.55 10.45 Q 76.7 9 75 8.05 73.3 7 71.6 7 L 28.35 7 Q 26.7 7 25 8.05 23.3 9 22.45 10.45 L 0.8 48.1 Q 0 49.6 0 51.55 0 53.5 0.8 55 L 22.45 92.65 Q 23.2 93.95 24.55 94.85 L 26.2 92.25 Q 25.45 91.65 25.1 91.1 L 3.5 53.4 Q 3.05 52.7 3.05 51.55 3.05 50.4 3.5 49.65 L 25.1 12 Q 25.5 11.25 26.5 10.65 27.5 10.1 28.35 10.1 L 71.6 10.1 Q 72.45 10.1 73.5 10.65 74.45 11.25 74.9 12 L 75.75 13.5 Z"></path>
</g>
			
	<linearGradient id="background-gradient" x1="0" y1="0" y2="1" x2="0" gradientTransform="rotate(90 0.5 0.5)">
		<stop stop-color="#255f18" offset="0%"></stop>
		<stop stop-color="#1d5c0f" offset="100%"></stop>
	</linearGradient>

			
			
			
			
		<linearGradient class="shapgradient" gradientTransform="rotate(0 0.5 0.5)" id="SvgjsLinearGradient1006"><stop stop-color="#3c592e" offset="0"></stop><stop stop-color="#9db21d" offset="1"></stop></linearGradient></defs><use xlink:href="#background" fill="url(#background-gradient)" class="background"></use><g class="geditable" mask="url(#mask)"><g mask="url(#mask)" fill="url(#SvgjsLinearGradient1006)" class="editable" transform="matrix(0.93,0,0,0.93,3.4999997329711903,3.5000002670288026)"><g transform="matrix(0.1171866478460409,0,0,0.1171866478460409,-0.0017208245429689243,51.197324789642565)">
	<g>
		<path d="M682.6374906636845 -13.544467423740741C682.5334906636846 -16.332467423740752 682.2574906636845 -19.132467423740735 681.8294906636845 -21.938467423740747C681.6924906636846 -22.834467423740733 681.5394906636845 -23.731467423740753 681.3704906636846 -24.62946742374075C680.9914906636845 -26.642467423740754 680.5324906636845 -28.656467423740736 679.9914906636845 -30.672467423740756C679.7764906636845 -31.471467423740762 679.5474906636845 -32.271467423740745 679.3074906636845 -33.07046742374075C679.2374906636845 -33.30246742374075 679.1754906636845 -33.533467423740746 679.1034906636845 -33.765467423740745C675.6804906636845 -44.81846742374074 669.8494906636845 -55.83146742374075 661.8044906636845 -66.46046742374074C661.8034906636846 -66.46146742374074 661.8034906636846 -66.46246742374075 661.8024906636845 -66.46346742374072C661.5444906636845 -66.80546742374074 661.2734906636845 -67.14346742374073 661.0104906636845 -67.48446742374071C654.9734906636845 -75.30046742374071 647.7444906636845 -82.90346742374072 639.3814906636845 -90.14846742374073C638.9724906636845 -90.50246742374074 638.5374906636845 -90.80646742374071 638.0834906636845 -91.06146742374074C634.9064906636845 -92.84846742374074 630.8054906636845 -92.21946742374072 628.3264906636845 -89.35646742374072C625.4934906636845 -86.08446742374073 625.8474906636845 -81.13646742374073 629.1194906636845 -78.30246742374072C632.5634906636845 -75.31946742374072 635.7814906636845 -72.27746742374072 638.7824906636845 -69.19646742374073C657.0774906636846 -50.41046742374073 667.0194906636846 -30.035467423740727 667.0194906636846 -10.868467423740725C667.0194906636846 -10.095467423740729 667.0014906636845 -9.320467423740752 666.9694906636845 -8.543467423740708C666.9594906636845 -8.285467423740727 666.9374906636846 -8.026467423740712 666.9224906636845 -7.769467423740707C666.8934906636845 -7.249467423740725 666.8654906636845 -6.729467423740687 666.8224906636844 -6.2084674237407285C666.7964906636845 -5.896467423740717 666.7594906636845 -5.582467423740752 666.7284906636845 -5.271467423740717C666.6814906636845 -4.803467423740699 666.6364906636845 -4.334467423740705 666.5784906636845 -3.8644674237407344C666.5364906636845 -3.5284674237407216 666.4854906636845 -3.189467423740723 666.4374906636845 -2.8514674237407576C666.3744906636845 -2.404467423740755 666.3124906636845 -1.9584674237407853 666.2384906636845 -1.509467423740773C666.1814906636845 -1.158467423740774 666.1154906636845 -0.8074674237407748 666.0514906636845 -0.4554674237407994C665.9734906636845 -0.019467423740820777 665.8934906636845 0.41453257625920514 665.8044906636844 0.851532576259217C665.7314906636844 1.212532576259207 665.6504906636844 1.5725325762592206 665.5704906636845 1.9325325762592342C665.4754906636845 2.361532576259208 665.3794906636845 2.7905325762592383 665.2744906636844 3.219532576259212C665.1854906636845 3.5855325762591974 665.0914906636845 3.9505325762592065 664.9964906636844 4.316532576259192C664.8854906636844 4.74253257625918 664.7714906636844 5.169532576259201 664.6514906636844 5.595532576259188C664.5484906636844 5.9645325762592165 664.4394906636844 6.334532576259164 664.3284906636844 6.704532576259169C664.2024906636844 7.127532576259171 664.0714906636845 7.551532576259149 663.9354906636845 7.97653257625916C663.8164906636845 8.347532576259141 663.6954906636845 8.719532576259155 663.5694906636845 9.09153257625917C663.4274906636845 9.513532576259195 663.2784906636845 9.936532576259197 663.1274906636845 10.359532576259141C662.9934906636845 10.732532576259132 662.8594906636845 11.106532576259156 662.7174906636844 11.480532576259122C662.5584906636844 11.902532576259148 662.3934906636845 12.324532576259116 662.2264906636844 12.746532576259142C662.0794906636845 13.119532576259132 661.9314906636845 13.492532576259123 661.7774906636845 13.86553257625917C661.6014906636844 14.289532576259148 661.4194906636844 14.71453257625916 661.2354906636845 15.137532576259161C661.0744906636845 15.509532576259176 660.9144906636844 15.88153257625919 660.7464906636845 16.253532576259147C660.5544906636845 16.67853257625916 660.3534906636845 17.104532576259146 660.1524906636845 17.529532576259157C659.9784906636845 17.899532576259162 659.8064906636845 18.269532576259166 659.6254906636846 18.63953257625917C659.4144906636845 19.071532576259187 659.1924906636846 19.50253257625917 658.9734906636845 19.934532576259187C658.7884906636846 20.297532576259186 658.6084906636845 20.658532576259176 658.4184906636846 21.021532576259176C658.1834906636846 21.46853257625918 657.9354906636845 21.91453257625915 657.6904906636845 22.362532576259184C657.5014906636845 22.708532576259188 657.3174906636846 23.05453257625919 657.1234906636845 23.399532576259162C656.8464906636846 23.890532576259147 656.5564906636845 24.37953257625918 656.2674906636845 24.870532576259166C656.0904906636845 25.171532576259153 655.9204906636845 25.47253257625914 655.7394906636845 25.773532576259186C655.2724906636845 26.549532576259196 654.7904906636845 27.325532576259207 654.2954906636845 28.099532576259207C654.0964906636844 28.410532576259186 653.8854906636844 28.72153257625922 653.6824906636845 29.0325325762592C653.3714906636845 29.507532576259223 653.0634906636844 29.98253257625919 652.7434906636845 30.455532576259202C652.5034906636845 30.81053257625922 652.2514906636844 31.16353257625923 652.0044906636845 31.51853257625919C651.7054906636845 31.947532576259164 651.4094906636844 32.378532576259204 651.1024906636845 32.8065325762592C650.8414906636845 33.17253257625919 650.5694906636845 33.535532576259186 650.3014906636845 33.900532576259195C649.9964906636845 34.31653257625919 649.6924906636846 34.73253257625919 649.3784906636845 35.14753257625921C649.0984906636845 35.51853257625919 648.8094906636845 35.888532576259195 648.5224906636845 36.2585325762592C648.2074906636846 36.664532576259205 647.8944906636846 37.07153257625919 647.5724906636846 37.47653257625922C647.2754906636845 37.84953257625921 646.9724906636845 38.22153257625922 646.6694906636845 38.59453257625921C646.3424906636845 38.99553257625922 646.0164906636845 39.39653257625923 645.6824906636845 39.79753257625919C645.3724906636845 40.1695325762592 645.0554906636845 40.54053257625918 644.7374906636845 40.912532576259196C644.3974906636845 41.30953257625919 644.0574906636845 41.70653257625918 643.7114906636845 42.10353257625917C643.3854906636844 42.475532576259184 643.0554906636845 42.8475325762592 642.7234906636845 43.21853257625918C642.3724906636845 43.610532576259175 642.0194906636845 44.00253257625917 641.6604906636845 44.39453257625917C641.3204906636845 44.76553257625915 640.9784906636845 45.13553257625915 640.6324906636845 45.50553257625916C640.2664906636845 45.896532576259176 639.8974906636845 46.28653257625916 639.5244906636844 46.67453257625914C639.1734906636844 47.04153257625916 638.8204906636845 47.40853257625912 638.4624906636844 47.77353257625913C638.0814906636845 48.163532576259115 637.6954906636845 48.55153257625915 637.3074906636845 48.939532576259126C636.9454906636845 49.302532576259125 636.5824906636844 49.663532576259115 636.2144906636845 50.02553257625914C635.8174906636845 50.415532576259125 635.4144906636844 50.802532576259125 635.0094906636845 51.189532576259126C634.6384906636845 51.54553257625912 634.2674906636845 51.90253257625915 633.8894906636845 52.25653257625913C633.4734906636845 52.64853257625913 633.0494906636845 53.03753257625914 632.6254906636844 53.42653257625915C632.2474906636845 53.77453257625916 631.8724906636845 54.122532576259175 631.4874906636845 54.46853257625912C631.0464906636845 54.86553257625911 630.5974906636845 55.26153257625913 630.1484906636845 55.65653257625911C629.7694906636845 55.99053257625911 629.3944906636845 56.326532576259126 629.0094906636845 56.65853257625912C628.5344906636844 57.0705325762591 628.0484906636844 57.479532576259146 627.5654906636845 57.88853257625914C627.1954906636845 58.201532576259126 626.8304906636845 58.516532576259124 626.4554906636845 58.82753257625916C625.9244906636844 59.26953257625917 625.3824906636845 59.70853257625913 624.8414906636845 60.14753257625915C624.5004906636844 60.42453257625914 624.1664906636845 60.70253257625916 623.8224906636844 60.97753257625914C623.8014906636845 60.99453257625913 623.7794906636844 61.01053257625915 623.7584906636845 61.02753257625915C591.8514906636844 26.607532576259132 568.4584906636844 -10.28146742374085 554.1854906636845 -48.70646742374083C542.9464906636845 -78.96046742374082 539.2034906636844 -105.55546742374082 538.3184906636844 -124.85846742374082C538.4274906636845 -124.82846742374082 538.5334906636845 -124.79546742374083 538.6414906636844 -124.76546742374083C541.0694906636844 -124.08346742374084 543.4764906636844 -123.37046742374082 545.8644906636845 -122.63146742374084C546.1384906636845 -122.54646742374084 546.4144906636844 -122.46546742374085 546.6874906636845 -122.37946742374083C549.0574906636845 -121.63846742374082 551.4034906636845 -120.86446742374085 553.7314906636844 -120.06846742374083C554.1394906636845 -119.92946742374082 554.5464906636844 -119.79046742374084 554.9514906636845 -119.64946742374082C557.2464906636844 -118.85246742374082 559.5214906636844 -118.03046742374082 561.7754906636844 -117.17946742374082C562.1304906636844 -117.04546742374083 562.4834906636845 -116.90746742374083 562.8394906636845 -116.77146742374083C565.1744906636844 -115.87846742374083 567.4934906636845 -114.96346742374084 569.7824906636845 -114.01246742374084C569.8464906636844 -113.98646742374083 569.9084906636845 -113.95846742374084 569.9724906636844 -113.93246742374083C572.2434906636845 -112.98746742374084 574.4854906636845 -112.00846742374083 576.7094906636845 -111.00846742374083C577.0024906636845 -110.87646742374082 577.2964906636845 -110.74846742374083 577.5884906636845 -110.61546742374082C579.7464906636845 -109.63446742374083 581.8784906636845 -108.62246742374083 583.9914906636845 -107.58946742374081C584.3764906636845 -107.40046742374082 584.7604906636845 -107.2124674237408 585.1444906636846 -107.0224674237408C587.2364906636845 -105.9844674237408 589.3084906636846 -104.9244674237408 591.3544906636845 -103.8354674237408C591.6714906636845 -103.66646742374078 591.9844906636845 -103.49346742374078 592.3004906636845 -103.3244674237408C594.4344906636845 -102.1764674237408 596.5504906636845 -101.00746742374079 598.6314906636845 -99.80446742374079C602.3774906636845 -97.63646742374078 607.1714906636846 -98.91746742374079 609.3374906636845 -102.6644674237408C611.5044906636846 -106.41146742374082 610.2234906636846 -111.2054674237408 606.4774906636845 -113.3714674237408C602.3054906636845 -115.78546742374078 598.0354906636845 -118.0924674237408 593.6734906636846 -120.29146742374078C590.7654906636845 -121.75746742374079 587.8154906636846 -123.17646742374077 584.8264906636846 -124.54646742374078C568.3834906636846 -132.08346742374079 550.7344906636846 -138.15646742374076 532.1024906636846 -142.67846742374078C525.0944906636846 -144.37746742374077 518.0094906636846 -145.82946742374077 510.87049066368456 -147.0494674237408C501.5904906636846 -166.31746742374077 477.8164906636846 -202.93246742374077 429.6094906636846 -208.15146742374077C426.26149066368464 -208.5184674237408 422.98149066368467 -207.54046742374078 420.3684906636846 -205.40346742374078C417.7384906636846 -203.25446742374078 416.11749066368463 -200.20846742374079 415.8054906636846 -196.81946742374078C413.6534906636847 -173.18746742374077 416.72749066368465 -157.69046742374078 420.56649066368465 -147.90846742374077C380.00549066368467 -139.64146742374078 337.91249066368465 -117.73946742374076 297.00549066368467 -83.3354674237408C280.4214906636846 -69.38846742374079 266.51849066368464 -55.53146742374079 255.85349066368462 -44.0034674237408C253.94549066368464 -46.70946742374079 251.94449066368463 -49.3244674237408 249.85249066368465 -51.82146742374081C247.07149066368464 -55.14146742374081 242.13049066368464 -55.57646742374081 238.81449066368464 -52.79846742374082C235.49549066368462 -50.01946742374082 235.05949066368464 -45.075467423740804 237.83749066368463 -41.75946742374083C240.4164906636846 -38.67946742374082 242.83549066368465 -35.385467423740835 245.08949066368461 -31.945467423740837C236.85949066368462 -22.375467423740844 232.20649066368463 -16.097467423740824 231.77449066368462 -15.50946742374083C229.74349066368464 -12.746467423740825 229.74349066368464 -8.985467423740829 231.77449066368462 -6.222467423740852C232.19449066368463 -5.650467423740849 236.84349066368463 0.6285325762591469 245.10049066368464 10.22853257625917C234.31549066368464 26.729532576259146 216.03749066368465 45.00453257625918 186.76249066368464 49.29953257625914C186.00249066368463 38.08853257625913 185.62649066368465 13.304532576259135 195.73249066368464 2.22653257625916C199.00349066368463 -1.3594674237408526 203.01649066368464 -3.0284674237408353 208.36549066368462 -3.0284674237408353C212.69349066368466 -3.0284674237408353 216.20149066368464 -6.536467423740817 216.20149066368464 -10.865467423740824C216.20149066368464 -15.194467423740832 212.69349066368463 -18.702467423740814 208.36549066368462 -18.702467423740814C203.01649066368464 -18.702467423740814 199.00249066368463 -20.373467423740806 195.73149066368464 -23.95746742374081C185.62649066368465 -35.03746742374082 186.00249066368463 -59.80946742374081 186.76249066368464 -71.01846742374082C194.09949066368463 -69.93746742374083 201.12749066368463 -67.91346742374083 207.69749066368462 -64.98946742374082C211.65049066368465 -63.228467423740824 216.28349066368463 -65.00846742374083 218.04149066368464 -68.96246742374083C219.80149066368463 -72.91646742374084 218.02249066368464 -77.54946742374082 214.06949066368463 -79.30946742374084C205.04949066368465 -83.32546742374083 195.34049066368465 -85.91746742374085 185.21349066368464 -87.01546742374083C181.86349066368464 -87.38046742374084 178.58149066368463 -86.40346742374084 175.96849066368463 -84.26546742374083C173.34149066368462 -82.11746742374083 171.72349066368463 -79.07046742374084 171.41249066368462 -75.68946742374084C167.89749066368464 -37.49646742374085 177.88649066368464 -20.266467423740835 184.15249066368463 -13.395467423740854C184.97449066368463 -12.493467423740867 185.82849066368462 -11.65046742374085 186.71449066368464 -10.865467423740853C185.82949066368462 -10.080467423740856 184.97449066368463 -9.237467423740839 184.15349066368464 -8.336467423740828C177.88749066368464 -1.4664674237408235 167.89949066368462 15.763532576259195 171.41249066368462 53.969532576259155C171.72449066368463 57.34953257625915 173.34449066368464 60.396532576259176 175.97449066368463 62.54653257625915C178.23049066368463 64.39053257625915 180.98249066368464 65.36953257625913 183.84049066368465 65.36953257625913C184.29349066368462 65.36953257625913 184.75149066368462 65.34453257625916 185.20849066368464 65.29553257625912C220.27449066368465 61.50353257625915 242.45549066368463 41.39353257625913 255.86249066368464 22.28353257625912C265.7024906636846 32.919532576259144 278.2984906636846 45.536532576259106 293.2154906636846 58.38453257625912C294.6964906636846 59.66053257625913 296.5154906636846 60.284532576259096 298.32649066368464 60.284532576259096C300.52849066368464 60.284532576259096 302.71849066368463 59.36053257625912 304.26649066368464 57.56153257625908C307.09049066368465 54.28153257625911 306.72249066368465 49.3325325762591 303.44349066368466 46.50953257625906C275.60249066368465 22.530532576259077 255.75449066368463 -1.12146742374091 248.00149066368462 -10.862467423740952C256.1144906636846 -21.053467423740955 277.46149066368463 -46.46246742374095 307.36649066368466 -71.56646742374096C370.7744906636847 -124.79746742374095 423.4464906636846 -135.97146742374096 456.46749066368466 -135.97146742374096C472.5744906636846 -135.97146742374096 488.5914906636847 -134.71346742374095 504.3264906636846 -132.23846742374096C504.3584906636846 -132.23446742374097 504.39049066368466 -132.22846742374097 504.4224906636846 -132.22346742374097C510.4934906636846 -131.26646742374098 516.5214906636846 -130.12746742374097 522.4974906636846 -128.80546742374096C523.1824906636846 -100.54746742374095 528.8894906636846 -71.79446742374097 539.4944906636846 -43.24246742374095C554.3024906636846 -3.3814674237409577 578.3544906636846 34.79453257625903 611.0354906636846 70.34953257625904C569.5364906636846 98.33253257625904 513.7764906636846 114.25753257625905 456.46649066368457 114.25753257625905C449.2334906636846 114.25753257625905 441.9364906636846 113.75353257625903 434.58249066368455 112.75453257625907C434.4164906636846 112.72853257625906 434.25049066368456 112.70153257625907 434.0814906636846 112.68653257625908C401.89449066368456 108.21753257625909 368.6234906636846 94.2145325762591 334.87549066368456 70.89053257625909C331.3154906636846 68.42953257625908 326.4344906636846 69.3205325762591 323.9754906636846 72.88253257625911C321.51449066368457 76.44253257625911 322.4064906636846 81.32453257625912 325.96749066368454 83.7845325762591C358.01049066368455 105.93053257625911 389.8444906636846 120.17553257625912 421.0084906636846 126.36653257625909C416.8684906636846 136.2655325762591 413.57949066368457 152.0365325762591 415.80849066368455 176.39353257625908C416.12049066368456 179.77353257625907 417.74049066368457 182.81953257625906 420.37149066368454 184.9695325762591C422.62749066368457 186.8135325762591 425.3784906636846 187.79253257625908 428.23649066368455 187.79253257625908C428.6914906636846 187.79253257625908 429.1474906636846 187.7675325762591 429.60649066368455 187.7175325762591C478.7284906636846 182.3995325762591 502.38949066368457 144.9215325762591 511.53849066368457 125.21553257625908C555.2674906636846 117.67553257625906 595.8494906636846 101.3205325762591 627.5774906636846 77.86553257625906C663.1144906636846 51.59453257625904 682.6854906636845 20.08453257625905 682.6854906636845 -10.862467423740952C682.6904906636845 -11.757467423740735 682.6714906636846 -12.649467423740731 682.6374906636845 -13.544467423740741ZM456.4744906636846 -151.64746742374075C449.8844906636846 -151.64746742374075 443.2284906636846 -151.24946742374073 436.52149066368463 -150.47046742374073C430.17449066368465 -162.89946742374073 430.5334906636846 -182.62246742374072 431.1674906636846 -192.15446742374073C462.9014906636846 -187.4784674237407 481.66049066368464 -166.11346742374073 491.6034906636846 -149.73846742374073C479.98149066368455 -151.0024674237407 468.25049066368456 -151.64746742374075 456.4744906636846 -151.64746742374075ZM431.1654906636845 171.71953257625927C430.50049066368456 161.81853257625926 430.1364906636845 141.14353257625925 437.1384906636846 128.85353257625928C443.6174906636845 129.56553257625927 450.0644906636845 129.9275325762593 456.4744906636846 129.9275325762593C468.56249066368457 129.9275325762593 480.59249066368454 129.24853257625932 492.45749066368455 127.92553257625929C482.6374906636845 144.73853257625927 463.77949066368456 166.9255325762593 431.1654906636845 171.71953257625927Z "></path>
	</g>
</g><g transform="matrix(0.1171866478460409,0,0,0.1171866478460409,-0.0017208245429689243,51.197324789642565)">
	<g>
		<path d="M534.0105119425427 -6.903455979648925C530.3095119425427 -11.366455979648919 522.1335119425428 -19.54745597964893 508.96151194254276 -24.201455979648927C492.43851194254273 -30.038455979648916 474.06351194254273 -28.349455979648923 454.3475119425428 -19.17445597964894C416.97651194254274 -1.7814559796489675 392.3085119425428 9.494544020351043 383.43751194254276 13.534544020351063C380.3165119425428 14.955544020351056 377.8765119425428 17.628544020351057 376.7445119425428 20.86554402035108C375.60551194254276 24.118544020351067 375.85151194254274 27.751544020351105 377.4165119425428 30.83154402035109C382.6565119425428 41.13754402035107 400.27851194254276 69.1025440203511 436.7895119425428 69.1025440203511C445.8175119425428 69.1025440203511 456.0055119425428 67.39054402035111 467.4405119425428 63.2805440203511C522.1575119425428 43.61154402035112 534.0335119425429 15.2445440203511 536.6005119425428 3.9615440203510843C536.6005119425428 3.960544020351108 536.6005119425428 3.9595440203510748 536.6015119425427 3.9575440203510652C537.4775119425427 0.09654402035107523 536.5345119425427 -3.862455979648928 534.0105119425427 -6.903455979648925ZM462.14051194254273 48.530544020351044C447.7225119425427 53.71354402035104 412.65351194254276 61.66054402035104 392.8525119425427 26.466544020351023C403.5745119425427 21.574544020351027 427.0495119425427 10.817544020351022 460.9595119425427 -4.965455979648993C476.8265119425427 -12.349455979649008 491.2195119425427 -13.85145597964899 503.7415119425427 -9.424455979648997C512.4545119425427 -6.346455979649022 518.1925119425428 -1.0724559796490212 520.9405119425427 1.942544020351022C518.5145119425426 10.232544020351042 507.8815119425427 32.08754402035106 462.14051194254273 48.530544020351044Z "></path>
	</g>
</g><g transform="matrix(0.1171866478460409,0,0,0.1171866478460409,-0.0017208245429689243,51.197324789642565)">
	<g>
		<path d="M602.5595577189099 -72.7144254620708C585.8085577189099 -72.7144254620708 572.18255771891 -59.07242546207081 572.18255771891 -42.305425462070815C572.18255771891 -25.53842546207082 585.8105577189099 -11.896425462070823 602.5595577189099 -11.896425462070823S632.9375577189098 -25.537425462070814 632.9375577189098 -42.305425462070815C632.9375577189098 -59.073425462070816 619.3105577189099 -72.7144254620708 602.5595577189099 -72.7144254620708ZM602.5595577189099 -27.5704254620708C594.45155771891 -27.5704254620708 587.8535577189099 -34.180425462070815 587.8535577189099 -42.30542546207079C587.8535577189099 -50.42942546207078 594.4505577189099 -57.0404254620708 602.5595577189099 -57.0404254620708C610.6675577189098 -57.039425462070795 617.2655577189099 -50.42942546207081 617.2655577189099 -42.30542546207079C617.2655577189099 -34.180425462070815 610.6675577189098 -27.5704254620708 602.5595577189099 -27.5704254620708Z "></path>
	</g>
</g><g transform="matrix(0.1171866478460409,0,0,0.1171866478460409,-0.0017208245429689243,51.197324789642565)">
	<g>
		<circle cx="606.0785537109375" cy="-42.26542216617237" r="7.836"></circle>
	</g>
</g></g></g><use xlink:href="#gloss-top" opacity="1" class="background"></use></g></svg>