<svg xmlns="http://www.w3.org/2000/svg" version="1.1" xmlns:xlink="http://www.w3.org/1999/xlink" xmlns:svgjs="http://svgjs.com/svgjs" width="83" height="83" viewBox="0 0 100 100"><g class="wrap" transform="matrix(1,0,0,1,0,0)"><defs class="background">
			<linearGradient id="Gradient_1" gradientUnits="userSpaceOnUse" x1="50" y1="7" x2="50" y2="55.2625" spreadMethod="pad">
<stop offset="0%" stop-color="#FFFFFF" stop-opacity="0.1"></stop>

<stop offset="100%" stop-color="#FFFFFF" stop-opacity="0.7"></stop>
</linearGradient><linearGradient id="Gradient_2" gradientUnits="userSpaceOnUse" x1="100" y1="51" x2="25" y2="50.85" spreadMethod="pad">
<stop offset="0%" stop-color="#FFFFFF" stop-opacity="0.1"></stop>

<stop offset="100%" stop-color="#FFFFFF" stop-opacity="0.7"></stop>
</linearGradient><linearGradient id="Gradient_3" gradientUnits="userSpaceOnUse" x1="0" y1="51" x2="77" y2="51" spreadMethod="pad">
<stop offset="0%" stop-color="#FFFFFF" stop-opacity="0.1"></stop>

<stop offset="100%" stop-color="#FFFFFF" stop-opacity="0.7"></stop>
</linearGradient><g id="background">
<path fill="url(#background-gradient)" stroke="none" d=" M 99.15 55 Q 100 53.5 100 51.55 100 49.6 99.15 48.1 L 77.55 10.45 Q 76.7 9 75 8.05 73.3 7 71.6 7 L 28.35 7 Q 26.7 7 25 8.05 23.3 9 22.45 10.45 L 0.8 48.1 Q 0 49.6 0 51.55 0 53.5 0.8 55 L 22.45 92.65 Q 23.3 94.1 25 95.1 26.7 96.05 28.35 96.05 L 71.6 96.05 Q 73.3 96.05 75 95.05 76.7 94.1 77.55 92.65 L 99.15 55 M 96.5 49.65 Q 96.9 50.4 96.9 51.55 96.9 52.7 96.5 53.4 L 74.9 91.1 Q 74.45 91.85 73.5 92.45 72.45 93 71.6 93 L 28.35 93 Q 27.5 93 26.5 92.45 25.5 91.85 25.1 91.1 L 3.5 53.4 Q 3.05 52.7 3.05 51.55 3.05 50.4 3.5 49.65 L 25.1 12 Q 25.5 11.25 26.5 10.65 27.5 10.1 28.35 10.1 L 71.6 10.1 Q 72.45 10.1 73.5 10.65 74.45 11.25 74.9 12 L 96.5 49.65 Z"></path>
</g><mask id="mask">
<path fill="#FFFFFF" stroke="none" d=" M 96.9 51.55 Q 96.9 50.4 96.5 49.65 L 74.9 12 Q 74.45 11.25 73.5 10.65 72.45 10.1 71.6 10.1 L 28.35 10.1 Q 27.5 10.1 26.5 10.65 25.5 11.25 25.1 12 L 3.5 49.65 Q 3.05 50.4 3.05 51.55 3.05 52.7 3.5 53.4 L 25.1 91.1 Q 25.5 91.85 26.5 92.45 27.5 93 28.35 93 L 71.6 93 Q 72.45 93 73.5 92.45 74.45 91.85 74.9 91.1 L 96.5 53.4 Q 96.9 52.7 96.9 51.55 Z"></path>
</mask><g id="gloss-top">
<path fill="url(#Gradient_1)" stroke="none" d=" M 96.5 53.4 L 95.45 55.25 Q 98 52.85 99.9 50.3 99.7 49 99.15 48.1 L 77.55 10.45 Q 76.7 9 75 8.05 73.3 7 71.6 7 L 28.35 7 Q 26.7 7 25 8.05 23.3 9 22.45 10.45 L 0.8 48.1 Q 0.3 49.05 0.1 50.3 1.95 52.85 4.55 55.25 L 3.5 53.4 Q 3.05 52.7 3.05 51.55 3.05 50.4 3.5 49.65 L 25.1 12 Q 25.5 11.25 26.5 10.65 27.5 10.1 28.35 10.1 L 71.6 10.1 Q 72.45 10.1 73.5 10.65 74.45 11.25 74.9 12 L 96.5 49.65 Q 96.9 50.4 96.9 51.55 96.9 52.7 96.5 53.4 Z"></path>
</g><g id="gloss-right">
<path fill="url(#Gradient_2)" stroke="none" d=" M 99.15 55 Q 100 53.5 100 51.55 100 49.6 99.15 48.1 L 77.55 10.45 Q 76.7 9 75 8.05 73.3 7 71.6 7 L 28.35 7 Q 26.75 7 25.1 7.95 L 26.65 10.6 Q 27.6 10.1 28.35 10.1 L 71.6 10.1 Q 72.45 10.1 73.5 10.65 74.45 11.25 74.9 12 L 96.5 49.65 Q 96.9 50.4 96.9 51.55 96.9 52.7 96.5 53.4 L 74.9 91.1 Q 74.65 91.5 74.05 92 L 75.65 94.7 Q 76.9 93.7 77.55 92.65 L 99.15 55 Z"></path>
</g><g id="gloss-left">
<path fill="url(#Gradient_3)" stroke="none" d=" M 75.75 13.5 L 77.6 10.55 77.55 10.45 Q 76.7 9 75 8.05 73.3 7 71.6 7 L 28.35 7 Q 26.7 7 25 8.05 23.3 9 22.45 10.45 L 0.8 48.1 Q 0 49.6 0 51.55 0 53.5 0.8 55 L 22.45 92.65 Q 23.2 93.95 24.55 94.85 L 26.2 92.25 Q 25.45 91.65 25.1 91.1 L 3.5 53.4 Q 3.05 52.7 3.05 51.55 3.05 50.4 3.5 49.65 L 25.1 12 Q 25.5 11.25 26.5 10.65 27.5 10.1 28.35 10.1 L 71.6 10.1 Q 72.45 10.1 73.5 10.65 74.45 11.25 74.9 12 L 75.75 13.5 Z"></path>
</g>
			
	<linearGradient id="background-gradient" x1="0" y1="0" y2="1" x2="0" gradientTransform="rotate(90 0.5 0.5)">
		<stop stop-color="#255f18" offset="0%"></stop>
		<stop stop-color="#1d5c0f" offset="100%"></stop>
	</linearGradient>

			
			
			
			
		<linearGradient class="shapgradient" gradientTransform="rotate(0 0.5 0.5)" id="SvgjsLinearGradient1101"><stop stop-color="#3c592e" offset="0"></stop><stop stop-color="#9db21d" offset="1"></stop></linearGradient></defs><use xlink:href="#background" fill="url(#background-gradient)" class="background"></use><g class="geditable"><g mask="url(#mask)" fill="url(#SvgjsLinearGradient1101)" class="editable" transform="matrix(0.9,0,0,0.9,4.999999427795409,3)"><g transform="matrix(0.1171875,0,0,0.1171875,-0.0000016838312149047852,27.672639533877373)">
	<g>
		<circle cx="609.2316533203125" cy="51.18877866617838" r="7.837"></circle>
	</g>
</g><g transform="matrix(0.1171875,0,0,0.1171875,-0.0000016838312149047852,27.672639533877373)">
	<g>
		<path d="M665.9456514078795 49.78977218119303L635.5156514078794 39.267772181193024C631.3786514078795 37.83777218119302 627.9186514078795 34.75477218119302 626.0216514078795 30.810772181193016C621.6466514078795 21.712772181193017 613.1146514078796 15.14777218119302 603.1996514078795 13.247772181193014L595.5946514078795 11.789772181193015V-7.576227818806977C595.5946514078795 -22.216227818806978 583.6796514078794 -34.12722781880697 569.0336514078795 -34.12722781880697H564.2476514078795C561.5736514078795 -34.12722781880697 559.2166514078795 -32.78622781880698 557.8016514078795 -30.74322781880698C553.5416514078795 -32.90222781880698 548.7306514078795 -34.12722781880698 543.6356514078795 -34.12722781880698C539.3066514078795 -34.12722781880698 535.7986514078796 -30.61822781880698 535.7986514078796 -26.290227818806983V35.872772181193014C527.4956514078794 37.253772181193014 520.2346514078795 42.677772181193006 516.6436514078795 50.48977218119302L498.25465140787946 90.58377218119301C493.38065140787944 101.205772181193 482.67865140787944 108.068772181193 470.98865140787944 108.068772181193H413.16365140787946C408.83465140787945 108.068772181193 405.32665140787947 111.57777218119298 405.32665140787947 115.90577218119299C405.32665140787947 120.23377218119299 408.8346514078795 123.74277218119298 413.16365140787946 123.74277218119298H470.98865140787944C488.78365140787946 123.74277218119298 505.07765140787944 113.29377218119296 512.5006514078794 97.11977218119299L530.8876514078795 57.03077218119299C532.5196514078795 53.482772181192985 536.0856514078794 51.18877218119299 539.9726514078794 51.18877218119299H543.5636514078794C543.5876514078794 51.18877218119299 543.6106514078795 51.19177218119299 543.6346514078795 51.19177218119299S543.6816514078795 51.18877218119299 543.7056514078795 51.18877218119299H547.7576514078795C549.2146514078795 51.18877218119299 550.4666514078795 52.17477218119299 550.8066514078795 53.59377218119299L553.1486514078795 63.33477218119299C557.3546514078795 80.78777218119299 572.8366514078795 92.97677218119298 590.7976514078795 92.97677218119298H602.4586514078794C605.1826514078795 92.97677218119298 607.3996514078794 95.19277218119299 607.3996514078794 97.91677218119298V100.53577218119298C607.3986514078795 100.63477218119297 607.3966514078795 100.73277218119298 607.3996514078794 100.83377218119298V152.92777218119298C607.3996514078794 157.25577218119298 610.9076514078795 160.76477218119297 615.2366514078794 160.76477218119297S623.0736514078794 157.25577218119298 623.0736514078794 152.92777218119298V107.59377218119297L660.7066514078795 103.19577218119298C673.2256514078795 101.73277218119301 682.6666514078795 91.12677218119302 682.6666514078795 78.52577218119302V73.26377218119302C682.6666514078795 62.681772181193026 675.9466514078795 53.24877218119302 665.9456514078795 49.78977218119303ZM572.0846514078795 -18.018227818806977C576.6076514078795 -16.69722781880698 579.9216514078795 -12.516227818806975 579.9216514078795 -7.5752278188069795V8.78677218119303L575.0806514078795 7.858772181193032V-2.688227818806979C575.0806514078795 -7.469227818806978 574.0036514078795 -12.002227818806979 572.0846514078795 -16.064227818806977V-18.018227818806977ZM666.9946514078795 78.52577218119302L666.9946514078795 78.52577218119302C666.9936514078795 83.17577218119303 663.5096514078795 87.08877218119301 658.8906514078794 87.62777218119302L622.1806514078795 91.91777218119302C619.6046514078795 83.468772181193 611.7416514078795 77.302772181193 602.4616514078796 77.302772181193H590.8006514078795C580.1086514078795 77.302772181193 570.8926514078795 70.04877218119302 568.3896514078795 59.665772181193006L566.0516514078795 49.93677218119301C564.3136514078794 42.679772181193 558.5626514078795 37.30677218119301 551.4766514078794 35.894772181193005V-16.36522781880698C556.2136514078795 -13.64222781880698 559.4106514078795 -8.530227818806978 559.4106514078795 -2.6872278188069743V14.336772181193027C559.4106514078795 18.09677218119303 562.0806514078795 21.32577218119303 565.7726514078795 22.03377218119303L600.2546514078796 28.641772181193033C605.3146514078796 29.611772181193032 609.6686514078796 32.96177218119303 611.9006514078796 37.60377218119304C615.5946514078796 45.287772181193034 622.3356514078796 51.293772181193034 630.3966514078795 54.08077218119304L660.8266514078796 64.60277218119305C664.5176514078796 65.87877218119306 666.9966514078797 69.35877218119305 666.9966514078797 73.26377218119305V78.52577218119302Z "></path>
	</g>
</g><g transform="matrix(0.1171875,0,0,0.1171875,-0.0000016838312149047852,27.672639533877373)">
	<g>
		<path d="M364.84166475932 296.68881986490885H278.35366475931994C274.02466475932 296.68881986490885 270.51666475931995 300.19781986490887 270.51666475931995 304.52581986490884V322.13981986490876C270.51666475931995 333.57281986490875 262.98366475931994 343.2778198649088 252.61766475931995 346.56781986490876C252.60166475931996 346.57281986490875 252.58766475931998 346.57781986490875 252.57166475931996 346.58381986490883C250.13966475931994 347.3498198649088 247.55466475931996 347.76581986490885 244.87366475931995 347.76581986490885H221.79366475931997C220.21466475931996 347.76581986490885 218.93066475931997 346.48681986490885 218.93066475931997 344.9158198649088V289.84681986490875C218.93066475931997 289.8398198649088 218.93166475931997 289.83281986490874 218.93166475931997 289.82681986490877S218.93066475931997 289.81281986490876 218.93066475931997 289.8068198649088V191.59781986490881C218.93066475931997 154.18381986490883 249.38566475931995 123.74581986490881 286.81866475932 123.74581986490881H367.10766475931996C371.43666475932 123.7438198649088 374.94466475931995 120.23481986490881 374.94466475931995 115.90681986490881C374.94466475931995 111.57881986490881 371.43666475931997 108.06981986490882 367.10766475931996 108.06981986490882H286.81766475932C244.92166475931998 108.06981986490882 210.13566475931998 139.05281986490883 204.16966475931997 179.2998198649088C195.66566475931998 180.2108198649088 187.79266475932 183.95681986490882 181.68166475931997 190.0798198649088C174.57866475931996 197.16881986490884 170.66666475931996 206.60481986490882 170.66666475931996 216.64881986490886V261.9038198649089C170.66666475931996 280.54881986490886 185.01866475931996 295.8978198649088 203.25566475931996 297.51181986490883V344.9128198649089C203.25566475931996 355.12681986490884 211.57066475931995 363.4368198649089 221.79166475931996 363.4368198649089H223.49466475931996V407.3438198649088C223.49466475931996 411.6718198649088 227.00266475931997 415.1808198649088 231.33166475931995 415.1808198649088H268.88666475931996C273.21566475931996 415.1808198649088 276.72366475931995 411.6718198649088 276.72366475931995 407.3438198649088V397.2288198649088C276.72366475931995 387.8538198649088 270.99166475932 379.6948198649088 262.77466475932 376.2208198649089V359.3558198649089C263.56666475931996 358.9748198649089 264.33766475932 358.55881986490886 265.10066475931995 358.1288198649089C268.46566475931996 361.43381986490886 273.06966475931995 363.4358198649089 278.10366475931994 363.4358198649089H281.39366475931996V407.34281986490885C281.39366475931996 411.6708198649088 284.90166475931994 415.17981986490884 289.23066475931995 415.17981986490884H326.78466475932C331.11366475931993 415.17981986490884 334.62166475931997 411.6708198649088 334.62166475931997 407.34281986490885V397.22781986490884C334.62166475931997 387.85281986490884 328.88966475931994 379.69381986490885 320.6716647593199 376.2198198649089V358.54981986490884C333.91366475931994 351.43381986490886 342.48966475931996 337.4258198649088 342.48966475931996 322.13181986490883V312.36181986490885H364.84366475931995C369.17266475932 312.36181986490885 372.68066475931994 308.85281986490884 372.68066475931994 304.52481986490886S369.1716647593199 296.68881986490885 364.84166475932 296.68881986490885ZM203.25566475931996 281.7108198649089C193.68466475931996 280.17981986490884 186.33966475931996 271.8938198649089 186.33966475931996 261.9038198649089V216.64881986490886C186.33966475931996 210.79781986490886 188.61766475931995 205.29981986490887 192.76366475931997 201.16181986490884C195.68966475931995 198.22981986490882 199.31166475931997 196.25481986490885 203.25566475931996 195.33981986490883V281.7108198649089ZM261.05066475931994 399.50581986490886H239.17066475931995V363.4358198649088H244.87566475931996C245.62266475931995 363.4358198649088 246.36466475931996 363.4138198649089 247.10166475931996 363.3738198649088V382.3058198649088C247.10166475931996 386.43381986490886 250.30466475931996 389.8548198649088 254.42566475931994 390.12581986490886C258.14166475931995 390.37081986490887 261.05166475932 393.4898198649088 261.05166475932 397.22681986490886V399.50581986490886ZM318.94766475932 399.50581986490886H297.06766475932V363.4358198649088H301.18466475931996C302.46466475931993 363.4358198649088 303.73666475932 363.3748198649089 304.99766475931995 363.2598198649089V382.3058198649088C304.99766475931995 386.43381986490886 308.2006647593199 389.8548198649088 312.32166475931996 390.12581986490886C316.03766475931997 390.37081986490887 318.94866475931997 393.4898198649088 318.94866475931997 397.22681986490886V399.50581986490886ZM326.81766475932 322.13081986490886C326.81766475932 332.7968198649088 320.10166475932 342.45881986490883 310.10566475932 346.17381986490886C307.27066475931997 347.22781986490884 304.26966475932 347.76181986490883 301.18666475931997 347.76181986490883H278.10466475932C277.83866475931995 347.76181986490883 277.58266475932 347.7138198649088 277.33466475932 347.6428198649088C282.87366475932 340.6148198649088 286.19266475932 331.7578198649088 286.19266475932 322.13681986490883V312.3608198649089H326.81866475932V322.13081986490886Z "></path>
	</g>
</g><g transform="matrix(0.1171875,0,0,0.1171875,-0.0000016838312149047852,27.672639533877373)">
	<g>
		<path d="M615.2396666666685 194.70577408854163C610.9106666666685 194.70577408854163 607.4026666666686 198.21477408854165 607.4026666666686 202.54277408854162V230.14277408854164C607.4026666666686 256.43877408854166 591.8656666666686 280.3217740885416 567.8206666666686 290.98777408854164C564.9876666666685 292.2447740885417 563.1616666666686 295.0527740885417 563.1616666666686 298.15177408854163V322.1377740885416C563.1616666666686 336.26677408854164 551.6586666666685 347.7627740885416 537.5196666666686 347.7627740885416H529.4526666666686C521.9896666666685 347.7627740885416 515.5886666666686 343.16477408854166 512.9136666666686 336.6577740885416C512.9066666666686 336.6377740885416 512.8986666666685 336.61777408854164 512.8916666666686 336.59777408854166C512.0486666666686 334.5237740885416 511.57266666666857 332.2627740885416 511.57266666666857 329.88977408854157V304.52477408854156C511.57266666666857 300.1967740885416 508.0646666666686 296.6877740885416 503.7356666666686 296.6877740885416H447.5926666666686C447.57966666666863 296.6877740885416 447.56766666666863 296.6877740885416 447.5546666666686 296.6877740885416H409.5976666666686C405.2686666666686 296.6877740885416 401.7606666666686 300.1967740885416 401.7606666666686 304.52477408854156C401.7606666666686 308.85277408854154 405.26866666666865 312.36177408854155 409.5976666666686 312.36177408854155H435.4376666666686L431.56066666666857 321.15477408854156C426.24466666666854 333.2107740885416 429.19066666666856 347.20277408854156 438.25866666666855 356.1877740885416L425.32566666666855 385.87277408854163C423.97566666666853 388.9807740885416 423.45266666666856 392.3507740885416 423.79666666666856 395.67377408854156C423.79166666666856 395.86177408854155 423.7886666666685 396.04877408854156 423.7886666666685 396.23677408854155V407.3437740885415C423.7886666666685 411.6717740885415 427.29666666666856 415.1807740885415 431.62566666666856 415.1807740885415H469.1796666666686C473.5086666666686 415.1807740885415 477.0166666666686 411.6717740885415 477.0166666666686 407.3437740885415V397.2287740885415C477.0166666666686 391.07877408854154 474.5046666666686 385.26977408854157 470.27266666666856 381.05477408854154L475.48466666666855 369.07877408854154C487.26866666666854 368.1537740885416 498.20866666666853 362.4947740885416 505.79766666666853 353.6567740885415C509.1536666666685 356.99677408854154 513.2116666666685 359.6287740885415 517.7276666666685 361.31777408854157V407.34177408854157C517.7276666666685 411.66977408854154 521.2356666666685 415.17877408854156 525.5646666666685 415.17877408854156H563.1176666666686C567.4466666666685 415.17877408854156 570.9546666666686 411.66977408854154 570.9546666666686 407.34177408854157V397.22677408854156C570.9546666666686 387.85177408854156 565.2226666666685 379.69277408854157 557.0056666666685 376.2187740885415V358.53977408854155C569.9856666666685 351.5697740885415 578.8336666666685 337.8677740885415 578.8336666666685 322.13677408854153V303.0707740885416C605.8726666666685 288.9847740885416 623.0746666666685 260.89977408854156 623.0746666666685 230.14177408854155V202.54077408854155C623.0756666666686 198.21477408854165 619.5676666666686 194.70577408854163 615.2396666666685 194.70577408854163ZM461.34666666666857 399.50577408854167H439.4666666666686V396.2347740885416C439.4666666666686 396.1497740885417 439.46966666666856 396.0667740885416 439.4756666666686 395.98177408854167C439.4916666666686 395.78477408854167 439.4976666666686 395.5767740885417 439.4976666666686 395.3777740885416C439.4976666666686 394.9887740885416 439.46966666666856 394.6007740885417 439.4106666666686 394.2157740885417C439.3066666666686 393.5227740885417 439.4086666666686 392.7967740885417 439.7006666666686 392.12277408854163L451.7936666666686 364.36677408854166L454.42766666666864 365.51277408854173C455.9836666666686 366.19477408854175 457.57166666666865 366.7727740885417 459.1806666666686 367.2677740885417L453.39666666666864 380.5567740885417C451.70366666666865 384.4467740885417 453.4146666666686 388.97777408854165 457.25466666666864 390.7787740885417C459.73966666666865 391.94477408854164 461.34566666666865 394.4757740885417 461.34566666666865 397.2257740885417V399.50577408854167ZM470.6946666666686 353.5087740885417C467.24866666666856 353.3407740885417 463.89266666666856 352.54977408854165 460.70266666666856 351.15177408854163L454.03666666666857 348.2507740885417C453.29366666666857 347.92577408854163 452.59666666666857 347.5627740885417 451.97966666666855 347.1807740885416C445.3776666666686 343.06977408854164 442.76766666666856 334.59877408854163 445.90666666666857 327.4757740885417L452.57066666666856 312.3607740885417H495.90266666666855V329.8887740885417C495.90266666666855 332.98177408854167 496.3316666666685 335.9747740885417 497.11966666666854 338.8207740885417C491.87566666666856 348.21777408854166 481.58566666666854 354.0377740885417 470.6946666666686 353.5087740885417ZM555.2826666666685 399.50577408854167H533.4026666666686V363.4357740885416H537.5186666666685C538.8046666666685 363.4357740885416 540.0766666666685 363.3687740885416 541.3326666666685 363.2527740885416V382.3067740885416C541.3336666666685 386.43477408854164 544.5376666666685 389.8557740885416 548.6576666666685 390.12677408854165C552.3736666666686 390.37177408854166 555.2836666666685 393.49077408854157 555.2836666666685 397.22777408854165V399.50577408854167Z "></path>
	</g>
</g><g transform="matrix(0.1171875,0,0,0.1171875,-0.0000016838312149047852,27.672639533877373)">
	<g>
		<circle cx="462.13067065429686" cy="230.91177823893227" r="7.837"></circle>
	</g>
</g><g transform="matrix(0.1171875,0,0,0.1171875,-0.0000016838312149047852,27.672639533877373)">
	<g>
		<circle cx="436.72866259765624" cy="160.7677657877604" r="7.837"></circle>
	</g>
</g><g transform="matrix(0.1171875,0,0,0.1171875,-0.0000016838312149047852,27.672639533877373)">
	<g>
		<circle cx="399.49965869140624" cy="199.4707687174479" r="7.837"></circle>
	</g>
</g><g transform="matrix(0.1171875,0,0,0.1171875,-0.0000016838312149047852,27.672639533877373)">
	<g>
		<circle cx="293.47365771484374" cy="184.2777755533854" r="7.837"></circle>
	</g>
</g><g transform="matrix(0.1171875,0,0,0.1171875,-0.0000016838312149047852,27.672639533877373)">
	<g>
		<circle cx="490.92766772460936" cy="181.67577054850258" r="7.837"></circle>
	</g>
</g><g transform="matrix(0.1171875,0,0,0.1171875,-0.0000016838312149047852,27.672639533877373)">
	<g>
		<circle cx="535.7956791992187" cy="213.78577115885415" r="7.837"></circle>
	</g>
</g><g transform="matrix(0.1171875,0,0,0.1171875,-0.0000016838312149047852,27.672639533877373)">
	<g>
		<circle cx="553.0996953125" cy="160.7677657877604" r="7.837"></circle>
	</g>
</g><g transform="matrix(0.1171875,0,0,0.1171875,-0.0000016838312149047852,27.672639533877373)">
	<g>
		<circle cx="359.27065478515624" cy="160.7677657877604" r="7.837"></circle>
	</g>
</g><g transform="matrix(0.1171875,0,0,0.1171875,-0.0000016838312149047852,27.672639533877373)">
	<g>
		<circle cx="334.65264331054686" cy="217.71475675455727" r="7.837"></circle>
	</g>
</g><g transform="matrix(0.1171875,0,0,0.1171875,-0.0000016838312149047852,27.672639533877373)">
	<g>
		<circle cx="259.4046574707031" cy="233.80576017252602" r="7.837"></circle>
	</g>
</g></g></g><use xlink:href="#gloss-top" opacity="1" class="background"></use></g></svg>