<svg xmlns="http://www.w3.org/2000/svg" version="1.1" xmlns:xlink="http://www.w3.org/1999/xlink" xmlns:svgjs="http://svgjs.com/svgjs" width="83" height="83" viewBox="0 0 100 100"><g class="wrap" transform="matrix(1,0,0,1,0,0)"><defs class="background">
			<linearGradient id="Gradient_1" gradientUnits="userSpaceOnUse" x1="50" y1="7" x2="50" y2="55.2625" spreadMethod="pad">
<stop offset="0%" stop-color="#FFFFFF" stop-opacity="0.1"></stop>

<stop offset="100%" stop-color="#FFFFFF" stop-opacity="0.7"></stop>
</linearGradient><linearGradient id="Gradient_2" gradientUnits="userSpaceOnUse" x1="100" y1="51" x2="25" y2="50.85" spreadMethod="pad">
<stop offset="0%" stop-color="#FFFFFF" stop-opacity="0.1"></stop>

<stop offset="100%" stop-color="#FFFFFF" stop-opacity="0.7"></stop>
</linearGradient><linearGradient id="Gradient_3" gradientUnits="userSpaceOnUse" x1="0" y1="51" x2="77" y2="51" spreadMethod="pad">
<stop offset="0%" stop-color="#FFFFFF" stop-opacity="0.1"></stop>

<stop offset="100%" stop-color="#FFFFFF" stop-opacity="0.7"></stop>
</linearGradient><g id="background">
<path fill="url(#background-gradient)" stroke="none" d=" M 99.15 55 Q 100 53.5 100 51.55 100 49.6 99.15 48.1 L 77.55 10.45 Q 76.7 9 75 8.05 73.3 7 71.6 7 L 28.35 7 Q 26.7 7 25 8.05 23.3 9 22.45 10.45 L 0.8 48.1 Q 0 49.6 0 51.55 0 53.5 0.8 55 L 22.45 92.65 Q 23.3 94.1 25 95.1 26.7 96.05 28.35 96.05 L 71.6 96.05 Q 73.3 96.05 75 95.05 76.7 94.1 77.55 92.65 L 99.15 55 M 96.5 49.65 Q 96.9 50.4 96.9 51.55 96.9 52.7 96.5 53.4 L 74.9 91.1 Q 74.45 91.85 73.5 92.45 72.45 93 71.6 93 L 28.35 93 Q 27.5 93 26.5 92.45 25.5 91.85 25.1 91.1 L 3.5 53.4 Q 3.05 52.7 3.05 51.55 3.05 50.4 3.5 49.65 L 25.1 12 Q 25.5 11.25 26.5 10.65 27.5 10.1 28.35 10.1 L 71.6 10.1 Q 72.45 10.1 73.5 10.65 74.45 11.25 74.9 12 L 96.5 49.65 Z"></path>
</g><mask id="mask">
<path fill="#FFFFFF" stroke="none" d=" M 96.9 51.55 Q 96.9 50.4 96.5 49.65 L 74.9 12 Q 74.45 11.25 73.5 10.65 72.45 10.1 71.6 10.1 L 28.35 10.1 Q 27.5 10.1 26.5 10.65 25.5 11.25 25.1 12 L 3.5 49.65 Q 3.05 50.4 3.05 51.55 3.05 52.7 3.5 53.4 L 25.1 91.1 Q 25.5 91.85 26.5 92.45 27.5 93 28.35 93 L 71.6 93 Q 72.45 93 73.5 92.45 74.45 91.85 74.9 91.1 L 96.5 53.4 Q 96.9 52.7 96.9 51.55 Z"></path>
</mask><g id="gloss-top">
<path fill="url(#Gradient_1)" stroke="none" d=" M 96.5 53.4 L 95.45 55.25 Q 98 52.85 99.9 50.3 99.7 49 99.15 48.1 L 77.55 10.45 Q 76.7 9 75 8.05 73.3 7 71.6 7 L 28.35 7 Q 26.7 7 25 8.05 23.3 9 22.45 10.45 L 0.8 48.1 Q 0.3 49.05 0.1 50.3 1.95 52.85 4.55 55.25 L 3.5 53.4 Q 3.05 52.7 3.05 51.55 3.05 50.4 3.5 49.65 L 25.1 12 Q 25.5 11.25 26.5 10.65 27.5 10.1 28.35 10.1 L 71.6 10.1 Q 72.45 10.1 73.5 10.65 74.45 11.25 74.9 12 L 96.5 49.65 Q 96.9 50.4 96.9 51.55 96.9 52.7 96.5 53.4 Z"></path>
</g><g id="gloss-right">
<path fill="url(#Gradient_2)" stroke="none" d=" M 99.15 55 Q 100 53.5 100 51.55 100 49.6 99.15 48.1 L 77.55 10.45 Q 76.7 9 75 8.05 73.3 7 71.6 7 L 28.35 7 Q 26.75 7 25.1 7.95 L 26.65 10.6 Q 27.6 10.1 28.35 10.1 L 71.6 10.1 Q 72.45 10.1 73.5 10.65 74.45 11.25 74.9 12 L 96.5 49.65 Q 96.9 50.4 96.9 51.55 96.9 52.7 96.5 53.4 L 74.9 91.1 Q 74.65 91.5 74.05 92 L 75.65 94.7 Q 76.9 93.7 77.55 92.65 L 99.15 55 Z"></path>
</g><g id="gloss-left">
<path fill="url(#Gradient_3)" stroke="none" d=" M 75.75 13.5 L 77.6 10.55 77.55 10.45 Q 76.7 9 75 8.05 73.3 7 71.6 7 L 28.35 7 Q 26.7 7 25 8.05 23.3 9 22.45 10.45 L 0.8 48.1 Q 0 49.6 0 51.55 0 53.5 0.8 55 L 22.45 92.65 Q 23.2 93.95 24.55 94.85 L 26.2 92.25 Q 25.45 91.65 25.1 91.1 L 3.5 53.4 Q 3.05 52.7 3.05 51.55 3.05 50.4 3.5 49.65 L 25.1 12 Q 25.5 11.25 26.5 10.65 27.5 10.1 28.35 10.1 L 71.6 10.1 Q 72.45 10.1 73.5 10.65 74.45 11.25 74.9 12 L 75.75 13.5 Z"></path>
</g>
			
	<linearGradient id="background-gradient" x1="0" y1="0" y2="1" x2="0" gradientTransform="rotate(90 0.5 0.5)">
		<stop stop-color="#255f18" offset="0%"></stop>
		<stop stop-color="#1d5c0f" offset="100%"></stop>
	</linearGradient>

			
			
			
			
		<linearGradient class="shapgradient" gradientTransform="rotate(0 0.5 0.5)" id="SvgjsLinearGradient1008"><stop stop-color="#3c592e" offset="0"></stop><stop stop-color="#9db21d" offset="1"></stop></linearGradient></defs><use xlink:href="#background" fill="url(#background-gradient)" class="background"></use><g class="geditable"><g mask="url(#mask)" fill="url(#SvgjsLinearGradient1008)" class="editable"><g transform="matrix(0.11716416104875654,0,0,0.11716416104875653,0.00005388402337348898,18.762910314237878)"><g><path d="M420.32014231161526 31.812085359290457H435.32014231161526V109.94208535929046H420.32014231161526Z "></path><path d="M398.4167389192176 231.5431779346499H476.5467389192176V246.5441779346499H398.4167389192176Z " transform="matrix(.509 -.861 .861 .509 101.915 352.202)"></path><path d="M531.6115169921417 248.82460811230246H609.7415169921417V263.8246081123025H531.6115169921417Z " transform="matrix(.827 -.562 .562 .827 -9.917 271.048)"></path><path d="M286.4233484603409 143.63117738165377H301.42434846034087V221.76117738165377H286.4233484603409Z " transform="matrix(.861 -.509 .509 .861 -22.942 89.66)"></path><path d="M156.40891553482095 259.7066236772018H171.40891553482095V337.83662367720177H156.40891553482095Z " transform="matrix(.562 -.827 .827 .562 -91.827 129.797)"></path><path d="M656.9062033467716 382.0911006180795H599.9502033467716V350.99610061807954L590.6002033467715 324.55310061807955L576.4582033467715 329.55310061807955L584.9492033467715 353.57010061807955V382.09110061807957H434.24920334677154V360.93310061807955H501.60020334677154V345.93310061807955H436.95120334677154L455.75220334677147 292.77510061807953H517.1002033467715V292.7731006180795H563.4462033467715L571.4482033467715 315.40410061807955L585.5902033467715 310.4031006180796L574.0522033467715 277.7731006180796H517.1002033467715V246.67710061807958L491.20420334677146 173.45810061807958H362.2942033467715L336.39820334677154 246.67710061807958V277.7751006180796H279.4432033467715L253.5472033467715 350.9941006180796V382.0941006180796H196.5972033467715L170.7002033467715 455.3051006180796V501.40310061807963H295.6902033467715V486.40310061807963H185.7002033467715V465.24910061807964H250.0442033467715V450.24910061807964H188.39920334677151L207.2022033467715 397.09310061807963H314.89820334677154L336.3992033467715 457.87910061807963V486.40310061807963H310.6902033467715V501.40310061807963L682.8022033467715 501.40710061807965V455.30910061807964ZM522.6902033467716 397.0931006180795L509.60020334677154 434.10410061807954L496.5102033467716 397.0931006180795ZM426.7502033467715 329.78910061807954L413.6592033467715 292.77510061807953H439.8412033467715ZM351.3992033467715 249.46410061807956L372.90020334677155 188.45810061807956H480.59920334677156L502.10020334677154 249.25110061807956V277.77210061807955L351.3992033467715 277.77410061807956ZM290.0502033467716 292.77510061807953H397.74920334677154L419.25020334677157 353.56810061807954V382.09110061807957H268.5492033467716V360.93310061807955H331.75020334677157V345.93310061807955H271.24920334677154ZM356.9902033467715 397.09110061807957L343.90020334677155 434.10310061807957L330.8082033467715 397.09110061807957ZM502.10020334677154 486.4071006180796H351.4002033467716V465.2491006180796H419.8952033467716V450.2491006180796H354.10020334677154L372.9012033467716 397.09110061807957L480.6012033467715 397.0931006180796L502.1012033467715 457.8841006180796V486.4071006180796ZM517.1002033467715 486.4071006180796V457.8841006180796L538.6012033467715 397.0931006180796L646.3002033467716 397.09110061807957L665.1012033467715 450.2491006180796H602.4512033467715V465.2491006180796H667.8022033467715V486.4071006180796Z "></path></g><g><path d="M481.2581575704043 253.55008535929048H466.2581575704043V238.55008535929048H481.2581575704043ZM436.2581575704043 253.55008535929048H421.2581575704043V238.55008535929048H436.2581575704043ZM391.2581575704043 253.55008535929048H376.2581575704043V238.55008535929048H391.2581575704043Z "></path></g></g></g></g><use xlink:href="#gloss-top" opacity="1" class="background"></use></g></svg>