<svg xmlns="http://www.w3.org/2000/svg" version="1.1" xmlns:xlink="http://www.w3.org/1999/xlink" xmlns:svgjs="http://svgjs.com/svgjs" width="83" height="83" viewBox="0 0 100 100"><g class="wrap" transform="matrix(1,0,0,1,0,0)"><defs class="background">
			<linearGradient id="Gradient_1" gradientUnits="userSpaceOnUse" x1="50" y1="7" x2="50" y2="55.2625" spreadMethod="pad">
<stop offset="0%" stop-color="#FFFFFF" stop-opacity="0.1"></stop>

<stop offset="100%" stop-color="#FFFFFF" stop-opacity="0.7"></stop>
</linearGradient><linearGradient id="Gradient_2" gradientUnits="userSpaceOnUse" x1="100" y1="51" x2="25" y2="50.85" spreadMethod="pad">
<stop offset="0%" stop-color="#FFFFFF" stop-opacity="0.1"></stop>

<stop offset="100%" stop-color="#FFFFFF" stop-opacity="0.7"></stop>
</linearGradient><linearGradient id="Gradient_3" gradientUnits="userSpaceOnUse" x1="0" y1="51" x2="77" y2="51" spreadMethod="pad">
<stop offset="0%" stop-color="#FFFFFF" stop-opacity="0.1"></stop>

<stop offset="100%" stop-color="#FFFFFF" stop-opacity="0.7"></stop>
</linearGradient><g id="background">
<path fill="url(#background-gradient)" stroke="none" d=" M 99.15 55 Q 100 53.5 100 51.55 100 49.6 99.15 48.1 L 77.55 10.45 Q 76.7 9 75 8.05 73.3 7 71.6 7 L 28.35 7 Q 26.7 7 25 8.05 23.3 9 22.45 10.45 L 0.8 48.1 Q 0 49.6 0 51.55 0 53.5 0.8 55 L 22.45 92.65 Q 23.3 94.1 25 95.1 26.7 96.05 28.35 96.05 L 71.6 96.05 Q 73.3 96.05 75 95.05 76.7 94.1 77.55 92.65 L 99.15 55 M 96.5 49.65 Q 96.9 50.4 96.9 51.55 96.9 52.7 96.5 53.4 L 74.9 91.1 Q 74.45 91.85 73.5 92.45 72.45 93 71.6 93 L 28.35 93 Q 27.5 93 26.5 92.45 25.5 91.85 25.1 91.1 L 3.5 53.4 Q 3.05 52.7 3.05 51.55 3.05 50.4 3.5 49.65 L 25.1 12 Q 25.5 11.25 26.5 10.65 27.5 10.1 28.35 10.1 L 71.6 10.1 Q 72.45 10.1 73.5 10.65 74.45 11.25 74.9 12 L 96.5 49.65 Z"></path>
</g><mask id="mask">
<path fill="#FFFFFF" stroke="none" d=" M 96.9 51.55 Q 96.9 50.4 96.5 49.65 L 74.9 12 Q 74.45 11.25 73.5 10.65 72.45 10.1 71.6 10.1 L 28.35 10.1 Q 27.5 10.1 26.5 10.65 25.5 11.25 25.1 12 L 3.5 49.65 Q 3.05 50.4 3.05 51.55 3.05 52.7 3.5 53.4 L 25.1 91.1 Q 25.5 91.85 26.5 92.45 27.5 93 28.35 93 L 71.6 93 Q 72.45 93 73.5 92.45 74.45 91.85 74.9 91.1 L 96.5 53.4 Q 96.9 52.7 96.9 51.55 Z"></path>
</mask><g id="gloss-top">
<path fill="url(#Gradient_1)" stroke="none" d=" M 96.5 53.4 L 95.45 55.25 Q 98 52.85 99.9 50.3 99.7 49 99.15 48.1 L 77.55 10.45 Q 76.7 9 75 8.05 73.3 7 71.6 7 L 28.35 7 Q 26.7 7 25 8.05 23.3 9 22.45 10.45 L 0.8 48.1 Q 0.3 49.05 0.1 50.3 1.95 52.85 4.55 55.25 L 3.5 53.4 Q 3.05 52.7 3.05 51.55 3.05 50.4 3.5 49.65 L 25.1 12 Q 25.5 11.25 26.5 10.65 27.5 10.1 28.35 10.1 L 71.6 10.1 Q 72.45 10.1 73.5 10.65 74.45 11.25 74.9 12 L 96.5 49.65 Q 96.9 50.4 96.9 51.55 96.9 52.7 96.5 53.4 Z"></path>
</g><g id="gloss-right">
<path fill="url(#Gradient_2)" stroke="none" d=" M 99.15 55 Q 100 53.5 100 51.55 100 49.6 99.15 48.1 L 77.55 10.45 Q 76.7 9 75 8.05 73.3 7 71.6 7 L 28.35 7 Q 26.75 7 25.1 7.95 L 26.65 10.6 Q 27.6 10.1 28.35 10.1 L 71.6 10.1 Q 72.45 10.1 73.5 10.65 74.45 11.25 74.9 12 L 96.5 49.65 Q 96.9 50.4 96.9 51.55 96.9 52.7 96.5 53.4 L 74.9 91.1 Q 74.65 91.5 74.05 92 L 75.65 94.7 Q 76.9 93.7 77.55 92.65 L 99.15 55 Z"></path>
</g><g id="gloss-left">
<path fill="url(#Gradient_3)" stroke="none" d=" M 75.75 13.5 L 77.6 10.55 77.55 10.45 Q 76.7 9 75 8.05 73.3 7 71.6 7 L 28.35 7 Q 26.7 7 25 8.05 23.3 9 22.45 10.45 L 0.8 48.1 Q 0 49.6 0 51.55 0 53.5 0.8 55 L 22.45 92.65 Q 23.2 93.95 24.55 94.85 L 26.2 92.25 Q 25.45 91.65 25.1 91.1 L 3.5 53.4 Q 3.05 52.7 3.05 51.55 3.05 50.4 3.5 49.65 L 25.1 12 Q 25.5 11.25 26.5 10.65 27.5 10.1 28.35 10.1 L 71.6 10.1 Q 72.45 10.1 73.5 10.65 74.45 11.25 74.9 12 L 75.75 13.5 Z"></path>
</g>
			
	<linearGradient id="background-gradient" x1="0" y1="0" y2="1" x2="0" gradientTransform="rotate(90 0.5 0.5)">
		<stop stop-color="#255f18" offset="0%"></stop>
		<stop stop-color="#1d5c0f" offset="100%"></stop>
	</linearGradient>

			
			
			
			
		<linearGradient class="shapgradient" gradientTransform="rotate(0 0.5 0.5)" id="SvgjsLinearGradient1094"><stop stop-color="#3c592e" offset="0"></stop><stop stop-color="#9db21d" offset="1"></stop></linearGradient></defs><use xlink:href="#background" fill="url(#background-gradient)" class="background"></use><g class="geditable"><g mask="url(#mask)" fill="url(#SvgjsLinearGradient1094)" class="editable"><g transform="matrix(1,0,0,1,0,0)">
	<path d="M75.783 28H24.217C21.892 28 20 29.892 20 32.217V33V43V67.783C20 70.108 21.892 72 24.217 72H75.783C78.108 72 80 70.108 80 67.783V43V33V32.217C80 29.892 78.108 28 75.783 28ZM78 67.783C78 69.006 77.006 70 75.783 70H24.217C22.994 70 22 69.006 22 67.783V43H78V67.783ZM22 33V32.217C22 30.994 22.994 30 24.217 30H75.783C77.006 30 78 30.994 78 32.217V33H22Z "></path>
	<path d="M70.649 67H75V45H53V67H57.351H70.649ZM55 47H73V65H70.997C70.979 63.805 70.311 62.734 69.247 62.201L67.125 61.118C68.09899999999999 60.495000000000005 68.801 59.557 69.219 58.317C69.904 57.901 70.334 57.159 70.334 56.333V55.666C70.334 54.989 70.039 54.358 69.541 53.921C69.184 52.022999999999996 67.896 49.97 64.001 49.97C63.848000000000006 49.97 63.697 49.976 63.551 49.988C62.822 50.051 62.126000000000005 49.894999999999996 61.614000000000004 49.55C61.309000000000005 49.346000000000004 61.156000000000006 49.189 61.078 49.089C60.659000000000006 48.557 59.786 48.536 59.341 49.036C59.127 49.275000000000006 59.026 49.598 59.062 49.918000000000006C59.091 50.175000000000004 59.135 50.475 59.201 50.804C59.285000000000004 51.225 59.291000000000004 51.345 59.287 51.377C59.278 51.412000000000006 59.221 51.536 59.175 51.636C59.105 51.786 59.019 51.971000000000004 58.918 52.218C58.699999999999996 52.746 58.543 53.322 58.447 53.938C57.957 54.375 57.669000000000004 55 57.669000000000004 55.667V56.334C57.669000000000004 57.160000000000004 58.1 57.902 58.784000000000006 58.318000000000005C59.20100000000001 59.553000000000004 59.89900000000001 60.489000000000004 60.867000000000004 61.111000000000004L58.662000000000006 62.19800000000001C57.636 62.758 57 63.829 57 64.995V65H55V47Z "></path>
	<path d="M26 49H35C35.553 49 36 48.553 36 48S35.553 47 35 47H26C25.447 47 25 47.447 25 48S25.447 49 26 49Z "></path>
	<path d="M39 49H48C48.553 49 49 48.553 49 48S48.553 47 48 47H39C38.447 47 38 47.447 38 48S38.447 49 39 49Z "></path>
	<path d="M26 54H27C27.553 54 28 53.553 28 53S27.553 52 27 52H26C25.447 52 25 52.447 25 53S25.447 54 26 54Z "></path>
	<path d="M33 54C33.553 54 34 53.553 34 53S33.553 52 33 52H31C30.447 52 30 52.447 30 53S30.447 54 31 54H33Z "></path>
	<path d="M37 54H38C38.553 54 39 53.553 39 53S38.553 52 38 52H37C36.447 52 36 52.447 36 53S36.447 54 37 54Z "></path>
	<path d="M44 54C44.553 54 45 53.553 45 53S44.553 52 44 52H42C41.447 52 41 52.447 41 53S41.447 54 42 54H44Z "></path>
	<path d="M47.29 52.29C47.109 52.479 47 52.729 47 53C47 53.27 47.109 53.52 47.29 53.71C47.479 53.89 47.739999999999995 54 48 54S48.519999999999996 53.89 48.71 53.71C48.89 53.52 49 53.26 49 53S48.89 52.479 48.71 52.29C48.34 51.92 47.66 51.92 47.29 52.29Z "></path>
	<path d="M31.650999046325683 57.4C29.459999046325684 58.54 28.722999046325683 60.72 28.454999046325682 62.982C28.040999046325684 62.636 27.627999046325684 62.289 27.213999046325682 61.942C26.232999046325684 61.12 24.809999046325686 62.527 25.799999046325684 63.356C26.734999046325683 64.13900000000001 27.670999046325683 64.923 28.605999046325685 65.707C29.267999046325684 66.262 30.281999046325687 65.918 30.312999046325686 65C30.385999046325686 62.833 30.489999046325686 60.257 32.660999046325685 59.127C33.80499904632568 58.532 32.79399904632568 56.806 31.650999046325683 57.4Z "></path>
	<path d="M45.180998092651365 60.392C43.72399809265137 60.282000000000004 41.222998092651366 62.367000000000004 40.18899809265137 60.524C39.92699809265137 60.056 39.27899809265136 59.884 38.820998092651365 60.165C37.40499809265137 61.034 35.55399809265137 62.284 34.064998092651365 60.665C33.189998092651365 59.714 31.77899809265137 61.132 32.65099809265137 62.079C34.52199809265137 64.112 36.93499809265137 63.489 39.05799809265137 62.338C39.50599809265137 62.819 40.04199809265137 63.148 40.75499809265136 63.405C41.66399809265137 63.733000000000004 44.841998092651366 62.185 45.08799809265137 62.522C45.83999809265137 63.552 47.576998092651365 62.556 46.814998092651365 61.512C46.390998092651365 60.934 45.954998092651365 60.451 45.180998092651365 60.392Z "></path>
</g></g></g><use xlink:href="#gloss-top" opacity="1" class="background"></use></g></svg>