<svg xmlns="http://www.w3.org/2000/svg" version="1.1" xmlns:xlink="http://www.w3.org/1999/xlink" xmlns:svgjs="http://svgjs.com/svgjs" width="83" height="83" viewBox="0 0 100 100"><g class="wrap" transform="matrix(1,0,0,1,0,0)"><defs class="background">
			<linearGradient id="Gradient_1" gradientUnits="userSpaceOnUse" x1="50" y1="7" x2="50" y2="55.2625" spreadMethod="pad">
<stop offset="0%" stop-color="#FFFFFF" stop-opacity="0.1"></stop>

<stop offset="100%" stop-color="#FFFFFF" stop-opacity="0.7"></stop>
</linearGradient><linearGradient id="Gradient_2" gradientUnits="userSpaceOnUse" x1="100" y1="51" x2="25" y2="50.85" spreadMethod="pad">
<stop offset="0%" stop-color="#FFFFFF" stop-opacity="0.1"></stop>

<stop offset="100%" stop-color="#FFFFFF" stop-opacity="0.7"></stop>
</linearGradient><linearGradient id="Gradient_3" gradientUnits="userSpaceOnUse" x1="0" y1="51" x2="77" y2="51" spreadMethod="pad">
<stop offset="0%" stop-color="#FFFFFF" stop-opacity="0.1"></stop>

<stop offset="100%" stop-color="#FFFFFF" stop-opacity="0.7"></stop>
</linearGradient><g id="background">
<path fill="url(#background-gradient)" stroke="none" d=" M 99.15 55 Q 100 53.5 100 51.55 100 49.6 99.15 48.1 L 77.55 10.45 Q 76.7 9 75 8.05 73.3 7 71.6 7 L 28.35 7 Q 26.7 7 25 8.05 23.3 9 22.45 10.45 L 0.8 48.1 Q 0 49.6 0 51.55 0 53.5 0.8 55 L 22.45 92.65 Q 23.3 94.1 25 95.1 26.7 96.05 28.35 96.05 L 71.6 96.05 Q 73.3 96.05 75 95.05 76.7 94.1 77.55 92.65 L 99.15 55 M 96.5 49.65 Q 96.9 50.4 96.9 51.55 96.9 52.7 96.5 53.4 L 74.9 91.1 Q 74.45 91.85 73.5 92.45 72.45 93 71.6 93 L 28.35 93 Q 27.5 93 26.5 92.45 25.5 91.85 25.1 91.1 L 3.5 53.4 Q 3.05 52.7 3.05 51.55 3.05 50.4 3.5 49.65 L 25.1 12 Q 25.5 11.25 26.5 10.65 27.5 10.1 28.35 10.1 L 71.6 10.1 Q 72.45 10.1 73.5 10.65 74.45 11.25 74.9 12 L 96.5 49.65 Z"></path>
</g><mask id="mask">
<path fill="#FFFFFF" stroke="none" d=" M 96.9 51.55 Q 96.9 50.4 96.5 49.65 L 74.9 12 Q 74.45 11.25 73.5 10.65 72.45 10.1 71.6 10.1 L 28.35 10.1 Q 27.5 10.1 26.5 10.65 25.5 11.25 25.1 12 L 3.5 49.65 Q 3.05 50.4 3.05 51.55 3.05 52.7 3.5 53.4 L 25.1 91.1 Q 25.5 91.85 26.5 92.45 27.5 93 28.35 93 L 71.6 93 Q 72.45 93 73.5 92.45 74.45 91.85 74.9 91.1 L 96.5 53.4 Q 96.9 52.7 96.9 51.55 Z"></path>
</mask><g id="gloss-top">
<path fill="url(#Gradient_1)" stroke="none" d=" M 96.5 53.4 L 95.45 55.25 Q 98 52.85 99.9 50.3 99.7 49 99.15 48.1 L 77.55 10.45 Q 76.7 9 75 8.05 73.3 7 71.6 7 L 28.35 7 Q 26.7 7 25 8.05 23.3 9 22.45 10.45 L 0.8 48.1 Q 0.3 49.05 0.1 50.3 1.95 52.85 4.55 55.25 L 3.5 53.4 Q 3.05 52.7 3.05 51.55 3.05 50.4 3.5 49.65 L 25.1 12 Q 25.5 11.25 26.5 10.65 27.5 10.1 28.35 10.1 L 71.6 10.1 Q 72.45 10.1 73.5 10.65 74.45 11.25 74.9 12 L 96.5 49.65 Q 96.9 50.4 96.9 51.55 96.9 52.7 96.5 53.4 Z"></path>
</g><g id="gloss-right">
<path fill="url(#Gradient_2)" stroke="none" d=" M 99.15 55 Q 100 53.5 100 51.55 100 49.6 99.15 48.1 L 77.55 10.45 Q 76.7 9 75 8.05 73.3 7 71.6 7 L 28.35 7 Q 26.75 7 25.1 7.95 L 26.65 10.6 Q 27.6 10.1 28.35 10.1 L 71.6 10.1 Q 72.45 10.1 73.5 10.65 74.45 11.25 74.9 12 L 96.5 49.65 Q 96.9 50.4 96.9 51.55 96.9 52.7 96.5 53.4 L 74.9 91.1 Q 74.65 91.5 74.05 92 L 75.65 94.7 Q 76.9 93.7 77.55 92.65 L 99.15 55 Z"></path>
</g><g id="gloss-left">
<path fill="url(#Gradient_3)" stroke="none" d=" M 75.75 13.5 L 77.6 10.55 77.55 10.45 Q 76.7 9 75 8.05 73.3 7 71.6 7 L 28.35 7 Q 26.7 7 25 8.05 23.3 9 22.45 10.45 L 0.8 48.1 Q 0 49.6 0 51.55 0 53.5 0.8 55 L 22.45 92.65 Q 23.2 93.95 24.55 94.85 L 26.2 92.25 Q 25.45 91.65 25.1 91.1 L 3.5 53.4 Q 3.05 52.7 3.05 51.55 3.05 50.4 3.5 49.65 L 25.1 12 Q 25.5 11.25 26.5 10.65 27.5 10.1 28.35 10.1 L 71.6 10.1 Q 72.45 10.1 73.5 10.65 74.45 11.25 74.9 12 L 75.75 13.5 Z"></path>
</g>
			
	<linearGradient id="background-gradient" x1="0" y1="0" y2="1" x2="0" gradientTransform="rotate(90 0.5 0.5)">
		<stop stop-color="#255f18" offset="0%"></stop>
		<stop stop-color="#1d5c0f" offset="100%"></stop>
	</linearGradient>

			
			
			
			
		<linearGradient class="shapgradient" gradientTransform="rotate(0 0.5 0.5)" id="SvgjsLinearGradient1105"><stop stop-color="#3c592e" offset="0"></stop><stop stop-color="#9db21d" offset="1"></stop></linearGradient></defs><use xlink:href="#background" fill="url(#background-gradient)" class="background"></use><g class="geditable"><g mask="url(#mask)" fill="url(#SvgjsLinearGradient1105)" class="editable" transform="matrix(0.9,0,0,0.9,1,3)"><path d="M526.9053402623515 454.7174449056688C575.6473402623515 455.3054449056689 622.3633402623515 470.6114449056688 662.0053402623515 498.9784449056689L682.6643402623515 513.7614449056689V562.9484449056689L638.7273402623515 531.5084449056689C605.7753402623515 507.9284449056689 566.9433402623515 495.20544490566886 526.4273402623514 494.71544490566885V494.71544490566885C525.6033402623515 494.70544490566886 524.7923402623514 494.7094449056689 523.9493402623515 494.70144490566884L385.5843402623515 494.75444490566883C376.75434026235143 494.75444490566883 369.57634026235144 501.93244490566883 369.57634026235144 510.75444490566883C369.57634026235144 516.0504449056689 372.1973402623515 520.9994449056688 376.5883402623515 523.9914449056689C381.9013402623515 527.6134449056689 386.4013402623515 529.4684449056689 388.12434026235144 529.8364449056689C395.8893402623514 530.9714449056689 484.87334026235146 540.4834449056689 543.2203402623514 546.6464449056689L539.0193402623514 586.4244449056689C493.5673402623514 581.624444905669 387.1833402623514 570.3364449056689 381.01834026235144 569.201444905669C370.15334026235143 567.2024449056689 359.46534026235145 560.7264449056689 354.0623402623514 557.0444449056689C348.9143402623514 553.5354449056689 344.4823402623514 549.2404449056689 340.8393402623514 544.398444905669L340.6543402623514 544.5864449056689L244.6723402623514 450.39244490566887C240.8593402623514 446.64944490566893 235.76934026235142 444.61944490566884 230.4753402623514 444.66644490566887C225.1333402623514 444.71644490566894 220.13134026235142 446.84444490566887 216.3903402623514 450.65744490566885C212.6473402623514 454.47144490566893 210.6143402623514 459.5124449056689 210.6643402623514 464.85444490566886C210.7143402623514 470.19644490566884 212.8423402623514 475.1994449056689 216.6543402623514 478.94144490566885L365.0913402623514 624.6104449056689C376.9553402623515 636.2544449056688 392.64434026235153 642.6664449056689 409.2663402623515 642.6664449056689H682.6643402623515V682.6664449056689H409.2663402623515C382.10034026235155 682.6664449056689 356.4623402623515 672.1874449056688 337.0753402623515 653.1594449056688L188.6383402623515 507.4904449056688C177.1993402623515 496.2644449056688 170.8173402623515 481.2564449056688 170.6673402623515 465.23044490566883C170.51634026235152 449.2044449056689 176.6153402623515 434.0794449056689 187.8413402623515 422.6414449056689C199.06534026235153 411.2034449056689 214.0733402623515 404.8194449056689 230.10034026235152 404.6684449056688C246.1263402623515 404.51144490566884 261.2513402623515 410.6174449056689 272.6913402623515 421.8434449056689L336.2683402623515 484.2364449056689C345.7373402623515 466.6984449056689 364.2873402623515 454.75444490566895 385.5783402623515 454.75444490566895L523.9323402623515 454.70144490566895C524.9083402623515 454.6994449056689 525.9113402623516 454.70644490566895 526.9013402623516 454.7184449056689M458.5753402623515 220.66644490566884C472.38234026235153 220.66644490566884 483.5753402623515 209.47344490566883 483.5753402623515 195.66644490566884S472.38234026235153 170.66644490566884 458.5753402623515 170.66644490566884S433.5753402623515 181.85944490566885 433.5753402623515 195.66644490566884S444.7683402623515 220.66644490566884 458.5753402623515 220.66644490566884ZM424.54334026235153 291.48044490566883C428.5643402623515 289.51644490566883 431.7663402623515 291.13344490566885 433.3143402623515 292.27244490566886C434.7783402623515 293.34944490566886 437.0903402623515 295.7074449056688 436.7623402623515 299.7024449056688L420.8863402623515 362.84944490566886C420.7323402623515 363.46344490566884 420.6073402623515 364.0844449056689 420.5113402623515 364.71044490566885C417.78334026235143 382.5984449056688 425.14534026235145 400.3704449056688 439.72234026235145 411.0914449056688C448.23134026235147 417.3484449056688 458.29734026235144 420.5434449056688 468.43934026235144 420.5434449056688C475.67934026235145 420.5434449056688 482.95834026235144 418.91544490566883 489.7333402623514 415.60944490566885L503.3223402623514 408.97944490566886L485.7813402623514 373.0304449056688L472.1923402623514 379.6604449056688C468.1693402623514 381.6234449056688 464.9713402623514 380.0064449056688 463.4213402623514 378.8674449056688C461.9573402623514 377.7914449056688 459.64634026235143 375.43244490566883 459.9733402623514 371.4364449056688L475.8493402623514 308.2904449056688C476.0033402623514 307.6764449056688 476.1283402623514 307.0564449056688 476.2243402623514 306.43044490566876C478.9533402623514 288.5434449056688 471.5923402623514 270.7714449056688 457.0143402623514 260.05044490566877C442.43234026235143 249.32644490566878 423.27134026235143 247.59544490566878 407.0023402623514 255.5324449056688C393.44634026235144 262.1464449056688 390.63434026235143 263.5164449056688 390.6253402623514 263.5214449056688L408.1413402623514 299.4824449056688C408.1413402623515 299.4814449056688 410.9443402623515 298.11644490566886 424.54334026235153 291.48044490566883Z " transform="matrix(0.11718756286430751,0,0,0.11718756286430751,0.0002312057130417875,0)"></path></g></g><use xlink:href="#gloss-top" opacity="1" class="background"></use></g></svg>