<svg xmlns="http://www.w3.org/2000/svg" version="1.1" xmlns:xlink="http://www.w3.org/1999/xlink" xmlns:svgjs="http://svgjs.com/svgjs" width="83" height="83" viewBox="0 0 100 100"><g class="wrap" transform="matrix(1,0,0,1,0,0)"><defs class="background">
			<linearGradient id="Gradient_1" gradientUnits="userSpaceOnUse" x1="50" y1="7" x2="50" y2="55.2625" spreadMethod="pad">
<stop offset="0%" stop-color="#FFFFFF" stop-opacity="0.1"></stop>

<stop offset="100%" stop-color="#FFFFFF" stop-opacity="0.7"></stop>
</linearGradient><linearGradient id="Gradient_2" gradientUnits="userSpaceOnUse" x1="100" y1="51" x2="25" y2="50.85" spreadMethod="pad">
<stop offset="0%" stop-color="#FFFFFF" stop-opacity="0.1"></stop>

<stop offset="100%" stop-color="#FFFFFF" stop-opacity="0.7"></stop>
</linearGradient><linearGradient id="Gradient_3" gradientUnits="userSpaceOnUse" x1="0" y1="51" x2="77" y2="51" spreadMethod="pad">
<stop offset="0%" stop-color="#FFFFFF" stop-opacity="0.1"></stop>

<stop offset="100%" stop-color="#FFFFFF" stop-opacity="0.7"></stop>
</linearGradient><g id="background">
<path fill="url(#background-gradient)" stroke="none" d=" M 99.15 55 Q 100 53.5 100 51.55 100 49.6 99.15 48.1 L 77.55 10.45 Q 76.7 9 75 8.05 73.3 7 71.6 7 L 28.35 7 Q 26.7 7 25 8.05 23.3 9 22.45 10.45 L 0.8 48.1 Q 0 49.6 0 51.55 0 53.5 0.8 55 L 22.45 92.65 Q 23.3 94.1 25 95.1 26.7 96.05 28.35 96.05 L 71.6 96.05 Q 73.3 96.05 75 95.05 76.7 94.1 77.55 92.65 L 99.15 55 M 96.5 49.65 Q 96.9 50.4 96.9 51.55 96.9 52.7 96.5 53.4 L 74.9 91.1 Q 74.45 91.85 73.5 92.45 72.45 93 71.6 93 L 28.35 93 Q 27.5 93 26.5 92.45 25.5 91.85 25.1 91.1 L 3.5 53.4 Q 3.05 52.7 3.05 51.55 3.05 50.4 3.5 49.65 L 25.1 12 Q 25.5 11.25 26.5 10.65 27.5 10.1 28.35 10.1 L 71.6 10.1 Q 72.45 10.1 73.5 10.65 74.45 11.25 74.9 12 L 96.5 49.65 Z"></path>
</g><mask id="mask">
<path fill="#FFFFFF" stroke="none" d=" M 96.9 51.55 Q 96.9 50.4 96.5 49.65 L 74.9 12 Q 74.45 11.25 73.5 10.65 72.45 10.1 71.6 10.1 L 28.35 10.1 Q 27.5 10.1 26.5 10.65 25.5 11.25 25.1 12 L 3.5 49.65 Q 3.05 50.4 3.05 51.55 3.05 52.7 3.5 53.4 L 25.1 91.1 Q 25.5 91.85 26.5 92.45 27.5 93 28.35 93 L 71.6 93 Q 72.45 93 73.5 92.45 74.45 91.85 74.9 91.1 L 96.5 53.4 Q 96.9 52.7 96.9 51.55 Z"></path>
</mask><g id="gloss-top">
<path fill="url(#Gradient_1)" stroke="none" d=" M 96.5 53.4 L 95.45 55.25 Q 98 52.85 99.9 50.3 99.7 49 99.15 48.1 L 77.55 10.45 Q 76.7 9 75 8.05 73.3 7 71.6 7 L 28.35 7 Q 26.7 7 25 8.05 23.3 9 22.45 10.45 L 0.8 48.1 Q 0.3 49.05 0.1 50.3 1.95 52.85 4.55 55.25 L 3.5 53.4 Q 3.05 52.7 3.05 51.55 3.05 50.4 3.5 49.65 L 25.1 12 Q 25.5 11.25 26.5 10.65 27.5 10.1 28.35 10.1 L 71.6 10.1 Q 72.45 10.1 73.5 10.65 74.45 11.25 74.9 12 L 96.5 49.65 Q 96.9 50.4 96.9 51.55 96.9 52.7 96.5 53.4 Z"></path>
</g><g id="gloss-right">
<path fill="url(#Gradient_2)" stroke="none" d=" M 99.15 55 Q 100 53.5 100 51.55 100 49.6 99.15 48.1 L 77.55 10.45 Q 76.7 9 75 8.05 73.3 7 71.6 7 L 28.35 7 Q 26.75 7 25.1 7.95 L 26.65 10.6 Q 27.6 10.1 28.35 10.1 L 71.6 10.1 Q 72.45 10.1 73.5 10.65 74.45 11.25 74.9 12 L 96.5 49.65 Q 96.9 50.4 96.9 51.55 96.9 52.7 96.5 53.4 L 74.9 91.1 Q 74.65 91.5 74.05 92 L 75.65 94.7 Q 76.9 93.7 77.55 92.65 L 99.15 55 Z"></path>
</g><g id="gloss-left">
<path fill="url(#Gradient_3)" stroke="none" d=" M 75.75 13.5 L 77.6 10.55 77.55 10.45 Q 76.7 9 75 8.05 73.3 7 71.6 7 L 28.35 7 Q 26.7 7 25 8.05 23.3 9 22.45 10.45 L 0.8 48.1 Q 0 49.6 0 51.55 0 53.5 0.8 55 L 22.45 92.65 Q 23.2 93.95 24.55 94.85 L 26.2 92.25 Q 25.45 91.65 25.1 91.1 L 3.5 53.4 Q 3.05 52.7 3.05 51.55 3.05 50.4 3.5 49.65 L 25.1 12 Q 25.5 11.25 26.5 10.65 27.5 10.1 28.35 10.1 L 71.6 10.1 Q 72.45 10.1 73.5 10.65 74.45 11.25 74.9 12 L 75.75 13.5 Z"></path>
</g>
			
	<linearGradient id="background-gradient" x1="0" y1="0" y2="1" x2="0" gradientTransform="rotate(90 0.5 0.5)">
		<stop stop-color="#255f18" offset="0%"></stop>
		<stop stop-color="#1d5c0f" offset="100%"></stop>
	</linearGradient>

			
			
			
			
		<linearGradient class="shapgradient" gradientTransform="rotate(0 0.5 0.5)" id="SvgjsLinearGradient1015"><stop stop-color="#3c592e" offset="0"></stop><stop stop-color="#9db21d" offset="1"></stop></linearGradient></defs><use xlink:href="#background" fill="url(#background-gradient)" class="background"></use><g class="geditable"><g mask="url(#mask)" fill="url(#SvgjsLinearGradient1015)" class="editable" transform="matrix(0.9,0,0,0.9,5.000000572204591,4.999999904632567)"><g transform="matrix(0.14423390118780516,0,0,0.14423390118780516,34.23451890045261,0)">
	<g>
		<path d="M315.7289941195718 571.7471613369063L238.9289941195718 411.7471613369063C236.2729941195718 406.19516133690627 230.6569941195718 402.65916133690627 224.49699411957178 402.65916133690627H209.9529941195718L124.6569941195718 110.17916133690625C122.67299411957183 103.34716133690625 116.40099411957183 98.65916133690625 109.29699411957182 98.65916133690625S95.92099411957182 103.34716133690625 93.93699411957184 110.17916133690625L8.624994119571824 402.65916133690627H-5.903005880428168C-12.063005880428165 402.65916133690627 -17.663005880428173 406.19516133690627 -20.319005880428165 411.73116133690627L-97.11900588042816 571.7311613369062C-99.48700588042817 576.6911613369062 -99.16700588042816 582.5151613369062 -96.23900588042815 587.1711613369063C-93.31100588042816 591.8431613369063 -88.20700588042816 594.6591613369062 -82.70300588042815 594.6591613369062H301.2969941195719C306.8009941195719 594.6591613369062 311.9049941195718 591.8431613369063 314.8489941195719 587.1871613369062C317.7769941195718 582.5311613369063 318.09699411957183 576.6911613369062 315.7289941195718 571.7471613369063ZM109.29699411957182 171.79516133690623L138.3369941195718 271.33116133690623C119.32899411957183 275.5551613369062 99.24899411957182 275.5551613369062 80.27299411957182 271.33116133690623L109.29699411957182 171.79516133690623ZM75.77699411957184 286.72316133690623C86.72099411957183 289.23516133690623 98.00099411957183 290.59516133690624 109.29699411957185 290.59516133690624C120.59299411957184 290.59516133690624 131.85699411957185 289.2191613369062 142.81699411957183 286.72316133690623L147.00899411957184 301.1231613369062C122.64099411957184 308.35516133690624 95.96899411957185 308.35516133690624 71.56899411957184 301.1231613369062L75.77699411957184 286.72316133690623ZM67.10499411957184 316.46716133690626C80.75299411957184 320.49916133690624 95.00899411957184 322.59516133690624 109.29699411957185 322.59516133690624C123.58499411957186 322.59516133690624 137.85699411957185 320.4831613369062 151.48899411957186 316.46716133690626L171.88899411957183 386.4031613369063C133.74499411957183 407.6991613369063 84.88099411957185 407.6991613369063 46.704994119571836 386.4031613369063L67.10499411957184 316.46716133690626ZM42.11299411957182 402.19516133690627C62.76899411957183 412.97916133690626 85.96899411957182 418.5791613369063 109.29699411957182 418.5791613369063S155.84099411957183 412.9951613369063 176.5129941195718 402.2271613369063L179.88899411957178 413.7791613369063C138.28899411957175 441.45916133690633 80.3209941195718 441.45916133690633 38.73699411957179 413.7791613369063L42.11299411957182 402.19516133690627ZM34.04899411957183 429.77916133690627C56.59299411957184 443.53916133690626 82.91299411957183 450.51516133690626 109.29699411957185 450.51516133690626C135.68099411957186 450.51516133690626 162.00099411957186 443.53916133690626 184.54499411957184 429.77916133690627L202.56099411957186 491.5711613369063C176.57699411957182 506.51516133690626 143.92099411957182 514.6591613369062 109.29699411957182 514.6591613369062C74.67299411957183 514.6591613369062 42.01699411957182 506.51516133690626 16.03299411957184 491.57116133690624L34.04899411957183 429.77916133690627ZM-57.27900588042817 562.6591613369062L-8.22300588042819 460.4511613369063L-18.063005880428193 494.1791613369063C-19.9990058804282 500.8031613369063 -17.471005880428194 507.9071613369063 -11.775005880428196 511.82716133690633C20.80099411957184 534.2911613369063 63.79299411957183 546.6591613369062 109.29699411957182 546.6591613369062C154.8009941195718 546.6591613369062 197.79299411957183 534.2911613369063 230.3689941195718 511.8271613369063C236.0489941195718 507.90716133690626 238.59299411957178 500.80316133690627 236.6569941195718 494.17916133690625L226.81699411957183 460.45116133690624L275.8729941195718 562.6591613369062H-57.27900588042817Z "></path>
	</g>
</g><g transform="matrix(0.14423390118780516,0,0,0.14423390118780516,34.23451890045261,0)">
</g><g transform="matrix(0.14423390118780516,0,0,0.14423390118780516,34.23451890045261,0)">
</g><g transform="matrix(0.14423390118780516,0,0,0.14423390118780516,34.23451890045261,0)">
</g><g transform="matrix(0.14423390118780516,0,0,0.14423390118780516,34.23451890045261,0)">
</g><g transform="matrix(0.14423390118780516,0,0,0.14423390118780516,34.23451890045261,0)">
</g><g transform="matrix(0.14423390118780516,0,0,0.14423390118780516,34.23451890045261,0)">
</g><g transform="matrix(0.14423390118780516,0,0,0.14423390118780516,34.23451890045261,0)">
</g><g transform="matrix(0.14423390118780516,0,0,0.14423390118780516,34.23451890045261,0)">
</g><g transform="matrix(0.14423390118780516,0,0,0.14423390118780516,34.23451890045261,0)">
</g><g transform="matrix(0.14423390118780516,0,0,0.14423390118780516,34.23451890045261,0)">
</g><g transform="matrix(0.14423390118780516,0,0,0.14423390118780516,34.23451890045261,0)">
</g><g transform="matrix(0.14423390118780516,0,0,0.14423390118780516,34.23451890045261,0)">
</g><g transform="matrix(0.14423390118780516,0,0,0.14423390118780516,34.23451890045261,0)">
</g><g transform="matrix(0.14423390118780516,0,0,0.14423390118780516,34.23451890045261,0)">
</g><g transform="matrix(0.14423390118780516,0,0,0.14423390118780516,34.23451890045261,0)">
</g></g></g><use xlink:href="#gloss-top" opacity="1" class="background"></use></g></svg>