<svg xmlns="http://www.w3.org/2000/svg" version="1.1" xmlns:xlink="http://www.w3.org/1999/xlink" xmlns:svgjs="http://svgjs.com/svgjs" width="83" height="83" viewBox="0 0 100 100"><g class="wrap" transform="matrix(1,0,0,1,0,0)"><defs class="background">
			<linearGradient id="Gradient_1" gradientUnits="userSpaceOnUse" x1="50" y1="7" x2="50" y2="55.2625" spreadMethod="pad">
<stop offset="0%" stop-color="#FFFFFF" stop-opacity="0.1"></stop>

<stop offset="100%" stop-color="#FFFFFF" stop-opacity="0.7"></stop>
</linearGradient><linearGradient id="Gradient_2" gradientUnits="userSpaceOnUse" x1="100" y1="51" x2="25" y2="50.85" spreadMethod="pad">
<stop offset="0%" stop-color="#FFFFFF" stop-opacity="0.1"></stop>

<stop offset="100%" stop-color="#FFFFFF" stop-opacity="0.7"></stop>
</linearGradient><linearGradient id="Gradient_3" gradientUnits="userSpaceOnUse" x1="0" y1="51" x2="77" y2="51" spreadMethod="pad">
<stop offset="0%" stop-color="#FFFFFF" stop-opacity="0.1"></stop>

<stop offset="100%" stop-color="#FFFFFF" stop-opacity="0.7"></stop>
</linearGradient><g id="background">
<path fill="url(#background-gradient)" stroke="none" d=" M 99.15 55 Q 100 53.5 100 51.55 100 49.6 99.15 48.1 L 77.55 10.45 Q 76.7 9 75 8.05 73.3 7 71.6 7 L 28.35 7 Q 26.7 7 25 8.05 23.3 9 22.45 10.45 L 0.8 48.1 Q 0 49.6 0 51.55 0 53.5 0.8 55 L 22.45 92.65 Q 23.3 94.1 25 95.1 26.7 96.05 28.35 96.05 L 71.6 96.05 Q 73.3 96.05 75 95.05 76.7 94.1 77.55 92.65 L 99.15 55 M 96.5 49.65 Q 96.9 50.4 96.9 51.55 96.9 52.7 96.5 53.4 L 74.9 91.1 Q 74.45 91.85 73.5 92.45 72.45 93 71.6 93 L 28.35 93 Q 27.5 93 26.5 92.45 25.5 91.85 25.1 91.1 L 3.5 53.4 Q 3.05 52.7 3.05 51.55 3.05 50.4 3.5 49.65 L 25.1 12 Q 25.5 11.25 26.5 10.65 27.5 10.1 28.35 10.1 L 71.6 10.1 Q 72.45 10.1 73.5 10.65 74.45 11.25 74.9 12 L 96.5 49.65 Z"></path>
</g><mask id="mask">
<path fill="#FFFFFF" stroke="none" d=" M 96.9 51.55 Q 96.9 50.4 96.5 49.65 L 74.9 12 Q 74.45 11.25 73.5 10.65 72.45 10.1 71.6 10.1 L 28.35 10.1 Q 27.5 10.1 26.5 10.65 25.5 11.25 25.1 12 L 3.5 49.65 Q 3.05 50.4 3.05 51.55 3.05 52.7 3.5 53.4 L 25.1 91.1 Q 25.5 91.85 26.5 92.45 27.5 93 28.35 93 L 71.6 93 Q 72.45 93 73.5 92.45 74.45 91.85 74.9 91.1 L 96.5 53.4 Q 96.9 52.7 96.9 51.55 Z"></path>
</mask><g id="gloss-top">
<path fill="url(#Gradient_1)" stroke="none" d=" M 96.5 53.4 L 95.45 55.25 Q 98 52.85 99.9 50.3 99.7 49 99.15 48.1 L 77.55 10.45 Q 76.7 9 75 8.05 73.3 7 71.6 7 L 28.35 7 Q 26.7 7 25 8.05 23.3 9 22.45 10.45 L 0.8 48.1 Q 0.3 49.05 0.1 50.3 1.95 52.85 4.55 55.25 L 3.5 53.4 Q 3.05 52.7 3.05 51.55 3.05 50.4 3.5 49.65 L 25.1 12 Q 25.5 11.25 26.5 10.65 27.5 10.1 28.35 10.1 L 71.6 10.1 Q 72.45 10.1 73.5 10.65 74.45 11.25 74.9 12 L 96.5 49.65 Q 96.9 50.4 96.9 51.55 96.9 52.7 96.5 53.4 Z"></path>
</g><g id="gloss-right">
<path fill="url(#Gradient_2)" stroke="none" d=" M 99.15 55 Q 100 53.5 100 51.55 100 49.6 99.15 48.1 L 77.55 10.45 Q 76.7 9 75 8.05 73.3 7 71.6 7 L 28.35 7 Q 26.75 7 25.1 7.95 L 26.65 10.6 Q 27.6 10.1 28.35 10.1 L 71.6 10.1 Q 72.45 10.1 73.5 10.65 74.45 11.25 74.9 12 L 96.5 49.65 Q 96.9 50.4 96.9 51.55 96.9 52.7 96.5 53.4 L 74.9 91.1 Q 74.65 91.5 74.05 92 L 75.65 94.7 Q 76.9 93.7 77.55 92.65 L 99.15 55 Z"></path>
</g><g id="gloss-left">
<path fill="url(#Gradient_3)" stroke="none" d=" M 75.75 13.5 L 77.6 10.55 77.55 10.45 Q 76.7 9 75 8.05 73.3 7 71.6 7 L 28.35 7 Q 26.7 7 25 8.05 23.3 9 22.45 10.45 L 0.8 48.1 Q 0 49.6 0 51.55 0 53.5 0.8 55 L 22.45 92.65 Q 23.2 93.95 24.55 94.85 L 26.2 92.25 Q 25.45 91.65 25.1 91.1 L 3.5 53.4 Q 3.05 52.7 3.05 51.55 3.05 50.4 3.5 49.65 L 25.1 12 Q 25.5 11.25 26.5 10.65 27.5 10.1 28.35 10.1 L 71.6 10.1 Q 72.45 10.1 73.5 10.65 74.45 11.25 74.9 12 L 75.75 13.5 Z"></path>
</g>
			
	<linearGradient id="background-gradient" x1="0" y1="0" y2="1" x2="0" gradientTransform="rotate(90 0.5 0.5)">
		<stop stop-color="#255f18" offset="0%"></stop>
		<stop stop-color="#1d5c0f" offset="100%"></stop>
	</linearGradient>

			
			
			
			
		<linearGradient class="shapgradient" gradientTransform="rotate(0 0.5 0.5)" id="SvgjsLinearGradient1062"><stop stop-color="#3c592e" offset="0"></stop><stop stop-color="#9db21d" offset="1"></stop></linearGradient></defs><use xlink:href="#background" fill="url(#background-gradient)" class="background"></use><g class="geditable"><g mask="url(#mask)" fill="url(#SvgjsLinearGradient1062)" class="editable" transform="matrix(0.9,0,0,0.9,4.999999618530275,4.999999809265134)"><g transform="matrix(0.12511429100883578,0,0,0.12511429100883578,0.1916002672998118,0)">
	<g>
		<path d="M570.6144699573413 277.69863544383026L593.3824699573412 254.93063544383025C594.8864699573412 253.42663544383026 595.7184699573412 251.39463544383025 595.7184699573412 249.26663544383024S594.8704699573412 245.10663544383027 593.3824699573412 243.60263544383025L554.3264699573413 204.57863544383025C551.3184699573412 201.57063544383024 546.0064699573412 201.57063544383024 543.0144699573412 204.57863544383025L520.2944699573412 227.29863544383025C466.61446995734127 184.06663544383025 402.07046995734123 159.63463544383026 338.5504699573412 159.63463544383026C292.23046995734126 159.63463544383026 249.22246995734122 172.65863544383026 214.19846995734122 197.29863544383028C208.2304699573412 201.49063544383026 205.8624699573412 209.20263544383027 208.43846995734123 216.03463544383027C211.01446995734122 222.86663544383026 217.94246995734122 227.12263544383026 225.14246995734123 226.29063544383027C232.45446995734122 225.49063544383029 240.03846995734122 225.0746354438303 247.68646995734122 225.0746354438303C309.4304699573412 225.0746354438303 376.6464699573412 251.50663544383028 434.4544699573412 296.75463544383024L163.01446995734122 568.1946354438303C156.75846995734122 574.4506354438303 156.75846995734122 584.5626354438302 163.01446995734122 590.8186354438303L207.14246995734123 634.9466354438302C210.2624699573412 638.0666354438303 214.3584699573412 639.6346354438302 218.45446995734122 639.6346354438302S226.64646995734122 638.0666354438303 229.7664699573412 634.9466354438302L501.3824699573412 363.33063544383026C552.4864699573412 428.6266354438303 579.0144699573412 505.6986354438303 571.6864699573412 572.8186354438303C570.9024699573412 580.0826354438303 575.1104699573411 586.9466354438302 581.9424699573411 589.5226354438303C583.7824699573412 590.2106354438303 585.7024699573411 590.5466354438303 587.5904699573412 590.5466354438303C592.6944699573412 590.5466354438303 597.6224699573412 588.1146354438303 600.6784699573412 583.7466354438303C660.5504699573412 498.61063544383023 646.4704699573413 372.3386354438303 570.6144699573413 277.69863544383026ZM548.6624699573413 221.55463544383025L576.4064699573412 249.29863544383028L560.2944699573412 265.3946354438303C555.9744699573412 260.5146354438303 551.6224699573412 255.65063544383025 546.9664699573412 250.99463544383025S537.3504699573413 242.09863544383026 532.4704699573413 237.76263544383028L548.6624699573413 221.55463544383025ZM218.45446995734122 601.0106354438302L196.95046995734123 579.5066354438302L458.8864699573412 317.57063544383027C462.61446995734116 321.02663544383023 466.4864699573412 324.24263544383024 470.1024699573412 327.8586354438303C473.70246995734124 331.45863544383025 477.15846995734114 335.1546354438302 480.5984699573412 338.86663544383026L218.45446995734122 601.0106354438302ZM492.72646995734124 305.23463544383026C485.39846995734126 297.9066354438303 477.8144699573412 290.89863544383024 470.0544699573412 284.1946354438303C469.99046995734113 284.11463544383025 469.9584699573412 284.01863544383025 469.89446995734113 283.9546354438303C469.6544699573411 283.7146354438303 469.3184699573411 283.6346354438303 469.0784699573412 283.4106354438303C415.7984699573411 237.71463544383028 353.2704699573412 207.18663544383026 292.3424699573412 196.93063544383028C307.06246995734125 193.42663544383026 322.5504699573412 191.63463544383026 338.5504699573412 191.63463544383026C404.51846995734127 191.63463544383026 472.23046995734126 221.52263544383027 524.3424699573412 273.61863544383027C590.7744699573412 340.03463544383027 618.5984699573412 430.61063544383023 600.9824699573412 505.63463544383023C589.1584699573413 435.68263544383024 550.7904699573412 363.3146354438303 492.72646995734124 305.23463544383026Z "></path>
	</g>
</g><g transform="matrix(0.12511429100883578,0,0,0.12511429100883578,0.1916002672998118,0)">
</g><g transform="matrix(0.12511429100883578,0,0,0.12511429100883578,0.1916002672998118,0)">
</g><g transform="matrix(0.12511429100883578,0,0,0.12511429100883578,0.1916002672998118,0)">
</g><g transform="matrix(0.12511429100883578,0,0,0.12511429100883578,0.1916002672998118,0)">
</g><g transform="matrix(0.12511429100883578,0,0,0.12511429100883578,0.1916002672998118,0)">
</g><g transform="matrix(0.12511429100883578,0,0,0.12511429100883578,0.1916002672998118,0)">
</g><g transform="matrix(0.12511429100883578,0,0,0.12511429100883578,0.1916002672998118,0)">
</g><g transform="matrix(0.12511429100883578,0,0,0.12511429100883578,0.1916002672998118,0)">
</g><g transform="matrix(0.12511429100883578,0,0,0.12511429100883578,0.1916002672998118,0)">
</g><g transform="matrix(0.12511429100883578,0,0,0.12511429100883578,0.1916002672998118,0)">
</g><g transform="matrix(0.12511429100883578,0,0,0.12511429100883578,0.1916002672998118,0)">
</g><g transform="matrix(0.12511429100883578,0,0,0.12511429100883578,0.1916002672998118,0)">
</g><g transform="matrix(0.12511429100883578,0,0,0.12511429100883578,0.1916002672998118,0)">
</g><g transform="matrix(0.12511429100883578,0,0,0.12511429100883578,0.1916002672998118,0)">
</g><g transform="matrix(0.12511429100883578,0,0,0.12511429100883578,0.1916002672998118,0)">
</g></g></g><use xlink:href="#gloss-top" opacity="1" class="background"></use></g></svg>