<svg xmlns="http://www.w3.org/2000/svg" version="1.1" xmlns:xlink="http://www.w3.org/1999/xlink" xmlns:svgjs="http://svgjs.com/svgjs" width="83" height="83" viewBox="0 0 100 100"><g class="wrap" transform="matrix(1,0,0,1,0,0)"><defs class="background">
			<linearGradient id="Gradient_1" gradientUnits="userSpaceOnUse" x1="50" y1="7" x2="50" y2="55.2625" spreadMethod="pad">
<stop offset="0%" stop-color="#FFFFFF" stop-opacity="0.1"></stop>

<stop offset="100%" stop-color="#FFFFFF" stop-opacity="0.7"></stop>
</linearGradient><linearGradient id="Gradient_2" gradientUnits="userSpaceOnUse" x1="100" y1="51" x2="25" y2="50.85" spreadMethod="pad">
<stop offset="0%" stop-color="#FFFFFF" stop-opacity="0.1"></stop>

<stop offset="100%" stop-color="#FFFFFF" stop-opacity="0.7"></stop>
</linearGradient><linearGradient id="Gradient_3" gradientUnits="userSpaceOnUse" x1="0" y1="51" x2="77" y2="51" spreadMethod="pad">
<stop offset="0%" stop-color="#FFFFFF" stop-opacity="0.1"></stop>

<stop offset="100%" stop-color="#FFFFFF" stop-opacity="0.7"></stop>
</linearGradient><g id="background">
<path fill="url(#background-gradient)" stroke="none" d=" M 99.15 55 Q 100 53.5 100 51.55 100 49.6 99.15 48.1 L 77.55 10.45 Q 76.7 9 75 8.05 73.3 7 71.6 7 L 28.35 7 Q 26.7 7 25 8.05 23.3 9 22.45 10.45 L 0.8 48.1 Q 0 49.6 0 51.55 0 53.5 0.8 55 L 22.45 92.65 Q 23.3 94.1 25 95.1 26.7 96.05 28.35 96.05 L 71.6 96.05 Q 73.3 96.05 75 95.05 76.7 94.1 77.55 92.65 L 99.15 55 M 96.5 49.65 Q 96.9 50.4 96.9 51.55 96.9 52.7 96.5 53.4 L 74.9 91.1 Q 74.45 91.85 73.5 92.45 72.45 93 71.6 93 L 28.35 93 Q 27.5 93 26.5 92.45 25.5 91.85 25.1 91.1 L 3.5 53.4 Q 3.05 52.7 3.05 51.55 3.05 50.4 3.5 49.65 L 25.1 12 Q 25.5 11.25 26.5 10.65 27.5 10.1 28.35 10.1 L 71.6 10.1 Q 72.45 10.1 73.5 10.65 74.45 11.25 74.9 12 L 96.5 49.65 Z"></path>
</g><mask id="mask">
<path fill="#FFFFFF" stroke="none" d=" M 96.9 51.55 Q 96.9 50.4 96.5 49.65 L 74.9 12 Q 74.45 11.25 73.5 10.65 72.45 10.1 71.6 10.1 L 28.35 10.1 Q 27.5 10.1 26.5 10.65 25.5 11.25 25.1 12 L 3.5 49.65 Q 3.05 50.4 3.05 51.55 3.05 52.7 3.5 53.4 L 25.1 91.1 Q 25.5 91.85 26.5 92.45 27.5 93 28.35 93 L 71.6 93 Q 72.45 93 73.5 92.45 74.45 91.85 74.9 91.1 L 96.5 53.4 Q 96.9 52.7 96.9 51.55 Z"></path>
</mask><g id="gloss-top">
<path fill="url(#Gradient_1)" stroke="none" d=" M 96.5 53.4 L 95.45 55.25 Q 98 52.85 99.9 50.3 99.7 49 99.15 48.1 L 77.55 10.45 Q 76.7 9 75 8.05 73.3 7 71.6 7 L 28.35 7 Q 26.7 7 25 8.05 23.3 9 22.45 10.45 L 0.8 48.1 Q 0.3 49.05 0.1 50.3 1.95 52.85 4.55 55.25 L 3.5 53.4 Q 3.05 52.7 3.05 51.55 3.05 50.4 3.5 49.65 L 25.1 12 Q 25.5 11.25 26.5 10.65 27.5 10.1 28.35 10.1 L 71.6 10.1 Q 72.45 10.1 73.5 10.65 74.45 11.25 74.9 12 L 96.5 49.65 Q 96.9 50.4 96.9 51.55 96.9 52.7 96.5 53.4 Z"></path>
</g><g id="gloss-right">
<path fill="url(#Gradient_2)" stroke="none" d=" M 99.15 55 Q 100 53.5 100 51.55 100 49.6 99.15 48.1 L 77.55 10.45 Q 76.7 9 75 8.05 73.3 7 71.6 7 L 28.35 7 Q 26.75 7 25.1 7.95 L 26.65 10.6 Q 27.6 10.1 28.35 10.1 L 71.6 10.1 Q 72.45 10.1 73.5 10.65 74.45 11.25 74.9 12 L 96.5 49.65 Q 96.9 50.4 96.9 51.55 96.9 52.7 96.5 53.4 L 74.9 91.1 Q 74.65 91.5 74.05 92 L 75.65 94.7 Q 76.9 93.7 77.55 92.65 L 99.15 55 Z"></path>
</g><g id="gloss-left">
<path fill="url(#Gradient_3)" stroke="none" d=" M 75.75 13.5 L 77.6 10.55 77.55 10.45 Q 76.7 9 75 8.05 73.3 7 71.6 7 L 28.35 7 Q 26.7 7 25 8.05 23.3 9 22.45 10.45 L 0.8 48.1 Q 0 49.6 0 51.55 0 53.5 0.8 55 L 22.45 92.65 Q 23.2 93.95 24.55 94.85 L 26.2 92.25 Q 25.45 91.65 25.1 91.1 L 3.5 53.4 Q 3.05 52.7 3.05 51.55 3.05 50.4 3.5 49.65 L 25.1 12 Q 25.5 11.25 26.5 10.65 27.5 10.1 28.35 10.1 L 71.6 10.1 Q 72.45 10.1 73.5 10.65 74.45 11.25 74.9 12 L 75.75 13.5 Z"></path>
</g>
			
	<linearGradient id="background-gradient" x1="0" y1="0" y2="1" x2="0" gradientTransform="rotate(90 0.5 0.5)">
		<stop stop-color="#255f18" offset="0%"></stop>
		<stop stop-color="#1d5c0f" offset="100%"></stop>
	</linearGradient>

			
			
			
			
		<linearGradient class="shapgradient" gradientTransform="rotate(0 0.5 0.5)" id="SvgjsLinearGradient1064"><stop stop-color="#3c592e" offset="0"></stop><stop stop-color="#9db21d" offset="1"></stop></linearGradient></defs><use xlink:href="#background" fill="url(#background-gradient)" class="background"></use><g class="geditable"><g mask="url(#mask)" fill="url(#SvgjsLinearGradient1064)" class="editable" transform="matrix(0.9,0,0,0.9,5,4.999999427795409)"><g transform="matrix(0.1171877305027906,0,0,0.1171877305027906,0.0008991656339864918,-0.00001347064620204482)"><path d="M666.4126567492972 464.7479069069438L638.4326567492972 436.7679069069438C616.7736567492972 415.1089069069438 581.5306567492971 415.1089069069438 559.8706567492972 436.7679069069438L529.5956567492972 467.04290690694376L386.2806567492971 323.72790690694376L416.55565674929716 293.4529069069438C438.2156567492972 271.7939069069438 438.2156567492972 236.55090690694374 416.55565674929716 214.89090690694377L388.5756567492972 186.91090690694375C366.9166567492972 165.25090690694375 331.6726567492972 165.25090690694375 310.0136567492972 186.91090690694375C307.08665674929716 189.83790690694374 307.08665674929716 194.58390690694375 310.0136567492972 197.51090690694375S317.6866567492972 200.43790690694374 320.61365674929715 197.51090690694375C336.42865674929715 181.69690690694375 362.1606567492971 181.69690690694375 377.9756567492972 197.51090690694375L405.95565674929713 225.49090690694374C421.80665674929713 241.34290690694377 421.80865674929714 266.9989069069437 405.95565674929713 282.8519069069438L282.84465674929714 405.96390690694375C266.9926567492971 421.81490690694375 241.33665674929713 421.81690690694376 225.48365674929713 405.96390690694375L197.50365674929714 377.98390690694373C181.68865674929714 362.1689069069438 181.68865674929714 336.43690690694376 197.50365674929714 320.62190690694376L295.45265674929715 222.67290690694375C298.37965674929717 219.74590690694376 298.37965674929717 214.99990690694375 295.45265674929715 212.07290690694376S287.77965674929715 209.14590690694376 284.8526567492971 212.07290690694376L186.90365674929714 310.02190690694374C165.24365674929714 331.68190690694377 165.24365674929714 366.9239069069438 186.90365674929714 388.58390690694375L214.88365674929713 416.56390690694377C236.54365674929716 438.22390690694374 271.7856567492971 438.22390690694374 293.44565674929714 416.56390690694377L323.7206567492972 386.28890690694374L467.0356567492971 529.6039069069437L436.76065674929714 559.8789069069437C415.1006567492972 581.5379069069437 415.1006567492972 616.7809069069438 436.76065674929714 638.4409069069437L464.74065674929716 666.4209069069437C486.3986567492972 688.0799069069437 521.6426567492972 688.0819069069437 543.3026567492972 666.4209069069437C546.2296567492972 663.4939069069437 546.2296567492972 658.7479069069437 543.3026567492972 655.8209069069437S535.6296567492972 652.8939069069437 532.7026567492971 655.8209069069437C516.8876567492972 671.6349069069438 491.1566567492972 671.6359069069438 475.3406567492972 655.8209069069437L447.36065674929716 627.8409069069437C431.50965674929716 611.9889069069437 431.5076567492971 586.3329069069437 447.36065674929716 570.4799069069437L570.4716567492972 447.3689069069437C586.3236567492971 431.5179069069437 611.9796567492971 431.5159069069437 627.8326567492971 447.3689069069437L655.8126567492972 475.34890690694374C671.6276567492971 491.16390690694374 671.6276567492971 516.8959069069438 655.8126567492972 532.7109069069438L557.9796567492972 630.5439069069437C555.0526567492972 633.4709069069438 555.0526567492972 638.2169069069437 557.9796567492972 641.1439069069438S565.6526567492972 644.0709069069437 568.5796567492972 641.1439069069438L666.4126567492972 543.3109069069437C688.0726567492972 521.6499069069438 688.0726567492972 486.40790690694377 666.4126567492972 464.7479069069438ZM411.2776567492972 452.6459069069438L452.6376567492972 411.2859069069438L483.3586567492972 442.0069069069438L441.9986567492972 483.3669069069438ZM369.9556567492972 411.32490690694385L411.3156567492972 369.96490690694384L442.0366567492972 400.68590690694384L400.6766567492972 442.04590690694386ZM375.68065674929716 334.3289069069438L400.7156567492972 359.36390690694384L359.35565674929717 400.7239069069438L334.32065674929714 375.68890690694377ZM452.5996567492972 493.9679069069438L493.9596567492972 452.6079069069438L518.9946567492972 477.64290690694384L477.63465674929716 519.0029069069438Z "></path></g></g></g><use xlink:href="#gloss-top" opacity="1" class="background"></use></g></svg>