<svg xmlns="http://www.w3.org/2000/svg" version="1.1" xmlns:xlink="http://www.w3.org/1999/xlink" xmlns:svgjs="http://svgjs.com/svgjs" width="83" height="83" viewBox="0 0 100 100"><g class="wrap" transform="matrix(1,0,0,1,0,0)"><defs class="background">
			<linearGradient id="Gradient_1" gradientUnits="userSpaceOnUse" x1="50" y1="7" x2="50" y2="55.2625" spreadMethod="pad">
<stop offset="0%" stop-color="#FFFFFF" stop-opacity="0.1"></stop>

<stop offset="100%" stop-color="#FFFFFF" stop-opacity="0.7"></stop>
</linearGradient><linearGradient id="Gradient_2" gradientUnits="userSpaceOnUse" x1="100" y1="51" x2="25" y2="50.85" spreadMethod="pad">
<stop offset="0%" stop-color="#FFFFFF" stop-opacity="0.1"></stop>

<stop offset="100%" stop-color="#FFFFFF" stop-opacity="0.7"></stop>
</linearGradient><linearGradient id="Gradient_3" gradientUnits="userSpaceOnUse" x1="0" y1="51" x2="77" y2="51" spreadMethod="pad">
<stop offset="0%" stop-color="#FFFFFF" stop-opacity="0.1"></stop>

<stop offset="100%" stop-color="#FFFFFF" stop-opacity="0.7"></stop>
</linearGradient><g id="background">
<path fill="url(#background-gradient)" stroke="none" d=" M 99.15 55 Q 100 53.5 100 51.55 100 49.6 99.15 48.1 L 77.55 10.45 Q 76.7 9 75 8.05 73.3 7 71.6 7 L 28.35 7 Q 26.7 7 25 8.05 23.3 9 22.45 10.45 L 0.8 48.1 Q 0 49.6 0 51.55 0 53.5 0.8 55 L 22.45 92.65 Q 23.3 94.1 25 95.1 26.7 96.05 28.35 96.05 L 71.6 96.05 Q 73.3 96.05 75 95.05 76.7 94.1 77.55 92.65 L 99.15 55 M 96.5 49.65 Q 96.9 50.4 96.9 51.55 96.9 52.7 96.5 53.4 L 74.9 91.1 Q 74.45 91.85 73.5 92.45 72.45 93 71.6 93 L 28.35 93 Q 27.5 93 26.5 92.45 25.5 91.85 25.1 91.1 L 3.5 53.4 Q 3.05 52.7 3.05 51.55 3.05 50.4 3.5 49.65 L 25.1 12 Q 25.5 11.25 26.5 10.65 27.5 10.1 28.35 10.1 L 71.6 10.1 Q 72.45 10.1 73.5 10.65 74.45 11.25 74.9 12 L 96.5 49.65 Z"></path>
</g><mask id="mask">
<path fill="#FFFFFF" stroke="none" d=" M 96.9 51.55 Q 96.9 50.4 96.5 49.65 L 74.9 12 Q 74.45 11.25 73.5 10.65 72.45 10.1 71.6 10.1 L 28.35 10.1 Q 27.5 10.1 26.5 10.65 25.5 11.25 25.1 12 L 3.5 49.65 Q 3.05 50.4 3.05 51.55 3.05 52.7 3.5 53.4 L 25.1 91.1 Q 25.5 91.85 26.5 92.45 27.5 93 28.35 93 L 71.6 93 Q 72.45 93 73.5 92.45 74.45 91.85 74.9 91.1 L 96.5 53.4 Q 96.9 52.7 96.9 51.55 Z"></path>
</mask><g id="gloss-top">
<path fill="url(#Gradient_1)" stroke="none" d=" M 96.5 53.4 L 95.45 55.25 Q 98 52.85 99.9 50.3 99.7 49 99.15 48.1 L 77.55 10.45 Q 76.7 9 75 8.05 73.3 7 71.6 7 L 28.35 7 Q 26.7 7 25 8.05 23.3 9 22.45 10.45 L 0.8 48.1 Q 0.3 49.05 0.1 50.3 1.95 52.85 4.55 55.25 L 3.5 53.4 Q 3.05 52.7 3.05 51.55 3.05 50.4 3.5 49.65 L 25.1 12 Q 25.5 11.25 26.5 10.65 27.5 10.1 28.35 10.1 L 71.6 10.1 Q 72.45 10.1 73.5 10.65 74.45 11.25 74.9 12 L 96.5 49.65 Q 96.9 50.4 96.9 51.55 96.9 52.7 96.5 53.4 Z"></path>
</g><g id="gloss-right">
<path fill="url(#Gradient_2)" stroke="none" d=" M 99.15 55 Q 100 53.5 100 51.55 100 49.6 99.15 48.1 L 77.55 10.45 Q 76.7 9 75 8.05 73.3 7 71.6 7 L 28.35 7 Q 26.75 7 25.1 7.95 L 26.65 10.6 Q 27.6 10.1 28.35 10.1 L 71.6 10.1 Q 72.45 10.1 73.5 10.65 74.45 11.25 74.9 12 L 96.5 49.65 Q 96.9 50.4 96.9 51.55 96.9 52.7 96.5 53.4 L 74.9 91.1 Q 74.65 91.5 74.05 92 L 75.65 94.7 Q 76.9 93.7 77.55 92.65 L 99.15 55 Z"></path>
</g><g id="gloss-left">
<path fill="url(#Gradient_3)" stroke="none" d=" M 75.75 13.5 L 77.6 10.55 77.55 10.45 Q 76.7 9 75 8.05 73.3 7 71.6 7 L 28.35 7 Q 26.7 7 25 8.05 23.3 9 22.45 10.45 L 0.8 48.1 Q 0 49.6 0 51.55 0 53.5 0.8 55 L 22.45 92.65 Q 23.2 93.95 24.55 94.85 L 26.2 92.25 Q 25.45 91.65 25.1 91.1 L 3.5 53.4 Q 3.05 52.7 3.05 51.55 3.05 50.4 3.5 49.65 L 25.1 12 Q 25.5 11.25 26.5 10.65 27.5 10.1 28.35 10.1 L 71.6 10.1 Q 72.45 10.1 73.5 10.65 74.45 11.25 74.9 12 L 75.75 13.5 Z"></path>
</g>
			
	<linearGradient id="background-gradient" x1="0" y1="0" y2="1" x2="0" gradientTransform="rotate(90 0.5 0.5)">
		<stop stop-color="#255f18" offset="0%"></stop>
		<stop stop-color="#1d5c0f" offset="100%"></stop>
	</linearGradient>

			
			
			
			
		<linearGradient class="shapgradient" gradientTransform="rotate(0 0.5 0.5)" id="SvgjsLinearGradient1069"><stop stop-color="#3c592e" offset="0"></stop><stop stop-color="#9db21d" offset="1"></stop></linearGradient></defs><use xlink:href="#background" fill="url(#background-gradient)" class="background"></use><g class="geditable"><g mask="url(#mask)" fill="url(#SvgjsLinearGradient1069)" class="editable"><g id="_28-firewood" data-name="28-firewood" transform="matrix(0.9375,0,0,0.9375,0,-0.000001943724328157259)"><path d="M65.33332926432291 30.33334786722747A1 1 0 0 0 65.33332926432291 28.33334786722747A1 1 0 1 1 66.33332926432291 27.33334786722747A1 1 0 0 0 68.33332926432291 27.33334786722747A3 3 0 1 0 65.33332926432291 30.33334786722747Z "></path><path d="M40.33332926432291 67.14634786722748V69.33334786722747A1 1 0 0 0 42.33332926432291 69.33334786722747V67.14634786722748C44.07432926432291 66.54634786722747 45.33332926432291 64.43834786722748 45.33332926432291 61.833347867227474C45.33332926432291 58.74934786722747 43.57632926432291 56.333347867227474 41.33332926432291 56.333347867227474S37.33332926432291 58.74934786722747 37.33332926432291 61.833347867227474C37.33332926432291 64.43834786722746 38.59232926432291 66.54734786722747 40.33332926432291 67.14634786722748ZM41.33332926432291 58.333347867227474C42.27932926432291 58.333347867227474 43.33332926432291 59.771347867227476 43.33332926432291 61.833347867227474S42.27932926432291 65.33334786722747 41.33332926432291 65.33334786722747S39.33332926432291 63.896347867227476 39.33332926432291 61.833347867227474S40.387329264322915 58.333347867227474 41.33332926432291 58.333347867227474Z "></path><path d="M26.333329264322916 72.33334786722747A1 1 0 0 0 27.333329264322916 71.33334786722747V68.33334786722747A1 1 0 0 0 25.333329264322916 68.33334786722747V71.33334786722747A1 1 0 0 0 26.333329264322916 72.33334786722747Z "></path><path d="M79.40032926432292 75.20034786722746A9.92 9.92 0 0 0 75.33332926432291 74.33334786722747A10.085 10.085 0 0 0 74.28532926432291 74.38934786722747A9.994 9.994 0 0 0 75.46732926432291 64.26734786722747A1 1 0 0 0 74.91132926432292 63.739347867227465A1.011 1.011 0 0 0 74.14532926432292 63.760347867227466L71.69432926432292 64.84934786722746A10 10 0 0 0 54.01032926432292 55.78934786722746A1 1 0 0 0 54.288329264322925 57.17534786722747L59.35032926432292 60.54734786722747A9.842 9.842 0 0 0 54.32632926432292 60.80834786722747A9.908 9.908 0 0 0 49.33332926432291 64.35234786722746V52.333347867227474A1 1 0 0 0 48.33332926432291 51.333347867227474H45.63332926432292L43.72732926432292 38.619347867227475L45.677329264322914 35.488347867227475L52.70832926432291 41.11434786722747A1.029 1.029 0 0 0 53.12032926432291 41.31434786722747C53.33332926432291 41.35934786722747 74.44632926432291 46.000347867227475 83.7663292643229 52.42934786722748A1 1 0 0 0 84.9003292643229 50.78234786722747C75.68632926432291 44.42534786722747 56.242329264322905 39.958347867227474 53.775329264322906 39.40934786722748L46.74332926432292 33.77834786722747L48.65132926432292 30.71434786722747A111.665 111.665 0 0 0 84.14532926432291 44.13334786722747A1 1 0 0 0 84.52132926432292 42.16834786722747A107.6 107.6 0 0 1 48.91532926432292 28.51934786722747L39.94732926432292 21.54434786722747A1 1 0 0 0 38.56532926432291 21.69234786722747L22.187329264322916 41.30234786722747A1 1 0 0 0 22.115329264322916 42.48934786722747A29.531 29.531 0 0 0 32.40132926432292 51.333347867227474H22.333329264322916A1 1 0 0 0 21.333329264322916 52.333347867227474V84.33334786722747A1 1 0 0 0 22.333329264322916 85.33334786722747H84.33332926432291A1 1 0 0 0 85.33332926432291 84.33334786722747A10 10 0 0 0 79.40032926432292 75.20034786722746ZM54.72432926432292 74.67734786722747A9.96 9.96 0 0 0 49.33332926432291 78.34134786722747V76.09134786722747A0.991 0.991 0 0 0 49.56232926432291 76.19134786722748A1 1 0 0 0 50.31532926432291 76.05534786722747L57.167329264322916 71.63934786722747A1 1 0 0 0 57.18832926432292 72.38934786722747A10 10 0 0 0 58.411329264322916 74.40134786722747A10.1 10.1 0 0 0 54.72432926432292 74.67734786722747ZM67.39932926432292 78.27034786722747A10.032 10.032 0 0 0 66.33332926432291 80.00934786722748A9.878 9.878 0 0 0 65.27432926432292 78.26434786722747A9.919 9.919 0 0 0 66.30732926432292 78.33334786722747A10.035 10.035 0 0 0 67.39932926432292 78.27034786722747ZM73.79932926432292 71.19934786722747A7.95 7.95 0 0 1 69.57432926432291 75.64134786722747A7.835 7.835 0 0 1 68.33332926432291 76.06834786722747V74.33334786722747A1 1 0 0 0 66.33332926432291 74.33334786722747V76.30934786722747A7.952 7.952 0 0 1 59.47832926432291 72.46834786722746L64.53332926432292 70.22734786722746L63.87032926432292 71.93334786722747A1 1 0 0 0 64.44232926432292 73.22634786722747A1.02 1.02 0 0 0 64.80332926432291 73.29334786722747A1 1 0 0 0 65.73532926432291 72.65334786722747L66.90632926432292 69.62434786722747L69.93332926432292 70.78634786722748A1 1 0 1 0 70.64932926432292 68.91934786722747L68.94332926432291 68.26434786722747L73.98732926432291 66.01934786722748A7.933 7.933 0 0 1 73.79932926432292 71.19934786722747ZM60.75432926432292 53.48734786722747A7.926 7.926 0 0 1 66.76432926432291 54.67234786722747A8.387 8.387 0 0 1 67.66432926432292 55.372347867227475L65.82232926432292 56.472347867227484A1 1 0 0 0 66.33332926432291 58.333347867227474A0.988 0.988 0 0 0 66.84632926432292 58.19034786722747L68.97832926432291 56.91234786722747A7.9 7.9 0 0 1 69.49332926432291 64.90234786722748L64.89332926432292 61.84134786722747L66.68332926432291 61.48334786722748A1 1 0 1 0 66.2933292643229 59.52234786722748L63.113329264322914 60.15634786722748L62.47832926432291 56.978347867227484A1 1 0 1 0 60.51732926432291 57.368347867227484L60.87632926432292 59.16834786722748L56.27632926432291 56.103347867227484A7.922 7.922 0 0 1 60.75432926432292 53.48734786722747ZM68.16332926432291 66.41934786722747L58.83332926432291 70.56434786722747L65.44432926432292 66.30434786722748A1 1 0 0 0 65.74432926432291 64.91834786722747C65.69532926432291 64.84134786722747 65.6353292643229 64.77334786722747 65.58432926432292 64.69834786722747ZM53.00132926432292 63.619347867227475A8.315 8.315 0 0 1 53.87632926432292 63.137347867227476L54.35332926432292 65.53334786722748A1 1 0 0 0 55.33332926432291 66.33334786722747A0.945 0.945 0 0 0 55.533329264322916 66.31334786722746A1 1 0 0 0 56.31832926432291 65.13834786722747L55.79632926432292 62.509347867227476A7.658 7.658 0 0 1 61.52932926432291 63.52234786722747A8.148 8.148 0 0 1 63.47132926432292 65.19934786722747L58.82132926432291 68.19334786722747L59.21132926432291 66.39334786722748A1 1 0 1 0 57.256329264322915 65.96934786722747L56.56732926432292 69.14234786722747L53.395329264322925 68.45334786722748A1 1 0 1 0 52.97132926432292 70.40834786722748L54.771329264322915 70.79934786722747L50.12332926432292 73.79934786722747A7.98 7.98 0 0 1 52.999329264322924 63.61834786722747ZM39.481329264322916 23.719347867227473L47.00832926432292 29.57234786722747L41.83332926432291 37.875347867227475A1 1 0 0 0 41.69232926432292 38.55234786722747L43.021329264322915 47.405347867227476A37.876 37.876 0 0 1 30.02132926432292 40.997347867227475L33.10732926432292 37.28134786722747A1 1 0 0 0 31.567329264322918 36.00434786722747L28.520329264322918 39.67434786722747A16.914 16.914 0 0 1 27.270329264322918 38.333347867227474ZM24.221329264322918 41.986347867227465L25.969329264322916 39.89434786722747A21.09 21.09 0 0 0 27.946329264322916 41.855347867227465C27.958329264322916 41.86634786722747 27.962329264322918 41.88134786722747 27.975329264322916 41.891347867227466S28.001329264322916 41.90434786722747 28.014329264322917 41.91334786722747C30.793329264322917 44.333347867227474 35.564329264322915 47.376347867227466 43.34932926432292 49.583347867227474L43.612329264322916 51.333347867227474H37.326329264322915A29.413 29.413 0 0 1 24.221329264322918 41.986347867227465ZM23.333329264322916 53.333347867227474H25.333329264322916V60.333347867227474A1 1 0 0 0 27.333329264322916 60.333347867227474V53.333347867227474H29.333329264322916V57.333347867227474A1 1 0 0 0 31.333329264322916 57.333347867227474V53.333347867227474H47.33332926432291V83.33334786722747H45.33332926432291V72.33334786722747A1 1 0 0 0 43.33332926432291 72.33334786722747V83.33334786722747H41.33332926432291V76.33334786722747A1 1 0 0 0 39.33332926432291 76.33334786722747V83.33334786722747H31.333329264322916V78.33334786722747A1 1 0 0 0 29.333329264322916 78.33334786722747V83.33334786722747H27.333329264322916V75.33334786722747A1 1 0 0 0 25.333329264322916 75.33334786722747V83.33334786722747H23.333329264322916ZM59.747329264322914 83.33334786722747L61.04032926432292 82.04034786722747A1 1 0 0 0 59.62632926432292 80.62634786722747L57.33332926432291 82.91934786722747L55.04032926432292 80.62634786722747A1 1 0 0 0 53.62632926432292 82.04034786722747L54.91932926432291 83.33334786722747H49.39532926432292A8 8 0 0 1 54.48432926432292 76.87634786722747L55.43932926432292 78.78134786722747A1 1 0 0 0 57.22732926432292 77.88134786722748L56.476329264322914 76.38134786722748A7.986 7.986 0 0 1 65.27032926432291 83.33334786722747ZM77.74732926432291 83.33334786722747L79.04032926432292 82.04034786722747A1 1 0 0 0 77.62632926432292 80.62634786722747L75.33332926432291 82.91934786722747L73.04032926432292 80.62634786722747A1 1 0 0 0 71.62632926432292 82.04034786722747L72.91932926432291 83.33334786722747H67.39532926432291A7.959 7.959 0 0 1 77.37432926432291 76.60934786722747L76.53332926432292 77.73334786722747A1 1 0 0 0 78.13332926432292 78.93334786722747L79.28332926432292 77.39434786722747A8 8 0 0 1 83.27032926432291 83.33334786722747Z "></path><path d="M75.33332926432291 34.833347867227474A1 1 0 0 0 76.33332926432291 33.833347867227474A1.5 1.5 0 1 1 77.83332926432291 35.333347867227474A1 1 0 0 0 77.83332926432291 37.333347867227474A3.5 3.5 0 1 0 74.33332926432291 33.833347867227474A1 1 0 0 0 75.33332926432291 34.833347867227474Z "></path><path d="M34.27033021799723 35.31036407969085A1 1 0 0 0 35.04033021799723 34.94836407969085L36.557330217997226 33.12236407969085A1 1 0 1 0 35.01833021799723 31.84536407969085L33.50133021799723 33.671364079690846A1 1 0 0 0 34.27033021799723 35.31036407969085Z "></path></g></g></g><use xlink:href="#gloss-top" opacity="1" class="background"></use></g></svg>