<svg xmlns="http://www.w3.org/2000/svg" version="1.1" xmlns:xlink="http://www.w3.org/1999/xlink" xmlns:svgjs="http://svgjs.com/svgjs" width="83" height="83" viewBox="0 0 100 100"><g class="wrap" transform="matrix(1,0,0,1,0,0)"><defs class="background">
			<linearGradient id="Gradient_1" gradientUnits="userSpaceOnUse" x1="50" y1="7" x2="50" y2="55.2625" spreadMethod="pad">
<stop offset="0%" stop-color="#FFFFFF" stop-opacity="0.1"></stop>

<stop offset="100%" stop-color="#FFFFFF" stop-opacity="0.7"></stop>
</linearGradient><linearGradient id="Gradient_2" gradientUnits="userSpaceOnUse" x1="100" y1="51" x2="25" y2="50.85" spreadMethod="pad">
<stop offset="0%" stop-color="#FFFFFF" stop-opacity="0.1"></stop>

<stop offset="100%" stop-color="#FFFFFF" stop-opacity="0.7"></stop>
</linearGradient><linearGradient id="Gradient_3" gradientUnits="userSpaceOnUse" x1="0" y1="51" x2="77" y2="51" spreadMethod="pad">
<stop offset="0%" stop-color="#FFFFFF" stop-opacity="0.1"></stop>

<stop offset="100%" stop-color="#FFFFFF" stop-opacity="0.7"></stop>
</linearGradient><g id="background">
<path fill="url(#background-gradient)" stroke="none" d=" M 99.15 55 Q 100 53.5 100 51.55 100 49.6 99.15 48.1 L 77.55 10.45 Q 76.7 9 75 8.05 73.3 7 71.6 7 L 28.35 7 Q 26.7 7 25 8.05 23.3 9 22.45 10.45 L 0.8 48.1 Q 0 49.6 0 51.55 0 53.5 0.8 55 L 22.45 92.65 Q 23.3 94.1 25 95.1 26.7 96.05 28.35 96.05 L 71.6 96.05 Q 73.3 96.05 75 95.05 76.7 94.1 77.55 92.65 L 99.15 55 M 96.5 49.65 Q 96.9 50.4 96.9 51.55 96.9 52.7 96.5 53.4 L 74.9 91.1 Q 74.45 91.85 73.5 92.45 72.45 93 71.6 93 L 28.35 93 Q 27.5 93 26.5 92.45 25.5 91.85 25.1 91.1 L 3.5 53.4 Q 3.05 52.7 3.05 51.55 3.05 50.4 3.5 49.65 L 25.1 12 Q 25.5 11.25 26.5 10.65 27.5 10.1 28.35 10.1 L 71.6 10.1 Q 72.45 10.1 73.5 10.65 74.45 11.25 74.9 12 L 96.5 49.65 Z"></path>
</g><mask id="mask">
<path fill="#FFFFFF" stroke="none" d=" M 96.9 51.55 Q 96.9 50.4 96.5 49.65 L 74.9 12 Q 74.45 11.25 73.5 10.65 72.45 10.1 71.6 10.1 L 28.35 10.1 Q 27.5 10.1 26.5 10.65 25.5 11.25 25.1 12 L 3.5 49.65 Q 3.05 50.4 3.05 51.55 3.05 52.7 3.5 53.4 L 25.1 91.1 Q 25.5 91.85 26.5 92.45 27.5 93 28.35 93 L 71.6 93 Q 72.45 93 73.5 92.45 74.45 91.85 74.9 91.1 L 96.5 53.4 Q 96.9 52.7 96.9 51.55 Z"></path>
</mask><g id="gloss-top">
<path fill="url(#Gradient_1)" stroke="none" d=" M 96.5 53.4 L 95.45 55.25 Q 98 52.85 99.9 50.3 99.7 49 99.15 48.1 L 77.55 10.45 Q 76.7 9 75 8.05 73.3 7 71.6 7 L 28.35 7 Q 26.7 7 25 8.05 23.3 9 22.45 10.45 L 0.8 48.1 Q 0.3 49.05 0.1 50.3 1.95 52.85 4.55 55.25 L 3.5 53.4 Q 3.05 52.7 3.05 51.55 3.05 50.4 3.5 49.65 L 25.1 12 Q 25.5 11.25 26.5 10.65 27.5 10.1 28.35 10.1 L 71.6 10.1 Q 72.45 10.1 73.5 10.65 74.45 11.25 74.9 12 L 96.5 49.65 Q 96.9 50.4 96.9 51.55 96.9 52.7 96.5 53.4 Z"></path>
</g><g id="gloss-right">
<path fill="url(#Gradient_2)" stroke="none" d=" M 99.15 55 Q 100 53.5 100 51.55 100 49.6 99.15 48.1 L 77.55 10.45 Q 76.7 9 75 8.05 73.3 7 71.6 7 L 28.35 7 Q 26.75 7 25.1 7.95 L 26.65 10.6 Q 27.6 10.1 28.35 10.1 L 71.6 10.1 Q 72.45 10.1 73.5 10.65 74.45 11.25 74.9 12 L 96.5 49.65 Q 96.9 50.4 96.9 51.55 96.9 52.7 96.5 53.4 L 74.9 91.1 Q 74.65 91.5 74.05 92 L 75.65 94.7 Q 76.9 93.7 77.55 92.65 L 99.15 55 Z"></path>
</g><g id="gloss-left">
<path fill="url(#Gradient_3)" stroke="none" d=" M 75.75 13.5 L 77.6 10.55 77.55 10.45 Q 76.7 9 75 8.05 73.3 7 71.6 7 L 28.35 7 Q 26.7 7 25 8.05 23.3 9 22.45 10.45 L 0.8 48.1 Q 0 49.6 0 51.55 0 53.5 0.8 55 L 22.45 92.65 Q 23.2 93.95 24.55 94.85 L 26.2 92.25 Q 25.45 91.65 25.1 91.1 L 3.5 53.4 Q 3.05 52.7 3.05 51.55 3.05 50.4 3.5 49.65 L 25.1 12 Q 25.5 11.25 26.5 10.65 27.5 10.1 28.35 10.1 L 71.6 10.1 Q 72.45 10.1 73.5 10.65 74.45 11.25 74.9 12 L 75.75 13.5 Z"></path>
</g>
			
	<linearGradient id="background-gradient" x1="0" y1="0" y2="1" x2="0" gradientTransform="rotate(90 0.5 0.5)">
		<stop stop-color="#255f18" offset="0%"></stop>
		<stop stop-color="#1d5c0f" offset="100%"></stop>
	</linearGradient>

			
			
			
			
		<linearGradient class="shapgradient" gradientTransform="rotate(0 0.5 0.5)" id="SvgjsLinearGradient1012"><stop stop-color="#3c592e" offset="0"></stop><stop stop-color="#9db21d" offset="1"></stop></linearGradient></defs><use xlink:href="#background" fill="url(#background-gradient)" class="background"></use><g class="geditable"><g mask="url(#mask)" fill="url(#SvgjsLinearGradient1012)" class="editable"><g id="009---Trees" transform="matrix(1.000057986760707,0,0,1.000057986760707,-1.0046715499334793e-7,-0.0000014952144966051684)"><path id="Shape" d="M73.11710209283584 54.98421116249273H74.11710209283584C74.78246199283583 54.985956662492725 75.39513629283584 54.62250946249273 75.71257509283583 54.03775366249272C76.03001399283585 53.45299786249272 76.00103179283585 52.74122286249272 75.63710209283585 52.184211162492716L68.99710209283583 42.034211162492724H70.09710209283584C70.75953919283583 42.029264362492725 71.36697239283583 41.664770462492726 71.68302459283584 41.08256906249272S71.97382739283584 39.792417662492724 71.61710209283584 39.23421116249272L63.52710209283585 26.924211162492718C63.15956769283585 26.34940169249272 62.52436849283585 26.00160385249272 61.842102092835844 26.00160385249272S60.52463649283585 26.34940169249272 60.15710209283584 26.924211162492718L57.59710209283584 30.784211162492717L51.68710209283584 20.91421116249272C51.30951889283584 20.33770081249272 50.66172429283584 19.99619766249272 49.972717092835836 20.01042494249272C49.28370999283584 20.02465223249272 48.650564892835845 20.39260546249272 48.29710209283584 20.98421116249272L42.39710209283584 30.78421116249272L39.857102092835845 26.92421116249272C39.490479192835835 26.34489953249272 38.85267799283584 25.99374377249272 38.16710209283583 25.99374377249272S36.843724992835845 26.34489953249272 36.477102092835835 26.92421116249272L28.36710209283584 39.25421116249272C28.02012258283584 39.81301466249272 28.00165902283584 40.51555796249272 28.31880795283584 41.09181546249272C28.63595688283584 41.668073062492724 29.239362022835838 42.028364762492714 29.89710209283584 42.03421116249272H30.997102092835842L24.36710209283584 52.19421116249272C24.00958803283584 52.74932806249272 23.98272348283584 53.455081462492714 24.29700305283584 54.03577016249271C24.61128261283584 54.61645886249272 25.21683490283584 54.97993646249272 25.87710209283584 54.98421116249271H26.87710209283584L20.28710209283584 65.19421116249272C19.92863802283584 65.75083296249272 19.90268065283584 66.45875666249272 20.219417762835842 67.04013596249271C20.53615486283584 67.62151526249272 21.14504178283584 67.98357406249272 21.80710209283584 67.98421116249271H29.39710209283584L28.15710209283584 69.89421116249271C27.75707848283584 70.50961146249271 27.72628573283584 71.29468496249271 28.076879182835842 71.93952656249272C28.42747264283584 72.58436806249271 29.10311636283584 72.98535966249271 29.83710209283584 72.98421116249271H33.997102092835846V74.98421116249271C33.997102092835846 76.08878066249271 34.892532592835835 76.98421116249271 35.997102092835846 76.98421116249271H39.997102092835846C41.10167159283584 76.98421116249271 41.997102092835846 76.08878066249271 41.997102092835846 74.98421116249271V72.98421116249271H45.997102092835846V77.98421116249271C45.997102092835846 79.08878066249271 46.892532592835835 79.98421116249271 47.997102092835846 79.98421116249271H51.997102092835846C53.10167159283584 79.98421116249271 53.997102092835846 79.08878066249271 53.997102092835846 77.98421116249271V72.98421116249271H57.997102092835846V74.98421116249271C57.997102092835846 76.08878066249271 58.89253259283585 76.98421116249271 59.997102092835846 76.98421116249271H63.997102092835846C65.10167159283583 76.98421116249271 65.99710209283583 76.08878066249271 65.99710209283583 74.98421116249271V72.98421116249271H70.15710209283584C70.89108779283583 72.98535966249271 71.56673159283585 72.58436806249271 71.91732499283584 71.93952656249272C72.26791849283585 71.29468496249271 72.23712569283585 70.50961146249271 71.83710209283583 69.89421116249271L70.59710209283584 67.98421116249271H78.18710209283584C78.84916239283584 67.98357406249272 79.45804929283585 67.62151526249272 79.77478639283584 67.04013596249271S80.06556619283585 65.75083296249272 79.70710209283584 65.19421116249272ZM22.117102092835847 65.98421116249273L29.517102092835845 54.54421116249273C29.72162804283585 54.241938462492726 29.74523608283585 53.85224866249273 29.578696342835848 53.527496162492724C29.412156612835847 53.20274366249272 29.08192200283585 52.99451166249273 28.717102092835848 52.98421116249273H26.227102092835846L33.69710209283585 41.584211162492736C33.89986679283585 41.27632626249273 33.91678969283585 40.88185256249273 33.741138092835854 40.55773356249273S33.22575299283585 40.032425762492736 32.857102092835845 40.03421116249273H30.24710209283585L38.16710209283585 27.98421116249273L41.25710209283585 32.664211162492734L38.11710209283585 37.89421116249273C37.716078792835845 38.51111646249273 37.686173292835846 39.29839726249273 38.03924109283585 39.94394746249273C38.39230899283585 40.58949756249273 39.07132459283585 40.98905126249273 39.80710209283585 40.98421116249273H41.607102092835845L33.16710209283585 53.89421116249274C32.76707849283585 54.50961146249273 32.73628569283585 55.29468496249274 33.08687919283585 55.93952656249273C33.437472592835846 56.58436806249273 34.11311639283585 56.98535966249274 34.847102092835854 56.98421116249274H36.50710209283585L30.68710209283585 65.98421116249274ZM39.997102092835846 74.98421116249273H35.997102092835846V72.98421116249273H39.997102092835846ZM51.997102092835846 77.98421116249273H47.997102092835846V72.98421116249273H51.997102092835846ZM63.997102092835846 74.98421116249273H59.997102092835846V72.98421116249273H63.997102092835846ZM29.837102092835853 70.98421116249273L39.18710209283586 56.52421116249272C39.384390392835854 56.21671106249272 39.39828109283586 55.826094862492724 39.22333349283585 55.50535766249273C39.04838599283585 55.18462046249272 38.71244939283585 54.98481916249273 38.347102092835854 54.98421116249273H34.847102092835854L44.29710209283584 40.534211162492724C44.499866792835846 40.22632626249272 44.51678969283584 39.83185256249273 44.34113809283585 39.507733562492724S43.825752992835845 38.982425762492724 43.457102092835854 38.98421116249273H39.827102092835844C53.08710209283585 16.774211162492723 41.27710209283585 36.534211162492724 49.997102092835846 21.984211162492723L60.19710209283585 38.98421116249273H56.53710209283585C56.16845119283586 38.982425762492724 55.82871769283585 39.18361456249272 55.65306609283586 39.507733562492724S55.49433739283586 40.22632626249272 55.69710209283585 40.534211162492724L65.14710209283585 54.98421116249273H61.64710209283585C61.281754792835855 54.98481916249273 60.94581819283586 55.18462046249272 60.77087069283586 55.50535766249273C60.59592309283585 55.826094862492724 60.60981379283585 56.21671106249272 60.80710209283585 56.52421116249272L70.16710209283585 70.98421116249273ZM69.30710209283585 65.98421116249273L63.487102092835855 56.98421116249273H65.14710209283584C65.88108779283584 56.985359662492726 66.55673159283585 56.58436806249273 66.90732499283584 55.93952656249273C67.25791849283584 55.294684962492724 67.22712569283584 54.50961146249273 66.82710209283584 53.894211162492724L58.387102092835846 40.98421116249273H60.18710209283584C60.89589919283584 40.972903062492726 61.54575219283585 40.58723846249273 61.89524259283584 39.97049076249273S62.24163599283584 38.59807356249273 61.887102092835846 37.98421116249273L58.73710209283584 32.68421116249273L61.83710209283585 27.984211162492727L69.74710209283585 39.98421116249273H67.13710209283585C66.76845119283584 39.982425762492724 66.42871769283585 40.18361456249273 66.25306609283584 40.50773356249273S66.09433739283585 41.22632626249273 66.29710209283584 41.534211162492724L73.76710209283584 52.98421116249273H71.27710209283583C70.91175479283584 52.98481916249273 70.57581819283584 53.18462046249272 70.40087069283584 53.50535766249273C70.22592309283584 53.826094862492724 70.23981379283583 54.21671106249272 70.43710209283583 54.52421116249272L77.83710209283583 65.98421116249273Z "></path><path id="Shape" d="M45.1671097520327 43.43421557323644L39.1671097520327 52.43421557323644C38.9290610520327 52.729743973236445 38.8787988520327 53.134549873236445 39.0373456520327 53.47932097323644C39.1958924520327 53.82409217323644 39.535926552032706 54.04941597323644 39.9152271520327 54.06104967323644C40.2945276520327 54.07268337323644 40.647731652032704 53.86862207323644 40.8271097520327 53.53421557323644L46.8271097520327 44.53421557323644C47.0711890520327 44.07918947323644 46.9286947520327 43.51315247323644 46.4982644520327 43.22792757323644S45.491022052032704 43.03209077323644 45.1671097520327 43.43421557323644Z "></path><path id="Shape" d="M59.9971097520327 53.98421366588781C60.3639671520327 53.98232216588781 60.700336052032696 53.77970326588781 60.8735183520327 53.456290565887805C61.0467006520327 53.132877765887805 61.02888885203269 52.74060086588781 60.8271097520327 52.4342136658878L54.8271097520327 43.4342136658878C54.503197452032694 43.0320888658878 53.926385352032696 42.94270076588781 53.4959550520327 43.2279256658878S52.9230304520327 44.07918756588781 53.1671097520327 44.534213665887805L59.1671097520327 53.534213665887805C59.3510932520327 53.813598865887805 59.6625906520327 53.982483065887806 59.9971097520327 53.98421366588781Z "></path><path id="Shape" d="M43.53711165938133 56.14421175853917C43.07304435938133 55.846800158539175 42.455821559381334 55.98097895853917 42.15711165938133 56.44421175853917L35.15711165938133 67.44421175853917C34.95982335938133 67.75171185853917 34.945932659381334 68.14232805853916 35.12088025938133 68.46306525853916C35.29582775938133 68.78380245853917 35.631764359381336 68.98360375853918 35.99711165938133 68.98421175853917C36.337103759381336 68.98364535853918 36.65351615938133 68.81037185853917 36.837111659381335 68.52421175853917L43.837111659381335 57.52421175853917C44.13452325938133 57.06014445853916 44.00034445938133 56.44292165853917 43.53711165938133 56.144211758539164Z "></path><path id="Shape" d="M56.4571097520327 56.14421175853917C55.9938769520327 56.44292165853917 55.8596981520327 57.06014445853917 56.1571097520327 57.524211758539174L63.1571097520327 68.52421175853917C63.3403935520327 68.84551635853917 63.6860741520327 69.03939955853917 64.05581155203271 69.02826995853917C64.4255488520327 69.01714045853917 64.7589419520327 68.80281635853918 64.92256815203271 68.47106935853918C65.0861942520327 68.13932235853918 65.0533231520327 67.74434725853916 64.8371097520327 67.44421175853918L57.8371097520327 56.444211758539176C57.538399852032704 55.980978958539175 56.921177052032704 55.846800158539175 56.4571097520327 56.14421175853918Z "></path><path id="Shape" d="M49.9971097520327 42.984211758539175C49.4448250520327 42.984211758539175 48.9971097520327 43.43192705853917 48.9971097520327 43.984211758539175V52.984211758539175C48.9971097520327 53.536496458539176 49.4448250520327 53.984211758539175 49.9971097520327 53.984211758539175S50.9971097520327 53.536496458539176 50.9971097520327 52.984211758539175V43.984211758539175C50.9971097520327 43.43192705853917 50.5493944520327 42.984211758539175 49.9971097520327 42.984211758539175Z "></path><path id="Shape" d="M49.9971097520327 30.98421175853917C49.4448250520327 30.98421175853917 48.9971097520327 31.431927058539173 48.9971097520327 31.98421175853917V39.984211758539175C48.9971097520327 40.536496458539176 49.4448250520327 40.984211758539175 49.9971097520327 40.984211758539175S50.9971097520327 40.536496458539176 50.9971097520327 39.984211758539175V31.98421175853917C50.9971097520327 31.431927058539173 50.5493944520327 30.98421175853917 49.9971097520327 30.98421175853917Z "></path><path id="Shape" d="M49.9971097520327 55.984211758539175C49.4448250520327 55.984211758539175 48.9971097520327 56.43192705853917 48.9971097520327 56.984211758539175V67.98421175853917C48.9971097520327 68.53649645853918 49.4448250520327 68.98421175853917 49.9971097520327 68.98421175853917S50.9971097520327 68.53649645853918 50.9971097520327 67.98421175853917V56.984211758539175C50.9971097520327 56.43192705853917 50.5493944520327 55.984211758539175 49.9971097520327 55.984211758539175Z "></path></g></g></g><use xlink:href="#gloss-top" opacity="1" class="background"></use></g></svg>