<svg xmlns="http://www.w3.org/2000/svg" version="1.1" xmlns:xlink="http://www.w3.org/1999/xlink" xmlns:svgjs="http://svgjs.com/svgjs" width="83" height="83" viewBox="0 0 100 100"><g class="wrap" transform="matrix(1,0,0,1,0,0)"><defs class="background">
			<linearGradient id="Gradient_1" gradientUnits="userSpaceOnUse" x1="50" y1="7" x2="50" y2="55.2625" spreadMethod="pad">
<stop offset="0%" stop-color="#FFFFFF" stop-opacity="0.1"></stop>

<stop offset="100%" stop-color="#FFFFFF" stop-opacity="0.7"></stop>
</linearGradient><linearGradient id="Gradient_2" gradientUnits="userSpaceOnUse" x1="100" y1="51" x2="25" y2="50.85" spreadMethod="pad">
<stop offset="0%" stop-color="#FFFFFF" stop-opacity="0.1"></stop>

<stop offset="100%" stop-color="#FFFFFF" stop-opacity="0.7"></stop>
</linearGradient><linearGradient id="Gradient_3" gradientUnits="userSpaceOnUse" x1="0" y1="51" x2="77" y2="51" spreadMethod="pad">
<stop offset="0%" stop-color="#FFFFFF" stop-opacity="0.1"></stop>

<stop offset="100%" stop-color="#FFFFFF" stop-opacity="0.7"></stop>
</linearGradient><g id="background">
<path fill="url(#background-gradient)" stroke="none" d=" M 99.15 55 Q 100 53.5 100 51.55 100 49.6 99.15 48.1 L 77.55 10.45 Q 76.7 9 75 8.05 73.3 7 71.6 7 L 28.35 7 Q 26.7 7 25 8.05 23.3 9 22.45 10.45 L 0.8 48.1 Q 0 49.6 0 51.55 0 53.5 0.8 55 L 22.45 92.65 Q 23.3 94.1 25 95.1 26.7 96.05 28.35 96.05 L 71.6 96.05 Q 73.3 96.05 75 95.05 76.7 94.1 77.55 92.65 L 99.15 55 M 96.5 49.65 Q 96.9 50.4 96.9 51.55 96.9 52.7 96.5 53.4 L 74.9 91.1 Q 74.45 91.85 73.5 92.45 72.45 93 71.6 93 L 28.35 93 Q 27.5 93 26.5 92.45 25.5 91.85 25.1 91.1 L 3.5 53.4 Q 3.05 52.7 3.05 51.55 3.05 50.4 3.5 49.65 L 25.1 12 Q 25.5 11.25 26.5 10.65 27.5 10.1 28.35 10.1 L 71.6 10.1 Q 72.45 10.1 73.5 10.65 74.45 11.25 74.9 12 L 96.5 49.65 Z"></path>
</g><mask id="mask">
<path fill="#FFFFFF" stroke="none" d=" M 96.9 51.55 Q 96.9 50.4 96.5 49.65 L 74.9 12 Q 74.45 11.25 73.5 10.65 72.45 10.1 71.6 10.1 L 28.35 10.1 Q 27.5 10.1 26.5 10.65 25.5 11.25 25.1 12 L 3.5 49.65 Q 3.05 50.4 3.05 51.55 3.05 52.7 3.5 53.4 L 25.1 91.1 Q 25.5 91.85 26.5 92.45 27.5 93 28.35 93 L 71.6 93 Q 72.45 93 73.5 92.45 74.45 91.85 74.9 91.1 L 96.5 53.4 Q 96.9 52.7 96.9 51.55 Z"></path>
</mask><g id="gloss-top">
<path fill="url(#Gradient_1)" stroke="none" d=" M 96.5 53.4 L 95.45 55.25 Q 98 52.85 99.9 50.3 99.7 49 99.15 48.1 L 77.55 10.45 Q 76.7 9 75 8.05 73.3 7 71.6 7 L 28.35 7 Q 26.7 7 25 8.05 23.3 9 22.45 10.45 L 0.8 48.1 Q 0.3 49.05 0.1 50.3 1.95 52.85 4.55 55.25 L 3.5 53.4 Q 3.05 52.7 3.05 51.55 3.05 50.4 3.5 49.65 L 25.1 12 Q 25.5 11.25 26.5 10.65 27.5 10.1 28.35 10.1 L 71.6 10.1 Q 72.45 10.1 73.5 10.65 74.45 11.25 74.9 12 L 96.5 49.65 Q 96.9 50.4 96.9 51.55 96.9 52.7 96.5 53.4 Z"></path>
</g><g id="gloss-right">
<path fill="url(#Gradient_2)" stroke="none" d=" M 99.15 55 Q 100 53.5 100 51.55 100 49.6 99.15 48.1 L 77.55 10.45 Q 76.7 9 75 8.05 73.3 7 71.6 7 L 28.35 7 Q 26.75 7 25.1 7.95 L 26.65 10.6 Q 27.6 10.1 28.35 10.1 L 71.6 10.1 Q 72.45 10.1 73.5 10.65 74.45 11.25 74.9 12 L 96.5 49.65 Q 96.9 50.4 96.9 51.55 96.9 52.7 96.5 53.4 L 74.9 91.1 Q 74.65 91.5 74.05 92 L 75.65 94.7 Q 76.9 93.7 77.55 92.65 L 99.15 55 Z"></path>
</g><g id="gloss-left">
<path fill="url(#Gradient_3)" stroke="none" d=" M 75.75 13.5 L 77.6 10.55 77.55 10.45 Q 76.7 9 75 8.05 73.3 7 71.6 7 L 28.35 7 Q 26.7 7 25 8.05 23.3 9 22.45 10.45 L 0.8 48.1 Q 0 49.6 0 51.55 0 53.5 0.8 55 L 22.45 92.65 Q 23.2 93.95 24.55 94.85 L 26.2 92.25 Q 25.45 91.65 25.1 91.1 L 3.5 53.4 Q 3.05 52.7 3.05 51.55 3.05 50.4 3.5 49.65 L 25.1 12 Q 25.5 11.25 26.5 10.65 27.5 10.1 28.35 10.1 L 71.6 10.1 Q 72.45 10.1 73.5 10.65 74.45 11.25 74.9 12 L 75.75 13.5 Z"></path>
</g>
			
	<linearGradient id="background-gradient" x1="0" y1="0" y2="1" x2="0" gradientTransform="rotate(90 0.5 0.5)">
		<stop stop-color="#255f18" offset="0%"></stop>
		<stop stop-color="#1d5c0f" offset="100%"></stop>
	</linearGradient>

			
			
			
			
		<linearGradient class="shapgradient" gradientTransform="rotate(0 0.5 0.5)" id="SvgjsLinearGradient1114"><stop stop-color="#3c592e" offset="0"></stop><stop stop-color="#9db21d" offset="1"></stop></linearGradient></defs><use xlink:href="#background" fill="url(#background-gradient)" class="background"></use><g class="geditable"><g mask="url(#mask)" fill="url(#SvgjsLinearGradient1114)" class="editable" transform="matrix(0.9,0,0,0.9,5,3.0000005722045913)"><path d="M18.605 59.16429153952002A0.75 0.75 0 0 0 19.355 58.41429153952002V58.22329153952002H60.644999999999996V58.41429153952002A0.75 0.75 0 0 0 62.144999999999996 58.41429153952002V57.47329153952002A0.75 0.75 0 0 0 61.394999999999996 56.72329153952002H59.507V54.85029153952002A0.75 0.75 0 0 0 58.757 54.10029153952002H58.657V35.501291539520025A0.75 0.75 0 0 0 57.157 35.501291539520025V54.10129153952003H56.311V35.501291539520025A0.75 0.75 0 0 0 54.811 35.501291539520025V54.10129153952003H54.711A0.75 0.75 0 0 0 53.961 54.85129153952003V56.724291539520024H52.861V54.85029153952002A0.75 0.75 0 0 0 52.111 54.10029153952002H52.010999999999996V35.501291539520025A0.75 0.75 0 1 0 50.510999999999996 35.501291539520025V54.10129153952003H49.666V35.501291539520025A0.75 0.75 0 0 0 48.166 35.501291539520025V54.10129153952003H48.065999999999995A0.75 0.75 0 0 0 47.315999999999995 54.85129153952003V56.724291539520024H46.155V54.85029153952002A0.75 0.75 0 0 0 45.405 54.10029153952002H45.305V35.501291539520025A0.75 0.75 0 0 0 43.805 35.501291539520025V54.10129153952003H42.96V35.501291539520025A0.75 0.75 0 1 0 41.46 35.501291539520025V54.10129153952003H41.36A0.75 0.75 0 0 0 40.61 54.85129153952003V56.724291539520024H39.449V54.85029153952002A0.75 0.75 0 0 0 38.699 54.10029153952002H38.599000000000004V35.501291539520025A0.75 0.75 0 1 0 37.099000000000004 35.501291539520025V54.10129153952003H36.253V35.501291539520025A0.75 0.75 0 0 0 34.753 35.501291539520025V54.10129153952003H34.653A0.75 0.75 0 0 0 33.903 54.85129153952003V56.724291539520024H32.742999999999995V54.85029153952002A0.75 0.75 0 0 0 31.993 54.10029153952002H31.893V35.501291539520025A0.75 0.75 0 0 0 30.393 35.501291539520025V54.10129153952003H29.546999999999997V35.501291539520025A0.75 0.75 0 0 0 28.046999999999997 35.501291539520025V54.10129153952003H27.947A0.75 0.75 0 0 0 27.197 54.85129153952003V56.724291539520024H26.038V54.85029153952002A0.75 0.75 0 0 0 25.288 54.10029153952002H25.188000000000002V35.501291539520025A0.75 0.75 0 0 0 23.688000000000002 35.501291539520025V54.10129153952003H22.842V35.501291539520025A0.75 0.75 0 0 0 21.342 35.501291539520025V54.10129153952003H21.242A0.75 0.75 0 0 0 20.492 54.85129153952003V56.724291539520024H18.605A0.75 0.75 0 0 0 17.855 57.474291539520024V58.41529153952003A0.75 0.75 0 0 0 18.605 59.16429153952002ZM55.462 55.60129153952003H58.007000000000005V56.724291539520024H55.462ZM48.816 55.60129153952003H51.361000000000004V56.724291539520024H48.816ZM42.11 55.60129153952003H44.655V56.724291539520024H42.11ZM35.404 55.60129153952003H37.949000000000005V56.724291539520024H35.4ZM28.704000000000004 55.60129153952003H31.248000000000005V56.724291539520024H28.7ZM21.998000000000005 55.60129153952003H24.538V56.724291539520024H21.993000000000002Z " transform="matrix(1.25,0,0,1.25,0,0.0010760911973193288)"></path><path d="M63.25 59.61229153952002H16.75A0.75 0.75 0 0 0 16 60.36229153952002V63.251291539520025A0.75 0.75 0 0 0 17.5 63.251291539520025V61.11229153952002H62.5V63.251291539520025A0.75 0.75 0 0 0 64 63.251291539520025V60.36229153952002A0.75 0.75 0 0 0 63.25 59.61229153952002Z " transform="matrix(1.25,0,0,1.25,0,0.0010760911973193288)"></path><path d="M18.605 30.131292447093877H20.493000000000002V33.46029244709388A0.75 0.75 0 0 0 21.243000000000002 34.21029244709388H58.757A0.75 0.75 0 0 0 59.507 33.46029244709388V30.131292447093877H61.4A0.75 0.75 0 0 0 61.781 28.731292447093875L40.381 16.101292447093876A0.748 0.748 0 0 0 39.619 16.101292447093876L18.224 28.735292447093876A0.75 0.75 0 0 0 18.605 30.135292447093875ZM40 17.622292447093873L58.649 28.631292447093877H25.288A0.75 0.75 0 0 0 25.288 30.131292447093877H58.007V32.71029244709388H21.993000000000002V30.131292447093877H23.265A0.75 0.75 0 1 0 23.265 28.631292447093877H21.351Z " transform="matrix(1.25,0,0,1.25,0,0.0010760911973193288)"></path><path d="M40 26.764291539520023A2.953 2.953 0 1 0 37.04 23.812291539520025A2.96 2.96 0 0 0 40 26.764291539520023ZM40 22.364291539520025A1.453 1.453 0 1 1 38.54 23.817291539520024A1.458 1.458 0 0 1 40 22.359291539520026Z " transform="matrix(1.25,0,0,1.25,0,0.0010760911973193288)"></path></g></g><use xlink:href="#gloss-top" opacity="1" class="background"></use></g></svg>