<svg xmlns="http://www.w3.org/2000/svg" version="1.1" xmlns:xlink="http://www.w3.org/1999/xlink" xmlns:svgjs="http://svgjs.com/svgjs" width="83" height="83" viewBox="0 0 100 100"><g class="wrap" transform="matrix(1,0,0,1,0,0)"><defs class="background">
			<linearGradient id="Gradient_1" gradientUnits="userSpaceOnUse" x1="50" y1="7" x2="50" y2="55.2625" spreadMethod="pad">
<stop offset="0%" stop-color="#FFFFFF" stop-opacity="0.1"></stop>

<stop offset="100%" stop-color="#FFFFFF" stop-opacity="0.7"></stop>
</linearGradient><linearGradient id="Gradient_2" gradientUnits="userSpaceOnUse" x1="100" y1="51" x2="25" y2="50.85" spreadMethod="pad">
<stop offset="0%" stop-color="#FFFFFF" stop-opacity="0.1"></stop>

<stop offset="100%" stop-color="#FFFFFF" stop-opacity="0.7"></stop>
</linearGradient><linearGradient id="Gradient_3" gradientUnits="userSpaceOnUse" x1="0" y1="51" x2="77" y2="51" spreadMethod="pad">
<stop offset="0%" stop-color="#FFFFFF" stop-opacity="0.1"></stop>

<stop offset="100%" stop-color="#FFFFFF" stop-opacity="0.7"></stop>
</linearGradient><g id="background">
<path fill="url(#background-gradient)" stroke="none" d=" M 99.15 55 Q 100 53.5 100 51.55 100 49.6 99.15 48.1 L 77.55 10.45 Q 76.7 9 75 8.05 73.3 7 71.6 7 L 28.35 7 Q 26.7 7 25 8.05 23.3 9 22.45 10.45 L 0.8 48.1 Q 0 49.6 0 51.55 0 53.5 0.8 55 L 22.45 92.65 Q 23.3 94.1 25 95.1 26.7 96.05 28.35 96.05 L 71.6 96.05 Q 73.3 96.05 75 95.05 76.7 94.1 77.55 92.65 L 99.15 55 M 96.5 49.65 Q 96.9 50.4 96.9 51.55 96.9 52.7 96.5 53.4 L 74.9 91.1 Q 74.45 91.85 73.5 92.45 72.45 93 71.6 93 L 28.35 93 Q 27.5 93 26.5 92.45 25.5 91.85 25.1 91.1 L 3.5 53.4 Q 3.05 52.7 3.05 51.55 3.05 50.4 3.5 49.65 L 25.1 12 Q 25.5 11.25 26.5 10.65 27.5 10.1 28.35 10.1 L 71.6 10.1 Q 72.45 10.1 73.5 10.65 74.45 11.25 74.9 12 L 96.5 49.65 Z"></path>
</g><mask id="mask">
<path fill="#FFFFFF" stroke="none" d=" M 96.9 51.55 Q 96.9 50.4 96.5 49.65 L 74.9 12 Q 74.45 11.25 73.5 10.65 72.45 10.1 71.6 10.1 L 28.35 10.1 Q 27.5 10.1 26.5 10.65 25.5 11.25 25.1 12 L 3.5 49.65 Q 3.05 50.4 3.05 51.55 3.05 52.7 3.5 53.4 L 25.1 91.1 Q 25.5 91.85 26.5 92.45 27.5 93 28.35 93 L 71.6 93 Q 72.45 93 73.5 92.45 74.45 91.85 74.9 91.1 L 96.5 53.4 Q 96.9 52.7 96.9 51.55 Z"></path>
</mask><g id="gloss-top">
<path fill="url(#Gradient_1)" stroke="none" d=" M 96.5 53.4 L 95.45 55.25 Q 98 52.85 99.9 50.3 99.7 49 99.15 48.1 L 77.55 10.45 Q 76.7 9 75 8.05 73.3 7 71.6 7 L 28.35 7 Q 26.7 7 25 8.05 23.3 9 22.45 10.45 L 0.8 48.1 Q 0.3 49.05 0.1 50.3 1.95 52.85 4.55 55.25 L 3.5 53.4 Q 3.05 52.7 3.05 51.55 3.05 50.4 3.5 49.65 L 25.1 12 Q 25.5 11.25 26.5 10.65 27.5 10.1 28.35 10.1 L 71.6 10.1 Q 72.45 10.1 73.5 10.65 74.45 11.25 74.9 12 L 96.5 49.65 Q 96.9 50.4 96.9 51.55 96.9 52.7 96.5 53.4 Z"></path>
</g><g id="gloss-right">
<path fill="url(#Gradient_2)" stroke="none" d=" M 99.15 55 Q 100 53.5 100 51.55 100 49.6 99.15 48.1 L 77.55 10.45 Q 76.7 9 75 8.05 73.3 7 71.6 7 L 28.35 7 Q 26.75 7 25.1 7.95 L 26.65 10.6 Q 27.6 10.1 28.35 10.1 L 71.6 10.1 Q 72.45 10.1 73.5 10.65 74.45 11.25 74.9 12 L 96.5 49.65 Q 96.9 50.4 96.9 51.55 96.9 52.7 96.5 53.4 L 74.9 91.1 Q 74.65 91.5 74.05 92 L 75.65 94.7 Q 76.9 93.7 77.55 92.65 L 99.15 55 Z"></path>
</g><g id="gloss-left">
<path fill="url(#Gradient_3)" stroke="none" d=" M 75.75 13.5 L 77.6 10.55 77.55 10.45 Q 76.7 9 75 8.05 73.3 7 71.6 7 L 28.35 7 Q 26.7 7 25 8.05 23.3 9 22.45 10.45 L 0.8 48.1 Q 0 49.6 0 51.55 0 53.5 0.8 55 L 22.45 92.65 Q 23.2 93.95 24.55 94.85 L 26.2 92.25 Q 25.45 91.65 25.1 91.1 L 3.5 53.4 Q 3.05 52.7 3.05 51.55 3.05 50.4 3.5 49.65 L 25.1 12 Q 25.5 11.25 26.5 10.65 27.5 10.1 28.35 10.1 L 71.6 10.1 Q 72.45 10.1 73.5 10.65 74.45 11.25 74.9 12 L 75.75 13.5 Z"></path>
</g>
			
	<linearGradient id="background-gradient" x1="0" y1="0" y2="1" x2="0" gradientTransform="rotate(90 0.5 0.5)">
		<stop stop-color="#255f18" offset="0%"></stop>
		<stop stop-color="#1d5c0f" offset="100%"></stop>
	</linearGradient>

			
			
			
			
		<linearGradient class="shapgradient" gradientTransform="rotate(0 0.5 0.5)" id="SvgjsLinearGradient1026"><stop stop-color="#3c592e" offset="0"></stop><stop stop-color="#9db21d" offset="1"></stop></linearGradient></defs><use xlink:href="#background" fill="url(#background-gradient)" class="background"></use><g class="geditable"><g mask="url(#mask)" fill="url(#SvgjsLinearGradient1026)" class="editable" transform="matrix(0.9,0,0,0.9,5,5)"><g transform="matrix(0.1171875,0,0,0.1171875,-0.0000033676624298095703,-0.0000033676624298095703)"><path d="M561.7626954040566 441.6666954040566H595.1976954040566C601.3906954040566 459.1386954040566 618.0746954040567 471.6906954040566 637.6426954040567 471.6906954040566C662.4686954040567 471.6906954040566 682.6666954040566 451.49269540405663 682.6666954040566 426.6666954040566S662.4686954040567 381.6426954040566 637.6426954040567 381.6426954040566C618.0746954040567 381.6426954040566 601.3916954040567 394.1946954040566 595.1976954040566 411.6666954040566H561.7626954040566V321.5706954040566H595.1976954040566C601.3906954040566 339.04269540405664 618.0746954040567 351.5936954040566 637.6426954040567 351.5936954040566C662.4686954040567 351.5936954040566 682.6666954040566 331.3966954040566 682.6666954040566 306.5706954040566S662.4686954040567 261.5466954040566 637.6426954040567 261.5466954040566C618.0746954040567 261.5466954040566 601.3916954040567 274.09869540405657 595.1976954040566 291.5706954040566H561.7626954040566V258.1356954040566C579.2346954040565 251.94269540405662 591.7866954040567 235.25869540405662 591.7866954040567 215.6906954040566C591.7866954040567 190.86469540405662 571.5886954040566 170.6666954040566 546.7626954040566 170.6666954040566S501.7396954040566 190.86469540405662 501.7396954040566 215.6906954040566C501.7396954040566 235.25869540405662 514.2916954040566 251.94169540405662 531.7626954040566 258.1356954040566V291.5706954040566H441.6666954040566V258.1356954040566C459.1386954040566 251.94269540405662 471.6906954040566 235.25869540405662 471.6906954040566 215.6906954040566C471.6906954040566 190.86469540405662 451.49269540405663 170.6666954040566 426.6666954040566 170.6666954040566S381.6426954040566 190.86469540405662 381.6426954040566 215.6906954040566C381.6426954040566 235.25869540405662 394.1946954040566 251.94169540405662 411.6666954040566 258.1356954040566V291.5706954040566H321.5706954040566V258.1356954040566C339.04269540405664 251.94269540405662 351.5946954040566 235.25869540405662 351.5946954040566 215.6906954040566C351.5946954040566 190.86469540405662 331.3966954040566 170.6666954040566 306.5706954040566 170.6666954040566S261.5466954040566 190.86469540405662 261.5466954040566 215.6906954040566C261.5466954040566 235.25869540405662 274.09869540405657 251.94169540405662 291.5706954040566 258.1356954040566V291.5706954040566H258.1356954040566C251.94269540405662 274.09869540405657 235.2586954040566 261.5466954040566 215.6906954040566 261.5466954040566C190.8646954040566 261.5466954040566 170.6666954040566 281.74469540405664 170.6666954040566 306.5706954040566S190.8646954040566 351.5936954040566 215.6906954040566 351.5936954040566C235.2586954040566 351.5936954040566 251.94269540405662 339.0416954040566 258.1356954040566 321.5706954040566H291.5706954040566V411.6666954040566H258.1356954040566C251.94269540405662 394.1946954040566 235.2586954040566 381.6426954040566 215.6906954040566 381.6426954040566C190.8646954040566 381.6426954040566 170.6666954040566 401.84069540405665 170.6666954040566 426.6666954040566S190.8646954040566 471.6906954040566 215.6906954040566 471.6906954040566C235.2586954040566 471.6906954040566 251.94269540405662 459.1386954040566 258.1356954040566 441.6666954040566H291.5706954040566V531.7626954040566H258.1356954040566C251.94269540405662 514.2906954040566 235.2586954040566 501.7396954040566 215.6906954040566 501.7396954040566C190.8646954040566 501.7386954040566 170.6666954040566 521.9366954040565 170.6666954040566 546.7626954040566S190.8646954040566 591.7866954040567 215.6906954040566 591.7866954040567C235.2586954040566 591.7866954040567 251.94269540405662 579.2346954040565 258.1356954040566 561.7626954040566H291.5706954040566V595.1976954040566C274.09869540405657 601.3906954040566 261.5466954040566 618.0746954040567 261.5466954040566 637.6426954040567C261.5466954040566 662.4686954040567 281.74469540405664 682.6666954040566 306.5706954040566 682.6666954040566C331.3976954040566 682.6666954040566 351.5946954040566 662.4686954040567 351.5946954040566 637.6426954040567C351.5946954040566 618.0746954040567 339.04269540405664 601.3906954040566 321.5706954040566 595.1976954040566V561.7626954040566H411.6666954040566V595.1976954040566C394.1946954040566 601.3906954040566 381.6426954040566 618.0746954040567 381.6426954040566 637.6426954040567C381.6426954040566 662.4686954040567 401.84069540405665 682.6666954040566 426.6666954040566 682.6666954040566S471.6906954040566 662.4686954040567 471.6906954040566 637.6426954040567C471.6906954040566 618.0746954040567 459.1386954040566 601.3916954040567 441.6666954040566 595.1976954040566V561.7626954040566H531.7626954040566V595.1976954040566C514.2906954040566 601.3906954040566 501.7396954040566 618.0746954040567 501.7396954040566 637.6426954040567C501.7396954040566 662.4686954040567 521.9366954040565 682.6666954040566 546.7626954040566 682.6666954040566S591.7866954040567 662.4686954040567 591.7866954040567 637.6426954040567C591.7866954040567 618.0746954040567 579.2346954040565 601.3916954040567 561.7626954040566 595.1976954040566V561.7626954040566H595.1976954040566C601.3906954040566 579.2346954040565 618.0746954040567 591.7866954040567 637.6426954040567 591.7866954040567C662.4686954040567 591.7866954040567 682.6666954040566 571.5886954040566 682.6666954040566 546.7626954040566S662.4686954040567 501.7396954040566 637.6426954040567 501.7396954040566C618.0746954040567 501.7396954040566 601.3916954040567 514.2916954040566 595.1976954040566 531.7626954040566H561.7626954040566ZM321.5696954040566 531.7626954040566V321.5706954040566H531.7626954040566V531.7616954040566H321.5696954040566Z "></path><path d="M351.56969921875384 351.5706992187539H501.7626992187539V501.7616992187539H351.56969921875384Z "></path></g></g></g><use xlink:href="#gloss-top" opacity="1" class="background"></use></g></svg>