<svg xmlns="http://www.w3.org/2000/svg" version="1.1" xmlns:xlink="http://www.w3.org/1999/xlink" xmlns:svgjs="http://svgjs.com/svgjs" width="83" height="83" viewBox="0 0 100 100"><g class="wrap" transform="matrix(1,0,0,1,0,0)"><defs class="background">
			<linearGradient id="Gradient_1" gradientUnits="userSpaceOnUse" x1="50" y1="7" x2="50" y2="55.2625" spreadMethod="pad">
<stop offset="0%" stop-color="#FFFFFF" stop-opacity="0.1"></stop>

<stop offset="100%" stop-color="#FFFFFF" stop-opacity="0.7"></stop>
</linearGradient><linearGradient id="Gradient_2" gradientUnits="userSpaceOnUse" x1="100" y1="51" x2="25" y2="50.85" spreadMethod="pad">
<stop offset="0%" stop-color="#FFFFFF" stop-opacity="0.1"></stop>

<stop offset="100%" stop-color="#FFFFFF" stop-opacity="0.7"></stop>
</linearGradient><linearGradient id="Gradient_3" gradientUnits="userSpaceOnUse" x1="0" y1="51" x2="77" y2="51" spreadMethod="pad">
<stop offset="0%" stop-color="#FFFFFF" stop-opacity="0.1"></stop>

<stop offset="100%" stop-color="#FFFFFF" stop-opacity="0.7"></stop>
</linearGradient><g id="background">
<path fill="url(#background-gradient)" stroke="none" d=" M 99.15 55 Q 100 53.5 100 51.55 100 49.6 99.15 48.1 L 77.55 10.45 Q 76.7 9 75 8.05 73.3 7 71.6 7 L 28.35 7 Q 26.7 7 25 8.05 23.3 9 22.45 10.45 L 0.8 48.1 Q 0 49.6 0 51.55 0 53.5 0.8 55 L 22.45 92.65 Q 23.3 94.1 25 95.1 26.7 96.05 28.35 96.05 L 71.6 96.05 Q 73.3 96.05 75 95.05 76.7 94.1 77.55 92.65 L 99.15 55 M 96.5 49.65 Q 96.9 50.4 96.9 51.55 96.9 52.7 96.5 53.4 L 74.9 91.1 Q 74.45 91.85 73.5 92.45 72.45 93 71.6 93 L 28.35 93 Q 27.5 93 26.5 92.45 25.5 91.85 25.1 91.1 L 3.5 53.4 Q 3.05 52.7 3.05 51.55 3.05 50.4 3.5 49.65 L 25.1 12 Q 25.5 11.25 26.5 10.65 27.5 10.1 28.35 10.1 L 71.6 10.1 Q 72.45 10.1 73.5 10.65 74.45 11.25 74.9 12 L 96.5 49.65 Z"></path>
</g><mask id="mask">
<path fill="#FFFFFF" stroke="none" d=" M 96.9 51.55 Q 96.9 50.4 96.5 49.65 L 74.9 12 Q 74.45 11.25 73.5 10.65 72.45 10.1 71.6 10.1 L 28.35 10.1 Q 27.5 10.1 26.5 10.65 25.5 11.25 25.1 12 L 3.5 49.65 Q 3.05 50.4 3.05 51.55 3.05 52.7 3.5 53.4 L 25.1 91.1 Q 25.5 91.85 26.5 92.45 27.5 93 28.35 93 L 71.6 93 Q 72.45 93 73.5 92.45 74.45 91.85 74.9 91.1 L 96.5 53.4 Q 96.9 52.7 96.9 51.55 Z"></path>
</mask><g id="gloss-top">
<path fill="url(#Gradient_1)" stroke="none" d=" M 96.5 53.4 L 95.45 55.25 Q 98 52.85 99.9 50.3 99.7 49 99.15 48.1 L 77.55 10.45 Q 76.7 9 75 8.05 73.3 7 71.6 7 L 28.35 7 Q 26.7 7 25 8.05 23.3 9 22.45 10.45 L 0.8 48.1 Q 0.3 49.05 0.1 50.3 1.95 52.85 4.55 55.25 L 3.5 53.4 Q 3.05 52.7 3.05 51.55 3.05 50.4 3.5 49.65 L 25.1 12 Q 25.5 11.25 26.5 10.65 27.5 10.1 28.35 10.1 L 71.6 10.1 Q 72.45 10.1 73.5 10.65 74.45 11.25 74.9 12 L 96.5 49.65 Q 96.9 50.4 96.9 51.55 96.9 52.7 96.5 53.4 Z"></path>
</g><g id="gloss-right">
<path fill="url(#Gradient_2)" stroke="none" d=" M 99.15 55 Q 100 53.5 100 51.55 100 49.6 99.15 48.1 L 77.55 10.45 Q 76.7 9 75 8.05 73.3 7 71.6 7 L 28.35 7 Q 26.75 7 25.1 7.95 L 26.65 10.6 Q 27.6 10.1 28.35 10.1 L 71.6 10.1 Q 72.45 10.1 73.5 10.65 74.45 11.25 74.9 12 L 96.5 49.65 Q 96.9 50.4 96.9 51.55 96.9 52.7 96.5 53.4 L 74.9 91.1 Q 74.65 91.5 74.05 92 L 75.65 94.7 Q 76.9 93.7 77.55 92.65 L 99.15 55 Z"></path>
</g><g id="gloss-left">
<path fill="url(#Gradient_3)" stroke="none" d=" M 75.75 13.5 L 77.6 10.55 77.55 10.45 Q 76.7 9 75 8.05 73.3 7 71.6 7 L 28.35 7 Q 26.7 7 25 8.05 23.3 9 22.45 10.45 L 0.8 48.1 Q 0 49.6 0 51.55 0 53.5 0.8 55 L 22.45 92.65 Q 23.2 93.95 24.55 94.85 L 26.2 92.25 Q 25.45 91.65 25.1 91.1 L 3.5 53.4 Q 3.05 52.7 3.05 51.55 3.05 50.4 3.5 49.65 L 25.1 12 Q 25.5 11.25 26.5 10.65 27.5 10.1 28.35 10.1 L 71.6 10.1 Q 72.45 10.1 73.5 10.65 74.45 11.25 74.9 12 L 75.75 13.5 Z"></path>
</g>
			
	<linearGradient id="background-gradient" x1="0" y1="0" y2="1" x2="0" gradientTransform="rotate(90 0.5 0.5)">
		<stop stop-color="#255f18" offset="0%"></stop>
		<stop stop-color="#1d5c0f" offset="100%"></stop>
	</linearGradient>

			
			
			
			
		<linearGradient class="shapgradient" gradientTransform="rotate(0 0.5 0.5)" id="SvgjsLinearGradient1087"><stop stop-color="#3c592e" offset="0"></stop><stop stop-color="#9db21d" offset="1"></stop></linearGradient></defs><use xlink:href="#background" fill="url(#background-gradient)" class="background"></use><g class="geditable"><g mask="url(#mask)" fill="url(#SvgjsLinearGradient1087)" class="editable" transform="matrix(0.9,0,0,0.9,5,3.0000005722045913)"><g transform="matrix(0.11973394567710445,0,0,0.11973394567710444,4.792168194898984,0.00010955307015336787)">
	<g>
		<path d="M620.2085361109271 282.8840396864L408.2505361109271 169.31303968639997C389.0385361109271 159.01803968639996 366.0995361109271 159.01903968639996 346.8885361109271 169.31303968639997L134.9295361109271 282.8840396864C130.0555361109271 285.4950396864 127.0135361109271 290.5760396864 127.0135361109271 296.1060396864V375.78503968639995C127.0135361109271 381.05903968639996 129.78353611092712 385.9460396864 134.3085361109271 388.65503968639996C138.8345361109271 391.3640396864 144.4525361109271 391.4970396864 149.0965361109271 389.0070396864L361.05653611092714 275.4350396864C371.3965361109271 269.8940396864 383.74053611092717 269.8940396864 394.0815361109271 275.4350396864L606.0405361109271 389.0070396864C608.2565361109271 390.1950396864 610.6915361109271 390.78503968639995 613.1245361109271 390.78503968639995C615.7945361109271 390.78503968639995 618.4615361109271 390.07303968639997 620.829536110927 388.65503968639996C625.354536110927 385.9460396864 628.1245361109271 381.05903968639996 628.1245361109271 375.78503968639995V296.1060396864C628.1245361109271 290.5770396864 625.0825361109271 285.49603968639997 620.2085361109271 282.8840396864ZM598.1255361109271 350.7310396864L408.2505361109271 248.99203968639998C389.0385361109271 238.6970396864 366.0995361109271 238.69803968639997 346.8885361109271 248.99203968639998L157.0135361109271 350.7310396864V305.0870396864L361.0575361109271 195.75603968639996C371.3975361109271 190.21503968639996 383.74153611092714 190.21503968639996 394.0825361109271 195.75603968639996L598.1255361109271 305.0870396864V350.7310396864Z "></path>
	</g>
</g><g transform="matrix(0.11973394567710445,0,0,0.11973394567710444,4.792168194898984,0.00010955307015336787)">
	<g>
		<path d="M620.2085361109271 424.2890244276109L408.2495361109271 310.71602442761093C389.03953611092714 300.42202442761095 366.0995361109271 300.42202442761095 346.88853611092713 310.71602442761093L134.9295361109271 424.2890244276109C130.0555361109271 426.9000244276109 127.0135361109271 431.9810244276109 127.0135361109271 437.5100244276109V517.1890244276109C127.0135361109271 522.4630244276109 129.78353611092712 527.350024427611 134.3085361109271 530.0590244276109C138.8345361109271 532.768024427611 144.4525361109271 532.9010244276109 149.0965361109271 530.4110244276109L361.05653611092714 416.83902442761087C371.3965361109271 411.2980244276109 383.74053611092717 411.2980244276109 394.0815361109271 416.83902442761087L606.0405361109271 530.4100244276109C608.2565361109271 531.5980244276109 610.6915361109271 532.1880244276109 613.1245361109271 532.1880244276109C615.7945361109271 532.1880244276109 618.4615361109271 531.4760244276109 620.829536110927 530.0580244276109C625.354536110927 527.349024427611 628.1245361109271 522.4620244276109 628.1245361109271 517.1880244276109V437.50902442761094C628.1245361109271 431.9810244276109 625.0825361109271 426.9000244276109 620.2085361109271 424.2890244276109ZM598.1255361109271 492.1350244276109L408.2505361109271 390.3950244276109C398.6435361109271 385.24702442761094 388.10753611092713 382.6740244276109 377.5685361109271 382.6740244276109C367.0315361109271 382.6740244276109 356.4925361109271 385.24802442761097 346.8875361109271 390.3950244276109L157.0135361109271 492.1350244276109V446.4910244276109L361.05653611092714 337.1600244276109C371.39753611092715 331.62002442761093 383.7425361109271 331.62002442761093 394.08253611092715 337.1600244276109L598.1255361109271 446.4910244276109V492.1350244276109Z "></path>
	</g>
</g><g transform="matrix(0.11973394567710445,0,0,0.11973394567710444,4.792168194898984,0.00010955307015336787)">
	<g>
		<path d="M620.2085361109271 565.6920396864001L408.2505361109271 452.1200396864001C389.0385361109271 441.8250396864001 366.0995361109271 441.8260396864001 346.8885361109271 452.1200396864001L134.9295361109271 565.6920396864001C130.0555361109271 568.3030396864001 127.0135361109271 573.3840396864001 127.0135361109271 578.9130396864001V658.5920396864001C127.0135361109271 666.8760396864001 133.7295361109271 673.5910396864001 142.0125361109271 673.5910396864001H613.1245361109271C621.4085361109271 673.5910396864001 628.1235361109271 666.8750396864001 628.1235361109271 658.5920396864001V578.9130396864001C628.1245361109271 573.3850396864001 625.0825361109271 568.3040396864001 620.2085361109271 565.6920396864001ZM598.1255361109271 643.5930396864001H157.0135361109271V587.8930396864L361.0575361109271 478.5620396864001C371.3975361109271 473.0210396864001 383.74153611092714 473.0210396864001 394.0825361109271 478.5620396864001L598.1255361109271 587.8930396864001V643.5930396864001Z "></path>
	</g>
</g><g transform="matrix(0.11973394567710445,0,0,0.11973394567710444,4.792168194898984,0.00010955307015336787)">
	<g>
		<path d="M424.89553611092714 554.534009168822C422.88753611092716 548.354009168822 417.12753611092717 544.169009168822 410.6295361109271 544.169009168822H396.2715361109271L391.8335361109271 530.512009168822C389.8265361109271 524.332009168822 384.0675361109271 520.148009168822 377.5695361109271 520.148009168822C371.0715361109271 520.148009168822 365.31153611092714 524.3320091688221 363.30453611092713 530.512009168822L358.86653611092714 544.169009168822H344.50853611092714C338.01053611092715 544.169009168822 332.2505361109271 548.354009168822 330.24353611092715 554.534009168822C328.23453611092714 560.714009168822 330.4345361109272 567.485009168822 335.69253611092716 571.304009168822L347.3095361109272 579.745009168822L342.8715361109272 593.4010091688219C340.8625361109272 599.581009168822 343.06253611092717 606.352009168822 348.3195361109272 610.1710091688219C353.5765361109272 613.990009168822 360.6965361109272 613.990009168822 365.9525361109272 610.1710091688219L377.5705361109272 601.731009168822C377.5705361109272 601.731009168822 389.1865361109272 610.1700091688219 389.1885361109272 610.1710091688219C394.3345361109272 613.909009168822 401.6425361109272 613.934009168822 406.8215361109272 610.1710091688219C412.0785361109272 606.351009168822 414.2785361109272 599.581009168822 412.26953611092716 593.4010091688219L407.8315361109272 579.745009168822L419.4485361109272 571.304009168822C424.7045361109271 567.485009168822 426.9045361109271 560.715009168822 424.89553611092714 554.534009168822Z "></path>
	</g>
</g><g transform="matrix(0.11973394567710445,0,0,0.11973394567710444,4.792168194898984,0.00010955307015336787)">
</g><g transform="matrix(0.11973394567710445,0,0,0.11973394567710444,4.792168194898984,0.00010955307015336787)">
</g><g transform="matrix(0.11973394567710445,0,0,0.11973394567710444,4.792168194898984,0.00010955307015336787)">
</g><g transform="matrix(0.11973394567710445,0,0,0.11973394567710444,4.792168194898984,0.00010955307015336787)">
</g><g transform="matrix(0.11973394567710445,0,0,0.11973394567710444,4.792168194898984,0.00010955307015336787)">
</g><g transform="matrix(0.11973394567710445,0,0,0.11973394567710444,4.792168194898984,0.00010955307015336787)">
</g><g transform="matrix(0.11973394567710445,0,0,0.11973394567710444,4.792168194898984,0.00010955307015336787)">
</g><g transform="matrix(0.11973394567710445,0,0,0.11973394567710444,4.792168194898984,0.00010955307015336787)">
</g><g transform="matrix(0.11973394567710445,0,0,0.11973394567710444,4.792168194898984,0.00010955307015336787)">
</g><g transform="matrix(0.11973394567710445,0,0,0.11973394567710444,4.792168194898984,0.00010955307015336787)">
</g><g transform="matrix(0.11973394567710445,0,0,0.11973394567710444,4.792168194898984,0.00010955307015336787)">
</g><g transform="matrix(0.11973394567710445,0,0,0.11973394567710444,4.792168194898984,0.00010955307015336787)">
</g><g transform="matrix(0.11973394567710445,0,0,0.11973394567710444,4.792168194898984,0.00010955307015336787)">
</g><g transform="matrix(0.11973394567710445,0,0,0.11973394567710444,4.792168194898984,0.00010955307015336787)">
</g><g transform="matrix(0.11973394567710445,0,0,0.11973394567710444,4.792168194898984,0.00010955307015336787)">
</g></g></g><use xlink:href="#gloss-top" opacity="1" class="background"></use></g></svg>