<svg xmlns="http://www.w3.org/2000/svg" version="1.1" xmlns:xlink="http://www.w3.org/1999/xlink" xmlns:svgjs="http://svgjs.com/svgjs" width="83" height="83" viewBox="0 0 100 100"><g class="wrap" transform="matrix(1,0,0,1,0,0)"><defs class="background">
			<linearGradient id="Gradient_1" gradientUnits="userSpaceOnUse" x1="50" y1="7" x2="50" y2="55.2625" spreadMethod="pad">
<stop offset="0%" stop-color="#FFFFFF" stop-opacity="0.1"></stop>

<stop offset="100%" stop-color="#FFFFFF" stop-opacity="0.7"></stop>
</linearGradient><linearGradient id="Gradient_2" gradientUnits="userSpaceOnUse" x1="100" y1="51" x2="25" y2="50.85" spreadMethod="pad">
<stop offset="0%" stop-color="#FFFFFF" stop-opacity="0.1"></stop>

<stop offset="100%" stop-color="#FFFFFF" stop-opacity="0.7"></stop>
</linearGradient><linearGradient id="Gradient_3" gradientUnits="userSpaceOnUse" x1="0" y1="51" x2="77" y2="51" spreadMethod="pad">
<stop offset="0%" stop-color="#FFFFFF" stop-opacity="0.1"></stop>

<stop offset="100%" stop-color="#FFFFFF" stop-opacity="0.7"></stop>
</linearGradient><g id="background">
<path fill="url(#background-gradient)" stroke="none" d=" M 99.15 55 Q 100 53.5 100 51.55 100 49.6 99.15 48.1 L 77.55 10.45 Q 76.7 9 75 8.05 73.3 7 71.6 7 L 28.35 7 Q 26.7 7 25 8.05 23.3 9 22.45 10.45 L 0.8 48.1 Q 0 49.6 0 51.55 0 53.5 0.8 55 L 22.45 92.65 Q 23.3 94.1 25 95.1 26.7 96.05 28.35 96.05 L 71.6 96.05 Q 73.3 96.05 75 95.05 76.7 94.1 77.55 92.65 L 99.15 55 M 96.5 49.65 Q 96.9 50.4 96.9 51.55 96.9 52.7 96.5 53.4 L 74.9 91.1 Q 74.45 91.85 73.5 92.45 72.45 93 71.6 93 L 28.35 93 Q 27.5 93 26.5 92.45 25.5 91.85 25.1 91.1 L 3.5 53.4 Q 3.05 52.7 3.05 51.55 3.05 50.4 3.5 49.65 L 25.1 12 Q 25.5 11.25 26.5 10.65 27.5 10.1 28.35 10.1 L 71.6 10.1 Q 72.45 10.1 73.5 10.65 74.45 11.25 74.9 12 L 96.5 49.65 Z"></path>
</g><mask id="mask">
<path fill="#FFFFFF" stroke="none" d=" M 96.9 51.55 Q 96.9 50.4 96.5 49.65 L 74.9 12 Q 74.45 11.25 73.5 10.65 72.45 10.1 71.6 10.1 L 28.35 10.1 Q 27.5 10.1 26.5 10.65 25.5 11.25 25.1 12 L 3.5 49.65 Q 3.05 50.4 3.05 51.55 3.05 52.7 3.5 53.4 L 25.1 91.1 Q 25.5 91.85 26.5 92.45 27.5 93 28.35 93 L 71.6 93 Q 72.45 93 73.5 92.45 74.45 91.85 74.9 91.1 L 96.5 53.4 Q 96.9 52.7 96.9 51.55 Z"></path>
</mask><g id="gloss-top">
<path fill="url(#Gradient_1)" stroke="none" d=" M 96.5 53.4 L 95.45 55.25 Q 98 52.85 99.9 50.3 99.7 49 99.15 48.1 L 77.55 10.45 Q 76.7 9 75 8.05 73.3 7 71.6 7 L 28.35 7 Q 26.7 7 25 8.05 23.3 9 22.45 10.45 L 0.8 48.1 Q 0.3 49.05 0.1 50.3 1.95 52.85 4.55 55.25 L 3.5 53.4 Q 3.05 52.7 3.05 51.55 3.05 50.4 3.5 49.65 L 25.1 12 Q 25.5 11.25 26.5 10.65 27.5 10.1 28.35 10.1 L 71.6 10.1 Q 72.45 10.1 73.5 10.65 74.45 11.25 74.9 12 L 96.5 49.65 Q 96.9 50.4 96.9 51.55 96.9 52.7 96.5 53.4 Z"></path>
</g><g id="gloss-right">
<path fill="url(#Gradient_2)" stroke="none" d=" M 99.15 55 Q 100 53.5 100 51.55 100 49.6 99.15 48.1 L 77.55 10.45 Q 76.7 9 75 8.05 73.3 7 71.6 7 L 28.35 7 Q 26.75 7 25.1 7.95 L 26.65 10.6 Q 27.6 10.1 28.35 10.1 L 71.6 10.1 Q 72.45 10.1 73.5 10.65 74.45 11.25 74.9 12 L 96.5 49.65 Q 96.9 50.4 96.9 51.55 96.9 52.7 96.5 53.4 L 74.9 91.1 Q 74.65 91.5 74.05 92 L 75.65 94.7 Q 76.9 93.7 77.55 92.65 L 99.15 55 Z"></path>
</g><g id="gloss-left">
<path fill="url(#Gradient_3)" stroke="none" d=" M 75.75 13.5 L 77.6 10.55 77.55 10.45 Q 76.7 9 75 8.05 73.3 7 71.6 7 L 28.35 7 Q 26.7 7 25 8.05 23.3 9 22.45 10.45 L 0.8 48.1 Q 0 49.6 0 51.55 0 53.5 0.8 55 L 22.45 92.65 Q 23.2 93.95 24.55 94.85 L 26.2 92.25 Q 25.45 91.65 25.1 91.1 L 3.5 53.4 Q 3.05 52.7 3.05 51.55 3.05 50.4 3.5 49.65 L 25.1 12 Q 25.5 11.25 26.5 10.65 27.5 10.1 28.35 10.1 L 71.6 10.1 Q 72.45 10.1 73.5 10.65 74.45 11.25 74.9 12 L 75.75 13.5 Z"></path>
</g>
			
	<linearGradient id="background-gradient" x1="0" y1="0" y2="1" x2="0" gradientTransform="rotate(90 0.5 0.5)">
		<stop stop-color="#255f18" offset="0%"></stop>
		<stop stop-color="#1d5c0f" offset="100%"></stop>
	</linearGradient>

			
			
			
			
		<linearGradient class="shapgradient" gradientTransform="rotate(0 0.5 0.5)" id="SvgjsLinearGradient1072"><stop stop-color="#3c592e" offset="0"></stop><stop stop-color="#9db21d" offset="1"></stop></linearGradient></defs><use xlink:href="#background" fill="url(#background-gradient)" class="background"></use><g class="geditable"><g mask="url(#mask)" fill="url(#SvgjsLinearGradient1072)" class="editable" transform="matrix(0.9,0,0,0.9,5.000000190734859,4.999999809265134)"><path d="M408.8954449938362 515.0648138074395C416.95013199383624 538.5765328074395 425.0829449938362 543.6663758074395 426.6649759938362 543.6663758074395S436.3798199938362 538.5765328074395 444.43450699383624 515.0648138074395C451.25872599383626 495.1468448074395 455.46966399383626 469.4905948074395 456.5868509938362 441.6624698074395H396.7431009938362C397.8602879938362 469.4905948074395 402.0712259938362 495.1468448074395 408.8954449938362 515.0648138074395ZM408.8954449938362 515.0648138074395 " transform="matrix(0.11718758381909167,0,0,0.11718758381909167,0.00016396304898379506,-0.0006458018293254548)"></path><path d="M426.6649759938362 309.6624698074395C425.0829449938362 309.6624698074395 416.95013199383624 314.75231380743946 408.8954449938362 338.26012580743947C402.0712259938362 358.18200080743947 397.8602879938362 383.8343448074395 396.7431009938362 411.6624698074395H456.5868509938362C455.4696639938362 383.8343448074395 451.2587259938362 358.1780948074395 444.43450699383624 338.26012580743947C436.37981999383624 314.75231380743946 428.24700699383624 309.6624698074395 426.6649759938362 309.6624698074395ZM426.6649759938362 309.6624698074395 " transform="matrix(0.11718758381909167,0,0,0.11718758381909167,0.00016396304898379506,-0.0006458018293254548)"></path><path d="M486.6102879938362 411.6624698074395H558.8173199938362C552.4891949938362 355.54137580743947 511.0985699938362 309.88512580743947 457.1337259938362 297.18981380743946C462.6727879938362 304.48668880743946 468.04388199383624 314.6155948074395 472.8134139938362 328.5374698074395C480.6493509938362 351.4046568074395 485.4423199938362 380.49450080743947 486.6102879938362 411.6624698074395ZM486.6102879938362 411.6624698074395 " transform="matrix(0.11718758381909167,0,0,0.11718758381909167,0.00016396304898379506,-0.0006458018293254548)"></path><path d="M558.8173199938362 441.6624698074395H486.61028799383627C485.4423199938363 472.8343448074395 480.64935099383626 501.92028280743943 472.81341399383626 524.7913758074395C468.04388199383624 538.7093448074395 462.67278799383627 548.8382508074395 457.13372599383626 556.1390328074395C511.0985699938363 543.4398138074396 552.4891949938362 497.7835638074396 558.8173199938362 441.6624698074395ZM558.8173199938362 441.6624698074395 " transform="matrix(0.11718758381909167,0,0,0.11718758381909167,0.00016396304898379506,-0.0006458018293254548)"></path><path d="M366.7196639938362 441.6624698074395H294.51263199383624C300.84075699383624 497.78356380743946 342.23138199383624 543.4398138074395 396.1962259938362 556.1390328074394C390.6571639938362 548.8382508074394 385.2860699938362 538.7093448074395 380.5165379938362 524.7913758074394C372.6806009938362 501.92028280743943 367.88763199383624 472.8343448074395 366.7196639938362 441.66246980743944ZM366.7196639938362 441.6624698074395 " transform="matrix(0.11718758381909167,0,0,0.11718758381909167,0.00016396304898379506,-0.0006458018293254548)"></path><path d="M294.51263199383624 411.6624698074395H366.7196639938362C367.88763199383624 380.49450080743947 372.6806009938362 351.4046568074395 380.5165379938362 328.5374698074395C385.2860699938362 314.6155948074395 390.6571639938362 304.48668880743946 396.1962259938362 297.18981380743946C342.23138199383624 309.88512580743947 300.84075699383624 355.54137580743947 294.51263199383624 411.6624698074395ZM294.51263199383624 411.6624698074395 " transform="matrix(0.11718758381909167,0,0,0.11718758381909167,0.00016396304898379506,-0.0006458018293254548)"></path><path d="M582.9579449938361 314.2445007478349C584.5712259938362 314.80309474783485 586.2313819938362 315.0726257478349 587.8759139938362 315.0726257478349C592.0868509938363 315.0726257478349 596.1962259938363 313.29528274783485 599.0946639938362 310.0335637478348C615.3407569938362 291.7366887478348 619.6806009938363 266.34996974783485 610.7079449938362 242.13121974783485C602.1493509938363 219.04137574783485 582.4032569938362 200.17418874783485 557.8798199938362 191.66246974783485C552.1415379938362 189.67418874783485 545.7743509938363 191.33434474783485 541.7431009938363 195.87731374783485C525.5009139938362 214.17418874783485 521.1571639938362 239.55700074783485 530.1337259938363 263.7757507478349C538.6884139938362 286.86559474783485 558.4345069938363 305.73278274783485 582.9579449938362 314.2445007478349ZM582.9579449938361 314.2445007478349 " transform="matrix(0.11718758381909167,0,0,0.11718758381909167,0.00016396304898379506,-0.0006458018293254548)"></path><path d="M586.5946639938362 362.21325080743947C582.4579449938361 386.48668880743946 590.1259139938362 412.7015328074395 607.1063819938362 432.3343448074395C610.0087259938362 435.68981380743946 614.1766949938361 437.5218448074395 618.4579449938361 437.5218448074395C620.0360699938361 437.5218448074395 621.633725993836 437.2718448074395 623.1884139938362 436.7562198074395C646.4071639938362 429.0296568074395 662.8563819938362 409.22106380743946 667.1923199938361 383.76012580743947C671.3290379938361 359.4827828074395 663.6610699938361 333.2718448074395 646.6766949938361 313.6390328074395C642.7079449938361 309.0452828074395 636.3602879938361 307.29918880743946 630.5985699938361 309.2171568074395C607.3798199938361 316.9437198074395 590.9306009938362 336.7562198074395 586.5946639938361 362.21325080743947ZM586.5946639938362 362.21325080743947 " transform="matrix(0.11718758381909167,0,0,0.11718758381909167,0.00016396304898379506,-0.0006458018293254548)"></path><path d="M681.0634139938362 461.83825080743935C679.9188819938362 455.87731380743935 675.2938819938362 451.18981380743935 669.3485699938361 449.97106380743935C645.3798199938361 445.0530948074394 621.2274759938362 453.9827828074394 604.7391949938361 473.8655948074394C589.0243509938362 492.8187198074394 582.5556009938362 519.3538758074394 587.4462259938362 544.8460638074394C588.5907569938362 550.8109068074393 593.2157569938362 555.4945008074394 599.1649759938362 556.7171568074393C603.5009139938362 557.6077828074393 607.8446639938362 558.0413758074394 612.1493509938362 558.0413758074394C631.6220069938362 558.0413758074394 650.2704449938361 549.1038758074394 663.7704449938361 532.8226258074394C679.4891949938361 513.8655948074394 685.9540379938361 487.33043880743935 681.0634139938361 461.83825080743935ZM681.0634139938362 461.83825080743935 " transform="matrix(0.11718758381909167,0,0,0.11718758381909167,0.00016396304898379506,-0.0006458018293254548)"></path><path d="M625.4306009938362 588.9554388074395C607.1337259938362 572.7132508074394 581.7509139938363 568.3695008074394 557.5360699938362 577.3460638074395C534.4423199938362 585.9007508074394 515.5751319938363 605.6507508074394 507.06341399383615 630.1741888074395C505.0751319938361 635.9085638074395 506.73528799383615 642.2796568074394 511.2782569938361 646.3109068074394C523.2938819938361 656.9788758074394 538.3641949938362 662.5101258074394 554.1571639938361 662.5101258074394C562.4110699938362 662.5101258074394 570.8641949938362 660.9984068074394 579.1766949938362 657.9202828074394C602.2665379938362 649.3616888074396 621.1337259938362 629.6155948074395 629.6454449938362 605.0921568074396C631.6337259938362 599.3577828074394 629.9735699938362 592.9866888074396 625.4306009938362 588.9554388074396ZM625.4306009938362 588.9554388074395 " transform="matrix(0.11718758381909167,0,0,0.11718758381909167,0.00016396304898379506,-0.0006458018293254548)"></path><path d="M265.4540379938362 315.0726258074395C267.09856999383624 315.0726258074395 268.75872599383626 314.8030948074395 270.3720069938363 314.2445008074395C294.8915379938362 305.7327828074395 314.6415379938362 286.8655948074395 323.19622599383626 263.7718448074395C332.1727879938362 239.5570008074395 327.8290379938362 214.1741888074395 311.58685099383626 195.8773138074395C307.5595069938363 191.3382508074395 301.1884139938362 189.6741888074395 295.4501319938363 191.6624698074395C270.92669499383624 200.1741888074395 251.18060099383624 219.0413758074395 242.62200699383624 242.1351258074395C233.64935099383624 266.3538758074395 237.98919499383624 291.73668880743946 254.23528799383624 310.03356380743946C257.13372599383626 313.2952828074395 261.24310099383626 315.0726258074395 265.4540379938362 315.0726258074395ZM265.4540379938362 315.0726258074395 " transform="matrix(0.11718758381909167,0,0,0.11718758381909167,0.00016396304898379506,-0.0006458018293254548)"></path><path d="M230.14154180853353 436.7562198074395C231.69622980853353 437.2718448074395 233.28997980853353 437.52575080743947 234.87201080853353 437.52575080743947C239.15326080853353 437.52575080743947 243.32122980853353 435.68981380743946 246.22357380853353 432.33825080743947C263.2040418085336 412.7015328074395 270.87201080853356 386.4905948074395 266.7352918085336 362.2171568074395C262.39935480853353 336.7562198074395 245.95013580853353 316.9437198074395 222.73529180853353 309.2171568074395C216.96966780853353 307.3030948074395 210.62591780853353 309.0452828074395 206.65326080853353 313.6390328074395C189.67279180853353 333.2718448074395 182.00091780853353 359.48668880743946 186.13763580853353 383.76012580743947C190.47357380853353 409.22106380743946 206.92279180853353 429.03356380743946 230.14154180853353 436.7562198074395ZM230.14154180853353 436.7562198074395 " transform="matrix(0.11718758381909167,0,0,0.11718758381909167,0.00016396304898379506,-0.0006458018293254548)"></path><path d="M254.16888247067342 556.7132508074394C260.1141954706734 555.4945008074394 264.7391954706734 550.8109068074393 265.8837264706734 544.8460638074394C270.7743514706734 519.3538758074394 264.3056014706734 492.8187198074394 248.59075747067342 473.86168880743935C232.10247647067342 453.9827828074393 207.94622647067342 445.04918880743935 183.98138247067342 449.97106380743935C178.03607047067342 451.18981380743935 173.41107047067342 455.8734068074393 172.26653847067342 461.83825080743935C167.37591447067342 487.33043880743935 173.84075747067342 513.8655948074394 189.55950747067342 532.8187198074394C203.06341447067342 549.1038758074394 221.70794547067342 558.0413758074394 241.18060147067342 558.0413758074394C245.48528847067342 558.0413758074394 249.82903847067342 557.6077828074394 254.16888247067342 556.7132508074394ZM254.16888247067342 556.7132508074394 " transform="matrix(0.11718758381909167,0,0,0.11718758381909167,0.00016396304898379506,-0.0006458018293254548)"></path><path d="M295.7977879938363 577.3460638074395C271.5790379938363 568.3695008074394 246.19622599383626 572.7093448074395 227.89935099383626 588.9554388074395C223.35638199383627 592.9866888074395 221.69622599383626 599.3538758074394 223.68450699383627 605.0921568074394C232.19622599383626 629.6155948074395 251.06341399383626 649.3616888074394 274.1532569938363 657.9163758074394C282.4657569938363 660.9984068074394 290.9188819938363 662.5101258074394 299.1727879938363 662.5101258074394C314.96185099383626 662.5101258074394 330.03606999383624 656.9749698074395 342.05169499383624 646.3070008074394C346.5946639938363 642.2796568074394 348.25481999383624 635.9085638074395 346.2665379938363 630.1741888074395C337.75481999383624 605.6468448074395 318.8876319938363 585.9007508074394 295.7977879938363 577.3460638074395ZM295.7977879938363 577.3460638074395 " transform="matrix(0.11718758381909167,0,0,0.11718758381909167,0.00016396304898379506,-0.0006458018293254548)"></path></g></g><use xlink:href="#gloss-top" opacity="1" class="background"></use></g></svg>