<svg xmlns="http://www.w3.org/2000/svg" version="1.1" xmlns:xlink="http://www.w3.org/1999/xlink" xmlns:svgjs="http://svgjs.com/svgjs" width="83" height="83" viewBox="0 0 100 100"><g class="wrap" transform="matrix(1,0,0,1,0,0)"><defs class="background">
			<linearGradient id="Gradient_1" gradientUnits="userSpaceOnUse" x1="50" y1="7" x2="50" y2="55.2625" spreadMethod="pad">
<stop offset="0%" stop-color="#FFFFFF" stop-opacity="0.1"></stop>

<stop offset="100%" stop-color="#FFFFFF" stop-opacity="0.7"></stop>
</linearGradient><linearGradient id="Gradient_2" gradientUnits="userSpaceOnUse" x1="100" y1="51" x2="25" y2="50.85" spreadMethod="pad">
<stop offset="0%" stop-color="#FFFFFF" stop-opacity="0.1"></stop>

<stop offset="100%" stop-color="#FFFFFF" stop-opacity="0.7"></stop>
</linearGradient><linearGradient id="Gradient_3" gradientUnits="userSpaceOnUse" x1="0" y1="51" x2="77" y2="51" spreadMethod="pad">
<stop offset="0%" stop-color="#FFFFFF" stop-opacity="0.1"></stop>

<stop offset="100%" stop-color="#FFFFFF" stop-opacity="0.7"></stop>
</linearGradient><g id="background">
<path fill="url(#background-gradient)" stroke="none" d=" M 99.15 55 Q 100 53.5 100 51.55 100 49.6 99.15 48.1 L 77.55 10.45 Q 76.7 9 75 8.05 73.3 7 71.6 7 L 28.35 7 Q 26.7 7 25 8.05 23.3 9 22.45 10.45 L 0.8 48.1 Q 0 49.6 0 51.55 0 53.5 0.8 55 L 22.45 92.65 Q 23.3 94.1 25 95.1 26.7 96.05 28.35 96.05 L 71.6 96.05 Q 73.3 96.05 75 95.05 76.7 94.1 77.55 92.65 L 99.15 55 M 96.5 49.65 Q 96.9 50.4 96.9 51.55 96.9 52.7 96.5 53.4 L 74.9 91.1 Q 74.45 91.85 73.5 92.45 72.45 93 71.6 93 L 28.35 93 Q 27.5 93 26.5 92.45 25.5 91.85 25.1 91.1 L 3.5 53.4 Q 3.05 52.7 3.05 51.55 3.05 50.4 3.5 49.65 L 25.1 12 Q 25.5 11.25 26.5 10.65 27.5 10.1 28.35 10.1 L 71.6 10.1 Q 72.45 10.1 73.5 10.65 74.45 11.25 74.9 12 L 96.5 49.65 Z"></path>
</g><mask id="mask">
<path fill="#FFFFFF" stroke="none" d=" M 96.9 51.55 Q 96.9 50.4 96.5 49.65 L 74.9 12 Q 74.45 11.25 73.5 10.65 72.45 10.1 71.6 10.1 L 28.35 10.1 Q 27.5 10.1 26.5 10.65 25.5 11.25 25.1 12 L 3.5 49.65 Q 3.05 50.4 3.05 51.55 3.05 52.7 3.5 53.4 L 25.1 91.1 Q 25.5 91.85 26.5 92.45 27.5 93 28.35 93 L 71.6 93 Q 72.45 93 73.5 92.45 74.45 91.85 74.9 91.1 L 96.5 53.4 Q 96.9 52.7 96.9 51.55 Z"></path>
</mask><g id="gloss-top">
<path fill="url(#Gradient_1)" stroke="none" d=" M 96.5 53.4 L 95.45 55.25 Q 98 52.85 99.9 50.3 99.7 49 99.15 48.1 L 77.55 10.45 Q 76.7 9 75 8.05 73.3 7 71.6 7 L 28.35 7 Q 26.7 7 25 8.05 23.3 9 22.45 10.45 L 0.8 48.1 Q 0.3 49.05 0.1 50.3 1.95 52.85 4.55 55.25 L 3.5 53.4 Q 3.05 52.7 3.05 51.55 3.05 50.4 3.5 49.65 L 25.1 12 Q 25.5 11.25 26.5 10.65 27.5 10.1 28.35 10.1 L 71.6 10.1 Q 72.45 10.1 73.5 10.65 74.45 11.25 74.9 12 L 96.5 49.65 Q 96.9 50.4 96.9 51.55 96.9 52.7 96.5 53.4 Z"></path>
</g><g id="gloss-right">
<path fill="url(#Gradient_2)" stroke="none" d=" M 99.15 55 Q 100 53.5 100 51.55 100 49.6 99.15 48.1 L 77.55 10.45 Q 76.7 9 75 8.05 73.3 7 71.6 7 L 28.35 7 Q 26.75 7 25.1 7.95 L 26.65 10.6 Q 27.6 10.1 28.35 10.1 L 71.6 10.1 Q 72.45 10.1 73.5 10.65 74.45 11.25 74.9 12 L 96.5 49.65 Q 96.9 50.4 96.9 51.55 96.9 52.7 96.5 53.4 L 74.9 91.1 Q 74.65 91.5 74.05 92 L 75.65 94.7 Q 76.9 93.7 77.55 92.65 L 99.15 55 Z"></path>
</g><g id="gloss-left">
<path fill="url(#Gradient_3)" stroke="none" d=" M 75.75 13.5 L 77.6 10.55 77.55 10.45 Q 76.7 9 75 8.05 73.3 7 71.6 7 L 28.35 7 Q 26.7 7 25 8.05 23.3 9 22.45 10.45 L 0.8 48.1 Q 0 49.6 0 51.55 0 53.5 0.8 55 L 22.45 92.65 Q 23.2 93.95 24.55 94.85 L 26.2 92.25 Q 25.45 91.65 25.1 91.1 L 3.5 53.4 Q 3.05 52.7 3.05 51.55 3.05 50.4 3.5 49.65 L 25.1 12 Q 25.5 11.25 26.5 10.65 27.5 10.1 28.35 10.1 L 71.6 10.1 Q 72.45 10.1 73.5 10.65 74.45 11.25 74.9 12 L 75.75 13.5 Z"></path>
</g>
			
	<linearGradient id="background-gradient" x1="0" y1="0" y2="1" x2="0" gradientTransform="rotate(90 0.5 0.5)">
		<stop stop-color="#255f18" offset="0%"></stop>
		<stop stop-color="#1d5c0f" offset="100%"></stop>
	</linearGradient>

			
			
			
			
		<linearGradient class="shapgradient" gradientTransform="rotate(0 0.5 0.5)" id="SvgjsLinearGradient1031"><stop stop-color="#3c592e" offset="0"></stop><stop stop-color="#9db21d" offset="1"></stop></linearGradient></defs><use xlink:href="#background" fill="url(#background-gradient)" class="background"></use><g class="geditable"><g mask="url(#mask)" fill="url(#SvgjsLinearGradient1031)" class="editable" transform="matrix(0.9,0,0,0.9,6.999999809265134,5.000000381469725)"><g transform="matrix(0.12500677145444739,0,0,0.12500677145444739,0.011348636539668574,0)">
	<g>
		<g>
			<path d="M439.90056358985635 223.97831796578828H263.90056358985635C259.4845635898563 223.97831796578828 255.9005635898563 227.56231796578828 255.9005635898563 231.97831796578828V375.9783179657883C255.9005635898563 380.3943179657883 259.4845635898563 383.9783179657883 263.90056358985635 383.9783179657883H439.90056358985635C444.3165635898563 383.9783179657883 447.90056358985635 380.3943179657883 447.90056358985635 375.9783179657883V231.97831796578828C447.90056358985635 227.56231796578828 444.3165635898563 223.97831796578828 439.90056358985635 223.97831796578828ZM431.90056358985635 367.9783179657883H271.90056358985635V239.97831796578828H431.90056358985635V367.9783179657883Z "></path>
			<path d="M637.2925335584285 419.81831796578825C634.7485335584286 390.01031796578826 628.7805335584286 362.45831796578824 619.5645335584286 337.89831796578824C614.4285335584285 324.2503179657882 607.3565335584285 312.0583179657882 600.4925335584286 300.28231796578825C598.1725335584285 296.3003179657883 595.9055335584286 292.39531796578825 593.7505335584285 288.51231796578827C596.2845335584285 285.85931796578825 599.3115335584286 282.7933179657882 601.6925335584285 280.37831796578826C609.8525335584286 272.1223179657882 614.9885335584286 266.8583179657883 617.7565335584286 262.93831796578826C619.4205335584286 260.55431796578824 622.5565335584286 256.1223179657882 623.5965335584285 249.77031796578825C624.8445335584286 241.89831796578824 622.1725335584285 235.21031796578825 620.7165335584285 231.59431796578826C618.6845335584286 226.55431796578824 616.0605335584286 220.49031796578825 613.4205335584286 214.42631796578826C612.4415335584285 212.17431796578825 611.4625335584285 209.92231796578824 610.5175335584286 207.72431796578826L630.1245335584285 188.10631796578826C636.3805335584285 181.85031796578826 636.3805335584285 171.73831796578827 630.1245335584285 165.48231796578824C623.8685335584286 159.22631796578827 613.7565335584286 159.22631796578827 607.5005335584285 165.48231796578824L578.3965335584286 194.58631796578825C576.5405335584286 196.45831796578824 574.5725335584285 198.28231796578825 572.5885335584286 200.12231796578826C565.2125335584286 207.00231796578825 556.8445335584286 214.81031796578827 551.4205335584286 225.57831796578824C541.8205335584286 244.65031796578825 548.7805335584286 264.52231796578826 552.9565335584285 276.4103179657883C558.0605335584286 290.97031796578824 565.5805335584286 303.86631796578826 572.8445335584286 316.3463179657883C579.3085335584285 327.4663179657883 585.4365335584286 337.9783179657883 589.6125335584285 349.11431796578825C597.8045335584285 370.92231796578824 603.1165335584285 395.6263179657883 605.4365335584286 422.5063179657883C609.2445335584285 466.9863179657883 608.6525335584286 503.64231796578827 603.6445335584285 534.6183179657883C602.5565335584286 541.4343179657883 600.9565335584285 549.0663179657882 597.3085335584285 554.1863179657882C592.5725335584285 560.8583179657883 582.0125335584286 561.4023179657883 575.1485335584285 557.6743179657883C564.4925335584285 551.9143179657883 568.7805335584285 537.2263179657882 574.2845335584285 525.9143179657883C582.9725335584285 507.9783179657883 603.3085335584285 465.9783179657883 561.6445335584285 439.80231796578823C547.3735335584286 430.8393179657882 528.7675335584286 428.46831796578823 511.9005335584285 429.51031796578826V223.97831796578828C511.9005335584285 188.6823179657883 483.19653355842854 159.97831796578828 447.9005335584285 159.97831796578828H255.9005335584285C220.6045335584285 159.97831796578828 191.9005335584285 188.6823179657883 191.9005335584285 223.97831796578828V607.9783179657883H175.9005335584285C167.05253355842848 607.9783179657883 159.9005335584285 615.1463179657883 159.9005335584285 623.9783179657883C159.9005335584285 632.8103179657883 167.05253355842848 639.9783179657883 175.9005335584285 639.9783179657883H527.9005335584285C536.7485335584286 639.9783179657883 543.9005335584285 632.8103179657883 543.9005335584285 623.9783179657883C543.9005335584285 615.1463179657883 536.7485335584286 607.9783179657883 527.9005335584285 607.9783179657883H511.9005335584285V461.5723179657883C523.7925335584285 460.54831796578827 536.4855335584285 461.77431796578827 544.6045335584286 466.89031796578826C556.6365335584285 474.45831796578824 559.6285335584286 482.74631796578825 545.4845335584286 511.96231796578826C529.8205335584286 544.2343179657883 535.3565335584285 572.5543179657882 559.9165335584286 585.8343179657883C567.6125335584286 589.9943179657882 576.0445335584285 591.9783179657883 584.3485335584286 591.9783179657883C599.6605335584286 591.9783179657883 614.5245335584285 585.1783179657882 623.3725335584286 572.7623179657883C630.8125335584285 562.2823179657883 633.5485335584285 550.1863179657882 635.2125335584285 539.7543179657882C640.6365335584286 506.1703179657883 641.3245335584286 466.93831796578826 637.2925335584285 419.81831796578825ZM591.0205335584286 243.51431796578828C591.1485335584285 243.88231796578827 591.3085335584286 244.25031796578827 591.4685335584286 244.61831796578826C589.9455335584286 246.64931796578827 584.4295335584286 252.2783179657883 580.1685335584285 256.6033179657883C578.3925335584286 250.10431796578828 577.7855335584286 244.4103179657883 580.0125335584286 239.97831796578828C581.4275335584285 237.1483179657883 583.5385335584285 234.42531796578828 586.0385335584285 231.71931796578826C587.8575335584286 235.92431796578828 589.5955335584287 239.99331796578826 591.0205335584286 243.51431796578828ZM223.90053355842858 607.9783179657883V223.97831796578828C223.90053355842858 206.33031796578828 238.25253355842858 191.97831796578828 255.90053355842858 191.97831796578828H447.9005335584286C465.54853355842863 191.97831796578828 479.9005335584286 206.33031796578828 479.9005335584286 223.97831796578828V447.9863179657883C479.9015335584286 448.1253179657883 479.8965335584286 448.26431796578834 479.9005335584286 448.4043179657883V607.9783179657883H223.90053355842858Z "></path>
		</g>
	</g>
</g><g transform="matrix(0.12500677145444739,0,0,0.12500677145444739,0.011348636539668574,0)">
</g><g transform="matrix(0.12500677145444739,0,0,0.12500677145444739,0.011348636539668574,0)">
</g><g transform="matrix(0.12500677145444739,0,0,0.12500677145444739,0.011348636539668574,0)">
</g><g transform="matrix(0.12500677145444739,0,0,0.12500677145444739,0.011348636539668574,0)">
</g><g transform="matrix(0.12500677145444739,0,0,0.12500677145444739,0.011348636539668574,0)">
</g><g transform="matrix(0.12500677145444739,0,0,0.12500677145444739,0.011348636539668574,0)">
</g><g transform="matrix(0.12500677145444739,0,0,0.12500677145444739,0.011348636539668574,0)">
</g><g transform="matrix(0.12500677145444739,0,0,0.12500677145444739,0.011348636539668574,0)">
</g><g transform="matrix(0.12500677145444739,0,0,0.12500677145444739,0.011348636539668574,0)">
</g><g transform="matrix(0.12500677145444739,0,0,0.12500677145444739,0.011348636539668574,0)">
</g><g transform="matrix(0.12500677145444739,0,0,0.12500677145444739,0.011348636539668574,0)">
</g><g transform="matrix(0.12500677145444739,0,0,0.12500677145444739,0.011348636539668574,0)">
</g><g transform="matrix(0.12500677145444739,0,0,0.12500677145444739,0.011348636539668574,0)">
</g><g transform="matrix(0.12500677145444739,0,0,0.12500677145444739,0.011348636539668574,0)">
</g><g transform="matrix(0.12500677145444739,0,0,0.12500677145444739,0.011348636539668574,0)">
</g></g></g><use xlink:href="#gloss-top" opacity="1" class="background"></use></g></svg>