<svg xmlns="http://www.w3.org/2000/svg" version="1.1" xmlns:xlink="http://www.w3.org/1999/xlink" xmlns:svgjs="http://svgjs.com/svgjs" width="83" height="83" viewBox="0 0 100 100"><g class="wrap" transform="matrix(1,0,0,1,0,0)"><defs class="background">
			<linearGradient id="Gradient_1" gradientUnits="userSpaceOnUse" x1="50" y1="7" x2="50" y2="55.2625" spreadMethod="pad">
<stop offset="0%" stop-color="#FFFFFF" stop-opacity="0.1"></stop>

<stop offset="100%" stop-color="#FFFFFF" stop-opacity="0.7"></stop>
</linearGradient><linearGradient id="Gradient_2" gradientUnits="userSpaceOnUse" x1="100" y1="51" x2="25" y2="50.85" spreadMethod="pad">
<stop offset="0%" stop-color="#FFFFFF" stop-opacity="0.1"></stop>

<stop offset="100%" stop-color="#FFFFFF" stop-opacity="0.7"></stop>
</linearGradient><linearGradient id="Gradient_3" gradientUnits="userSpaceOnUse" x1="0" y1="51" x2="77" y2="51" spreadMethod="pad">
<stop offset="0%" stop-color="#FFFFFF" stop-opacity="0.1"></stop>

<stop offset="100%" stop-color="#FFFFFF" stop-opacity="0.7"></stop>
</linearGradient><g id="background">
<path fill="url(#background-gradient)" stroke="none" d=" M 99.15 55 Q 100 53.5 100 51.55 100 49.6 99.15 48.1 L 77.55 10.45 Q 76.7 9 75 8.05 73.3 7 71.6 7 L 28.35 7 Q 26.7 7 25 8.05 23.3 9 22.45 10.45 L 0.8 48.1 Q 0 49.6 0 51.55 0 53.5 0.8 55 L 22.45 92.65 Q 23.3 94.1 25 95.1 26.7 96.05 28.35 96.05 L 71.6 96.05 Q 73.3 96.05 75 95.05 76.7 94.1 77.55 92.65 L 99.15 55 M 96.5 49.65 Q 96.9 50.4 96.9 51.55 96.9 52.7 96.5 53.4 L 74.9 91.1 Q 74.45 91.85 73.5 92.45 72.45 93 71.6 93 L 28.35 93 Q 27.5 93 26.5 92.45 25.5 91.85 25.1 91.1 L 3.5 53.4 Q 3.05 52.7 3.05 51.55 3.05 50.4 3.5 49.65 L 25.1 12 Q 25.5 11.25 26.5 10.65 27.5 10.1 28.35 10.1 L 71.6 10.1 Q 72.45 10.1 73.5 10.65 74.45 11.25 74.9 12 L 96.5 49.65 Z"></path>
</g><mask id="mask">
<path fill="#FFFFFF" stroke="none" d=" M 96.9 51.55 Q 96.9 50.4 96.5 49.65 L 74.9 12 Q 74.45 11.25 73.5 10.65 72.45 10.1 71.6 10.1 L 28.35 10.1 Q 27.5 10.1 26.5 10.65 25.5 11.25 25.1 12 L 3.5 49.65 Q 3.05 50.4 3.05 51.55 3.05 52.7 3.5 53.4 L 25.1 91.1 Q 25.5 91.85 26.5 92.45 27.5 93 28.35 93 L 71.6 93 Q 72.45 93 73.5 92.45 74.45 91.85 74.9 91.1 L 96.5 53.4 Q 96.9 52.7 96.9 51.55 Z"></path>
</mask><g id="gloss-top">
<path fill="url(#Gradient_1)" stroke="none" d=" M 96.5 53.4 L 95.45 55.25 Q 98 52.85 99.9 50.3 99.7 49 99.15 48.1 L 77.55 10.45 Q 76.7 9 75 8.05 73.3 7 71.6 7 L 28.35 7 Q 26.7 7 25 8.05 23.3 9 22.45 10.45 L 0.8 48.1 Q 0.3 49.05 0.1 50.3 1.95 52.85 4.55 55.25 L 3.5 53.4 Q 3.05 52.7 3.05 51.55 3.05 50.4 3.5 49.65 L 25.1 12 Q 25.5 11.25 26.5 10.65 27.5 10.1 28.35 10.1 L 71.6 10.1 Q 72.45 10.1 73.5 10.65 74.45 11.25 74.9 12 L 96.5 49.65 Q 96.9 50.4 96.9 51.55 96.9 52.7 96.5 53.4 Z"></path>
</g><g id="gloss-right">
<path fill="url(#Gradient_2)" stroke="none" d=" M 99.15 55 Q 100 53.5 100 51.55 100 49.6 99.15 48.1 L 77.55 10.45 Q 76.7 9 75 8.05 73.3 7 71.6 7 L 28.35 7 Q 26.75 7 25.1 7.95 L 26.65 10.6 Q 27.6 10.1 28.35 10.1 L 71.6 10.1 Q 72.45 10.1 73.5 10.65 74.45 11.25 74.9 12 L 96.5 49.65 Q 96.9 50.4 96.9 51.55 96.9 52.7 96.5 53.4 L 74.9 91.1 Q 74.65 91.5 74.05 92 L 75.65 94.7 Q 76.9 93.7 77.55 92.65 L 99.15 55 Z"></path>
</g><g id="gloss-left">
<path fill="url(#Gradient_3)" stroke="none" d=" M 75.75 13.5 L 77.6 10.55 77.55 10.45 Q 76.7 9 75 8.05 73.3 7 71.6 7 L 28.35 7 Q 26.7 7 25 8.05 23.3 9 22.45 10.45 L 0.8 48.1 Q 0 49.6 0 51.55 0 53.5 0.8 55 L 22.45 92.65 Q 23.2 93.95 24.55 94.85 L 26.2 92.25 Q 25.45 91.65 25.1 91.1 L 3.5 53.4 Q 3.05 52.7 3.05 51.55 3.05 50.4 3.5 49.65 L 25.1 12 Q 25.5 11.25 26.5 10.65 27.5 10.1 28.35 10.1 L 71.6 10.1 Q 72.45 10.1 73.5 10.65 74.45 11.25 74.9 12 L 75.75 13.5 Z"></path>
</g>
			
	<linearGradient id="background-gradient" x1="0" y1="0" y2="1" x2="0" gradientTransform="rotate(90 0.5 0.5)">
		<stop stop-color="#255f18" offset="0%"></stop>
		<stop stop-color="#1d5c0f" offset="100%"></stop>
	</linearGradient>

			
			
			
			
		<linearGradient class="shapgradient" gradientTransform="rotate(0 0.5 0.5)" id="SvgjsLinearGradient1032"><stop stop-color="#3c592e" offset="0"></stop><stop stop-color="#9db21d" offset="1"></stop></linearGradient></defs><use xlink:href="#background" fill="url(#background-gradient)" class="background"></use><g class="geditable"><g mask="url(#mask)" fill="url(#SvgjsLinearGradient1032)" class="editable" transform="matrix(0.9,0,0,0.9,4.999999427795409,8.999999809265134)"><circle cx="399.1164138183594" cy="42.425380485773985" r="8.036" transform="matrix(0.1171875279396839,0,0,0.1171875279396839,0.0002273172068178991,52.296394540786466)"></circle><circle cx="454.2123916015625" cy="42.425380485773985" r="8.036" transform="matrix(0.1171875279396839,0,0,0.1171875279396839,0.0002273172068178991,52.296394540786466)"></circle><path d="M355.6724287114614 -38.73160486578851C359.8154287114614 -38.73160486578851 363.1724287114614 -42.089604865788516 363.1724287114614 -46.23160486578851C363.1724287114614 -60.1996048657885 351.80942871146135 -71.5626048657885 337.8414287114614 -71.5626048657885C333.69842871146136 -71.5626048657885 330.3414287114614 -68.2046048657885 330.3414287114614 -64.0626048657885S333.69842871146136 -56.5626048657885 337.8414287114614 -56.5626048657885C343.5374287114614 -56.5626048657885 348.1724287114614 -51.928604865788486 348.1724287114614 -46.23160486578851C348.1724287114614 -42.089604865788516 351.5294287114614 -38.73160486578851 355.6724287114614 -38.73160486578851Z " transform="matrix(0.1171875279396839,0,0,0.1171875279396839,0.0002273172068178991,52.296394540786466)"></path><path d="M522.9874287114613 -64.06260486578853C522.9874287114613 -68.20460486578853 519.6304287114613 -71.56260486578853 515.4874287114613 -71.56260486578853C501.51942871146133 -71.56260486578853 490.15642871146133 -60.19960486578853 490.15642871146133 -46.23160486578854C490.15642871146133 -42.089604865788544 493.51342871146136 -38.73160486578854 497.65642871146133 -38.73160486578854S505.15642871146133 -42.089604865788544 505.15642871146133 -46.23160486578854C505.15642871146133 -51.92860486578854 509.7914287114613 -56.56260486578853 515.4874287114613 -56.56260486578853C519.6304287114613 -56.56260486578853 522.9874287114613 -59.92060486578853 522.9874287114613 -64.06260486578853Z " transform="matrix(0.1171875279396839,0,0,0.1171875279396839,0.0002273172068178991,52.296394540786466)"></path><path d="M656.0934020085805 -216.18759723639397L627.4514020085805 -212.804597236394C611.8114020085804 -210.95659723639397 596.4604020085806 -205.60859723639396 583.0594020085805 -197.33859723639398C545.0494020085805 -173.88559723639398 509.8844020085805 -187.092597236394 503.8124020085805 -187.323597236394C483.1774020085805 -196.92859723639398 457.1824020085805 -202.506597236394 426.86340200858047 -203.30759723639397C426.7304020085805 -203.31059723639396 426.59940200858046 -203.31059723639396 426.4674020085805 -203.30759723639397C396.1484020085805 -202.506597236394 370.15240200858045 -196.929597236394 349.5184020085805 -187.323597236394C343.3474020085805 -187.08859723639398 308.4054020085805 -173.806597236394 270.2714020085805 -197.33859723639398C256.8704020085805 -205.60859723639396 241.5194020085805 -210.95659723639397 225.87940200858048 -212.804597236394L197.2374020085805 -216.18759723639397C180.7224020085805 -218.13959723639397 167.3504020085805 -202.92759723639398 171.3924020085805 -186.80259723639398L186.9484020085805 -124.76759723639398C189.9314020085805 -112.86659723639397 197.1744020085805 -102.532597236394 207.34340200858048 -95.669597236394L256.8194020085805 -62.272597236394006C262.4394020085805 -58.479597236394 268.9574020085805 -56.605597236394004 275.45940200858047 -56.60659723639401C289.3944020085805 -56.60659723639401 297.8034020085805 -65.24459723639401 298.43740200858053 -65.616597236394C297.6474020085805 -59.795597236394 296.0464020085805 -53.36459723639399 293.1694020085805 -46.008597236393996C289.5894020085805 -36.85259723639399 284.7824020085805 -26.887597236393987 280.13440200858054 -17.24959723639398C270.6464020085805 2.4234027636060205 261.6834020085805 21.004402763606038 261.6834020085805 34.890402763606005C261.6834020085805 68.83440276360602 282.29740200858055 98.59940276360601 321.29740200858055 120.967402763606C375.4794020085805 152.044402763606 382.9204020085805 177.16540276360598 426.66340200858053 177.16540276360598C470.4144020085805 177.16540276360598 477.8854020085805 152.02140276360598 532.0294020085805 120.967402763606C571.0294020085805 98.59940276360601 591.6434020085806 68.83440276360602 591.6434020085806 34.890402763606005C591.6434020085806 28.00440276360598 589.4864020085805 19.51440276360603 584.8554020085805 8.170402763605978C583.2904020085805 4.3364027636059745 578.9144020085805 2.4964027636059996 575.0774020085805 4.061402763605997C571.2424020085805 5.626402763605995 569.4034020085805 10.004402763605981 570.9694020085805 13.839402763606017C574.7874020085804 23.193402763606002 576.6444020085805 30.080402763606003 576.6444020085805 34.890402763606005C576.6444020085805 70.59340276360598 548.3244020085805 94.32940276360603 524.5674020085805 107.955402763606C468.6504020085805 140.02840276360598 463.97140200858047 162.16540276360598 426.66440200858045 162.16540276360598C389.36940200858044 162.16540276360598 384.58940200858046 139.97640276360596 328.76140200858043 107.95640276360598C285.71940200858046 83.26940276360597 276.68440200858043 54.597402763606 276.68440200858043 34.89140276360598C276.68440200858043 24.434402763605988 285.3074020085804 6.556402763606002 293.6464020085804 -10.732597236394042C298.41740200858044 -20.623597236394033 303.3514020085804 -30.852597236394047 307.1414020085804 -40.544597236394054C324.8294020085804 -85.78059723639404 301.32140200858043 -101.16259723639405 315.83540200858044 -135.62359723639406C316.0044020085804 -135.95059723639406 316.1494020085804 -136.29259723639407 316.2694020085804 -136.64659723639406C321.5114020085804 -148.47759723639405 330.5384020085804 -158.54959723639405 343.29040200858043 -166.74959723639407C363.78240200858045 -179.92859723639407 392.6104020085804 -187.38159723639407 426.6644020085804 -188.30659723639405C460.7174020085804 -187.38059723639407 489.5464020085804 -179.92859723639407 510.0394020085804 -166.75059723639407C531.5674020085804 -152.90659723639408 542.4834020085805 -133.73059723639406 542.4834020085805 -109.75559723639407C542.4834020085805 -92.63059723639407 533.1764020085805 -73.81959723639406 546.1874020085804 -40.544597236394054C549.2244020085805 -32.77959723639407 552.9954020085804 -24.69259723639405 556.2834020085804 -17.804597236394045C558.0684020085805 -14.06559723639407 562.5454020085804 -12.481597236394066 566.2834020085804 -14.267597236394067C570.0204020085805 -16.05159723639406 571.6044020085805 -20.528597236394063 569.8204020085805 -24.266597236394063C566.6474020085805 -30.910597236394068 563.0194020085804 -38.69059723639407 560.1584020085804 -46.00659723639407C557.2824020085804 -53.362597236394066 555.6814020085804 -59.79359723639408 554.8914020085804 -65.61459723639408C555.6984020085804 -65.14159723639406 563.6694020085804 -56.604597236394085 577.8694020085804 -56.604597236394085C584.3714020085804 -56.604597236394085 590.8904020085804 -58.47859723639408 596.5094020085804 -62.271597236394086L645.9854020085804 -95.66859723639408C656.1544020085804 -102.53259723639408 663.3974020085805 -112.86659723639409 666.3804020085804 -124.76659723639409L681.9364020085804 -186.8025972363941C685.9774020085804 -202.9215972363941 672.6224020085804 -218.1315972363941 656.0934020085804 -216.18759723639408ZM304.7164020085805 -147.111597236394C296.6984020085805 -148.270597236394 288.85640200858046 -150.783597236394 281.3474020085805 -154.653597236394C277.66240200858044 -156.55059723639403 273.14240200858046 -155.104597236394 271.24540200858047 -151.421597236394C269.3484020085805 -147.739597236394 270.7954020085805 -143.217597236394 274.47640200858046 -141.319597236394C282.36940200858044 -137.253597236394 290.58940200858046 -134.430597236394 299.0114020085805 -132.851597236394C293.0834020085805 -112.24359723639401 297.0934020085805 -97.510597236394 298.47740200858044 -85.13959723639402L287.2134020085805 -75.79359723639402C280.97540200858043 -70.61959723639401 271.92840200858046 -70.171597236394 265.2114020085805 -74.70559723639403L215.73540200858048 -108.10259723639402C208.63540200858046 -112.89359723639402 203.57940200858047 -120.10859723639402 201.49640200858047 -128.416597236394C185.24340200858046 -193.66859723639402 185.66040200858046 -190.51459723639402 185.67640200858045 -192.693597236394C197.94040200858046 -190.22359723639403 226.40740200858045 -182.693597236394 245.11140200858046 -163.523597236394C248.00040200858047 -160.561597236394 252.7494020085805 -160.49759723639403 255.71640200858047 -163.392597236394C258.68140200858045 -166.285597236394 258.73940200858044 -171.03359723639403 255.84740200858047 -173.99759723639403C244.5474020085805 -185.580597236394 230.52440200858047 -193.419597236394 217.71240200858048 -198.665597236394C221.04340200858047 -197.965597236394 240.6844020085805 -197.970597236394 262.39340200858044 -184.57459723639403C280.12840200858045 -173.630597236394 300.4134020085805 -168.088597236394 320.9534020085805 -168.36459723639402C314.24540200858047 -162.027597236394 308.80140200858045 -154.91859723639402 304.7164020085805 -147.111597236394ZM532.3764020085805 -168.363597236394C552.9174020085804 -168.087597236394 573.2014020085805 -173.628597236394 590.9364020085804 -184.573597236394C612.5484020085805 -197.909597236394 632.3174020085805 -197.971597236394 635.6144020085806 -198.664597236394C622.8034020085805 -193.419597236394 608.7814020085805 -185.579597236394 597.4824020085805 -173.99759723639397C582.5044020085804 -158.645597236394 566.0844020085805 -149.632597236394 548.6134020085805 -147.11059723639397C544.5284020085805 -154.917597236394 539.0834020085805 -162.02759723639397 532.3764020085805 -168.36359723639396ZM651.8314020085804 -128.415597236394C649.7484020085805 -120.10759723639401 644.6914020085806 -112.89359723639402 637.5924020085805 -108.10259723639402L588.1174020085805 -74.70559723639403C581.3984020085804 -70.17059723639403 572.3524020085805 -70.62159723639402 566.1144020085806 -75.79359723639402L554.8504020085804 -85.13959723639402C556.2184020085805 -97.35259723639402 560.2904020085805 -112.07959723639402 554.3184020085805 -132.84759723639402C573.7564020085805 -136.47259723639402 591.8514020085805 -146.74859723639403 608.2174020085805 -163.52359723639404C626.8524020085805 -182.62359723639403 655.3734020085806 -190.19359723639403 667.6534020085805 -192.683597236394C667.6674020085804 -190.515597236394 668.0624020085804 -193.56659723639402 651.8314020085804 -128.41559723639404Z " transform="matrix(0.1171875279396839,0,0,0.1171875279396839,0.0002273172068178991,52.296394540786466)"></path><path d="M366.47442871146137 87.56336461663335C370.8454287114614 88.34636461663337 375.6084287114614 88.36836461663336 380.77042871146136 87.98036461663332C390.0584287114614 104.4043646166333 407.5194287114614 114.75136461663334 426.66442871146137 114.75136461663334C445.8124287114614 114.75136461663334 463.27542871146136 104.40136461663332 472.5624287114614 87.97336461663332C477.2714287114614 88.32636461663333 482.1484287114614 88.40636461663331 486.85442871146137 87.5633646166333C497.85042871146135 85.59336461663327 505.06342871146137 78.83636461663332 508.2914287114614 67.4813646166333C514.3844287114614 46.05036461663332 501.0524287114614 22.638364616633282 473.4994287114614 6.382364616633311C409.4564287114614 -31.4056353833667 332.2584287114614 22.53136461663331 345.0374287114614 67.4813646166333C348.2654287114614 78.83636461663332 355.47842871146145 85.59336461663332 366.4744287114614 87.5633646166333ZM426.66442871146137 99.75136461663334C415.1834287114614 99.75136461663334 404.55942871146135 94.54036461663333 397.50242871146133 85.93736461663332C423.9594287114613 82.15736461663334 429.0794287114614 82.11536461663331 455.82542871146137 85.93736461663332C448.7694287114614 94.54036461663333 438.14542871146136 99.75136461663334 426.66442871146137 99.75136461663334ZM426.66442871146137 8.436364616633341C465.1854287114614 8.436364616633341 500.5364287114614 39.90836461663332 493.8634287114614 63.38036461663336C491.0594287114614 73.23936461663334 486.55642871146136 75.17536461663337 458.0844287114614 71.10936461663334C429.5954287114614 67.03836461663332 423.8244287114614 67.02436461663336 395.2434287114614 71.10936461663334C369.4594287114614 74.79336461663337 362.5604287114614 74.26836461663333 359.4644287114614 63.381364616633334C352.9224287114614 40.365364616633315 387.5894287114614 8.436364616633341 426.66442871146137 8.436364616633341Z " transform="matrix(0.1171875279396839,0,0,0.1171875279396839,0.0002273172068178991,52.296394540786466)"></path></g></g><use xlink:href="#gloss-top" opacity="1" class="background"></use></g></svg>