<svg xmlns="http://www.w3.org/2000/svg" version="1.1" xmlns:xlink="http://www.w3.org/1999/xlink" xmlns:svgjs="http://svgjs.com/svgjs" width="83" height="83" viewBox="0 0 100 100"><g class="wrap" transform="matrix(1,0,0,1,0,0)"><defs class="background">
			<linearGradient id="Gradient_1" gradientUnits="userSpaceOnUse" x1="50" y1="7" x2="50" y2="55.2625" spreadMethod="pad">
<stop offset="0%" stop-color="#FFFFFF" stop-opacity="0.1"></stop>

<stop offset="100%" stop-color="#FFFFFF" stop-opacity="0.7"></stop>
</linearGradient><linearGradient id="Gradient_2" gradientUnits="userSpaceOnUse" x1="100" y1="51" x2="25" y2="50.85" spreadMethod="pad">
<stop offset="0%" stop-color="#FFFFFF" stop-opacity="0.1"></stop>

<stop offset="100%" stop-color="#FFFFFF" stop-opacity="0.7"></stop>
</linearGradient><linearGradient id="Gradient_3" gradientUnits="userSpaceOnUse" x1="0" y1="51" x2="77" y2="51" spreadMethod="pad">
<stop offset="0%" stop-color="#FFFFFF" stop-opacity="0.1"></stop>

<stop offset="100%" stop-color="#FFFFFF" stop-opacity="0.7"></stop>
</linearGradient><g id="background">
<path fill="url(#background-gradient)" stroke="none" d=" M 99.15 55 Q 100 53.5 100 51.55 100 49.6 99.15 48.1 L 77.55 10.45 Q 76.7 9 75 8.05 73.3 7 71.6 7 L 28.35 7 Q 26.7 7 25 8.05 23.3 9 22.45 10.45 L 0.8 48.1 Q 0 49.6 0 51.55 0 53.5 0.8 55 L 22.45 92.65 Q 23.3 94.1 25 95.1 26.7 96.05 28.35 96.05 L 71.6 96.05 Q 73.3 96.05 75 95.05 76.7 94.1 77.55 92.65 L 99.15 55 M 96.5 49.65 Q 96.9 50.4 96.9 51.55 96.9 52.7 96.5 53.4 L 74.9 91.1 Q 74.45 91.85 73.5 92.45 72.45 93 71.6 93 L 28.35 93 Q 27.5 93 26.5 92.45 25.5 91.85 25.1 91.1 L 3.5 53.4 Q 3.05 52.7 3.05 51.55 3.05 50.4 3.5 49.65 L 25.1 12 Q 25.5 11.25 26.5 10.65 27.5 10.1 28.35 10.1 L 71.6 10.1 Q 72.45 10.1 73.5 10.65 74.45 11.25 74.9 12 L 96.5 49.65 Z"></path>
</g><mask id="mask">
<path fill="#FFFFFF" stroke="none" d=" M 96.9 51.55 Q 96.9 50.4 96.5 49.65 L 74.9 12 Q 74.45 11.25 73.5 10.65 72.45 10.1 71.6 10.1 L 28.35 10.1 Q 27.5 10.1 26.5 10.65 25.5 11.25 25.1 12 L 3.5 49.65 Q 3.05 50.4 3.05 51.55 3.05 52.7 3.5 53.4 L 25.1 91.1 Q 25.5 91.85 26.5 92.45 27.5 93 28.35 93 L 71.6 93 Q 72.45 93 73.5 92.45 74.45 91.85 74.9 91.1 L 96.5 53.4 Q 96.9 52.7 96.9 51.55 Z"></path>
</mask><g id="gloss-top">
<path fill="url(#Gradient_1)" stroke="none" d=" M 96.5 53.4 L 95.45 55.25 Q 98 52.85 99.9 50.3 99.7 49 99.15 48.1 L 77.55 10.45 Q 76.7 9 75 8.05 73.3 7 71.6 7 L 28.35 7 Q 26.7 7 25 8.05 23.3 9 22.45 10.45 L 0.8 48.1 Q 0.3 49.05 0.1 50.3 1.95 52.85 4.55 55.25 L 3.5 53.4 Q 3.05 52.7 3.05 51.55 3.05 50.4 3.5 49.65 L 25.1 12 Q 25.5 11.25 26.5 10.65 27.5 10.1 28.35 10.1 L 71.6 10.1 Q 72.45 10.1 73.5 10.65 74.45 11.25 74.9 12 L 96.5 49.65 Q 96.9 50.4 96.9 51.55 96.9 52.7 96.5 53.4 Z"></path>
</g><g id="gloss-right">
<path fill="url(#Gradient_2)" stroke="none" d=" M 99.15 55 Q 100 53.5 100 51.55 100 49.6 99.15 48.1 L 77.55 10.45 Q 76.7 9 75 8.05 73.3 7 71.6 7 L 28.35 7 Q 26.75 7 25.1 7.95 L 26.65 10.6 Q 27.6 10.1 28.35 10.1 L 71.6 10.1 Q 72.45 10.1 73.5 10.65 74.45 11.25 74.9 12 L 96.5 49.65 Q 96.9 50.4 96.9 51.55 96.9 52.7 96.5 53.4 L 74.9 91.1 Q 74.65 91.5 74.05 92 L 75.65 94.7 Q 76.9 93.7 77.55 92.65 L 99.15 55 Z"></path>
</g><g id="gloss-left">
<path fill="url(#Gradient_3)" stroke="none" d=" M 75.75 13.5 L 77.6 10.55 77.55 10.45 Q 76.7 9 75 8.05 73.3 7 71.6 7 L 28.35 7 Q 26.7 7 25 8.05 23.3 9 22.45 10.45 L 0.8 48.1 Q 0 49.6 0 51.55 0 53.5 0.8 55 L 22.45 92.65 Q 23.2 93.95 24.55 94.85 L 26.2 92.25 Q 25.45 91.65 25.1 91.1 L 3.5 53.4 Q 3.05 52.7 3.05 51.55 3.05 50.4 3.5 49.65 L 25.1 12 Q 25.5 11.25 26.5 10.65 27.5 10.1 28.35 10.1 L 71.6 10.1 Q 72.45 10.1 73.5 10.65 74.45 11.25 74.9 12 L 75.75 13.5 Z"></path>
</g>
			
	<linearGradient id="background-gradient" x1="0" y1="0" y2="1" x2="0" gradientTransform="rotate(90 0.5 0.5)">
		<stop stop-color="#255f18" offset="0%"></stop>
		<stop stop-color="#1d5c0f" offset="100%"></stop>
	</linearGradient>

			
			
			
			
		<linearGradient class="shapgradient" gradientTransform="rotate(0 0.5 0.5)" id="SvgjsLinearGradient1070"><stop stop-color="#3c592e" offset="0"></stop><stop stop-color="#9db21d" offset="1"></stop></linearGradient></defs><use xlink:href="#background" fill="url(#background-gradient)" class="background"></use><g class="geditable"><g mask="url(#mask)" fill="url(#SvgjsLinearGradient1070)" class="editable"><path d="M607.9909240856475 92.79971288104429C607.9909240856475 83.95971288104428 600.8309240856476 76.79971288104429 591.9909240856475 76.79971288104429S575.9909240856475 83.95971288104428 575.9909240856475 92.79971288104429S583.1509240856476 108.79971288104429 591.9909240856475 108.79971288104429S607.9909240856475 101.63971288104429 607.9909240856475 92.79971288104429ZM655.9909240856475 188.7997128810443C717.8509240856475 188.7997128810443 767.9909240856475 138.6597128810443 767.9909240856475 76.79971288104429H702.4209240856476C701.9609240856475 73.47971288104429 701.8209240856476 70.21971288104429 701.0609240856476 66.84971288104428C691.9109240856476 26.239712881044284 659.0909240856475 -6.85028711895572 618.5209240856475 -16.150287118955717C609.5209240856475 -18.220287118955717 600.6409240856475 -19.200287118955714 591.9909240856475 -19.200287118955714C530.1309240856475 -19.200287118955714 479.9909240856475 30.939712881044287 479.9909240856475 92.79971288104429V172.7997128810443H425.76092408564756C386.76092408564756 172.7997128810443 347.58092408564755 159.0397128810443 320.97092408564754 130.51971288104428C317.01092408564756 126.26971288104428 312.0309240856476 124.3797128810443 307.1509240856476 124.3797128810443C297.3709240856476 124.3797128810443 287.9909240856476 131.9697128810443 287.9909240856476 143.4397128810443C287.9909240856476 238.1497128810443 360.20092408564756 321.82971288104426 452.57092408564756 331.4597128810443C462.0409240856476 332.4497128810443 470.34092408564754 324.9697128810443 470.34092408564754 315.4497128810443V299.35971288104435C470.34092408564754 291.33971288104436 464.4009240856476 284.49971288104433 456.44092408564757 283.58971288104436C410.6709240856476 278.3897128810444 370.9109240856476 247.88971288104437 350.5309240856476 206.09971288104435C373.9109240856476 215.46971288104436 399.36092408564764 220.36971288104434 425.7709240856476 220.36971288104434L527.9909240856475 220.7997128810443V92.79971288104429C527.9909240856475 57.509712881044294 556.7009240856476 28.799712881044286 591.9909240856475 28.799712881044286C597.1809240856476 28.799712881044286 602.4909240856475 29.41971288104429 607.7809240856476 30.629712881044284C630.4409240856476 35.82971288104429 649.1009240856475 54.61971288104428 654.2409240856475 77.39971288104428C662.1409240856475 112.45971288104428 642.3909240856475 139.26971288104428 619.3209240856476 150.2897128810443L591.9909240856475 163.33971288104428V234.96971288104425L603.8509240856475 248.53971288104424C612.7409240856475 258.71971288104425 623.4609240856475 275.7497128810442 623.9709240856475 299.07971288104426C624.4009240856476 318.64971288104425 616.3609240856475 337.89971288104425 601.3309240856476 353.26971288104426C584.2109240856475 370.76971288104426 560.7409240856475 380.8097128810443 536.9409240856476 380.8097128810443H445.7709240856476C439.7409240856476 380.8097128810443 433.6709240856476 380.4997128810443 427.1109240856476 379.83971288104425C338.2809240856476 371.9397128810443 263.7409240856476 306.32971288104426 243.3509240856476 220.7997128810443H272.6309240856476A190.546 190.546 0 0 1 258.4809240856476 172.7997128810443H224.24092408564755C204.95092408564756 172.7997128810443 189.60092408564756 189.8297128810443 192.30092408564755 208.92971288104428C208.81092408564754 325.7397128810443 304.21092408564755 417.0997128810443 422.8609240856475 427.63971288104426C430.39092408564755 428.40971288104424 438.0409240856476 428.7997128810443 445.77092408564755 428.7997128810443H536.9409240856476C608.9009240856475 428.7997128810443 673.5509240856476 369.95971288104425 671.9609240856475 298.0197128810443C671.2709240856476 266.8897128810443 659.1009240856475 238.80971288104433 639.9909240856475 216.94971288104432V188.7997128810443H655.9909240856475Z " transform="matrix(0.10416683223538754,0,0,0.10416683223538754,0.0008201597605266837,28.666664785799934)"></path></g></g><use xlink:href="#gloss-top" opacity="1" class="background"></use></g></svg>