<svg xmlns="http://www.w3.org/2000/svg" version="1.1" xmlns:xlink="http://www.w3.org/1999/xlink" xmlns:svgjs="http://svgjs.com/svgjs" width="83" height="83" viewBox="0 0 100 100"><g class="wrap" transform="matrix(1,0,0,1,0,0)"><defs class="background">
			<linearGradient id="Gradient_1" gradientUnits="userSpaceOnUse" x1="50" y1="7" x2="50" y2="55.2625" spreadMethod="pad">
<stop offset="0%" stop-color="#FFFFFF" stop-opacity="0.1"></stop>

<stop offset="100%" stop-color="#FFFFFF" stop-opacity="0.7"></stop>
</linearGradient><linearGradient id="Gradient_2" gradientUnits="userSpaceOnUse" x1="100" y1="51" x2="25" y2="50.85" spreadMethod="pad">
<stop offset="0%" stop-color="#FFFFFF" stop-opacity="0.1"></stop>

<stop offset="100%" stop-color="#FFFFFF" stop-opacity="0.7"></stop>
</linearGradient><linearGradient id="Gradient_3" gradientUnits="userSpaceOnUse" x1="0" y1="51" x2="77" y2="51" spreadMethod="pad">
<stop offset="0%" stop-color="#FFFFFF" stop-opacity="0.1"></stop>

<stop offset="100%" stop-color="#FFFFFF" stop-opacity="0.7"></stop>
</linearGradient><g id="background">
<path fill="url(#background-gradient)" stroke="none" d=" M 99.15 55 Q 100 53.5 100 51.55 100 49.6 99.15 48.1 L 77.55 10.45 Q 76.7 9 75 8.05 73.3 7 71.6 7 L 28.35 7 Q 26.7 7 25 8.05 23.3 9 22.45 10.45 L 0.8 48.1 Q 0 49.6 0 51.55 0 53.5 0.8 55 L 22.45 92.65 Q 23.3 94.1 25 95.1 26.7 96.05 28.35 96.05 L 71.6 96.05 Q 73.3 96.05 75 95.05 76.7 94.1 77.55 92.65 L 99.15 55 M 96.5 49.65 Q 96.9 50.4 96.9 51.55 96.9 52.7 96.5 53.4 L 74.9 91.1 Q 74.45 91.85 73.5 92.45 72.45 93 71.6 93 L 28.35 93 Q 27.5 93 26.5 92.45 25.5 91.85 25.1 91.1 L 3.5 53.4 Q 3.05 52.7 3.05 51.55 3.05 50.4 3.5 49.65 L 25.1 12 Q 25.5 11.25 26.5 10.65 27.5 10.1 28.35 10.1 L 71.6 10.1 Q 72.45 10.1 73.5 10.65 74.45 11.25 74.9 12 L 96.5 49.65 Z"></path>
</g><mask id="mask">
<path fill="#FFFFFF" stroke="none" d=" M 96.9 51.55 Q 96.9 50.4 96.5 49.65 L 74.9 12 Q 74.45 11.25 73.5 10.65 72.45 10.1 71.6 10.1 L 28.35 10.1 Q 27.5 10.1 26.5 10.65 25.5 11.25 25.1 12 L 3.5 49.65 Q 3.05 50.4 3.05 51.55 3.05 52.7 3.5 53.4 L 25.1 91.1 Q 25.5 91.85 26.5 92.45 27.5 93 28.35 93 L 71.6 93 Q 72.45 93 73.5 92.45 74.45 91.85 74.9 91.1 L 96.5 53.4 Q 96.9 52.7 96.9 51.55 Z"></path>
</mask><g id="gloss-top">
<path fill="url(#Gradient_1)" stroke="none" d=" M 96.5 53.4 L 95.45 55.25 Q 98 52.85 99.9 50.3 99.7 49 99.15 48.1 L 77.55 10.45 Q 76.7 9 75 8.05 73.3 7 71.6 7 L 28.35 7 Q 26.7 7 25 8.05 23.3 9 22.45 10.45 L 0.8 48.1 Q 0.3 49.05 0.1 50.3 1.95 52.85 4.55 55.25 L 3.5 53.4 Q 3.05 52.7 3.05 51.55 3.05 50.4 3.5 49.65 L 25.1 12 Q 25.5 11.25 26.5 10.65 27.5 10.1 28.35 10.1 L 71.6 10.1 Q 72.45 10.1 73.5 10.65 74.45 11.25 74.9 12 L 96.5 49.65 Q 96.9 50.4 96.9 51.55 96.9 52.7 96.5 53.4 Z"></path>
</g><g id="gloss-right">
<path fill="url(#Gradient_2)" stroke="none" d=" M 99.15 55 Q 100 53.5 100 51.55 100 49.6 99.15 48.1 L 77.55 10.45 Q 76.7 9 75 8.05 73.3 7 71.6 7 L 28.35 7 Q 26.75 7 25.1 7.95 L 26.65 10.6 Q 27.6 10.1 28.35 10.1 L 71.6 10.1 Q 72.45 10.1 73.5 10.65 74.45 11.25 74.9 12 L 96.5 49.65 Q 96.9 50.4 96.9 51.55 96.9 52.7 96.5 53.4 L 74.9 91.1 Q 74.65 91.5 74.05 92 L 75.65 94.7 Q 76.9 93.7 77.55 92.65 L 99.15 55 Z"></path>
</g><g id="gloss-left">
<path fill="url(#Gradient_3)" stroke="none" d=" M 75.75 13.5 L 77.6 10.55 77.55 10.45 Q 76.7 9 75 8.05 73.3 7 71.6 7 L 28.35 7 Q 26.7 7 25 8.05 23.3 9 22.45 10.45 L 0.8 48.1 Q 0 49.6 0 51.55 0 53.5 0.8 55 L 22.45 92.65 Q 23.2 93.95 24.55 94.85 L 26.2 92.25 Q 25.45 91.65 25.1 91.1 L 3.5 53.4 Q 3.05 52.7 3.05 51.55 3.05 50.4 3.5 49.65 L 25.1 12 Q 25.5 11.25 26.5 10.65 27.5 10.1 28.35 10.1 L 71.6 10.1 Q 72.45 10.1 73.5 10.65 74.45 11.25 74.9 12 L 75.75 13.5 Z"></path>
</g>
			
	<linearGradient id="background-gradient" x1="0" y1="0" y2="1" x2="0" gradientTransform="rotate(90 0.5 0.5)">
		<stop stop-color="#255f18" offset="0%"></stop>
		<stop stop-color="#1d5c0f" offset="100%"></stop>
	</linearGradient>

			
			
			
			
		<linearGradient class="shapgradient" gradientTransform="rotate(0 0.5 0.5)" id="SvgjsLinearGradient1020"><stop stop-color="#3c592e" offset="0"></stop><stop stop-color="#9db21d" offset="1"></stop></linearGradient></defs><use xlink:href="#background" fill="url(#background-gradient)" class="background"></use><g class="geditable"><g mask="url(#mask)" fill="url(#SvgjsLinearGradient1020)" class="editable" transform="matrix(0.9,0,0,0.9,4.999999809265134,5.000000095367433)"><path d="M162.5333262125651 217.33331654866538L169.3333262125651 219.33331654866538V256.93331654866535C162.3333262125651 261.13331654866533 157.3333262125651 268.43331654866535 157.3333262125651 277.23331654866536C157.3333262125651 285.6333165486654 161.9333262125651 292.6333165486654 168.4333262125651 296.93331654866535L152.8333262125651 359.3333165486654C151.13332621256512 366.23331654866536 154.9333262125651 373.3333165486654 160.4333262125651 373.3333165486654H202.23332621256512C207.73332621256512 373.3333165486654 211.5333262125651 366.23331654866536 209.8333262125651 359.3333165486654L194.23332621256512 297.03331654866537C200.73332621256512 292.73331654866536 205.3333262125651 285.73331654866536 205.3333262125651 277.3333165486654C205.3333262125651 268.53331654866537 200.3333262125651 261.23331654866536 193.3333262125651 257.03331654866537V226.53331654866537L239.9333262125651 240.33331654866538C233.3333262125651 256.73331654866536 229.3333262125651 274.53331654866537 229.3333262125651 293.3333165486654C229.3333262125651 372.8333165486654 293.8333262125651 437.3333165486654 373.3333262125651 437.3333165486654S517.3333262125651 372.8333165486654 517.3333262125651 293.3333165486654C517.3333262125651 274.53331654866537 513.3333262125651 256.73331654866536 506.7333262125651 240.33331654866538L584.1333262125651 217.33331654866538C601.7333262125651 212.13331654866536 601.7333262125651 182.53331654866537 584.1333262125651 177.33331654866538L390.2333262125651 119.83331654866537C384.6333262125651 118.13331654866536 379.0333262125651 117.33331654866537 373.3333262125651 117.33331654866537S362.0333262125651 118.13331654866536 356.43332621256513 119.83331654866537L162.5333262125651 177.33331654866538C144.9333262125651 182.53331654866537 144.9333262125651 212.13331654866536 162.5333262125651 217.33331654866538ZM373.3333262125651 389.3333165486654C320.43332621256513 389.3333165486654 277.3333262125651 346.23331654866536 277.3333262125651 293.3333165486654C277.3333262125651 279.23331654866536 280.6333262125651 266.03331654866537 286.1333262125651 254.03331654866537L356.53332621256516 274.93331654866535C371.3333262125651 279.3333165486654 383.7333262125651 276.93331654866535 390.3333262125651 274.93331654866535L460.7333262125651 254.03331654866537C466.2333262125651 266.03331654866537 469.5333262125651 279.3333165486654 469.5333262125651 293.3333165486654C469.3333262125651 346.23331654866536 426.2333262125651 389.3333165486654 373.3333262125651 389.3333165486654ZM370.1333262125651 165.83331654866538C371.1333262125651 165.53331654866537 373.43332621256513 164.93331654866537 376.6333262125651 165.83331654866538L482.8333262125651 197.33331654866538L376.5333262125651 228.83331654866538C374.43332621256513 229.43331654866535 372.3333262125651 229.53331654866537 370.0333262125651 228.83331654866538L263.8333262125651 197.33331654866538L370.1333262125651 165.83331654866538ZM468.7333262125651 437.9333165486654L373.3333262125651 517.3333165486654L277.93332621256513 437.9333165486654C206.4333262125651 441.03331654866537 149.3333262125651 499.53331654866537 149.3333262125651 571.7333165486654V581.3333165486654C149.3333262125651 607.8333165486654 170.8333262125651 629.3333165486654 197.3333262125651 629.3333165486654H549.3333262125651C575.8333262125651 629.3333165486654 597.3333262125651 607.8333165486654 597.3333262125651 581.3333165486654V571.7333165486654C597.3333262125651 499.53331654866537 540.2333262125651 441.03331654866537 468.7333262125651 437.93331654866535ZM349.3333262125651 581.3333165486654H197.3333262125651V571.7333165486654C197.3333262125651 531.3333165486654 225.23332621256512 497.3333165486654 263.3333262125651 488.23331654866536L349.3333262125651 559.8333165486654V581.3333165486654ZM549.3333262125651 581.3333165486654H397.3333262125651V559.8333165486654L483.3333262125651 488.23331654866536C521.4333262125651 497.3333165486654 549.3333262125651 531.3333165486654 549.3333262125651 571.7333165486654V581.3333165486654Z " transform="matrix(0.13392857142857142,0,0,0.13392857142857142,-8.259500776018415e-7,-4.129750388009208e-7)"></path></g></g><use xlink:href="#gloss-top" opacity="1" class="background"></use></g></svg>