<svg xmlns="http://www.w3.org/2000/svg" version="1.1" xmlns:xlink="http://www.w3.org/1999/xlink" xmlns:svgjs="http://svgjs.com/svgjs" width="83" height="83" viewBox="0 0 100 100"><g class="wrap" transform="matrix(1,0,0,1,0,0)"><defs class="background">
			<linearGradient id="Gradient_1" gradientUnits="userSpaceOnUse" x1="50" y1="7" x2="50" y2="55.2625" spreadMethod="pad">
<stop offset="0%" stop-color="#FFFFFF" stop-opacity="0.1"></stop>

<stop offset="100%" stop-color="#FFFFFF" stop-opacity="0.7"></stop>
</linearGradient><linearGradient id="Gradient_2" gradientUnits="userSpaceOnUse" x1="100" y1="51" x2="25" y2="50.85" spreadMethod="pad">
<stop offset="0%" stop-color="#FFFFFF" stop-opacity="0.1"></stop>

<stop offset="100%" stop-color="#FFFFFF" stop-opacity="0.7"></stop>
</linearGradient><linearGradient id="Gradient_3" gradientUnits="userSpaceOnUse" x1="0" y1="51" x2="77" y2="51" spreadMethod="pad">
<stop offset="0%" stop-color="#FFFFFF" stop-opacity="0.1"></stop>

<stop offset="100%" stop-color="#FFFFFF" stop-opacity="0.7"></stop>
</linearGradient><g id="background">
<path fill="url(#background-gradient)" stroke="none" d=" M 99.15 55 Q 100 53.5 100 51.55 100 49.6 99.15 48.1 L 77.55 10.45 Q 76.7 9 75 8.05 73.3 7 71.6 7 L 28.35 7 Q 26.7 7 25 8.05 23.3 9 22.45 10.45 L 0.8 48.1 Q 0 49.6 0 51.55 0 53.5 0.8 55 L 22.45 92.65 Q 23.3 94.1 25 95.1 26.7 96.05 28.35 96.05 L 71.6 96.05 Q 73.3 96.05 75 95.05 76.7 94.1 77.55 92.65 L 99.15 55 M 96.5 49.65 Q 96.9 50.4 96.9 51.55 96.9 52.7 96.5 53.4 L 74.9 91.1 Q 74.45 91.85 73.5 92.45 72.45 93 71.6 93 L 28.35 93 Q 27.5 93 26.5 92.45 25.5 91.85 25.1 91.1 L 3.5 53.4 Q 3.05 52.7 3.05 51.55 3.05 50.4 3.5 49.65 L 25.1 12 Q 25.5 11.25 26.5 10.65 27.5 10.1 28.35 10.1 L 71.6 10.1 Q 72.45 10.1 73.5 10.65 74.45 11.25 74.9 12 L 96.5 49.65 Z"></path>
</g><mask id="mask">
<path fill="#FFFFFF" stroke="none" d=" M 96.9 51.55 Q 96.9 50.4 96.5 49.65 L 74.9 12 Q 74.45 11.25 73.5 10.65 72.45 10.1 71.6 10.1 L 28.35 10.1 Q 27.5 10.1 26.5 10.65 25.5 11.25 25.1 12 L 3.5 49.65 Q 3.05 50.4 3.05 51.55 3.05 52.7 3.5 53.4 L 25.1 91.1 Q 25.5 91.85 26.5 92.45 27.5 93 28.35 93 L 71.6 93 Q 72.45 93 73.5 92.45 74.45 91.85 74.9 91.1 L 96.5 53.4 Q 96.9 52.7 96.9 51.55 Z"></path>
</mask><g id="gloss-top">
<path fill="url(#Gradient_1)" stroke="none" d=" M 96.5 53.4 L 95.45 55.25 Q 98 52.85 99.9 50.3 99.7 49 99.15 48.1 L 77.55 10.45 Q 76.7 9 75 8.05 73.3 7 71.6 7 L 28.35 7 Q 26.7 7 25 8.05 23.3 9 22.45 10.45 L 0.8 48.1 Q 0.3 49.05 0.1 50.3 1.95 52.85 4.55 55.25 L 3.5 53.4 Q 3.05 52.7 3.05 51.55 3.05 50.4 3.5 49.65 L 25.1 12 Q 25.5 11.25 26.5 10.65 27.5 10.1 28.35 10.1 L 71.6 10.1 Q 72.45 10.1 73.5 10.65 74.45 11.25 74.9 12 L 96.5 49.65 Q 96.9 50.4 96.9 51.55 96.9 52.7 96.5 53.4 Z"></path>
</g><g id="gloss-right">
<path fill="url(#Gradient_2)" stroke="none" d=" M 99.15 55 Q 100 53.5 100 51.55 100 49.6 99.15 48.1 L 77.55 10.45 Q 76.7 9 75 8.05 73.3 7 71.6 7 L 28.35 7 Q 26.75 7 25.1 7.95 L 26.65 10.6 Q 27.6 10.1 28.35 10.1 L 71.6 10.1 Q 72.45 10.1 73.5 10.65 74.45 11.25 74.9 12 L 96.5 49.65 Q 96.9 50.4 96.9 51.55 96.9 52.7 96.5 53.4 L 74.9 91.1 Q 74.65 91.5 74.05 92 L 75.65 94.7 Q 76.9 93.7 77.55 92.65 L 99.15 55 Z"></path>
</g><g id="gloss-left">
<path fill="url(#Gradient_3)" stroke="none" d=" M 75.75 13.5 L 77.6 10.55 77.55 10.45 Q 76.7 9 75 8.05 73.3 7 71.6 7 L 28.35 7 Q 26.7 7 25 8.05 23.3 9 22.45 10.45 L 0.8 48.1 Q 0 49.6 0 51.55 0 53.5 0.8 55 L 22.45 92.65 Q 23.2 93.95 24.55 94.85 L 26.2 92.25 Q 25.45 91.65 25.1 91.1 L 3.5 53.4 Q 3.05 52.7 3.05 51.55 3.05 50.4 3.5 49.65 L 25.1 12 Q 25.5 11.25 26.5 10.65 27.5 10.1 28.35 10.1 L 71.6 10.1 Q 72.45 10.1 73.5 10.65 74.45 11.25 74.9 12 L 75.75 13.5 Z"></path>
</g>
			
	<linearGradient id="background-gradient" x1="0" y1="0" y2="1" x2="0" gradientTransform="rotate(90 0.5 0.5)">
		<stop stop-color="#255f18" offset="0%"></stop>
		<stop stop-color="#1d5c0f" offset="100%"></stop>
	</linearGradient>

			
			
			
			
		<linearGradient class="shapgradient" gradientTransform="rotate(0 0.5 0.5)" id="SvgjsLinearGradient1113"><stop stop-color="#3c592e" offset="0"></stop><stop stop-color="#9db21d" offset="1"></stop></linearGradient></defs><use xlink:href="#background" fill="url(#background-gradient)" class="background"></use><g class="geditable"><g mask="url(#mask)" fill="url(#SvgjsLinearGradient1113)" class="editable" transform="matrix(0.9,0,0,0.9,6.999999046325684,5.000000095367433)"><g transform="matrix(0.17223859804537295,0,0,0.17223859804537295,67.72997009795847,3.9470739457827907e-7)"><g><path d="M43.53552328743871 252.48992352442102H36.38152328743871C30.927523287438703 230.207923524421 20.775523287438716 209.74892352442103 7.023523287438707 192.23992352442102L-6.905476712561267 106.98292352442101C-7.58647671256125 102.820923524421 -11.571476712561264 100.020923524421 -15.742476712561256 100.830923524421C-19.77447671256124 101.61392352442101 -22.321476712561264 105.657923524421 -21.658476712561253 109.711923524421L-11.405476712561267 172.46692352442102C-39.63947671256125 146.87892352442103 -77.07547671256128 131.26992352442102 -118.08947671256126 131.26992352442102S-196.54047671256126 146.878923524421 -224.77347671256126 172.46692352442102L-204.65147671256125 49.29492352442102H-31.529476712561234L-27.408476712561253 74.51892352442103C-26.68947671256126 78.92592352442102 -22.264476712561247 81.80292352442103 -17.84247671256128 80.49292352442103C-14.186476712561273 79.40892352442103 -12.0314767125613 75.61392352442104 -12.646476712561252 71.84992352442103L-17.75347671256128 40.585923524421034C-18.346476712561298 36.957923524421034 -21.480476712561256 34.29492352442103 -25.155476712561267 34.29492352442103H-211.02547671256127C-214.70047671256128 34.29492352442103 -217.83447671256127 36.95892352442103 -218.42747671256126 40.585923524421034L-243.20447671256125 192.24092352442102C-264.4384767125613 219.273923524421 -277.11547671256125 253.33192352442103 -277.11547671256125 290.29492352442105S-264.4384767125613 361.31592352442107 -243.20447671256125 388.34992352442106L-229.27547671256127 473.60692352442106C-228.60547671256128 477.70792352442106 -224.58747671256128 480.5169235244211 -220.50747671256127 479.7719235244211C-216.41647671256126 479.02492352442107 -213.86947671256127 474.8789235244211 -214.52447671256127 470.8679235244211L-224.77547671256127 408.1219235244211C-196.54147671256126 433.70992352442113 -159.10547671256126 449.3189235244211 -118.09147671256127 449.3189235244211S-39.64047671256128 433.70992352442113 -11.407476712561277 408.1219235244211L-31.52947671256129 531.294923524421H-204.6514767125613L-208.7214767125613 506.3809235244211C-209.3834767125613 502.3279235244211 -213.0844767125613 499.3039235244211 -217.1554767125613 499.84392352442114C-221.36747671256128 500.40292352442117 -224.2564767125613 504.32592352442117 -223.5764767125613 508.4889235244211L-218.4274767125613 540.0039235244211C-217.8344767125613 543.6309235244211 -214.7014767125613 546.2949235244212 -211.0254767125613 546.2949235244212H-25.155476712561267C-21.480476712561256 546.2949235244212 -18.34647671256124 543.6309235244212 -17.75347671256128 540.0039235244211L7.023523287438707 388.34892352442114C20.775523287438716 370.8399235244211 30.927523287438703 350.3809235244211 36.38152328743871 328.09892352442114H43.53552328743871C58.83552328743872 328.09892352442114 71.23852328743868 315.6959235244211 71.23852328743868 300.39592352442116V280.19292352442113C71.23852328743868 264.8929235244211 58.83552328743866 252.48992352442113 43.53552328743871 252.48992352442113ZM-118.0904767125613 434.31892352442105C-197.5064767125613 434.31892352442105 -262.1144767125613 369.7099235244211 -262.1144767125613 290.29492352442105S-197.5054767125613 146.27092352442102 -118.0904767125613 146.27092352442102S25.933523287438675 210.87892352442103 25.933523287438675 290.29492352442105S-38.675476712561306 434.31892352442105 -118.09047671256133 434.31892352442105ZM56.23852328743874 300.396923524421C56.23852328743874 307.40092352442105 50.539523287438726 313.099923524421 43.535523287438764 313.099923524421H39.29252328743877C40.36752328743876 305.649923524421 40.934523287438765 298.037923524421 40.934523287438765 290.294923524421S40.36752328743876 274.939923524421 39.29252328743877 267.489923524421H43.535523287438764C50.53952328743878 267.489923524421 56.23852328743874 273.188923524421 56.23852328743874 280.19292352442096Z "></path><path d="M-128.19253774771752 513.969923047584H-107.98953774771752C-103.84753774771752 513.969923047584 -100.48953774771752 510.6119230475839 -100.48953774771752 506.4699230475839S-103.84753774771752 498.9699230475839 -107.98953774771752 498.9699230475839H-128.19253774771752C-132.33453774771752 498.9699230475839 -135.69253774771752 502.3279230475839 -135.69253774771752 506.4699230475839S-132.33453774771752 513.969923047584 -128.19253774771752 513.969923047584Z "></path><path d="M-128.19253774771752 473.56292304758387H-107.98953774771752C-103.84753774771752 473.56292304758387 -100.48953774771752 470.20492304758386 -100.48953774771752 466.06292304758387S-103.84753774771752 458.56292304758387 -107.98953774771752 458.56292304758387H-128.19253774771752C-132.33453774771752 458.56292304758387 -135.69253774771752 461.92092304758387 -135.69253774771752 466.06292304758387S-132.33453774771752 473.56292304758387 -128.19253774771752 473.56292304758387Z "></path><path d="M-118.09052248892846 157.53492304758385C-191.29452248892846 157.53492304758385 -250.85052248892845 217.09092304758386 -250.85052248892845 290.2949230475839S-191.29452248892846 423.0549230475839 -118.09052248892846 423.0549230475839S14.669477511071534 363.49892304758384 14.669477511071534 290.2949230475839S-44.88652248892845 157.53492304758387 -118.09052248892846 157.53492304758387ZM-118.09052248892846 408.0549230475839C-183.02352248892845 408.0549230475839 -235.85052248892845 355.2279230475839 -235.85052248892845 290.2949230475839S-183.02352248892845 172.53492304758387 -118.09052248892846 172.53492304758387S-0.3305224889284659 225.36192304758387 -0.3305224889284659 290.2949230475839S-53.157522488928464 408.0549230475839 -118.09052248892846 408.0549230475839Z "></path><path d="M-118.09053774771752 204.85992304758386C-113.94853774771752 204.85992304758386 -110.59053774771752 201.50192304758386 -110.59053774771752 197.35992304758386V191.29892304758386C-110.59053774771752 187.15692304758386 -113.94853774771752 183.79892304758386 -118.09053774771752 183.79892304758386S-125.59053774771752 187.15692304758386 -125.59053774771752 191.29892304758386V197.35992304758386C-125.59053774771752 201.50192304758386 -122.23253774771752 204.85992304758386 -118.09053774771752 204.85992304758386Z "></path><path d="M-106.83852248892848 294.78490778879484C-106.28352248892847 293.39490778879485 -105.96952248892848 291.8829077887948 -105.96952248892848 290.29490778879483C-105.96952248892848 286.4349077887948 -107.77952248892848 283.0039077887948 -110.59152248892849 280.7839077887948V223.6239077887948C-110.59152248892849 219.4819077887948 -113.9495224889285 216.1239077887948 -118.09152248892849 216.1239077887948S-125.59152248892849 219.4819077887948 -125.59152248892849 223.6239077887948V280.7829077887948C-128.4025224889285 283.0029077887948 -130.2135224889285 286.43390778879484 -130.2135224889285 290.2939077887948C-130.2135224889285 296.39590778879483 -125.7005224889285 301.4299077887948 -119.83352248892851 302.2769077887948L-96.3025224889285 343.0349077887947C-94.91352248892849 345.4409077887948 -92.39252248892848 346.7859077887947 -89.8005224889285 346.7859077887947C-88.5285224889285 346.7859077887947 -87.23852248892848 346.46190778879475 -86.0575224889285 345.77990778879473C-82.47052248892851 343.7089077887947 -81.24152248892852 339.1219077887947 -83.3125224889285 335.5349077887947Z "></path><path d="M-161.09352248892847 200.81192304758386C-163.16452248892847 197.22392304758387 -167.75152248892846 195.99492304758385 -171.33852248892848 198.06692304758386C-174.92552248892846 200.13792304758385 -176.15452248892848 204.72492304758384 -174.08352248892848 208.31192304758386L-171.05352248892848 213.56092304758386C-169.66452248892847 215.96692304758386 -167.14352248892848 217.31192304758386 -164.55152248892847 217.31192304758386C-163.27952248892848 217.31192304758386 -161.98952248892846 216.98792304758385 -160.80852248892847 216.30592304758386C-157.22152248892849 214.23492304758386 -155.99252248892847 209.64792304758387 -158.06352248892847 206.06092304758386Z "></path><path d="M-194.82453774771753 237.3329077887948L-200.07353774771752 234.3019077887948C-203.65853774771753 232.2309077887948 -208.24753774771753 233.45890778879482 -210.31953774771753 237.0469077887948C-212.39053774771753 240.6339077887948 -211.16153774771755 245.22090778879482 -207.57453774771753 247.29290778879482L-202.32553774771753 250.32390778879483C-201.14453774771752 251.00590778879481 -199.85453774771753 251.32990778879483 -198.58153774771753 251.32990778879483C-195.99053774771753 251.32990778879483 -193.46853774771753 249.98490778879483 -192.07953774771752 247.57890778879482C-190.00853774771753 243.99090778879483 -191.2375377477175 239.4039077887948 -194.82453774771753 237.3329077887948Z "></path><path d="M-203.52555300650658 290.2949230475839C-203.52555300650658 286.1529230475839 -206.8835530065066 282.7949230475839 -211.02555300650658 282.7949230475839H-217.0865530065066C-221.2285530065066 282.7949230475839 -224.5865530065066 286.1529230475839 -224.5865530065066 290.2949230475839S-221.2285530065066 297.7949230475839 -217.0865530065066 297.7949230475839H-211.02555300650658C-206.8835530065066 297.7949230475839 -203.52555300650658 294.4369230475839 -203.52555300650658 290.2949230475839Z "></path><path d="M-202.32552248892847 330.2669230475839L-207.57452248892847 333.2979230475839C-211.16152248892845 335.3689230475839 -212.39052248892847 339.95692304758387 -210.31952248892847 343.54392304758386C-208.92952248892848 345.94992304758387 -206.40952248892847 347.29492304758384 -203.81752248892846 347.29492304758384C-202.54552248892847 347.29492304758384 -201.25452248892847 346.96992304758385 -200.07352248892846 346.28892304758386L-194.82452248892847 343.25792304758386C-191.23752248892848 341.18592304758386 -190.00852248892846 336.59892304758387 -192.07952248892846 333.0119230475839C-194.15152248892846 329.4249230475839 -198.73852248892845 328.1969230475839 -202.32552248892847 330.2669230475839Z "></path><path d="M-160.80852248892847 364.283953565162C-164.39752248892847 362.211953565162 -168.98252248892848 363.441953565162 -171.05352248892848 367.028953565162L-174.08352248892848 372.277953565162C-176.15452248892848 375.864953565162 -174.9255224889285 380.451953565162 -171.33852248892848 382.522953565162C-170.1565224889285 383.20495356516204 -168.86752248892847 383.528953565162 -167.59552248892848 383.528953565162C-165.00352248892847 383.528953565162 -162.48252248892848 382.182953565162 -161.09352248892847 379.777953565162L-158.06352248892847 374.528953565162C-155.99252248892847 370.940953565162 -157.22152248892846 366.354953565162 -160.80852248892847 364.283953565162Z "></path><path d="M-118.09053774771752 375.7299230475839C-122.23253774771752 375.7299230475839 -125.59053774771752 379.0879230475839 -125.59053774771752 383.2299230475839V389.2909230475839C-125.59053774771752 393.43292304758387 -122.23253774771752 396.7909230475839 -118.09053774771752 396.7909230475839S-110.59053774771752 393.43292304758387 -110.59053774771752 389.2909230475839V383.2299230475839C-110.59053774771752 379.0879230475839 -113.94853774771752 375.7299230475839 -118.09053774771752 375.7299230475839Z "></path><path d="M-65.12853774771753 367.0289230475839C-67.19953774771756 363.44092304758385 -71.78853774771756 362.2139230475839 -75.37353774771753 364.28392304758387C-78.96053774771752 366.3549230475839 -80.18953774771751 370.9419230475839 -78.11853774771754 374.5289230475839L-75.08753774771753 379.7779230475839C-73.69853774771752 382.1839230475839 -71.17753774771751 383.5289230475839 -68.58553774771752 383.5289230475839C-67.31353774771753 383.5289230475839 -66.02253774771754 383.2039230475839 -64.84253774771753 382.5229230475839C-61.25553774771754 380.4519230475839 -60.026537747717555 375.8649230475839 -62.097537747717524 372.2779230475839Z "></path><path d="M-28.607537747717515 333.2979230475839L-33.85653774771754 330.2669230475839C-37.44353774771753 328.19492304758387 -42.03053774771752 329.42392304758386 -44.10153774771754 333.0119230475839C-46.17253774771757 336.59892304758387 -44.94353774771753 341.18592304758386 -41.35653774771754 343.2569230475839L-36.107537747717515 346.2879230475839C-34.92653774771753 346.9699230475839 -33.63653774771751 347.29392304758386 -32.36453774771752 347.29392304758386C-29.772537747717536 347.29392304758386 -27.25153774771752 345.94892304758383 -25.86253774771751 343.5429230475839C-23.791537747717484 339.9559230475839 -25.020537747717526 335.3689230475839 -28.607537747717515 333.2979230475839Z "></path><path d="M-19.09556826529564 282.7949230475839H-25.15656826529562C-29.298568265295614 282.7949230475839 -32.65656826529562 286.1529230475839 -32.65656826529562 290.2949230475839S-29.298568265295614 297.7949230475839 -25.15656826529562 297.7949230475839H-19.09556826529564C-14.953568265295644 297.7949230475839 -11.59556826529564 294.4369230475839 -11.59556826529564 290.2949230475839S-14.953568265295644 282.7949230475839 -19.09556826529564 282.7949230475839Z "></path><path d="M-37.600507230139385 251.32892304758386C-36.328507230139394 251.32892304758386 -35.0375072301394 251.00392304758387 -33.85750723013939 250.32292304758386L-28.608507230139367 247.29192304758385C-25.021507230139377 245.22092304758385 -23.792507230139393 240.63392304758386 -25.863507230139362 237.04692304758385C-27.93450723013939 233.45892304758385 -32.522507230139354 232.23192304758385 -36.10850723013937 234.30192304758384L-41.35750723013939 237.33292304758385C-44.94450723013938 239.40392304758385 -46.173507230139364 243.99092304758383 -44.102507230139395 247.57792304758385C-42.71250723013941 249.98392304758386 -40.19150723013939 251.32892304758386 -37.600507230139385 251.32892304758386Z "></path><path d="M-64.84253774771753 198.06692304758386C-68.43053774771755 195.99492304758385 -73.01753774771754 197.22392304758387 -75.08753774771753 200.81192304758386L-78.11853774771754 206.06092304758386C-80.18953774771757 209.64792304758384 -78.96053774771752 214.23492304758386 -75.37353774771753 216.30592304758386C-74.19253774771755 216.98792304758385 -72.90253774771753 217.31192304758386 -71.63053774771754 217.31192304758386C-69.03853774771756 217.31192304758386 -66.51753774771754 215.96692304758386 -65.12853774771753 213.56092304758386L-62.097537747717524 208.31192304758386C-60.0265377477175 204.72492304758387 -61.25553774771754 200.13792304758385 -64.84253774771753 198.06692304758386Z "></path><path d="M-107.98953774771752 66.61992304758387H-128.19253774771752C-132.33453774771752 66.61992304758387 -135.69253774771752 69.97792304758386 -135.69253774771752 74.11992304758387S-132.33453774771752 81.61992304758387 -128.19253774771752 81.61992304758387H-107.98953774771752C-103.84753774771752 81.61992304758387 -100.48953774771752 78.26192304758388 -100.48953774771752 74.11992304758387S-103.84753774771752 66.61992304758387 -107.98953774771752 66.61992304758387Z "></path><path d="M-107.98953774771752 107.02692304758386H-128.19253774771752C-132.33453774771752 107.02692304758386 -135.69253774771752 110.38492304758387 -135.69253774771752 114.52692304758386S-132.33453774771752 122.02692304758386 -128.19253774771752 122.02692304758386H-107.98953774771752C-103.84753774771752 122.02692304758386 -100.48953774771752 118.66892304758386 -100.48953774771752 114.52692304758386S-103.84753774771752 107.02692304758386 -107.98953774771752 107.02692304758386Z "></path></g></g></g></g><use xlink:href="#gloss-top" opacity="1" class="background"></use></g></svg>