<svg xmlns="http://www.w3.org/2000/svg" version="1.1" xmlns:xlink="http://www.w3.org/1999/xlink" xmlns:svgjs="http://svgjs.com/svgjs" width="83" height="83" viewBox="0 0 100 100"><g class="wrap" transform="matrix(1,0,0,1,0,0)"><defs class="background">
			<linearGradient id="Gradient_1" gradientUnits="userSpaceOnUse" x1="50" y1="7" x2="50" y2="55.2625" spreadMethod="pad">
<stop offset="0%" stop-color="#FFFFFF" stop-opacity="0.1"></stop>

<stop offset="100%" stop-color="#FFFFFF" stop-opacity="0.7"></stop>
</linearGradient><linearGradient id="Gradient_2" gradientUnits="userSpaceOnUse" x1="100" y1="51" x2="25" y2="50.85" spreadMethod="pad">
<stop offset="0%" stop-color="#FFFFFF" stop-opacity="0.1"></stop>

<stop offset="100%" stop-color="#FFFFFF" stop-opacity="0.7"></stop>
</linearGradient><linearGradient id="Gradient_3" gradientUnits="userSpaceOnUse" x1="0" y1="51" x2="77" y2="51" spreadMethod="pad">
<stop offset="0%" stop-color="#FFFFFF" stop-opacity="0.1"></stop>

<stop offset="100%" stop-color="#FFFFFF" stop-opacity="0.7"></stop>
</linearGradient><g id="background">
<path fill="url(#background-gradient)" stroke="none" d=" M 99.15 55 Q 100 53.5 100 51.55 100 49.6 99.15 48.1 L 77.55 10.45 Q 76.7 9 75 8.05 73.3 7 71.6 7 L 28.35 7 Q 26.7 7 25 8.05 23.3 9 22.45 10.45 L 0.8 48.1 Q 0 49.6 0 51.55 0 53.5 0.8 55 L 22.45 92.65 Q 23.3 94.1 25 95.1 26.7 96.05 28.35 96.05 L 71.6 96.05 Q 73.3 96.05 75 95.05 76.7 94.1 77.55 92.65 L 99.15 55 M 96.5 49.65 Q 96.9 50.4 96.9 51.55 96.9 52.7 96.5 53.4 L 74.9 91.1 Q 74.45 91.85 73.5 92.45 72.45 93 71.6 93 L 28.35 93 Q 27.5 93 26.5 92.45 25.5 91.85 25.1 91.1 L 3.5 53.4 Q 3.05 52.7 3.05 51.55 3.05 50.4 3.5 49.65 L 25.1 12 Q 25.5 11.25 26.5 10.65 27.5 10.1 28.35 10.1 L 71.6 10.1 Q 72.45 10.1 73.5 10.65 74.45 11.25 74.9 12 L 96.5 49.65 Z"></path>
</g><mask id="mask">
<path fill="#FFFFFF" stroke="none" d=" M 96.9 51.55 Q 96.9 50.4 96.5 49.65 L 74.9 12 Q 74.45 11.25 73.5 10.65 72.45 10.1 71.6 10.1 L 28.35 10.1 Q 27.5 10.1 26.5 10.65 25.5 11.25 25.1 12 L 3.5 49.65 Q 3.05 50.4 3.05 51.55 3.05 52.7 3.5 53.4 L 25.1 91.1 Q 25.5 91.85 26.5 92.45 27.5 93 28.35 93 L 71.6 93 Q 72.45 93 73.5 92.45 74.45 91.85 74.9 91.1 L 96.5 53.4 Q 96.9 52.7 96.9 51.55 Z"></path>
</mask><g id="gloss-top">
<path fill="url(#Gradient_1)" stroke="none" d=" M 96.5 53.4 L 95.45 55.25 Q 98 52.85 99.9 50.3 99.7 49 99.15 48.1 L 77.55 10.45 Q 76.7 9 75 8.05 73.3 7 71.6 7 L 28.35 7 Q 26.7 7 25 8.05 23.3 9 22.45 10.45 L 0.8 48.1 Q 0.3 49.05 0.1 50.3 1.95 52.85 4.55 55.25 L 3.5 53.4 Q 3.05 52.7 3.05 51.55 3.05 50.4 3.5 49.65 L 25.1 12 Q 25.5 11.25 26.5 10.65 27.5 10.1 28.35 10.1 L 71.6 10.1 Q 72.45 10.1 73.5 10.65 74.45 11.25 74.9 12 L 96.5 49.65 Q 96.9 50.4 96.9 51.55 96.9 52.7 96.5 53.4 Z"></path>
</g><g id="gloss-right">
<path fill="url(#Gradient_2)" stroke="none" d=" M 99.15 55 Q 100 53.5 100 51.55 100 49.6 99.15 48.1 L 77.55 10.45 Q 76.7 9 75 8.05 73.3 7 71.6 7 L 28.35 7 Q 26.75 7 25.1 7.95 L 26.65 10.6 Q 27.6 10.1 28.35 10.1 L 71.6 10.1 Q 72.45 10.1 73.5 10.65 74.45 11.25 74.9 12 L 96.5 49.65 Q 96.9 50.4 96.9 51.55 96.9 52.7 96.5 53.4 L 74.9 91.1 Q 74.65 91.5 74.05 92 L 75.65 94.7 Q 76.9 93.7 77.55 92.65 L 99.15 55 Z"></path>
</g><g id="gloss-left">
<path fill="url(#Gradient_3)" stroke="none" d=" M 75.75 13.5 L 77.6 10.55 77.55 10.45 Q 76.7 9 75 8.05 73.3 7 71.6 7 L 28.35 7 Q 26.7 7 25 8.05 23.3 9 22.45 10.45 L 0.8 48.1 Q 0 49.6 0 51.55 0 53.5 0.8 55 L 22.45 92.65 Q 23.2 93.95 24.55 94.85 L 26.2 92.25 Q 25.45 91.65 25.1 91.1 L 3.5 53.4 Q 3.05 52.7 3.05 51.55 3.05 50.4 3.5 49.65 L 25.1 12 Q 25.5 11.25 26.5 10.65 27.5 10.1 28.35 10.1 L 71.6 10.1 Q 72.45 10.1 73.5 10.65 74.45 11.25 74.9 12 L 75.75 13.5 Z"></path>
</g>
			
	<linearGradient id="background-gradient" x1="0" y1="0" y2="1" x2="0" gradientTransform="rotate(90 0.5 0.5)">
		<stop stop-color="#255f18" offset="0%"></stop>
		<stop stop-color="#1d5c0f" offset="100%"></stop>
	</linearGradient>

			
			
			
			
		<linearGradient class="shapgradient" gradientTransform="rotate(0 0.5 0.5)" id="SvgjsLinearGradient1057"><stop stop-color="#3c592e" offset="0"></stop><stop stop-color="#9db21d" offset="1"></stop></linearGradient></defs><use xlink:href="#background" fill="url(#background-gradient)" class="background"></use><g class="geditable"><g mask="url(#mask)" fill="url(#SvgjsLinearGradient1057)" class="editable" transform="matrix(0.9,0,0,0.9,3,5)"><path d="M666.6666666666666 362.33611720403036H566.3666666666667L666.9666666666667 261.7361172040304C692.7666666666667 235.93611720403038 685.7666666666667 192.33611720403036 653.0666666666667 176.03611720403035C634.9666666666667 166.93611720403035 613.2666666666667 168.93611720403035 597.0666666666667 181.13611720403037L355.26666666666665 362.33611720403036H186.66666666666666C177.86666666666665 362.33611720403036 170.66666666666666 369.53611720403035 170.66666666666666 378.33611720403036V394.33611720403036C170.66666666666666 403.13611720403037 177.86666666666665 410.33611720403036 186.66666666666666 410.33611720403036H202.66666666666666V426.33611720403036C202.66666666666666 507.73611720403034 253.46666666666664 577.1361172040304 324.9666666666667 605.1361172040304C312.16666666666663 621.9361172040303 303.26666666666665 641.7361172040304 300.06666666666666 663.5361172040303C298.66666666666663 673.3361172040304 306.06666666666666 682.3361172040304 315.9666666666667 682.3361172040304H537.3666666666667C547.2666666666667 682.3361172040304 554.7666666666667 673.3361172040304 553.2666666666667 663.5361172040303C550.0666666666667 641.7361172040303 541.0666666666667 621.8361172040304 528.3666666666667 605.1361172040304C599.8666666666667 577.1361172040304 650.6666666666666 507.73611720403034 650.6666666666666 426.33611720403036V410.33611720403036H666.6666666666666C675.4666666666667 410.33611720403036 682.6666666666666 403.13611720403037 682.6666666666666 394.33611720403036V378.33611720403036C682.6666666666666 369.53611720403035 675.4666666666667 362.33611720403036 666.6666666666666 362.33611720403036ZM625.8666666666667 219.43611720403035C626.8666666666667 218.73611720403036 627.9666666666667 218.33611720403036 629.1666666666666 218.33611720403036C630.0666666666666 218.33611720403036 630.8666666666667 218.53611720403035 631.6666666666666 218.93611720403035C632.2666666666667 219.23611720403036 634.1666666666666 220.23611720403036 634.6666666666666 222.93611720403035S633.6666666666666 227.23611720403036 633.1666666666666 227.73611720403036L498.4666666666667 362.33611720403036H435.26666666666665ZM602.6666666666666 426.33611720403036C602.6666666666666 486.03611720403035 566.6666666666666 538.6361172040304 510.9666666666667 560.3361172040304L451.66666666666663 583.5361172040303L490.16666666666663 634.1361172040304C490.16666666666663 634.2361172040304 490.26666666666665 634.2361172040304 490.26666666666665 634.3361172040304H363.06666666666666C363.06666666666666 634.2361172040303 363.16666666666663 634.2361172040303 363.16666666666663 634.1361172040304L401.66666666666663 583.5361172040303L342.3666666666667 560.3361172040304C286.66666666666663 538.6361172040304 250.66666666666666 486.03611720403035 250.66666666666666 426.33611720403036V410.33611720403036H602.6666666666666Z " transform="matrix(0.1171875,0,0,0.1171875,0,0.036325711756944656)"></path></g></g><use xlink:href="#gloss-top" opacity="1" class="background"></use></g></svg>