<svg xmlns="http://www.w3.org/2000/svg" version="1.1" xmlns:xlink="http://www.w3.org/1999/xlink" xmlns:svgjs="http://svgjs.com/svgjs" width="83" height="83" viewBox="0 0 100 100"><g class="wrap" transform="matrix(1,0,0,1,0,0)"><defs class="background">
			<linearGradient id="Gradient_1" gradientUnits="userSpaceOnUse" x1="50" y1="7" x2="50" y2="55.2625" spreadMethod="pad">
<stop offset="0%" stop-color="#FFFFFF" stop-opacity="0.1"></stop>

<stop offset="100%" stop-color="#FFFFFF" stop-opacity="0.7"></stop>
</linearGradient><linearGradient id="Gradient_2" gradientUnits="userSpaceOnUse" x1="100" y1="51" x2="25" y2="50.85" spreadMethod="pad">
<stop offset="0%" stop-color="#FFFFFF" stop-opacity="0.1"></stop>

<stop offset="100%" stop-color="#FFFFFF" stop-opacity="0.7"></stop>
</linearGradient><linearGradient id="Gradient_3" gradientUnits="userSpaceOnUse" x1="0" y1="51" x2="77" y2="51" spreadMethod="pad">
<stop offset="0%" stop-color="#FFFFFF" stop-opacity="0.1"></stop>

<stop offset="100%" stop-color="#FFFFFF" stop-opacity="0.7"></stop>
</linearGradient><g id="background">
<path fill="url(#background-gradient)" stroke="none" d=" M 99.15 55 Q 100 53.5 100 51.55 100 49.6 99.15 48.1 L 77.55 10.45 Q 76.7 9 75 8.05 73.3 7 71.6 7 L 28.35 7 Q 26.7 7 25 8.05 23.3 9 22.45 10.45 L 0.8 48.1 Q 0 49.6 0 51.55 0 53.5 0.8 55 L 22.45 92.65 Q 23.3 94.1 25 95.1 26.7 96.05 28.35 96.05 L 71.6 96.05 Q 73.3 96.05 75 95.05 76.7 94.1 77.55 92.65 L 99.15 55 M 96.5 49.65 Q 96.9 50.4 96.9 51.55 96.9 52.7 96.5 53.4 L 74.9 91.1 Q 74.45 91.85 73.5 92.45 72.45 93 71.6 93 L 28.35 93 Q 27.5 93 26.5 92.45 25.5 91.85 25.1 91.1 L 3.5 53.4 Q 3.05 52.7 3.05 51.55 3.05 50.4 3.5 49.65 L 25.1 12 Q 25.5 11.25 26.5 10.65 27.5 10.1 28.35 10.1 L 71.6 10.1 Q 72.45 10.1 73.5 10.65 74.45 11.25 74.9 12 L 96.5 49.65 Z"></path>
</g><mask id="mask">
<path fill="#FFFFFF" stroke="none" d=" M 96.9 51.55 Q 96.9 50.4 96.5 49.65 L 74.9 12 Q 74.45 11.25 73.5 10.65 72.45 10.1 71.6 10.1 L 28.35 10.1 Q 27.5 10.1 26.5 10.65 25.5 11.25 25.1 12 L 3.5 49.65 Q 3.05 50.4 3.05 51.55 3.05 52.7 3.5 53.4 L 25.1 91.1 Q 25.5 91.85 26.5 92.45 27.5 93 28.35 93 L 71.6 93 Q 72.45 93 73.5 92.45 74.45 91.85 74.9 91.1 L 96.5 53.4 Q 96.9 52.7 96.9 51.55 Z"></path>
</mask><g id="gloss-top">
<path fill="url(#Gradient_1)" stroke="none" d=" M 96.5 53.4 L 95.45 55.25 Q 98 52.85 99.9 50.3 99.7 49 99.15 48.1 L 77.55 10.45 Q 76.7 9 75 8.05 73.3 7 71.6 7 L 28.35 7 Q 26.7 7 25 8.05 23.3 9 22.45 10.45 L 0.8 48.1 Q 0.3 49.05 0.1 50.3 1.95 52.85 4.55 55.25 L 3.5 53.4 Q 3.05 52.7 3.05 51.55 3.05 50.4 3.5 49.65 L 25.1 12 Q 25.5 11.25 26.5 10.65 27.5 10.1 28.35 10.1 L 71.6 10.1 Q 72.45 10.1 73.5 10.65 74.45 11.25 74.9 12 L 96.5 49.65 Q 96.9 50.4 96.9 51.55 96.9 52.7 96.5 53.4 Z"></path>
</g><g id="gloss-right">
<path fill="url(#Gradient_2)" stroke="none" d=" M 99.15 55 Q 100 53.5 100 51.55 100 49.6 99.15 48.1 L 77.55 10.45 Q 76.7 9 75 8.05 73.3 7 71.6 7 L 28.35 7 Q 26.75 7 25.1 7.95 L 26.65 10.6 Q 27.6 10.1 28.35 10.1 L 71.6 10.1 Q 72.45 10.1 73.5 10.65 74.45 11.25 74.9 12 L 96.5 49.65 Q 96.9 50.4 96.9 51.55 96.9 52.7 96.5 53.4 L 74.9 91.1 Q 74.65 91.5 74.05 92 L 75.65 94.7 Q 76.9 93.7 77.55 92.65 L 99.15 55 Z"></path>
</g><g id="gloss-left">
<path fill="url(#Gradient_3)" stroke="none" d=" M 75.75 13.5 L 77.6 10.55 77.55 10.45 Q 76.7 9 75 8.05 73.3 7 71.6 7 L 28.35 7 Q 26.7 7 25 8.05 23.3 9 22.45 10.45 L 0.8 48.1 Q 0 49.6 0 51.55 0 53.5 0.8 55 L 22.45 92.65 Q 23.2 93.95 24.55 94.85 L 26.2 92.25 Q 25.45 91.65 25.1 91.1 L 3.5 53.4 Q 3.05 52.7 3.05 51.55 3.05 50.4 3.5 49.65 L 25.1 12 Q 25.5 11.25 26.5 10.65 27.5 10.1 28.35 10.1 L 71.6 10.1 Q 72.45 10.1 73.5 10.65 74.45 11.25 74.9 12 L 75.75 13.5 Z"></path>
</g>
			
	<linearGradient id="background-gradient" x1="0" y1="0" y2="1" x2="0" gradientTransform="rotate(90 0.5 0.5)">
		<stop stop-color="#255f18" offset="0%"></stop>
		<stop stop-color="#1d5c0f" offset="100%"></stop>
	</linearGradient>

			
			
			
			
		<linearGradient class="shapgradient" gradientTransform="rotate(0 0.5 0.5)" id="SvgjsLinearGradient1029"><stop stop-color="#3c592e" offset="0"></stop><stop stop-color="#9db21d" offset="1"></stop></linearGradient></defs><use xlink:href="#background" fill="url(#background-gradient)" class="background"></use><g class="geditable"><g mask="url(#mask)" fill="url(#SvgjsLinearGradient1029)" class="editable" transform="matrix(0.9,0,0,0.9,5,5)"><g transform="matrix(0.125,0,0,0.125,14,0)">
	<g>
		<g>
			<path d="M288 416C326.4 416 359.472 388.656 366.608 350.96C368.25600000000003 342.288 362.544 333.904 353.872 332.272C345.152 330.576 336.81600000000003 336.336 335.184 345.008C330.88 367.6 311.04 384 288 384C261.536 384 240 362.464 240 336S261.536 288 288 288C296.832 288 304 280.832 304 272V237.05599999999998C322.576 230.43200000000002 336 212.832 336 192C336 165.536 314.464 144 288 144S240 165.536 240 192C240 212.832 253.424 230.43200000000002 272 237.05599999999998V257.616C235.536 265.04 208 297.36 208 336C208 380.11199999999997 243.888 416 288 416ZM288 176C296.816 176 304 183.184 304 192S296.816 208 288 208C279.18399999999997 208 272 200.816 272 192S279.18399999999997 176 288 176Z "></path>
			<path d="M512 624H64C55.168 624 48 631.168 48 640C48 648.832 55.168 656 64 656H512C520.832 656 528 648.832 528 640C528 631.168 520.832 624 512 624Z "></path>
			<path d="M512 576H64C55.168 576 48 583.168 48 592C48 600.832 55.168 608 64 608H512C520.832 608 528 600.832 528 592C528 583.168 520.832 576 512 576Z "></path>
			<path d="M64 560H512C520.832 560 528 552.832 528 544C528 535.168 520.832 528 512 528H64C55.168 528 48 535.168 48 544C48 552.832 55.168 560 64 560Z "></path>
			<path d="M88.00000381469727 512C90.04800381469727 512 92.09600381469727 511.216 93.66400381469727 509.664L205.66400381469725 397.664C208.78400381469726 394.544 208.78400381469726 389.472 205.66400381469725 386.352S197.47200381469725 383.23199999999997 194.35200381469724 386.352L82.35200381469724 498.352C79.23200381469724 501.472 79.23200381469724 506.544 82.35200381469724 509.664C83.90400381469726 511.216 85.95200381469726 512 88.00000381469727 512Z "></path>
			<path d="M482.336 509.664C483.904 511.216 485.952 512 488 512C490.048 512 492.096 511.216 493.664 509.664C496.784 506.544 496.784 501.472 493.664 498.352L381.664 386.352C378.544 383.23199999999997 373.472 383.23199999999997 370.352 386.352C367.23199999999997 389.472 367.23199999999997 394.544 370.352 397.664L482.336 509.664Z "></path>
		</g>
	</g>
</g><g transform="matrix(0.125,0,0,0.125,14,0)">
</g><g transform="matrix(0.125,0,0,0.125,14,0)">
</g><g transform="matrix(0.125,0,0,0.125,14,0)">
</g><g transform="matrix(0.125,0,0,0.125,14,0)">
</g><g transform="matrix(0.125,0,0,0.125,14,0)">
</g><g transform="matrix(0.125,0,0,0.125,14,0)">
</g><g transform="matrix(0.125,0,0,0.125,14,0)">
</g><g transform="matrix(0.125,0,0,0.125,14,0)">
</g><g transform="matrix(0.125,0,0,0.125,14,0)">
</g><g transform="matrix(0.125,0,0,0.125,14,0)">
</g><g transform="matrix(0.125,0,0,0.125,14,0)">
</g><g transform="matrix(0.125,0,0,0.125,14,0)">
</g><g transform="matrix(0.125,0,0,0.125,14,0)">
</g><g transform="matrix(0.125,0,0,0.125,14,0)">
</g><g transform="matrix(0.125,0,0,0.125,14,0)">
</g></g></g><use xlink:href="#gloss-top" opacity="1" class="background"></use></g></svg>