<svg xmlns="http://www.w3.org/2000/svg" version="1.1" xmlns:xlink="http://www.w3.org/1999/xlink" xmlns:svgjs="http://svgjs.com/svgjs" width="83" height="83" viewBox="0 0 100 100"><g class="wrap" transform="matrix(1,0,0,1,0,0)"><defs class="background">
			<linearGradient id="Gradient_1" gradientUnits="userSpaceOnUse" x1="50" y1="7" x2="50" y2="55.2625" spreadMethod="pad">
<stop offset="0%" stop-color="#FFFFFF" stop-opacity="0.1"></stop>

<stop offset="100%" stop-color="#FFFFFF" stop-opacity="0.7"></stop>
</linearGradient><linearGradient id="Gradient_2" gradientUnits="userSpaceOnUse" x1="100" y1="51" x2="25" y2="50.85" spreadMethod="pad">
<stop offset="0%" stop-color="#FFFFFF" stop-opacity="0.1"></stop>

<stop offset="100%" stop-color="#FFFFFF" stop-opacity="0.7"></stop>
</linearGradient><linearGradient id="Gradient_3" gradientUnits="userSpaceOnUse" x1="0" y1="51" x2="77" y2="51" spreadMethod="pad">
<stop offset="0%" stop-color="#FFFFFF" stop-opacity="0.1"></stop>

<stop offset="100%" stop-color="#FFFFFF" stop-opacity="0.7"></stop>
</linearGradient><g id="background">
<path fill="url(#background-gradient)" stroke="none" d=" M 99.15 55 Q 100 53.5 100 51.55 100 49.6 99.15 48.1 L 77.55 10.45 Q 76.7 9 75 8.05 73.3 7 71.6 7 L 28.35 7 Q 26.7 7 25 8.05 23.3 9 22.45 10.45 L 0.8 48.1 Q 0 49.6 0 51.55 0 53.5 0.8 55 L 22.45 92.65 Q 23.3 94.1 25 95.1 26.7 96.05 28.35 96.05 L 71.6 96.05 Q 73.3 96.05 75 95.05 76.7 94.1 77.55 92.65 L 99.15 55 M 96.5 49.65 Q 96.9 50.4 96.9 51.55 96.9 52.7 96.5 53.4 L 74.9 91.1 Q 74.45 91.85 73.5 92.45 72.45 93 71.6 93 L 28.35 93 Q 27.5 93 26.5 92.45 25.5 91.85 25.1 91.1 L 3.5 53.4 Q 3.05 52.7 3.05 51.55 3.05 50.4 3.5 49.65 L 25.1 12 Q 25.5 11.25 26.5 10.65 27.5 10.1 28.35 10.1 L 71.6 10.1 Q 72.45 10.1 73.5 10.65 74.45 11.25 74.9 12 L 96.5 49.65 Z"></path>
</g><mask id="mask">
<path fill="#FFFFFF" stroke="none" d=" M 96.9 51.55 Q 96.9 50.4 96.5 49.65 L 74.9 12 Q 74.45 11.25 73.5 10.65 72.45 10.1 71.6 10.1 L 28.35 10.1 Q 27.5 10.1 26.5 10.65 25.5 11.25 25.1 12 L 3.5 49.65 Q 3.05 50.4 3.05 51.55 3.05 52.7 3.5 53.4 L 25.1 91.1 Q 25.5 91.85 26.5 92.45 27.5 93 28.35 93 L 71.6 93 Q 72.45 93 73.5 92.45 74.45 91.85 74.9 91.1 L 96.5 53.4 Q 96.9 52.7 96.9 51.55 Z"></path>
</mask><g id="gloss-top">
<path fill="url(#Gradient_1)" stroke="none" d=" M 96.5 53.4 L 95.45 55.25 Q 98 52.85 99.9 50.3 99.7 49 99.15 48.1 L 77.55 10.45 Q 76.7 9 75 8.05 73.3 7 71.6 7 L 28.35 7 Q 26.7 7 25 8.05 23.3 9 22.45 10.45 L 0.8 48.1 Q 0.3 49.05 0.1 50.3 1.95 52.85 4.55 55.25 L 3.5 53.4 Q 3.05 52.7 3.05 51.55 3.05 50.4 3.5 49.65 L 25.1 12 Q 25.5 11.25 26.5 10.65 27.5 10.1 28.35 10.1 L 71.6 10.1 Q 72.45 10.1 73.5 10.65 74.45 11.25 74.9 12 L 96.5 49.65 Q 96.9 50.4 96.9 51.55 96.9 52.7 96.5 53.4 Z"></path>
</g><g id="gloss-right">
<path fill="url(#Gradient_2)" stroke="none" d=" M 99.15 55 Q 100 53.5 100 51.55 100 49.6 99.15 48.1 L 77.55 10.45 Q 76.7 9 75 8.05 73.3 7 71.6 7 L 28.35 7 Q 26.75 7 25.1 7.95 L 26.65 10.6 Q 27.6 10.1 28.35 10.1 L 71.6 10.1 Q 72.45 10.1 73.5 10.65 74.45 11.25 74.9 12 L 96.5 49.65 Q 96.9 50.4 96.9 51.55 96.9 52.7 96.5 53.4 L 74.9 91.1 Q 74.65 91.5 74.05 92 L 75.65 94.7 Q 76.9 93.7 77.55 92.65 L 99.15 55 Z"></path>
</g><g id="gloss-left">
<path fill="url(#Gradient_3)" stroke="none" d=" M 75.75 13.5 L 77.6 10.55 77.55 10.45 Q 76.7 9 75 8.05 73.3 7 71.6 7 L 28.35 7 Q 26.7 7 25 8.05 23.3 9 22.45 10.45 L 0.8 48.1 Q 0 49.6 0 51.55 0 53.5 0.8 55 L 22.45 92.65 Q 23.2 93.95 24.55 94.85 L 26.2 92.25 Q 25.45 91.65 25.1 91.1 L 3.5 53.4 Q 3.05 52.7 3.05 51.55 3.05 50.4 3.5 49.65 L 25.1 12 Q 25.5 11.25 26.5 10.65 27.5 10.1 28.35 10.1 L 71.6 10.1 Q 72.45 10.1 73.5 10.65 74.45 11.25 74.9 12 L 75.75 13.5 Z"></path>
</g>
			
	<linearGradient id="background-gradient" x1="0" y1="0" y2="1" x2="0" gradientTransform="rotate(90 0.5 0.5)">
		<stop stop-color="#255f18" offset="0%"></stop>
		<stop stop-color="#1d5c0f" offset="100%"></stop>
	</linearGradient>

			
			
			
			
		<linearGradient class="shapgradient" gradientTransform="rotate(0 0.5 0.5)" id="SvgjsLinearGradient1054"><stop stop-color="#3c592e" offset="0"></stop><stop stop-color="#9db21d" offset="1"></stop></linearGradient></defs><use xlink:href="#background" fill="url(#background-gradient)" class="background"></use><g class="geditable"><g mask="url(#mask)" fill="url(#SvgjsLinearGradient1054)" class="editable" transform="matrix(0.9,0,0,0.9,7.000000572204591,7.000000190734859)"><path d="M529.2769312795645 254.823050030435C530.2619312795645 248.670050030435 528.1269312795645 242.462050030435 523.5649312795645 238.217050030435L509.41593127956446 225.050050030435C516.4939312795644 223.361050030435 522.9639312795645 219.693050030435 528.1809312795644 214.318050030435C535.5589312795644 206.718050030435 539.4499312795645 196.705050030435 539.1359312795644 186.12505003043498C538.5209312795644 165.367050030435 520.8169312795644 148.479050030435 499.67093127956446 148.479050030435H216.60193127956444C194.71593127956444 148.479050030435 177.15293127956446 166.571050030435 177.80293127956443 188.46605003043499C178.32293127956444 205.970050030435 191.01093127956443 220.736050030435 207.65993127956443 224.92305003043498L193.37293127956443 238.217050030435C187.07293127956444 244.080050030435 185.61293127956444 253.43505003043498 189.77893127956443 260.937050030435C177.42893127956444 279.043050030435 170.66693127956444 300.793050030435 170.66693127956444 322.735050030435V544.045050030435C170.66693127956444 604.5020500304349 219.85193127956444 653.687050030435 280.3089312795644 653.687050030435H436.6289312795644C497.0859312795644 653.687050030435 546.2719312795645 604.5020500304349 546.2719312795645 544.045050030435V322.735050030435C546.2719312795645 300.79405003043496 539.5099312795644 279.04405003043496 527.1589312795644 260.936050030435C528.1979312795644 259.06305003043497 528.9279312795644 257.003050030435 529.2769312795645 254.82305003043498ZM203.59093127956447 249.198050030435C225.87093127956447 228.412050030435 225.1179312795645 229.301050030435 225.85693127956446 228.319050030435C226.37793127956448 227.626050030435 226.78593127956447 226.880050030435 227.11993127956447 226.111050030435H256.9669312795645C261.10893127956444 226.111050030435 264.4669312795645 222.753050030435 264.4669312795645 218.611050030435S261.10893127956444 211.111050030435 256.9669312795645 211.111050030435H217.23193127956446C204.13493127956448 211.092050030435 193.17293127956447 200.735050030435 192.79593127956448 188.021050030435C192.3979312795645 174.582050030435 203.1899312795645 163.479050030435 216.60193127956447 163.479050030435H499.67093127956446C512.7869312795644 163.479050030435 523.7649312795645 173.837050030435 524.1419312795645 186.570050030435C524.3349312795644 193.06105003043498 521.9469312795645 199.205050030435 517.4179312795645 203.87005003043498C512.8869312795645 208.538050030435 506.8219312795645 211.10905003043501 500.3419312795645 211.111050030435C500.33993127956444 211.111050030435 500.3379312795645 211.111050030435 500.33593127956453 211.111050030435H292.0209312795645C287.87893127956454 211.111050030435 284.5209312795645 214.469050030435 284.5209312795645 218.611050030435S287.87893127956454 226.111050030435 292.0209312795645 226.111050030435H489.8179312795645C490.1529312795644 226.881050030435 490.55993127956447 227.627050030435 491.0819312795645 228.320050030435C491.8219312795645 229.30605003043502 491.1199312795645 228.462050030435 513.3469312795645 249.198050030435C514.5889312795645 250.35405003043502 514.5809312795644 251.73305003043498 514.4669312795645 252.452050030435C514.2649312795645 253.701050030435 513.4729312795645 254.695050030435 512.3849312795645 255.196050030435C512.3839312795645 255.196050030435 512.3839312795645 255.197050030435 512.3829312795644 255.197050030435C503.1299312795645 259.462050030435 491.61293127956446 264.770050030435 484.8999312795645 265.402050030435C473.5159312795645 266.467050030435 458.13693127956446 253.432050030435 441.9319312795644 254.439050030435C425.81593127956444 255.448050030435 412.0109312795645 270.320050030435 400.6679312795644 270.67505003043505C389.2709312795645 270.989050030435 374.5879312795645 257.049050030435 358.46893127956446 257.049050030435C342.2219312795644 257.049050030435 327.7639312795644 270.995050030435 316.2699312795644 270.67505003043505C304.9319312795644 270.320050030435 291.1219312795645 255.44705003043504 275.0059312795644 254.439050030435C258.8849312795644 253.424050030435 243.36793127956443 266.467050030435 232.03793127956445 265.402050030435C224.59193127956442 264.701050030435 205.03993127956443 255.650050030435 203.87493127956444 254.787050030435C202.88593127956443 254.055050030435 202.56693127956444 253.05005003043502 202.47093127956444 252.45205003043503C202.35593127956443 251.73305003043504 202.34893127956443 250.35405003043502 203.59093127956444 249.198050030435ZM436.6289312795644 638.687050030435H280.3089312795645C228.12293127956448 638.687050030435 185.6669312795645 596.231050030435 185.6669312795645 544.045050030435V344.91605003043503H531.2709312795645V544.045050030435C531.2709312795645 596.231050030435 488.81493127956446 638.687050030435 436.6289312795644 638.687050030435ZM531.2709312795645 329.916050030435H185.6669312795645V322.735050030435C185.6669312795645 304.16905003043496 191.2819312795645 285.764050030435 201.54593127956448 270.32305003043496C211.5139312795645 274.8870500304349 222.2919312795645 279.55205003043494 230.63293127956447 280.336050030435C246.93893127956449 281.87305003043497 262.4999312795645 268.70305003043495 274.0679312795645 269.41005003043495C285.5679312795645 270.130050030435 299.4569312795645 285.15705003043496 315.80093127956445 285.668050030435C332.19493127956446 286.17205003043495 346.8949312795645 272.04905003043496 358.4679312795645 272.04905003043496C369.9419312795644 272.04905003043496 384.8219312795644 286.17105003043497 401.1349312795645 285.668050030435C417.48893127956444 285.15705003043496 431.3359312795644 270.1320500304349 442.8669312795645 269.41005003043495C454.3079312795644 268.697050030435 470.0859312795644 281.86705003043494 486.3019312795644 280.336050030435C494.6449312795645 279.552050030435 505.42193127956443 274.8870500304349 515.3899312795645 270.32305003043496C525.6559312795645 285.764050030435 531.2699312795645 304.16905003043496 531.2699312795645 322.735050030435V329.916050030435Z " transform="matrix(0.11718748603016305,0,0,0.11718748603016305,-0.000028625131106352287,2.9980244812927004)"></path><path d="M432.10595607509674 474.9760729186187L402.78895607509673 458.0500729186187V424.1970729186187C402.78895607509673 418.8530729186187 399.91395607509673 413.8730729186187 395.28595607509675 411.2010729186187L365.9719560750968 394.2770729186187C361.34395607509674 391.6050729186187 355.59395607509674 391.6040729186187 350.96595607509676 394.2770729186187L321.65195607509673 411.2010729186187C317.02395607509675 413.87307291861873 314.14895607509675 418.8530729186187 314.14895607509675 424.1970729186187V458.0500729186187L284.8329560750968 474.9760729186187C280.20495607509673 477.6480729186187 277.32895607509676 482.62807291861867 277.32895607509676 487.9730729186187V521.8220729186187C277.32895607509676 527.1660729186187 280.20395607509676 532.1460729186188 284.83195607509674 534.8180729186187L314.14595607509676 551.7430729186187C316.4599560750967 553.0790729186187 319.0539560750967 553.7460729186187 321.64895607509675 553.7460729186187C324.24295607509674 553.7460729186187 326.83795607509677 553.0780729186187 329.15195607509673 551.7420729186186L358.46895607509674 534.8160729186186L387.78595607509675 551.7420729186186C390.0999560750967 553.0780729186187 392.69395607509676 553.7460729186187 395.28895607509673 553.7460729186187C397.88295607509673 553.7460729186187 400.47795607509676 553.0780729186187 402.7919560750967 551.7420729186186L432.10595607509674 534.8180729186187C436.7339560750967 532.1460729186186 439.6089560750967 527.1660729186187 439.6089560750967 521.8220729186187V487.9730729186187C439.6089560750967 482.62807291861867 436.7339560750967 477.6480729186187 432.10595607509674 474.9760729186187ZM329.15195607509673 424.1920729186187L358.4719560750967 407.2680729186187L387.78895607509673 424.1980729186187V458.05107291861873L373.1289560750967 466.5150729186187L358.46895607509674 474.9790729186187L355.69195607509675 473.3760729186187L329.1499560750968 458.05107291861873ZM321.64595607509676 538.7500729186187L292.32895607509676 521.8200729186187L292.33195607509674 487.9660729186187L321.6489560750967 471.0400729186187L336.3089560750967 479.5040729186187L350.96895607509674 487.9680729186187V521.8230729186187ZM424.6089560750967 521.8210729186187L395.28595607509675 538.7510729186188L365.96895607509674 521.8250729186187V487.96907291861874L395.2879560750967 471.04107291861874L424.6089560750967 487.97307291861875Z " transform="matrix(0.11718748603016305,0,0,0.11718748603016305,-0.000028625131106352287,2.9980244812927004)"></path><path d="M682.6669942220695 248.5420547988066C682.6669942220695 237.71105479880657 675.8179942220696 228.4530547988066 666.2249942220695 224.8630547988066C668.1169942220696 221.32105479880659 669.1939942220696 217.2810547988066 669.1939942220696 212.99205479880658C669.1939942220696 200.90305479880658 660.6609942220695 190.7740547988066 649.3019942220695 188.3000547988066V178.2690547988066C649.3019942220695 162.4060547988066 636.6479942220695 149.0500547988066 621.0929942220695 148.4980547988066C604.4419942220695 147.9170547988066 590.7649942220695 161.19505479880658 590.7649942220695 177.7480547988066V188.3010547988066C579.4069942220696 190.7750547988066 570.8729942220696 200.90405479880658 570.8729942220696 212.99305479880658C570.8729942220696 217.28105479880657 571.9499942220696 221.3220547988066 573.8419942220695 224.8640547988066C564.2489942220695 228.45405479880657 557.3999942220695 237.71205479880658 557.3999942220695 248.54305479880657C557.3999942220695 255.4670547988066 560.2009942220695 261.7480547988066 564.7259942220695 266.31805479880654C560.1999942220696 270.8880547988066 557.3999942220695 277.16905479880654 557.3999942220695 284.0930547988066C557.3999942220695 294.92405479880654 564.2489942220695 304.1820547988066 573.8419942220695 307.7720547988066C571.9499942220696 311.3140547988066 570.8729942220696 315.3540547988066 570.8729942220696 319.6430547988066C570.8729942220696 331.7320547988066 579.4059942220696 341.86105479880655 590.7649942220695 344.3350547988066V373.47105479880656C590.7649942220695 377.6130547988066 594.1219942220696 380.97105479880656 598.2649942220695 380.97105479880656S605.7649942220695 377.6130547988066 605.7649942220695 373.47105479880656V344.91805479880657H634.3019942220695V624.4200547988066C634.3019942220695 632.2880547988066 627.9019942220696 638.6890547988066 620.0329942220695 638.6890547988066S605.7639942220695 632.2880547988066 605.7639942220695 624.4200547988066V408.53805479880657C605.7639942220695 404.3960547988066 602.4069942220696 401.03805479880657 598.2639942220695 401.03805479880657S590.7639942220695 404.3960547988066 590.7639942220695 408.53805479880657V624.4190547988067C590.7639942220695 640.5580547988066 603.8939942220695 653.6880547988067 620.0329942220695 653.6880547988067S649.3019942220695 640.5580547988066 649.3019942220695 624.4190547988067V344.3340547988066C660.6599942220695 341.86005479880663 669.1939942220696 331.7310547988066 669.1939942220696 319.6420547988066C669.1939942220696 315.3540547988066 668.1169942220696 311.3130547988066 666.2249942220695 307.77105479880663C675.8179942220696 304.1810547988066 682.6669942220695 294.92305479880656 682.6669942220695 284.0920547988066C682.6669942220695 277.16805479880657 679.8659942220696 270.8870547988066 675.3409942220695 266.31705479880657C679.8659942220695 261.7480547988066 682.6669942220695 255.4670547988066 682.6669942220695 248.5420547988066ZM620.5609942220696 163.4880547988066C628.1379942220696 163.7580547988066 634.3029942220695 170.3880547988066 634.3029942220695 178.2690547988066V187.71805479880658H605.7659942220696V177.74705479880657C605.7659942220696 169.73105479880658 612.3639942220697 163.21305479880658 620.5609942220696 163.4880547988066ZM596.1479942220695 202.71805479880658H643.9189942220695C649.5839942220696 202.71805479880658 654.1929942220696 207.32705479880659 654.1929942220696 212.99305479880658S649.5839942220696 223.2680547988066 643.9189942220695 223.2680547988066H596.1479942220695C590.4829942220696 223.2680547988066 585.8739942220695 218.6590547988066 585.8739942220695 212.99305479880658S590.4829942220696 202.71805479880658 596.1479942220695 202.71805479880658ZM582.6759942220696 238.2680547988066H657.3929942220695C663.0579942220696 238.2680547988066 667.6669942220695 242.87705479880657 667.6669942220695 248.5420547988066S663.0579942220696 258.81705479880657 657.3929942220695 258.81705479880657H582.6759942220696C577.0109942220696 258.81705479880657 572.4019942220696 254.2080547988066 572.4019942220696 248.5420547988066S577.0109942220696 238.2680547988066 582.6759942220696 238.2680547988066ZM643.9199942220696 329.9160547988066H596.1489942220695C590.4839942220696 329.9160547988066 585.8749942220696 325.3070547988066 585.8749942220696 319.6410547988066S590.4839942220696 309.36605479880654 596.1489942220695 309.36605479880654H643.9199942220696C649.5849942220697 309.36605479880654 654.1939942220696 313.9750547988066 654.1939942220696 319.6410547988066S649.5849942220697 329.9160547988066 643.9199942220696 329.9160547988066ZM657.3929942220697 294.3670547988066H582.6759942220696C577.0109942220696 294.3670547988066 572.4019942220697 289.7580547988066 572.4019942220697 284.0930547988066S577.0109942220696 273.81805479880654 582.6759942220696 273.81805479880654H657.3929942220697C663.0579942220696 273.81805479880654 667.6669942220695 278.4270547988066 667.6669942220695 284.0930547988066S663.0579942220696 294.3670547988066 657.3929942220697 294.3670547988066Z " transform="matrix(0.11718748603016305,0,0,0.11718748603016305,-0.000028625131106352287,2.9980244812927004)"></path></g></g><use xlink:href="#gloss-top" opacity="1" class="background"></use></g></svg>