<svg xmlns="http://www.w3.org/2000/svg" version="1.1" xmlns:xlink="http://www.w3.org/1999/xlink" xmlns:svgjs="http://svgjs.com/svgjs" width="83" height="83" viewBox="0 0 100 100"><g class="wrap" transform="matrix(1,0,0,1,0,0)"><defs class="background">
			<linearGradient id="Gradient_1" gradientUnits="userSpaceOnUse" x1="50" y1="7" x2="50" y2="55.2625" spreadMethod="pad">
<stop offset="0%" stop-color="#FFFFFF" stop-opacity="0.1"></stop>

<stop offset="100%" stop-color="#FFFFFF" stop-opacity="0.7"></stop>
</linearGradient><linearGradient id="Gradient_2" gradientUnits="userSpaceOnUse" x1="100" y1="51" x2="25" y2="50.85" spreadMethod="pad">
<stop offset="0%" stop-color="#FFFFFF" stop-opacity="0.1"></stop>

<stop offset="100%" stop-color="#FFFFFF" stop-opacity="0.7"></stop>
</linearGradient><linearGradient id="Gradient_3" gradientUnits="userSpaceOnUse" x1="0" y1="51" x2="77" y2="51" spreadMethod="pad">
<stop offset="0%" stop-color="#FFFFFF" stop-opacity="0.1"></stop>

<stop offset="100%" stop-color="#FFFFFF" stop-opacity="0.7"></stop>
</linearGradient><g id="background">
<path fill="url(#background-gradient)" stroke="none" d=" M 99.15 55 Q 100 53.5 100 51.55 100 49.6 99.15 48.1 L 77.55 10.45 Q 76.7 9 75 8.05 73.3 7 71.6 7 L 28.35 7 Q 26.7 7 25 8.05 23.3 9 22.45 10.45 L 0.8 48.1 Q 0 49.6 0 51.55 0 53.5 0.8 55 L 22.45 92.65 Q 23.3 94.1 25 95.1 26.7 96.05 28.35 96.05 L 71.6 96.05 Q 73.3 96.05 75 95.05 76.7 94.1 77.55 92.65 L 99.15 55 M 96.5 49.65 Q 96.9 50.4 96.9 51.55 96.9 52.7 96.5 53.4 L 74.9 91.1 Q 74.45 91.85 73.5 92.45 72.45 93 71.6 93 L 28.35 93 Q 27.5 93 26.5 92.45 25.5 91.85 25.1 91.1 L 3.5 53.4 Q 3.05 52.7 3.05 51.55 3.05 50.4 3.5 49.65 L 25.1 12 Q 25.5 11.25 26.5 10.65 27.5 10.1 28.35 10.1 L 71.6 10.1 Q 72.45 10.1 73.5 10.65 74.45 11.25 74.9 12 L 96.5 49.65 Z"></path>
</g><mask id="mask">
<path fill="#FFFFFF" stroke="none" d=" M 96.9 51.55 Q 96.9 50.4 96.5 49.65 L 74.9 12 Q 74.45 11.25 73.5 10.65 72.45 10.1 71.6 10.1 L 28.35 10.1 Q 27.5 10.1 26.5 10.65 25.5 11.25 25.1 12 L 3.5 49.65 Q 3.05 50.4 3.05 51.55 3.05 52.7 3.5 53.4 L 25.1 91.1 Q 25.5 91.85 26.5 92.45 27.5 93 28.35 93 L 71.6 93 Q 72.45 93 73.5 92.45 74.45 91.85 74.9 91.1 L 96.5 53.4 Q 96.9 52.7 96.9 51.55 Z"></path>
</mask><g id="gloss-top">
<path fill="url(#Gradient_1)" stroke="none" d=" M 96.5 53.4 L 95.45 55.25 Q 98 52.85 99.9 50.3 99.7 49 99.15 48.1 L 77.55 10.45 Q 76.7 9 75 8.05 73.3 7 71.6 7 L 28.35 7 Q 26.7 7 25 8.05 23.3 9 22.45 10.45 L 0.8 48.1 Q 0.3 49.05 0.1 50.3 1.95 52.85 4.55 55.25 L 3.5 53.4 Q 3.05 52.7 3.05 51.55 3.05 50.4 3.5 49.65 L 25.1 12 Q 25.5 11.25 26.5 10.65 27.5 10.1 28.35 10.1 L 71.6 10.1 Q 72.45 10.1 73.5 10.65 74.45 11.25 74.9 12 L 96.5 49.65 Q 96.9 50.4 96.9 51.55 96.9 52.7 96.5 53.4 Z"></path>
</g><g id="gloss-right">
<path fill="url(#Gradient_2)" stroke="none" d=" M 99.15 55 Q 100 53.5 100 51.55 100 49.6 99.15 48.1 L 77.55 10.45 Q 76.7 9 75 8.05 73.3 7 71.6 7 L 28.35 7 Q 26.75 7 25.1 7.95 L 26.65 10.6 Q 27.6 10.1 28.35 10.1 L 71.6 10.1 Q 72.45 10.1 73.5 10.65 74.45 11.25 74.9 12 L 96.5 49.65 Q 96.9 50.4 96.9 51.55 96.9 52.7 96.5 53.4 L 74.9 91.1 Q 74.65 91.5 74.05 92 L 75.65 94.7 Q 76.9 93.7 77.55 92.65 L 99.15 55 Z"></path>
</g><g id="gloss-left">
<path fill="url(#Gradient_3)" stroke="none" d=" M 75.75 13.5 L 77.6 10.55 77.55 10.45 Q 76.7 9 75 8.05 73.3 7 71.6 7 L 28.35 7 Q 26.7 7 25 8.05 23.3 9 22.45 10.45 L 0.8 48.1 Q 0 49.6 0 51.55 0 53.5 0.8 55 L 22.45 92.65 Q 23.2 93.95 24.55 94.85 L 26.2 92.25 Q 25.45 91.65 25.1 91.1 L 3.5 53.4 Q 3.05 52.7 3.05 51.55 3.05 50.4 3.5 49.65 L 25.1 12 Q 25.5 11.25 26.5 10.65 27.5 10.1 28.35 10.1 L 71.6 10.1 Q 72.45 10.1 73.5 10.65 74.45 11.25 74.9 12 L 75.75 13.5 Z"></path>
</g>
			
	<linearGradient id="background-gradient" x1="0" y1="0" y2="1" x2="0" gradientTransform="rotate(90 0.5 0.5)">
		<stop stop-color="#255f18" offset="0%"></stop>
		<stop stop-color="#1d5c0f" offset="100%"></stop>
	</linearGradient>

			
			
			
			
		<linearGradient class="shapgradient" gradientTransform="rotate(0 0.5 0.5)" id="SvgjsLinearGradient1011"><stop stop-color="#3c592e" offset="0"></stop><stop stop-color="#9db21d" offset="1"></stop></linearGradient></defs><use xlink:href="#background" fill="url(#background-gradient)" class="background"></use><g class="geditable"><g mask="url(#mask)" fill="url(#SvgjsLinearGradient1011)" class="editable" transform="matrix(0.9,0,0,0.9,5,4.999999809265134)"><g transform="matrix(0.1171875,0,0,0.1171875,-0.000006735324859619141,0.220703125)"><g><path d="M331.0167317708489 182.33656132507323H346.0167317708489V279.99356132507324H331.0167317708489Z "></path><path d="M508.0167317708489 182.33656132507323H523.0167317708489V279.99356132507324H508.0167317708489Z "></path><path d="M419.5167317708489 169.03356132507324H434.5167317708489V267.69056132507325H419.5167317708489Z "></path><path d="M562.6497241414543 613.2895918426514C485.31072414145433 682.8945918426514 368.1377241414543 682.9985918426513 290.6837241414543 613.2895918426514L288.5447241414543 611.3635918426514H185.66672414145432V465.8635918426514H235.67672414145432V450.8635918426514H170.66672414145432V626.3635918426514H282.8167241414543C365.2637241414543 698.6275918426513 488.1557241414543 698.5515918426514 570.5157241414543 626.3635918426514H621.3757241414544V611.3635918426514H564.7877241414543Z "></path><path d="M617.6567317708489 450.86356132507325V465.86356132507325H667.6667317708489V611.3635613250733H636.3767317708489V626.3635613250733H682.6667317708489V450.86356132507325Z "></path><path d="M610.6667317708489 555.5335613250733V540.5335613250733H573.0357317708489C587.8997317708488 514.5495613250732 595.1667317708489 485.8015613250733 595.1667317708489 457.03356132507326C595.1667317708489 364.12256132507326 519.5777317708489 288.53356132507326 426.66673177084886 288.53356132507326C377.01773177084885 288.53356132507326 330.12873177084884 310.28356132507326 298.02273177084885 348.20756132507324L309.47073177084883 357.8985613250733C338.72073177084883 323.34856132507326 381.43773177084887 303.53356132507326 426.66673177084886 303.53356132507326C511.30673177084884 303.53356132507326 580.1667317708489 372.39256132507325 580.1667317708489 457.03356132507326C580.1667317708489 486.04056132507327 572.0587317708489 515.0175613250733 555.4777317708488 540.5335613250733H529.5417317708489C548.5787317708489 517.0385613250733 559.2477317708489 487.44356132507323 559.2477317708489 457.03356132507326C559.2477317708489 383.92856132507325 499.7717317708489 324.4535613250732 426.66673177084886 324.4535613250732S294.0867317708488 383.9295613250732 294.0867317708488 457.03356132507326C294.0867317708488 487.4435613250733 304.75573177084885 517.0385613250733 323.79273177084883 540.5335613250733H297.8557317708488C281.27573177084884 515.0195613250733 273.16673177084886 486.04356132507326 273.16673177084886 457.03356132507326C273.16673177084886 425.4555613250733 282.67973177084883 395.12956132507327 300.6777317708488 369.3355613250733L288.3757317708488 360.7515613250733C250.56973177084882 414.93756132507326 248.64273177084883 485.1985613250733 280.2977317708488 540.5335613250733H241.66673177084883V555.5335613250733ZM434.4997317708488 464.5715613250733C448.00873177084884 465.2875613250733 458.7797317708488 476.50256132507326 458.7797317708488 490.1865613250733V496.5825613250733C458.7797317708488 511.6765613250733 448.3087317708488 524.3655613250733 434.2497317708488 527.7835613250734C434.38873177084884 506.73256132507333 434.47273177084884 485.6425613250733 434.4997317708488 464.57156132507333ZM419.5147317708488 449.51656132507327C405.6887317708488 449.14756132507324 394.5527317708488 437.7945613250733 394.5527317708488 423.8815613250733V417.48556132507326C394.5527317708488 402.2965613250733 405.1567317708488 389.5455613250733 419.34773177084884 386.2235613250733C419.45873177084883 407.2335613250733 419.51573177084884 428.3505613250733 419.5147317708488 449.51656132507327ZM309.0867317708488 457.03356132507326C309.0867317708488 392.19956132507326 361.8327317708488 339.4535613250733 426.6667317708488 339.4535613250733S544.2477317708488 392.1995613250733 544.2477317708488 457.03356132507326C544.2477317708488 488.7255613250733 531.8807317708488 518.2625613250732 509.3587317708488 540.5335613250733H443.6057317708488C461.2377317708488 533.7145613250732 473.78073177084883 516.5915613250733 473.78073177084883 496.58256132507324V490.1865613250732C473.78073177084883 468.2355613250732 456.28973177084885 450.3045613250732 434.5147317708488 449.5695613250732C434.5167317708488 428.41456132507324 434.45873177084883 407.30856132507324 434.3497317708488 386.3075613250732C447.8487317708488 389.6345613250732 458.7807317708488 401.7575613250732 458.7807317708488 417.9465613250732H473.7807317708488C473.7807317708488 393.37556132507325 456.0857317708488 374.54456132507323 434.2587317708488 370.9925613250732C434.2287317708488 366.44856132507323 434.20173177084877 361.8985613250732 434.1667317708488 357.3675613250732L419.1667317708488 357.4825613250732C419.2017317708488 361.9645613250732 419.2277317708488 366.4655613250732 419.2577317708488 370.9595613250732C396.78773177084884 374.52456132507325 379.5537317708488 394.02756132507324 379.5537317708488 417.48556132507326V423.8815613250732C379.5537317708488 446.0605613250732 397.41073177084877 464.1365613250732 419.5007317708488 464.51556132507324C419.4727317708488 485.61856132507324 419.38873177084884 506.73856132507325 419.2507317708488 527.8215613250732C405.5347317708488 524.5645613250732 394.5537317708488 512.3175613250733 394.5537317708488 496.12156132507323H379.5537317708488C379.5537317708488 516.8445613250733 392.1927317708488 533.7515613250732 409.7287317708488 540.5335613250732H343.9767317708488C321.4537317708488 518.2635613250732 309.0867317708488 488.7275613250732 309.0867317708488 457.0335613250732Z "></path></g><g><g><path d="M339.1747317708489 450.86356132507325H354.1747317708489V465.86356132507325H339.1747317708489Z "></path></g><g><path d="M499.17473177084884 450.86356132507325H514.1747317708489V465.86356132507325H499.17473177084884Z "></path></g></g></g></g></g><use xlink:href="#gloss-top" opacity="1" class="background"></use></g></svg>