<svg xmlns="http://www.w3.org/2000/svg" version="1.1" xmlns:xlink="http://www.w3.org/1999/xlink" xmlns:svgjs="http://svgjs.com/svgjs" width="83" height="83" viewBox="0 0 100 100"><g class="wrap" transform="matrix(1,0,0,1,0,0)"><defs class="background">
			<linearGradient id="Gradient_1" gradientUnits="userSpaceOnUse" x1="50" y1="7" x2="50" y2="55.2625" spreadMethod="pad">
<stop offset="0%" stop-color="#FFFFFF" stop-opacity="0.1"></stop>

<stop offset="100%" stop-color="#FFFFFF" stop-opacity="0.7"></stop>
</linearGradient><linearGradient id="Gradient_2" gradientUnits="userSpaceOnUse" x1="100" y1="51" x2="25" y2="50.85" spreadMethod="pad">
<stop offset="0%" stop-color="#FFFFFF" stop-opacity="0.1"></stop>

<stop offset="100%" stop-color="#FFFFFF" stop-opacity="0.7"></stop>
</linearGradient><linearGradient id="Gradient_3" gradientUnits="userSpaceOnUse" x1="0" y1="51" x2="77" y2="51" spreadMethod="pad">
<stop offset="0%" stop-color="#FFFFFF" stop-opacity="0.1"></stop>

<stop offset="100%" stop-color="#FFFFFF" stop-opacity="0.7"></stop>
</linearGradient><g id="background">
<path fill="url(#background-gradient)" stroke="none" d=" M 99.15 55 Q 100 53.5 100 51.55 100 49.6 99.15 48.1 L 77.55 10.45 Q 76.7 9 75 8.05 73.3 7 71.6 7 L 28.35 7 Q 26.7 7 25 8.05 23.3 9 22.45 10.45 L 0.8 48.1 Q 0 49.6 0 51.55 0 53.5 0.8 55 L 22.45 92.65 Q 23.3 94.1 25 95.1 26.7 96.05 28.35 96.05 L 71.6 96.05 Q 73.3 96.05 75 95.05 76.7 94.1 77.55 92.65 L 99.15 55 M 96.5 49.65 Q 96.9 50.4 96.9 51.55 96.9 52.7 96.5 53.4 L 74.9 91.1 Q 74.45 91.85 73.5 92.45 72.45 93 71.6 93 L 28.35 93 Q 27.5 93 26.5 92.45 25.5 91.85 25.1 91.1 L 3.5 53.4 Q 3.05 52.7 3.05 51.55 3.05 50.4 3.5 49.65 L 25.1 12 Q 25.5 11.25 26.5 10.65 27.5 10.1 28.35 10.1 L 71.6 10.1 Q 72.45 10.1 73.5 10.65 74.45 11.25 74.9 12 L 96.5 49.65 Z"></path>
</g><mask id="mask">
<path fill="#FFFFFF" stroke="none" d=" M 96.9 51.55 Q 96.9 50.4 96.5 49.65 L 74.9 12 Q 74.45 11.25 73.5 10.65 72.45 10.1 71.6 10.1 L 28.35 10.1 Q 27.5 10.1 26.5 10.65 25.5 11.25 25.1 12 L 3.5 49.65 Q 3.05 50.4 3.05 51.55 3.05 52.7 3.5 53.4 L 25.1 91.1 Q 25.5 91.85 26.5 92.45 27.5 93 28.35 93 L 71.6 93 Q 72.45 93 73.5 92.45 74.45 91.85 74.9 91.1 L 96.5 53.4 Q 96.9 52.7 96.9 51.55 Z"></path>
</mask><g id="gloss-top">
<path fill="url(#Gradient_1)" stroke="none" d=" M 96.5 53.4 L 95.45 55.25 Q 98 52.85 99.9 50.3 99.7 49 99.15 48.1 L 77.55 10.45 Q 76.7 9 75 8.05 73.3 7 71.6 7 L 28.35 7 Q 26.7 7 25 8.05 23.3 9 22.45 10.45 L 0.8 48.1 Q 0.3 49.05 0.1 50.3 1.95 52.85 4.55 55.25 L 3.5 53.4 Q 3.05 52.7 3.05 51.55 3.05 50.4 3.5 49.65 L 25.1 12 Q 25.5 11.25 26.5 10.65 27.5 10.1 28.35 10.1 L 71.6 10.1 Q 72.45 10.1 73.5 10.65 74.45 11.25 74.9 12 L 96.5 49.65 Q 96.9 50.4 96.9 51.55 96.9 52.7 96.5 53.4 Z"></path>
</g><g id="gloss-right">
<path fill="url(#Gradient_2)" stroke="none" d=" M 99.15 55 Q 100 53.5 100 51.55 100 49.6 99.15 48.1 L 77.55 10.45 Q 76.7 9 75 8.05 73.3 7 71.6 7 L 28.35 7 Q 26.75 7 25.1 7.95 L 26.65 10.6 Q 27.6 10.1 28.35 10.1 L 71.6 10.1 Q 72.45 10.1 73.5 10.65 74.45 11.25 74.9 12 L 96.5 49.65 Q 96.9 50.4 96.9 51.55 96.9 52.7 96.5 53.4 L 74.9 91.1 Q 74.65 91.5 74.05 92 L 75.65 94.7 Q 76.9 93.7 77.55 92.65 L 99.15 55 Z"></path>
</g><g id="gloss-left">
<path fill="url(#Gradient_3)" stroke="none" d=" M 75.75 13.5 L 77.6 10.55 77.55 10.45 Q 76.7 9 75 8.05 73.3 7 71.6 7 L 28.35 7 Q 26.7 7 25 8.05 23.3 9 22.45 10.45 L 0.8 48.1 Q 0 49.6 0 51.55 0 53.5 0.8 55 L 22.45 92.65 Q 23.2 93.95 24.55 94.85 L 26.2 92.25 Q 25.45 91.65 25.1 91.1 L 3.5 53.4 Q 3.05 52.7 3.05 51.55 3.05 50.4 3.5 49.65 L 25.1 12 Q 25.5 11.25 26.5 10.65 27.5 10.1 28.35 10.1 L 71.6 10.1 Q 72.45 10.1 73.5 10.65 74.45 11.25 74.9 12 L 75.75 13.5 Z"></path>
</g>
			
	<linearGradient id="background-gradient" x1="0" y1="0" y2="1" x2="0" gradientTransform="rotate(90 0.5 0.5)">
		<stop stop-color="#255f18" offset="0%"></stop>
		<stop stop-color="#1d5c0f" offset="100%"></stop>
	</linearGradient>

			
			
			
			
		<linearGradient class="shapgradient" gradientTransform="rotate(0 0.5 0.5)" id="SvgjsLinearGradient1027"><stop stop-color="#3c592e" offset="0"></stop><stop stop-color="#9db21d" offset="1"></stop></linearGradient></defs><use xlink:href="#background" fill="url(#background-gradient)" class="background"></use><g class="geditable"><g mask="url(#mask)" fill="url(#SvgjsLinearGradient1027)" class="editable" transform="matrix(0.9,0,0,0.9,5.000000572204591,0.9999998092651339)"><path d="M128.46382153804882 379.5751563547003H547.0118215380488A8 8 0 0 0 554.0058215380488 367.6901563547003L344.73182153804885 -9.058843645299703A8 8 0 0 0 330.7448215380489 -9.058843645299703L121.47082153804884 367.6871563547003A8 8 0 0 0 128.46382153804882 379.57515635470025ZM337.7378215380488 3.0621563547003348L540.2148215380488 367.5751563547003H135.2608215380488Z " transform="matrix(0.12196646356499422,0,0,0.12196646356499423,8.80731671487783,28.094490753747518)"></path><path d="M117.76680723293406 403.6041449106085H557.7088072329341A26 26 0 0 0 580.4378072329341 364.9821449106085L360.46680723293406 -31.023855089391475A26 26 0 0 0 315.00880723293403 -31.023855089391475L95.03780723293404 364.9821449106085A26 26 0 0 0 117.76680723293404 403.6041449106085ZM105.52780723293407 370.8041449106085L325.4998072329341 -25.1958550893915A14 14 0 0 1 349.9758072329341 -25.1958550893915L569.9478072329341 370.81014491060847A14 14 0 0 1 557.7088072329341 391.60414491060845H117.76680723293411A14 14 0 0 1 105.52780723293411 370.80414491060844Z " transform="matrix(0.12196646356499422,0,0,0.12196646356499423,8.80731671487783,28.094490753747518)"></path><path d="M432.88086349971866 232.1041334665167L431.9118634997187 223.7661334665167C428.67986349971864 195.9461334665167 412.64086349971865 171.5581334665167 389.00586349971866 158.5281334665167L386.8258634997187 157.3281334665167A8.019 8.019 0 0 0 380.64686349971873 156.6491334665167A8.147 8.147 0 0 0 375.74686349971876 160.6311334665167L344.23786349971874 219.1101334665167A24.009 24.009 0 0 0 329.55886349971865 219.16113346651667L298.0188634997187 160.62413346651667A8.139 8.139 0 0 0 293.12686349971875 156.64813346651667A8.025 8.025 0 0 0 286.94886349971875 157.32713346651667L284.7678634997187 158.52713346651666C261.1328634997187 171.55813346651667 245.0928634997187 195.94513346651667 241.86186349971868 223.76613346651664L240.89486349971867 232.10013346651664A8.414 8.414 0 0 0 242.67786349971865 238.3151334665166A8.077 8.077 0 0 0 248.20386349971866 241.32213346651662L312.32786349971866 247.77613346651663A26.229 26.229 0 0 0 320.4278634997187 263.29713346651664L291.07886349971864 322.76113346651664A8.374 8.374 0 0 0 294.2428634997186 333.6181334665166L296.3848634997187 334.89613346651663A77.9 77.9 0 0 0 372.18486349971863 337.4141334665166L379.3558634997187 333.74713346651663A8.36 8.36 0 0 0 382.98686349971865 322.63813346651665L353.6868634997186 263.1681334665167A26.249 26.249 0 0 0 361.6418634997186 247.7611334665167L425.57786349971855 241.3231334665167A8.082 8.082 0 0 0 431.10586349971857 238.31713346651674A8.419 8.419 0 0 0 432.88086349971854 232.1041334665167ZM313.3058634997187 235.81513346651673L253.24586349971867 229.7701334665167L253.78186349971867 225.15113346651674C256.5088634997187 201.67413346651676 269.74686349971864 181.07413346651674 289.30386349971866 169.75113346651673L319.3788634997187 225.57613346651675A26.176 26.176 0 0 0 313.3058634997186 235.81613346651676ZM336.97686349971866 229.98513346651674C344.1048634997187 229.98513346651674 349.9038634997187 236.23913346651676 349.9038634997187 243.92613346651672S344.1038634997187 257.8671334665167 336.97686349971866 257.8671334665167S324.05086349971873 251.61313346651667 324.05086349971873 243.92613346651672S329.8498634997187 229.98613346651672 336.97686349971866 229.98613346651672ZM370.63086349971866 324.72813346651674L366.71286349971865 326.72813346651674A65.957 65.957 0 0 1 303.32286349971866 325.05513346651674L330.94386349971865 269.09113346651674A24 24 0 0 0 343.19486349971874 269.04713346651675ZM360.64486349971867 235.80413346651676A26.152 26.152 0 0 0 354.44486349971874 225.45013346651677L384.46386349971874 169.7501334665168C404.02186349971873 181.07713346651678 417.2638634997187 201.6771334665168 419.98786349971874 225.15013346651676L420.52486349971866 229.7691334665168Z " transform="matrix(0.12196646356499422,0,0,0.12196646356499423,8.80731671487783,28.094490753747518)"></path></g></g><use xlink:href="#gloss-top" opacity="1" class="background"></use></g></svg>