<svg xmlns="http://www.w3.org/2000/svg" version="1.1" xmlns:xlink="http://www.w3.org/1999/xlink" xmlns:svgjs="http://svgjs.com/svgjs" width="83" height="83" viewBox="0 0 100 100"><g class="wrap" transform="matrix(1,0,0,1,0,0)"><defs class="background">
			<linearGradient id="Gradient_1" gradientUnits="userSpaceOnUse" x1="50" y1="7" x2="50" y2="55.2625" spreadMethod="pad">
<stop offset="0%" stop-color="#FFFFFF" stop-opacity="0.1"></stop>

<stop offset="100%" stop-color="#FFFFFF" stop-opacity="0.7"></stop>
</linearGradient><linearGradient id="Gradient_2" gradientUnits="userSpaceOnUse" x1="100" y1="51" x2="25" y2="50.85" spreadMethod="pad">
<stop offset="0%" stop-color="#FFFFFF" stop-opacity="0.1"></stop>

<stop offset="100%" stop-color="#FFFFFF" stop-opacity="0.7"></stop>
</linearGradient><linearGradient id="Gradient_3" gradientUnits="userSpaceOnUse" x1="0" y1="51" x2="77" y2="51" spreadMethod="pad">
<stop offset="0%" stop-color="#FFFFFF" stop-opacity="0.1"></stop>

<stop offset="100%" stop-color="#FFFFFF" stop-opacity="0.7"></stop>
</linearGradient><g id="background">
<path fill="url(#background-gradient)" stroke="none" d=" M 99.15 55 Q 100 53.5 100 51.55 100 49.6 99.15 48.1 L 77.55 10.45 Q 76.7 9 75 8.05 73.3 7 71.6 7 L 28.35 7 Q 26.7 7 25 8.05 23.3 9 22.45 10.45 L 0.8 48.1 Q 0 49.6 0 51.55 0 53.5 0.8 55 L 22.45 92.65 Q 23.3 94.1 25 95.1 26.7 96.05 28.35 96.05 L 71.6 96.05 Q 73.3 96.05 75 95.05 76.7 94.1 77.55 92.65 L 99.15 55 M 96.5 49.65 Q 96.9 50.4 96.9 51.55 96.9 52.7 96.5 53.4 L 74.9 91.1 Q 74.45 91.85 73.5 92.45 72.45 93 71.6 93 L 28.35 93 Q 27.5 93 26.5 92.45 25.5 91.85 25.1 91.1 L 3.5 53.4 Q 3.05 52.7 3.05 51.55 3.05 50.4 3.5 49.65 L 25.1 12 Q 25.5 11.25 26.5 10.65 27.5 10.1 28.35 10.1 L 71.6 10.1 Q 72.45 10.1 73.5 10.65 74.45 11.25 74.9 12 L 96.5 49.65 Z"></path>
</g><mask id="mask">
<path fill="#FFFFFF" stroke="none" d=" M 96.9 51.55 Q 96.9 50.4 96.5 49.65 L 74.9 12 Q 74.45 11.25 73.5 10.65 72.45 10.1 71.6 10.1 L 28.35 10.1 Q 27.5 10.1 26.5 10.65 25.5 11.25 25.1 12 L 3.5 49.65 Q 3.05 50.4 3.05 51.55 3.05 52.7 3.5 53.4 L 25.1 91.1 Q 25.5 91.85 26.5 92.45 27.5 93 28.35 93 L 71.6 93 Q 72.45 93 73.5 92.45 74.45 91.85 74.9 91.1 L 96.5 53.4 Q 96.9 52.7 96.9 51.55 Z"></path>
</mask><g id="gloss-top">
<path fill="url(#Gradient_1)" stroke="none" d=" M 96.5 53.4 L 95.45 55.25 Q 98 52.85 99.9 50.3 99.7 49 99.15 48.1 L 77.55 10.45 Q 76.7 9 75 8.05 73.3 7 71.6 7 L 28.35 7 Q 26.7 7 25 8.05 23.3 9 22.45 10.45 L 0.8 48.1 Q 0.3 49.05 0.1 50.3 1.95 52.85 4.55 55.25 L 3.5 53.4 Q 3.05 52.7 3.05 51.55 3.05 50.4 3.5 49.65 L 25.1 12 Q 25.5 11.25 26.5 10.65 27.5 10.1 28.35 10.1 L 71.6 10.1 Q 72.45 10.1 73.5 10.65 74.45 11.25 74.9 12 L 96.5 49.65 Q 96.9 50.4 96.9 51.55 96.9 52.7 96.5 53.4 Z"></path>
</g><g id="gloss-right">
<path fill="url(#Gradient_2)" stroke="none" d=" M 99.15 55 Q 100 53.5 100 51.55 100 49.6 99.15 48.1 L 77.55 10.45 Q 76.7 9 75 8.05 73.3 7 71.6 7 L 28.35 7 Q 26.75 7 25.1 7.95 L 26.65 10.6 Q 27.6 10.1 28.35 10.1 L 71.6 10.1 Q 72.45 10.1 73.5 10.65 74.45 11.25 74.9 12 L 96.5 49.65 Q 96.9 50.4 96.9 51.55 96.9 52.7 96.5 53.4 L 74.9 91.1 Q 74.65 91.5 74.05 92 L 75.65 94.7 Q 76.9 93.7 77.55 92.65 L 99.15 55 Z"></path>
</g><g id="gloss-left">
<path fill="url(#Gradient_3)" stroke="none" d=" M 75.75 13.5 L 77.6 10.55 77.55 10.45 Q 76.7 9 75 8.05 73.3 7 71.6 7 L 28.35 7 Q 26.7 7 25 8.05 23.3 9 22.45 10.45 L 0.8 48.1 Q 0 49.6 0 51.55 0 53.5 0.8 55 L 22.45 92.65 Q 23.2 93.95 24.55 94.85 L 26.2 92.25 Q 25.45 91.65 25.1 91.1 L 3.5 53.4 Q 3.05 52.7 3.05 51.55 3.05 50.4 3.5 49.65 L 25.1 12 Q 25.5 11.25 26.5 10.65 27.5 10.1 28.35 10.1 L 71.6 10.1 Q 72.45 10.1 73.5 10.65 74.45 11.25 74.9 12 L 75.75 13.5 Z"></path>
</g>
			
	<linearGradient id="background-gradient" x1="0" y1="0" y2="1" x2="0" gradientTransform="rotate(90 0.5 0.5)">
		<stop stop-color="#255f18" offset="0%"></stop>
		<stop stop-color="#1d5c0f" offset="100%"></stop>
	</linearGradient>

			
			
			
			
		<linearGradient class="shapgradient" gradientTransform="rotate(0 0.5 0.5)" id="SvgjsLinearGradient1036"><stop stop-color="#3c592e" offset="0"></stop><stop stop-color="#9db21d" offset="1"></stop></linearGradient></defs><use xlink:href="#background" fill="url(#background-gradient)" class="background"></use><g class="geditable"><g mask="url(#mask)" fill="url(#SvgjsLinearGradient1036)" class="editable" transform="matrix(0.9,0,0,0.9,5,8.999999809265134)"><g transform="matrix(0.14778324012318578,0,0,0.14778324012318578,-8.127372359054701e-7,2.386197337355696)">
	<g>
		<g>
			<path d="M186.53336191177516 206.38674725916786C180.93336191177514 200.7867472591679 173.73336191177515 197.58674725916788 165.33336191177514 197.58674725916788C156.93336191177514 197.58674725916788 149.33336191177514 200.7867472591679 144.13336191177515 206.38674725916786C138.53336191177513 211.98674725916788 135.33336191177514 219.18674725916787 135.33336191177514 227.58674725916788V373.1867472591679C135.33336191177514 381.58674725916785 138.53336191177513 389.1867472591679 144.13336191177515 394.38674725916786C149.73336191177515 399.9867472591679 157.33336191177514 403.1867472591679 165.33336191177514 403.1867472591679C173.73336191177515 403.1867472591679 180.93336191177514 399.9867472591679 186.53336191177516 394.38674725916786C192.13336191177513 388.7867472591679 195.33336191177514 381.1867472591679 195.33336191177514 373.1867472591679V227.58674725916788C195.33336191177514 219.18674725916787 192.13336191177513 211.58674725916788 186.53336191177516 206.38674725916786Z "></path>
			<path d="M534.1333628654495 377.1867436828892C533.3333628654494 376.7867436828892 533.3333628654494 376.3867436828892 532.9333628654495 375.9867436828892C530.1333628654495 373.1867436828892 527.3333628654494 371.1867436828892 523.7333628654495 369.9867436828892V314.38674368288923C523.7333628654495 300.7867436828892 518.1333628654495 288.38674368288923 509.33336286544954 279.5867436828892C500.5333628654495 270.7867436828892 488.1333628654495 265.18674368288924 474.5333628654495 265.18674368288924H429.33336286544943C423.7333628654494 251.98674368288926 414.1333628654495 240.38674368288923 402.93336286544945 231.98674368288923C392.5333628654495 224.38674368288923 380.93336286544945 218.7867436828892 368.93336286544945 216.38674368288923V176.38674368288923H385.33336286544943C392.93336286544945 176.38674368288923 399.33336286544943 173.18674368288924 404.5333628654495 168.38674368288923C409.33336286544943 163.58674368288922 412.5333628654495 156.78674368288924 412.5333628654495 149.18674368288924C412.5333628654495 141.98674368288923 409.7333628654494 135.58674368288922 405.33336286544943 130.78674368288924C404.93336286544945 130.38674368288923 404.93336286544945 130.38674368288923 404.5333628654495 129.98674368288923C399.7333628654494 125.18674368288923 392.93336286544945 121.98674368288923 385.33336286544943 121.98674368288923H325.73336286544946C318.1333628654495 121.98674368288923 311.73336286544946 125.18674368288923 306.5333628654495 129.98674368288923C301.73336286544946 134.78674368288924 298.5333628654495 141.58674368288922 298.5333628654495 149.18674368288924C298.5333628654495 156.38674368288923 301.3333628654495 162.78674368288924 305.73336286544946 167.58674368288922C306.1333628654495 167.98674368288923 306.1333628654495 167.98674368288923 306.5333628654495 168.38674368288923C311.3333628654495 173.18674368288924 318.1333628654495 176.38674368288923 325.73336286544946 176.38674368288923H342.1333628654495V215.98674368288926C332.5333628654495 217.18674368288924 324.5333628654495 219.98674368288926 316.93336286544945 223.98674368288926C308.1333628654495 228.78674368288924 300.5333628654495 235.58674368288922 294.1333628654495 243.58674368288922H216.93336286544945V351.98674368288926H294.5333628654495C301.33336286544943 359.98674368288926 310.13336286544944 366.78674368288927 319.7333628654494 371.98674368288926C330.5333628654495 377.5867436828892 342.93336286544945 380.38674368288923 355.7333628654494 380.38674368288923C373.7333628654494 380.38674368288923 390.13336286544944 374.38674368288923 403.33336286544943 364.38674368288923C414.93336286544945 355.5867436828892 424.1333628654495 343.98674368288926 429.7333628654494 330.38674368288923H444.93336286544945V370.38674368288923C441.33336286544943 371.5867436828892 438.1333628654494 373.98674368288926 435.7333628654494 376.38674368288923C430.93336286544945 381.18674368288924 427.7333628654494 387.98674368288926 427.7333628654494 395.5867436828892C427.7333628654494 402.7867436828892 430.5333628654495 409.18674368288924 434.93336286544945 413.9867436828892C434.93336286544945 414.3867436828892 435.33336286544943 414.3867436828892 435.7333628654494 414.7867436828892C440.5333628654495 419.5867436828892 447.33336286544943 422.7867436828892 454.93336286544945 422.7867436828892H514.1333628654494C521.7333628654494 422.7867436828892 528.1333628654494 419.5867436828892 533.3333628654494 414.7867436828892C538.1333628654494 409.9867436828892 541.3333628654494 403.1867436828892 541.3333628654494 395.5867436828892C541.3333628654494 388.3867436828892 538.5333628654495 381.9867436828892 534.1333628654495 377.1867436828892Z "></path>
			<path d="M454.93336286544945 492.3867548885624C454.93336286544945 500.78675488856237 458.13336286544944 507.9867548885624 463.73336286544946 513.5867548885624C468.93336286544945 518.7867548885624 476.5333628654495 522.3867548885623 484.93336286544945 522.3867548885623S499.73336286544946 518.7867548885624 505.33336286544943 513.5867548885624C510.5333628654494 508.3867548885624 514.1333628654495 500.78675488856237 514.1333628654495 492.3867548885624C514.1333628654495 478.78675488856237 496.93336286544945 459.1867548885624 484.5333628654494 444.3867548885624C471.7333628654494 459.1867548885624 454.93336286544945 479.1867548885624 454.93336286544945 492.3867548885624Z "></path>
		</g>
	</g>
</g></g></g><use xlink:href="#gloss-top" opacity="1" class="background"></use></g></svg>