<svg xmlns="http://www.w3.org/2000/svg" version="1.1" xmlns:xlink="http://www.w3.org/1999/xlink" xmlns:svgjs="http://svgjs.com/svgjs" width="83" height="83" viewBox="0 0 100 100"><g class="wrap" transform="matrix(1,0,0,1,0,0)"><defs class="background">
			<linearGradient id="Gradient_1" gradientUnits="userSpaceOnUse" x1="50" y1="7" x2="50" y2="55.2625" spreadMethod="pad">
<stop offset="0%" stop-color="#FFFFFF" stop-opacity="0.1"></stop>

<stop offset="100%" stop-color="#FFFFFF" stop-opacity="0.7"></stop>
</linearGradient><linearGradient id="Gradient_2" gradientUnits="userSpaceOnUse" x1="100" y1="51" x2="25" y2="50.85" spreadMethod="pad">
<stop offset="0%" stop-color="#FFFFFF" stop-opacity="0.1"></stop>

<stop offset="100%" stop-color="#FFFFFF" stop-opacity="0.7"></stop>
</linearGradient><linearGradient id="Gradient_3" gradientUnits="userSpaceOnUse" x1="0" y1="51" x2="77" y2="51" spreadMethod="pad">
<stop offset="0%" stop-color="#FFFFFF" stop-opacity="0.1"></stop>

<stop offset="100%" stop-color="#FFFFFF" stop-opacity="0.7"></stop>
</linearGradient><g id="background">
<path fill="url(#background-gradient)" stroke="none" d=" M 99.15 55 Q 100 53.5 100 51.55 100 49.6 99.15 48.1 L 77.55 10.45 Q 76.7 9 75 8.05 73.3 7 71.6 7 L 28.35 7 Q 26.7 7 25 8.05 23.3 9 22.45 10.45 L 0.8 48.1 Q 0 49.6 0 51.55 0 53.5 0.8 55 L 22.45 92.65 Q 23.3 94.1 25 95.1 26.7 96.05 28.35 96.05 L 71.6 96.05 Q 73.3 96.05 75 95.05 76.7 94.1 77.55 92.65 L 99.15 55 M 96.5 49.65 Q 96.9 50.4 96.9 51.55 96.9 52.7 96.5 53.4 L 74.9 91.1 Q 74.45 91.85 73.5 92.45 72.45 93 71.6 93 L 28.35 93 Q 27.5 93 26.5 92.45 25.5 91.85 25.1 91.1 L 3.5 53.4 Q 3.05 52.7 3.05 51.55 3.05 50.4 3.5 49.65 L 25.1 12 Q 25.5 11.25 26.5 10.65 27.5 10.1 28.35 10.1 L 71.6 10.1 Q 72.45 10.1 73.5 10.65 74.45 11.25 74.9 12 L 96.5 49.65 Z"></path>
</g><mask id="mask">
<path fill="#FFFFFF" stroke="none" d=" M 96.9 51.55 Q 96.9 50.4 96.5 49.65 L 74.9 12 Q 74.45 11.25 73.5 10.65 72.45 10.1 71.6 10.1 L 28.35 10.1 Q 27.5 10.1 26.5 10.65 25.5 11.25 25.1 12 L 3.5 49.65 Q 3.05 50.4 3.05 51.55 3.05 52.7 3.5 53.4 L 25.1 91.1 Q 25.5 91.85 26.5 92.45 27.5 93 28.35 93 L 71.6 93 Q 72.45 93 73.5 92.45 74.45 91.85 74.9 91.1 L 96.5 53.4 Q 96.9 52.7 96.9 51.55 Z"></path>
</mask><g id="gloss-top">
<path fill="url(#Gradient_1)" stroke="none" d=" M 96.5 53.4 L 95.45 55.25 Q 98 52.85 99.9 50.3 99.7 49 99.15 48.1 L 77.55 10.45 Q 76.7 9 75 8.05 73.3 7 71.6 7 L 28.35 7 Q 26.7 7 25 8.05 23.3 9 22.45 10.45 L 0.8 48.1 Q 0.3 49.05 0.1 50.3 1.95 52.85 4.55 55.25 L 3.5 53.4 Q 3.05 52.7 3.05 51.55 3.05 50.4 3.5 49.65 L 25.1 12 Q 25.5 11.25 26.5 10.65 27.5 10.1 28.35 10.1 L 71.6 10.1 Q 72.45 10.1 73.5 10.65 74.45 11.25 74.9 12 L 96.5 49.65 Q 96.9 50.4 96.9 51.55 96.9 52.7 96.5 53.4 Z"></path>
</g><g id="gloss-right">
<path fill="url(#Gradient_2)" stroke="none" d=" M 99.15 55 Q 100 53.5 100 51.55 100 49.6 99.15 48.1 L 77.55 10.45 Q 76.7 9 75 8.05 73.3 7 71.6 7 L 28.35 7 Q 26.75 7 25.1 7.95 L 26.65 10.6 Q 27.6 10.1 28.35 10.1 L 71.6 10.1 Q 72.45 10.1 73.5 10.65 74.45 11.25 74.9 12 L 96.5 49.65 Q 96.9 50.4 96.9 51.55 96.9 52.7 96.5 53.4 L 74.9 91.1 Q 74.65 91.5 74.05 92 L 75.65 94.7 Q 76.9 93.7 77.55 92.65 L 99.15 55 Z"></path>
</g><g id="gloss-left">
<path fill="url(#Gradient_3)" stroke="none" d=" M 75.75 13.5 L 77.6 10.55 77.55 10.45 Q 76.7 9 75 8.05 73.3 7 71.6 7 L 28.35 7 Q 26.7 7 25 8.05 23.3 9 22.45 10.45 L 0.8 48.1 Q 0 49.6 0 51.55 0 53.5 0.8 55 L 22.45 92.65 Q 23.2 93.95 24.55 94.85 L 26.2 92.25 Q 25.45 91.65 25.1 91.1 L 3.5 53.4 Q 3.05 52.7 3.05 51.55 3.05 50.4 3.5 49.65 L 25.1 12 Q 25.5 11.25 26.5 10.65 27.5 10.1 28.35 10.1 L 71.6 10.1 Q 72.45 10.1 73.5 10.65 74.45 11.25 74.9 12 L 75.75 13.5 Z"></path>
</g>
			
	<linearGradient id="background-gradient" x1="0" y1="0" y2="1" x2="0" gradientTransform="rotate(90 0.5 0.5)">
		<stop stop-color="#255f18" offset="0%"></stop>
		<stop stop-color="#1d5c0f" offset="100%"></stop>
	</linearGradient>

			
			
			
			
		<linearGradient class="shapgradient" gradientTransform="rotate(0 0.5 0.5)" id="SvgjsLinearGradient1033"><stop stop-color="#3c592e" offset="0"></stop><stop stop-color="#9db21d" offset="1"></stop></linearGradient></defs><use xlink:href="#background" fill="url(#background-gradient)" class="background"></use><g class="geditable"><g mask="url(#mask)" fill="url(#SvgjsLinearGradient1033)" class="editable" transform="matrix(0.8,0,0,0.8,9.999999618530268,10.000000190734859)"><path d="M74.76923425004739 482.5848053239422C78.91223425004736 482.5848053239422 82.26923425004739 479.2268053239422 82.26923425004739 475.0848053239422V459.1548053239422C95.56523425004738 462.2748053239422 111.20323425004742 452.7098053239422 121.07723425004738 442.8368053239422C139.27723425004737 424.6358053239422 149.26323425004736 401.7478053239422 153.5962342500474 389.7238053239422C155.28423425004738 385.0398053239422 154.14523425004737 379.9428053239422 150.6242342500474 376.4218053239422C147.3502342500474 373.1498053239422 142.71723425004743 371.93980532394215 138.31823425004742 373.1398053239422C146.0112342500474 360.9888053239422 150.89923425004744 349.2968053239422 153.59623425004744 341.81380532394223C155.28423425004743 337.1298053239422 154.14523425004742 332.03280532394217 150.62423425004746 328.5128053239422C147.34523425004747 325.2338053239422 142.69923425004745 324.0238053239422 138.29323425004745 325.23580532394226C146.00123425004747 313.07080532394224 150.89723425004743 301.36080532394226 153.59623425004744 293.86880532394224C155.28423425004743 289.1848053239422 154.14523425004742 284.0888053239422 150.62423425004746 280.56780532394225C147.10323425004745 277.04780532394227 142.00923425004746 275.90680532394225 137.32323425004748 277.5958053239423H137.3222342500475C128.6112342500475 280.7348053239423 114.1972342500475 286.84480532394224 99.9952342500475 296.8918053239422C100.5242342500475 293.52280532394224 100.83823425004752 289.7998053239422 100.83823425004752 285.68880532394223C100.83823425004752 259.94580532394224 91.7142342500475 236.70180532394224 86.27523425004753 225.13680532394224C84.15723425004754 220.63180532394225 79.74823425004755 217.83280532394224 74.76823425004753 217.83280532394224C69.78923425004751 217.83280532394224 65.37923425004752 220.63180532394225 63.26123425004752 225.13680532394224C57.823234250047534 236.70180532394224 48.698234250047534 259.9488053239422 48.698234250047534 285.68880532394223C48.698234250047534 289.7998053239422 49.01323425004753 293.52280532394224 49.54223425004753 296.8918053239422C35.34023425004753 286.8438053239422 20.926234250047543 280.7348053239422 12.21523425004753 277.5958053239423C7.529234250047523 275.90880532394226 2.434234250047524 277.04780532394227 -1.0867657499524626 280.56880532394223S-5.746765749952459 289.18580532394225 -4.058765749952471 293.8698053239423C-1.3597657499524587 301.36180532394224 3.536234250047528 313.07080532394224 11.244234250047526 325.23580532394226C6.836234250047539 324.02380532394227 2.192234250047534 325.23380532394225 -1.0867657499524626 328.51280532394225C-4.607765749952449 332.03380532394226 -5.746765749952459 337.13080532394224 -4.058765749952471 341.81380532394223C-1.362765749952473 349.29680532394224 3.525234250047532 360.98880532394224 11.21923425004752 373.13980532394226C6.82023425004752 371.93980532394227 2.1862342500475336 373.14980532394225 -1.0857657499524862 376.42280532394227C-4.606765749952473 379.9438053239423 -5.745765749952483 385.04080532394227 -4.057765749952495 389.7248053239423C0.2752342500475038 401.7488053239423 10.261234250047494 424.6378053239423 28.462234250047516 442.8378053239423C38.343234250047516 452.7188053239423 54.01723425004752 462.26680532394226 67.2692342500475 459.1558053239423V475.0858053239423C67.2692342500475 479.2268053239423 70.62723425004751 482.5848053239423 74.7692342500475 482.5848053239423ZM110.47023425004741 432.2298053239422C101.88523425004743 440.8128053239422 94.4032342500474 443.6758053239422 89.63723425004744 444.5658053239422C84.05523425004745 445.60280532394216 81.43923425004746 442.9748053239422 82.47923425004743 437.4088053239422C83.37023425004745 432.6418053239422 86.23223425004741 425.1588053239422 94.81623425004742 416.5758053239422C108.84623425004739 402.54480532394217 126.25323425004743 393.93480532394216 137.68823425004743 389.35780532394216C133.11023425004745 400.79280532394216 124.49923425004741 418.19980532394214 110.47023425004741 432.2298053239422ZM110.47023425004741 384.3208053239422C101.88523425004743 392.9048053239422 94.4032342500474 395.7668053239422 89.63723425004744 396.6568053239422C84.05623425004742 397.6958053239422 81.43923425004746 395.0668053239422 82.47923425004743 389.4998053239422C83.37023425004745 384.7328053239422 86.23223425004741 377.2498053239422 94.81623425004742 368.6668053239422C108.84423425004744 354.6378053239422 126.25323425004743 346.0268053239422 137.68823425004743 341.4478053239422C133.11023425004745 352.8828053239422 124.49923425004741 370.2908053239422 110.47023425004741 384.3208053239422ZM94.81623425004742 320.7218053239422C108.84523425004741 306.69180532394216 126.25323425004743 298.0818053239422 137.68823425004743 293.5028053239422C133.11023425004745 304.93880532394223 124.50023425004744 322.34580532394216 110.47023425004741 336.3758053239422C101.88523425004743 344.9598053239422 94.4032342500474 347.82180532394216 89.63623425004741 348.7118053239422C84.06823425004742 349.7528053239422 81.43823425004743 347.1278053239422 82.47923425004743 341.5548053239422C83.37023425004745 336.7888053239422 86.23223425004741 329.3048053239422 94.81623425004742 320.7218053239422ZM74.76923425004739 236.1258053239422C79.61823425004738 247.4478053239422 85.8382342500474 265.8428053239422 85.8382342500474 285.6888053239422C85.8382342500474 297.8278053239422 82.57023425004743 305.14380532394216 79.83023425004743 309.1428053239422C76.62723425004745 313.81680532394216 72.91323425004742 313.8198053239422 69.70723425004743 309.1428053239422C66.96623425004742 305.1428053239422 63.699234250047425 297.8278053239422 63.699234250047425 285.6888053239422C63.70023425004743 265.8448053239422 69.92023425004743 247.44980532394217 74.76923425004745 236.1258053239422ZM54.7232342500474 320.7218053239422C63.306234250047396 329.3048053239422 66.1692342500474 336.7888053239422 67.05923425004741 341.5548053239422C68.0982342500474 347.12480532394216 65.47523425004741 349.7528053239422 59.90123425004742 348.7118053239422C55.13523425004743 347.8218053239422 47.65223425004743 344.9598053239422 39.068234250047425 336.3758053239422C25.03723425004742 322.3448053239422 16.427234250047434 304.9378053239422 11.84923425004743 293.5018053239422C23.285234250047438 298.0808053239422 40.691234250047415 306.6908053239422 54.723234250047426 320.7218053239422ZM54.7232342500474 368.6668053239422C63.306234250047396 377.2498053239422 66.1692342500474 384.7338053239422 67.05923425004741 389.49980532394216C68.0932342500474 395.03880532394214 65.50723425004742 397.70180532394215 59.90123425004742 396.65680532394214C55.13523425004743 395.76680532394215 47.65223425004743 392.9048053239421 39.068234250047425 384.3208053239421C25.03723425004742 370.2898053239421 16.427234250047434 352.88280532394214 11.84923425004743 341.44780532394213C23.285234250047438 346.0258053239421 40.691234250047415 354.6358053239421 54.723234250047426 368.6668053239421ZM59.9022342500474 444.56680532394216C55.135234250047404 443.6768053239422 47.6522342500474 440.8138053239422 39.0692342500474 432.23080532394215C25.038234250047395 418.19980532394214 16.42823425004741 400.79280532394216 11.850234250047407 389.35780532394216C23.28523425004741 393.93580532394213 40.691234250047415 402.54480532394217 54.7232342500474 416.57680532394215C63.306234250047396 425.1598053239422 66.1692342500474 432.64380532394216 67.05923425004741 437.4098053239421C68.0992342500474 442.97880532394214 65.47623425004741 445.6048053239421 59.9022342500474 444.5668053239421Z " transform="matrix(0.14277181729291394,0,0,0.14277181729291394,39.32503549548314,0.000047415957066546436)"></path><path d="M-125.52274667646628 235.13185300765807C-126.1497466764663 239.22585300765806 -123.33874667646629 243.05285300765806 -119.24374667646629 243.67985300765807C-118.85974667646629 243.73885300765807 -118.47674667646629 243.76685300765806 -118.09974667646628 243.76685300765806C-114.45874667646629 243.76685300765806 -111.26374667646628 241.11085300765805 -110.69574667646629 237.40085300765807C-108.10274667646628 220.46685300765807 -104.84974667646628 203.36085300765808 -101.01574667646628 186.38085300765806C-96.38474667646628 186.89085300765808 -92.68974667646629 183.25285300765808 -92.68974667646629 178.94485300765805C-92.68974667646629 176.18185300765805 -93.63874667646628 174.81285300765805 -97.63174667646629 169.04985300765807C-104.9177466764663 158.53285300765808 -126.02274667646628 127.65985300765806 -119.06274667646629 116.56885300765806C-115.30574667646628 110.58485300765807 -87.73474667646629 117.98085300765806 -62.33074667646629 131.78785300765807C-58.691746676466295 133.76885300765807 -54.13774667646629 132.42385300765807 -52.15874667646628 128.78585300765806C-51.445746676466285 127.47685300765806 -51.17074667646628 126.04985300765806 -51.270746676466274 124.66585300765806C-25.328746676466267 116.21585300765807 9.98225332353374 109.20885300765806 74.76925332353372 109.20885300765806C115.37525332353371 109.20885300765806 158.5252533235337 111.20385300765807 200.84325332353373 124.73685300765806C200.48325332353372 130.55985300765806 206.70025332353376 134.60985300765805 211.90525332353374 131.78185300765807C237.29525332353373 117.98285300765806 264.84825332353375 110.59085300765807 268.6002533235337 116.56985300765807C275.5522533235337 127.64885300765806 254.38425332353373 158.62085300765807 247.18225332353373 169.01385300765807C243.19125332353374 174.77485300765807 242.2432533235337 176.14285300765806 242.2432533235337 178.90585300765807C242.2432533235337 183.23085300765806 245.9452533235337 186.83585300765805 250.54725332353368 186.34385300765805C270.3222533235337 273.699853007658 273.8132533235337 360.4178530076581 261.2152533235337 450.9778530076581C260.64525332353367 455.0808530076581 263.5082533235337 458.8688530076581 267.6112533235337 459.4398530076581C267.9622533235337 459.4878530076581 268.30925332353365 459.5118530076581 268.6542533235337 459.5118530076581C272.33825332353376 459.5118530076581 275.55025332353375 456.7958530076581 276.07325332353366 453.0438530076581C289.4172533235337 357.11485300765804 285.06425332353365 265.396853007658 262.7832533235337 172.77285300765803C278.3372533235337 149.68885300765803 291.4842533235337 124.81085300765804 281.3072533235337 108.59485300765803C269.7772533235337 90.22585300765803 234.38225332353366 104.33285300765803 214.7152533235337 113.60785300765804C167.45125332353368 96.59985300765804 119.55925332353368 94.20885300765804 74.76925332353369 94.20885300765804C29.983253323533688 94.20885300765804 -17.903746676466312 96.59885300765804 -65.16074667646632 113.60485300765804C-84.90374667646631 104.29685300765803 -120.24874667646631 90.24085300765803 -131.7667466764663 108.59585300765804C-141.9457466764663 124.81485300765803 -128.8027466764663 149.69385300765805 -113.24674667646632 172.78485300765803C-118.21774667646632 193.46785300765802 -122.35174667646632 214.42285300765803 -125.52274667646631 235.13185300765804Z " transform="matrix(0.14277181729291394,0,0,0.14277181729291394,39.32503549548314,0.000047415957066546436)"></path><path d="M270.43328002641454 488.0488129533367C271.17828002641454 483.97381295333673 268.4782800264146 480.0678129533367 264.40428002641454 479.32181295333675C260.33628002641456 478.58081295333676 256.4242800264145 481.27581295333675 255.6772800264146 485.35081295333674C253.94928002641458 494.8038129533367 252.0132800264146 504.39181295333674 249.91828002641458 513.9858129533368C249.85428002641456 513.9838129533367 249.7922800264146 513.9708129533367 249.72828002641458 513.9708129533367C245.5852800264146 513.9708129533367 242.22828002641458 517.3288129533368 242.22828002641458 521.4708129533367C242.22828002641458 524.2338129533367 243.17628002641456 525.6028129533368 247.16928002641455 531.3658129533367C254.44828002641455 541.8698129533368 275.56228002641456 572.7558129533368 268.60028002641457 583.8468129533367C264.84528002641457 589.8348129533367 237.27328002641454 582.4358129533367 211.8682800264145 568.6288129533367C208.2292800264145 566.6468129533366 203.6762800264145 567.9928129533366 201.6952800264145 571.6308129533368C200.98328002641452 572.9398129533367 200.7072800264145 574.3668129533366 200.8082800264145 575.7508129533367C174.8682800264145 584.2018129533367 139.55528002641452 591.2088129533367 74.76928002641452 591.2088129533367C34.175280026414526 591.2088129533367 -8.960719973585498 589.2148129533367 -51.26671997358548 575.6928129533367C-51.17871997358549 574.3278129533367 -51.45471997358547 572.9238129533367 -52.15671997358547 571.6338129533367C-54.13671997358547 567.9958129533368 -58.68971997358547 566.6498129533368 -62.32771997358546 568.6288129533367C-87.73471997358546 582.4388129533368 -115.30571997358547 589.8348129533367 -119.06171997358547 583.8478129533366C-126.01771997358546 572.7628129533367 -104.83671997358546 541.7658129533368 -97.63071997358546 531.3678129533366C-93.63771997358546 525.6048129533367 -92.68871997358545 524.2358129533367 -92.68871997358545 521.4728129533366C-92.68871997358545 517.3308129533367 -96.04671997358545 513.9728129533366 -100.18871997358545 513.9728129533366C-100.25471997358545 513.9728129533366 -100.31771997358545 513.9858129533367 -100.38371997358544 513.9878129533367C-118.58971997358545 430.73381295333667 -123.41671997358544 351.3918129533367 -115.12771997358544 271.8678129533367C-114.69771997358544 267.7478129533367 -117.68971997358544 264.0598129533367 -121.80971997358544 263.63081295333666C-125.91971997358544 263.1988129533367 -129.61671997358545 266.19281295333667 -130.04671997358545 270.3128129533367C-138.83071997358545 354.5808129533367 -133.19271997358544 438.5908129533367 -112.83171997358545 527.0188129533367C-128.56671997358546 550.2818129533366 -142.03471997358545 575.4578129533368 -131.76571997358545 591.8208129533367C-120.22171997358545 610.2168129533367 -84.80371997358544 596.0738129533368 -65.15971997358545 586.8128129533368C-17.904719973585458 603.8188129533368 29.983280026414548 606.2088129533367 74.76928002641455 606.2088129533367C119.55428002641455 606.2088129533367 167.44228002641458 603.8188129533368 214.70028002641456 586.8128129533368C234.43628002641455 596.1168129533366 269.78328002641456 610.1808129533367 281.3052800264146 591.8208129533367C291.5752800264146 575.4568129533368 278.1042800264146 550.2768129533367 262.3672800264146 527.0128129533367C265.3642800264146 513.9898129533367 268.0832800264146 500.8998129533367 270.43328002641454 488.0488129533367Z " transform="matrix(0.14277181729291394,0,0,0.14277181729291394,39.32503549548314,0.000047415957066546436)"></path></g></g><use xlink:href="#gloss-top" opacity="1" class="background"></use></g></svg>