<svg xmlns="http://www.w3.org/2000/svg" version="1.1" xmlns:xlink="http://www.w3.org/1999/xlink" xmlns:svgjs="http://svgjs.com/svgjs" width="83" height="83" viewBox="0 0 100 100"><g class="wrap" transform="matrix(1,0,0,1,0,0)"><defs class="background">
			<linearGradient id="Gradient_1" gradientUnits="userSpaceOnUse" x1="50" y1="7" x2="50" y2="55.2625" spreadMethod="pad">
<stop offset="0%" stop-color="#FFFFFF" stop-opacity="0.1"></stop>

<stop offset="100%" stop-color="#FFFFFF" stop-opacity="0.7"></stop>
</linearGradient><linearGradient id="Gradient_2" gradientUnits="userSpaceOnUse" x1="100" y1="51" x2="25" y2="50.85" spreadMethod="pad">
<stop offset="0%" stop-color="#FFFFFF" stop-opacity="0.1"></stop>

<stop offset="100%" stop-color="#FFFFFF" stop-opacity="0.7"></stop>
</linearGradient><linearGradient id="Gradient_3" gradientUnits="userSpaceOnUse" x1="0" y1="51" x2="77" y2="51" spreadMethod="pad">
<stop offset="0%" stop-color="#FFFFFF" stop-opacity="0.1"></stop>

<stop offset="100%" stop-color="#FFFFFF" stop-opacity="0.7"></stop>
</linearGradient><g id="background">
<path fill="url(#background-gradient)" stroke="none" d=" M 99.15 55 Q 100 53.5 100 51.55 100 49.6 99.15 48.1 L 77.55 10.45 Q 76.7 9 75 8.05 73.3 7 71.6 7 L 28.35 7 Q 26.7 7 25 8.05 23.3 9 22.45 10.45 L 0.8 48.1 Q 0 49.6 0 51.55 0 53.5 0.8 55 L 22.45 92.65 Q 23.3 94.1 25 95.1 26.7 96.05 28.35 96.05 L 71.6 96.05 Q 73.3 96.05 75 95.05 76.7 94.1 77.55 92.65 L 99.15 55 M 96.5 49.65 Q 96.9 50.4 96.9 51.55 96.9 52.7 96.5 53.4 L 74.9 91.1 Q 74.45 91.85 73.5 92.45 72.45 93 71.6 93 L 28.35 93 Q 27.5 93 26.5 92.45 25.5 91.85 25.1 91.1 L 3.5 53.4 Q 3.05 52.7 3.05 51.55 3.05 50.4 3.5 49.65 L 25.1 12 Q 25.5 11.25 26.5 10.65 27.5 10.1 28.35 10.1 L 71.6 10.1 Q 72.45 10.1 73.5 10.65 74.45 11.25 74.9 12 L 96.5 49.65 Z"></path>
</g><mask id="mask">
<path fill="#FFFFFF" stroke="none" d=" M 96.9 51.55 Q 96.9 50.4 96.5 49.65 L 74.9 12 Q 74.45 11.25 73.5 10.65 72.45 10.1 71.6 10.1 L 28.35 10.1 Q 27.5 10.1 26.5 10.65 25.5 11.25 25.1 12 L 3.5 49.65 Q 3.05 50.4 3.05 51.55 3.05 52.7 3.5 53.4 L 25.1 91.1 Q 25.5 91.85 26.5 92.45 27.5 93 28.35 93 L 71.6 93 Q 72.45 93 73.5 92.45 74.45 91.85 74.9 91.1 L 96.5 53.4 Q 96.9 52.7 96.9 51.55 Z"></path>
</mask><g id="gloss-top">
<path fill="url(#Gradient_1)" stroke="none" d=" M 96.5 53.4 L 95.45 55.25 Q 98 52.85 99.9 50.3 99.7 49 99.15 48.1 L 77.55 10.45 Q 76.7 9 75 8.05 73.3 7 71.6 7 L 28.35 7 Q 26.7 7 25 8.05 23.3 9 22.45 10.45 L 0.8 48.1 Q 0.3 49.05 0.1 50.3 1.95 52.85 4.55 55.25 L 3.5 53.4 Q 3.05 52.7 3.05 51.55 3.05 50.4 3.5 49.65 L 25.1 12 Q 25.5 11.25 26.5 10.65 27.5 10.1 28.35 10.1 L 71.6 10.1 Q 72.45 10.1 73.5 10.65 74.45 11.25 74.9 12 L 96.5 49.65 Q 96.9 50.4 96.9 51.55 96.9 52.7 96.5 53.4 Z"></path>
</g><g id="gloss-right">
<path fill="url(#Gradient_2)" stroke="none" d=" M 99.15 55 Q 100 53.5 100 51.55 100 49.6 99.15 48.1 L 77.55 10.45 Q 76.7 9 75 8.05 73.3 7 71.6 7 L 28.35 7 Q 26.75 7 25.1 7.95 L 26.65 10.6 Q 27.6 10.1 28.35 10.1 L 71.6 10.1 Q 72.45 10.1 73.5 10.65 74.45 11.25 74.9 12 L 96.5 49.65 Q 96.9 50.4 96.9 51.55 96.9 52.7 96.5 53.4 L 74.9 91.1 Q 74.65 91.5 74.05 92 L 75.65 94.7 Q 76.9 93.7 77.55 92.65 L 99.15 55 Z"></path>
</g><g id="gloss-left">
<path fill="url(#Gradient_3)" stroke="none" d=" M 75.75 13.5 L 77.6 10.55 77.55 10.45 Q 76.7 9 75 8.05 73.3 7 71.6 7 L 28.35 7 Q 26.7 7 25 8.05 23.3 9 22.45 10.45 L 0.8 48.1 Q 0 49.6 0 51.55 0 53.5 0.8 55 L 22.45 92.65 Q 23.2 93.95 24.55 94.85 L 26.2 92.25 Q 25.45 91.65 25.1 91.1 L 3.5 53.4 Q 3.05 52.7 3.05 51.55 3.05 50.4 3.5 49.65 L 25.1 12 Q 25.5 11.25 26.5 10.65 27.5 10.1 28.35 10.1 L 71.6 10.1 Q 72.45 10.1 73.5 10.65 74.45 11.25 74.9 12 L 75.75 13.5 Z"></path>
</g>
			
	<linearGradient id="background-gradient" x1="0" y1="0" y2="1" x2="0" gradientTransform="rotate(90 0.5 0.5)">
		<stop stop-color="#255f18" offset="0%"></stop>
		<stop stop-color="#1d5c0f" offset="100%"></stop>
	</linearGradient>

			
			
			
			
		<linearGradient class="shapgradient" gradientTransform="rotate(0 0.5 0.5)" id="SvgjsLinearGradient1034"><stop stop-color="#3c592e" offset="0"></stop><stop stop-color="#9db21d" offset="1"></stop></linearGradient></defs><use xlink:href="#background" fill="url(#background-gradient)" class="background"></use><g class="geditable"><g mask="url(#mask)" fill="url(#SvgjsLinearGradient1034)" class="editable" transform="matrix(0.9,0,0,0.9,4.999999618530275,5.000000381469725)"><g transform="matrix(0.12781791771760553,0,0,0.12781791771760553,18.57004325854733,0)">
	<g>
		<path d="M144.0659741883203 464.0134702721409L137.3059741883203 388.2114702721409C136.7999741883203 382.55447027214086 132.13597418832032 378.2894702721409 126.45697418832032 378.2894702721409H29.0589741883203C23.3809741883203 378.2894702721409 18.7169741883203 382.55447027214086 18.208974188320298 388.21347027214085L11.448974188320301 464.01247027214094C9.792974188320303 482.5764702721409 16.0579741883203 501.1094702721409 28.6379741883203 514.8604702721409C39.516974188320305 526.7534702721409 54.37897418832031 534.247470272141 70.2519741883203 536.059470272141V607.443470272141C66.5249741883203 608.367470272141 62.9859741883203 609.971470272141 59.78897418832031 612.231470272141L42.379974188320304 624.5414702721409C37.927974188320306 627.689470272141 36.045974188320315 633.2964702721409 37.69697418832031 638.492470272141S44.1229741883203 647.1814702721409 49.57497418832031 647.1814702721409H105.93997418832032C111.39297418832032 647.1814702721409 116.16597418832032 643.6894702721409 117.81797418832032 638.4934702721409C119.46997418832032 633.2974702721409 117.58697418832033 627.6904702721409 113.13497418832031 624.5424702721409L95.72597418832031 612.2314702721409C92.52997418832031 609.9714702721409 88.9899741883203 608.3684702721409 85.26297418832031 607.444470272141V536.060470272141C101.13597418832032 534.2484702721409 115.99797418832031 526.7534702721409 126.8769741883203 514.8614702721409C139.45697418832032 501.1094702721409 145.7219741883203 482.5764702721409 144.0659741883203 464.0134702721409ZM32.82697418832031 393.30147027214093H122.68797418832031L127.73497418832031 449.8884702721409H27.7809741883203L32.82697418832031 393.30147027214093ZM87.0589741883203 624.488470272141L97.91997418832031 632.1694702721409H57.59497418832031L68.45597418832031 624.4894702721409C71.19197418832032 622.5554702721408 74.40797418832031 621.5324702721409 77.7579741883203 621.5324702721409S84.3239741883203 622.5544702721409 87.0589741883203 624.488470272141ZM115.80197418832032 504.72847027214095C105.91597418832032 515.535470272141 92.40497418832032 521.487470272141 77.75797418832032 521.487470272141C63.11097418832031 521.487470272141 49.59997418832032 515.535470272141 39.71397418832032 504.72847027214095S25.09997418832031 479.93547027214095 26.401974188320317 465.3464702721409L26.441974188320316 464.90047027214086H129.07397418832034L129.11397418832033 465.3464702721409C130.41497418832031 479.93547027214095 125.68797418832031 493.92147027214094 115.80197418832032 504.72847027214095Z "></path>
	</g>
</g><g transform="matrix(0.12781791771760553,0,0,0.12781791771760553,18.57004325854733,0)">
	<g>
		<path d="M480.34394557809065 464.01247027214094L473.58294557809063 388.2114702721409C473.07694557809066 382.5544702721409 468.4129455780906 378.28947027214093 462.73394557809064 378.28947027214093H365.3359455780907C359.6579455780907 378.28947027214093 354.9939455780907 382.5544702721409 354.48594557809065 388.21347027214097L347.72594557809066 464.01247027214094C346.06994557809065 482.5764702721409 352.33494557809064 501.1094702721409 364.9149455780907 514.8604702721409C375.7939455780907 526.7534702721409 390.65594557809067 534.247470272141 406.52894557809066 536.059470272141V607.443470272141C402.8019455780907 608.367470272141 399.26294557809064 609.971470272141 396.06594557809063 612.231470272141L378.65694557809064 624.5414702721409C374.20494557809064 627.689470272141 372.32294557809064 633.2964702721409 373.97394557809065 638.492470272141C375.62594557809064 643.689470272141 380.39894557809066 647.180470272141 385.85194557809064 647.180470272141H442.21694557809064C447.6699455780906 647.180470272141 452.44294557809064 643.688470272141 454.09494557809063 638.492470272141C455.7469455780906 633.295470272141 453.86394557809064 627.689470272141 449.41194557809064 624.5414702721409L432.00294557809065 612.230470272141C428.8069455780906 609.970470272141 425.26694557809066 608.367470272141 421.5399455780906 607.443470272141V536.059470272141C437.4129455780906 534.247470272141 452.27494557809064 526.752470272141 463.1539455780906 514.860470272141C475.7339455780907 501.1094702721409 481.9989455780907 482.57547027214093 480.34394557809065 464.01247027214094ZM369.1039455780907 393.30147027214093H458.9649455780907L464.0119455780907 449.8884702721409H364.0579455780907L369.1039455780907 393.30147027214093ZM423.3359455780907 624.488470272141L434.19694557809066 632.1694702721409H393.87094557809064L404.73194557809063 624.4894702721409C407.4679455780906 622.5554702721408 410.68394557809063 621.5324702721409 414.03394557809065 621.5324702721409C417.3839455780907 621.5324702721409 420.5999455780907 622.5544702721409 423.3359455780907 624.488470272141ZM452.0779455780907 504.72847027214095C442.19194557809067 515.535470272141 428.6809455780907 521.487470272141 414.0339455780907 521.487470272141C399.3869455780907 521.487470272141 385.8759455780907 515.535470272141 375.9899455780907 504.72847027214095C366.1039455780907 493.92147027214094 361.37594557809075 479.93547027214095 362.6779455780907 465.3464702721409L362.71794557809073 464.90047027214086H465.34994557809074L465.38994557809076 465.3464702721409C466.69194557809067 479.93547027214095 461.96394557809066 493.92147027214094 452.0779455780907 504.72847027214095Z "></path>
	</g>
</g><g transform="matrix(0.12781791771760553,0,0,0.12781791771760553,18.57004325854733,0)">
	<g>
		<path d="M297.0449913544579 325.1624702721409C283.859991354458 309.2014702721409 276.59699135445794 289.00947027214096 276.59699135445794 268.304470272141V230.86847027214094H277.604991354458C285.536991354458 230.86847027214094 291.98999135445797 224.41547027214096 291.98999135445797 216.48347027214095V205.77747027214096C291.98999135445797 198.97047027214097 287.2329913544579 193.26547027214096 280.87099135445794 191.78047027214097V152.57347027214095C280.87099135445794 142.98347027214095 273.069991354458 135.18147027214096 263.479991354458 135.18147027214096H228.31199135445794C218.72199135445794 135.18147027214096 210.91999135445795 142.98347027214095 210.91999135445795 152.57347027214095V191.78147027214095C204.55899135445796 193.26647027214096 199.80199135445795 198.97147027214095 199.80199135445795 205.77747027214096V216.48347027214095C199.80199135445795 224.41547027214096 206.25499135445796 230.86847027214097 214.18699135445794 230.86847027214097H215.19499135445795V268.304470272141C215.19499135445795 289.008470272141 207.93199135445795 309.20147027214097 194.74499135445797 325.163470272141C179.33999135445796 343.80947027214097 170.85599135445796 367.397470272141 170.85599135445796 391.58347027214097C170.85599135445796 395.72847027214095 174.21599135445797 399.08947027214094 178.36199135445796 399.08947027214094S185.86799135445796 395.72847027214095 185.86799135445796 391.58347027214097C185.86799135445796 370.879470272141 193.13099135445796 350.68647027214104 206.31799135445794 334.724470272141C221.72299135445795 316.078470272141 230.20699135445795 292.490470272141 230.20699135445795 268.304470272141V230.86847027214094H261.5839913544579V268.304470272141C261.5839913544579 292.491470272141 270.06799135445794 316.08047027214093 285.4729913544579 334.72447027214093C298.6609913544579 350.6864702721409 305.92299135445796 370.87947027214096 305.92299135445796 391.58347027214097V423.722470272141H235.27299135445793C226.03399135445792 423.722470272141 218.51699135445793 431.2394702721409 218.51699135445793 440.47847027214095V518.7244702721409C218.51699135445793 527.963470272141 226.03399135445792 535.4804702721409 235.27299135445793 535.4804702721409H305.92299135445796V565.458470272141C305.92299135445796 569.603470272141 309.282991354458 572.9644702721409 313.42899135445793 572.9644702721409C317.574991354458 572.9644702721409 320.9349913544579 569.603470272141 320.9349913544579 565.458470272141V391.58347027214097C320.9349913544579 367.39747027214094 312.450991354458 343.808470272141 297.0449913544579 325.1624702721409ZM228.31199135445794 150.19447027214096H263.479991354458C264.791991354458 150.19447027214096 265.858991354458 151.26147027214097 265.858991354458 152.57347027214095V191.39247027214094H225.93299135445798V152.57347027214095H225.93199135445798C225.93199135445795 151.26147027214097 226.99899135445796 150.19447027214096 228.31199135445794 150.19447027214096ZM214.81499135445796 215.85547027214096V206.40447027214097H276.97699135445794V215.85547027214096H214.81499135445796ZM305.92399135445794 520.467470272141H235.27399135445796C234.31199135445797 520.467470272141 233.52999135445796 519.685470272141 233.52999135445796 518.723470272141V440.477470272141C233.52999135445796 439.51647027214096 234.31199135445797 438.73347027214095 235.27399135445796 438.73347027214095H305.92399135445794V520.467470272141Z "></path>
	</g>
</g><g transform="matrix(0.12781791771760553,0,0,0.12781791771760553,18.57004325854733,0)">
	<g>
		<path d="M313.42997609566885 592.877470272141C309.2839760956689 592.877470272141 305.9239760956689 596.2384702721408 305.9239760956689 600.3834702721408V618.2364702721409C305.9239760956689 625.5664702721408 299.9609760956689 631.5294702721409 292.63097609566887 631.5294702721409H199.1619760956689C191.8319760956689 631.5294702721409 185.8689760956689 625.5664702721408 185.8689760956689 618.2364702721409V426.57647027214085C185.8689760956689 422.43147027214087 182.50897609566888 419.0704702721409 178.3629760956689 419.0704702721409S170.8569760956689 422.43147027214087 170.8569760956689 426.57647027214085V618.2364702721409C170.8569760956689 633.8444702721408 183.5549760956689 646.5424702721408 199.1619760956689 646.5424702721408H292.63097609566887C308.23897609566893 646.5424702721408 320.93597609566893 633.8444702721408 320.93597609566893 618.2364702721409V600.3834702721408C320.93597609566893 596.2374702721409 317.5759760956689 592.877470272141 313.42997609566885 592.877470272141Z "></path>
	</g>
</g></g></g><use xlink:href="#gloss-top" opacity="1" class="background"></use></g></svg>